  0
SECTION
  2
HEADER
  9
$ACADVER
  1
AC1027
  9
$ACADMAINTVER
 70
   105
  9
$DWGCODEPAGE
  3
ANSI_1252
  9
$REQUIREDVERSIONS
160
                 0
  9
$INSBASE
 10
0.0
 20
0.0
 30
0.0
  9
$EXTMIN
 10
1.000000000000000E+20
 20
1.000000000000000E+20
 30
1.000000000000000E+20
  9
$EXTMAX
 10
-1.000000000000000E+20
 20
-1.000000000000000E+20
 30
-1.000000000000000E+20
  9
$LIMMIN
 10
0.0
 20
0.0
  9
$LIMMAX
 10
12.0
 20
9.0
  9
$ORTHOMODE
 70
     0
  9
$REGENMODE
 70
     1
  9
$FILLMODE
 70
     1
  9
$QTEXTMODE
 70
     0
  9
$MIRRTEXT
 70
     1
  9
$LTSCALE
 40
1.0
  9
$ATTMODE
 70
     1
  9
$TEXTSIZE
 40
0.2
  9
$TRACEWID
 40
0.05
  9
$TEXTSTYLE
  7
Standard
  9
$CLAYER
  8
0
  9
$CELTYPE
  6
ByLayer
  9
$CECOLOR
 62
   178
  9
$CELTSCALE
 40
1.0
  9
$DISPSILH
 70
     0
  9
$DIMSCALE
 40
1.0
  9
$DIMASZ
 40
2.5
  9
$DIMEXO
 40
0.625
  9
$DIMDLI
 40
0.38
  9
$DIMRND
 40
0.0
  9
$DIMDLE
 40
0.0
  9
$DIMEXE
 40
1.25
  9
$DIMTP
 40
0.0
  9
$DIMTM
 40
0.0
  9
$DIMTXT
 40
2.5
  9
$DIMCEN
 40
0.09
  9
$DIMTSZ
 40
0.0
  9
$DIMTOL
 70
     0
  9
$DIMLIM
 70
     0
  9
$DIMTIH
 70
     1
  9
$DIMTOH
 70
     1
  9
$DIMSE1
 70
     0
  9
$DIMSE2
 70
     0
  9
$DIMTAD
 70
     0
  9
$DIMZIN
 70
     8
  9
$DIMBLK
  1

  9
$DIMASO
 70
     1
  9
$DIMSHO
 70
     1
  9
$DIMPOST
  1

  9
$DIMAPOST
  1

  9
$DIMALT
 70
     0
  9
$DIMALTD
 70
     2
  9
$DIMALTF
 40
25.4
  9
$DIMLFAC
 40
1.0
  9
$DIMTOFL
 70
     0
  9
$DIMTVP
 40
0.0
  9
$DIMTIX
 70
     0
  9
$DIMSOXD
 70
     0
  9
$DIMSAH
 70
     0
  9
$DIMBLK1
  1

  9
$DIMBLK2
  1

  9
$DIMSTYLE
  2
Standard
  9
$DIMCLRD
 70
   178
  9
$DIMCLRE
 70
   178
  9
$DIMCLRT
 70
   178
  9
$DIMTFAC
 40
1.0
  9
$DIMGAP
 40
0.625
  9
$DIMJUST
 70
     0
  9
$DIMSD1
 70
     0
  9
$DIMSD2
 70
     0
  9
$DIMTOLJ
 70
     1
  9
$DIMTZIN
 70
     0
  9
$DIMALTZ
 70
     0
  9
$DIMALTTZ
 70
     0
  9
$DIMUPT
 70
     0
  9
$DIMDEC
 70
     4
  9
$DIMTDEC
 70
     4
  9
$DIMALTU
 70
     2
  9
$DIMALTTD
 70
     2
  9
$DIMTXSTY
  7
Standard
  9
$DIMAUNIT
 70
     0
  9
$DIMADEC
 70
     0
  9
$DIMALTRND
 40
0.0
  9
$DIMAZIN
 70
     2
  9
$DIMDSEP
 70
    46
  9
$DIMATFIT
 70
     3
  9
$DIMFRAC
 70
     0
  9
$DIMLDRBLK
  1

  9
$DIMLUNIT
 70
     2
  9
$DIMLWD
 70
    -2
  9
$DIMLWE
 70
    -2
  9
$DIMTMOVE
 70
     0
  9
$DIMFXL
 40
1.0
  9
$DIMFXLON
 70
     0
  9
$DIMJOGANG
 40
0.7853981633974483
  9
$DIMTFILL
 70
     0
  9
$DIMTFILLCLR
 70
     0
  9
$DIMARCSYM
 70
     0
  9
$DIMLTYPE
  6

  9
$DIMLTEX1
  6

  9
$DIMLTEX2
  6

  9
$DIMTXTDIRECTION
 70
     0
  9
$LUNITS
 70
     2
  9
$LUPREC
 70
     4
  9
$SKETCHINC
 40
0.1
  9
$FILLETRAD
 40
0.5
  9
$AUNITS
 70
     0
  9
$AUPREC
 70
     0
  9
$MENU
  1
.
  9
$ELEVATION
 40
0.0
  9
$PELEVATION
 40
0.0
  9
$THICKNESS
 40
0.0
  9
$LIMCHECK
 70
     0
  9
$CHAMFERA
 40
0.0
  9
$CHAMFERB
 40
0.0
  9
$CHAMFERC
 40
0.0
  9
$CHAMFERD
 40
0.0
  9
$SKPOLY
 70
     0
  9
$TDCREATE
 40
2457892.402070683
  9
$TDUCREATE
 40
2457892.360404016
  9
$TDUPDATE
 40
2457892.40207081
  9
$TDUUPDATE
 40
2457892.360404144
  9
$TDINDWG
 40
0.0000000116
  9
$TDUSRTIMER
 40
0.0000000116
  9
$USRTIMER
 70
     1
  9
$ANGBASE
 50
0.0
  9
$ANGDIR
 70
     0
  9
$PDMODE
 70
     0
  9
$PDSIZE
 40
0.0
  9
$PLINEWID
 40
0.0
  9
$SPLFRAME
 70
     0
  9
$SPLINETYPE
 70
     6
  9
$SPLINESEGS
 70
     8
  9
$HANDSEED
  5
225B
  9
$SURFTAB1
 70
     6
  9
$SURFTAB2
 70
     6
  9
$SURFTYPE
 70
     6
  9
$SURFU
 70
     6
  9
$SURFV
 70
     6
  9
$UCSBASE
  2

  9
$UCSNAME
  2

  9
$UCSORG
 10
0.0
 20
0.0
 30
0.0
  9
$UCSXDIR
 10
1.0
 20
0.0
 30
0.0
  9
$UCSYDIR
 10
0.0
 20
1.0
 30
0.0
  9
$UCSORTHOREF
  2

  9
$UCSORTHOVIEW
 70
     0
  9
$UCSORGTOP
 10
0.0
 20
0.0
 30
0.0
  9
$UCSORGBOTTOM
 10
0.0
 20
0.0
 30
0.0
  9
$UCSORGLEFT
 10
0.0
 20
0.0
 30
0.0
  9
$UCSORGRIGHT
 10
0.0
 20
0.0
 30
0.0
  9
$UCSORGFRONT
 10
0.0
 20
0.0
 30
0.0
  9
$UCSORGBACK
 10
0.0
 20
0.0
 30
0.0
  9
$PUCSBASE
  2

  9
$PUCSNAME
  2

  9
$PUCSORG
 10
0.0
 20
0.0
 30
0.0
  9
$PUCSXDIR
 10
1.0
 20
0.0
 30
0.0
  9
$PUCSYDIR
 10
0.0
 20
1.0
 30
0.0
  9
$PUCSORTHOREF
  2

  9
$PUCSORTHOVIEW
 70
     0
  9
$PUCSORGTOP
 10
0.0
 20
0.0
 30
0.0
  9
$PUCSORGBOTTOM
 10
0.0
 20
0.0
 30
0.0
  9
$PUCSORGLEFT
 10
0.0
 20
0.0
 30
0.0
  9
$PUCSORGRIGHT
 10
0.0
 20
0.0
 30
0.0
  9
$PUCSORGFRONT
 10
0.0
 20
0.0
 30
0.0
  9
$PUCSORGBACK
 10
0.0
 20
0.0
 30
0.0
  9
$USERI1
 70
     0
  9
$USERI2
 70
     0
  9
$USERI3
 70
     0
  9
$USERI4
 70
     0
  9
$USERI5
 70
     0
  9
$USERR1
 40
0.0
  9
$USERR2
 40
0.0
  9
$USERR3
 40
0.0
  9
$USERR4
 40
0.0
  9
$USERR5
 40
0.0
  9
$WORLDVIEW
 70
     1
  9
$SHADEDGE
 70
     3
  9
$SHADEDIF
 70
    70
  9
$TILEMODE
 70
     1
  9
$MAXACTVP
 70
    32
  9
$PINSBASE
 10
0.0
 20
0.0
 30
0.0
  9
$PLIMCHECK
 70
     0
  9
$PEXTMIN
 10
0.0
 20
0.0
 30
0.0
  9
$PEXTMAX
 10
0.0
 20
0.0
 30
0.0
  9
$PLIMMIN
 10
-20.0
 20
-7.5
  9
$PLIMMAX
 10
277.0
 20
202.5
  9
$UNITMODE
 70
     0
  9
$VISRETAIN
 70
     1
  9
$PLINEGEN
 70
     0
  9
$PSLTSCALE
 70
     1
  9
$TREEDEPTH
 70
  3020
  9
$CMLSTYLE
  2
Standard
  9
$CMLJUST
 70
     0
  9
$CMLSCALE
 40
1.0
  9
$PROXYGRAPHICS
 70
     1
  9
$MEASUREMENT
 70
     1
  9
$CELWEIGHT
370
    -1
  9
$ENDCAPS
280
     0
  9
$JOINSTYLE
280
     0
  9
$LWDISPLAY
290
     0
  9
$INSUNITS
 70
     4
  9
$HYPERLINKBASE
  1

  9
$STYLESHEET
  1

  9
$XEDIT
290
     1
  9
$CEPSNTYPE
380
     0
  9
$PSTYLEMODE
290
     1
  9
$FINGERPRINTGUID
  2
{58E94BC8-8A8A-48B6-A1FC-7AB42B034ABB}
  9
$VERSIONGUID
  2
{FAEB1C32-E019-11D5-929B-00C0DF256EC4}
  9
$EXTNAMES
290
     1
  9
$PSVPSCALE
 40
0.0
  9
$OLESTARTUP
290
     0
  9
$SORTENTS
280
   127
  9
$INDEXCTL
280
     0
  9
$HIDETEXT
280
     1
  9
$XCLIPFRAME
280
     2
  9
$HALOGAP
280
     0
  9
$OBSCOLOR
 70
   257
  9
$OBSLTYPE
280
     0
  9
$INTERSECTIONDISPLAY
280
     0
  9
$INTERSECTIONCOLOR
 70
   257
  9
$DIMASSOC
280
     2
  9
$PROJECTNAME
  1

  9
$CAMERADISPLAY
290
     0
  9
$LENSLENGTH
 40
50.0
  9
$CAMERAHEIGHT
 40
0.0
  9
$STEPSPERSEC
 40
2.0
  9
$STEPSIZE
 40
6.0
  9
$3DDWFPREC
 40
2.0
  9
$PSOLWIDTH
 40
0.25
  9
$PSOLHEIGHT
 40
4.0
  9
$LOFTANG1
 40
1.570796326794897
  9
$LOFTANG2
 40
1.570796326794897
  9
$LOFTMAG1
 40
0.0
  9
$LOFTMAG2
 40
0.0
  9
$LOFTPARAM
 70
     7
  9
$LOFTNORMALS
280
     1
  9
$LATITUDE
 40
37.795
  9
$LONGITUDE
 40
-122.394
  9
$NORTHDIRECTION
 40
0.0
  9
$TIMEZONE
 70
 -8000
  9
$LIGHTGLYPHDISPLAY
280
     1
  9
$TILEMODELIGHTSYNCH
280
     1
  9
$CMATERIAL
347
218A
  9
$SOLIDHIST
280
     0
  9
$SHOWHIST
280
     1
  9
$DWFFRAME
280
     2
  9
$DGNFRAME
280
     2
  9
$REALWORLDSCALE
290
     1
  9
$INTERFERECOLOR
 62
   256
  9
$CSHADOW
280
     0
  9
$SHADOWPLANELOCATION
 40
0.0
  0
ENDSEC
  0
SECTION
  2
CLASSES
  0
CLASS
  1
ACDBDICTIONARYWDFLT
  2
AcDbDictionaryWithDefault
  3
ObjectDBX Classes
 90
        0
 91
        3
280
     0
281
     0
  0
CLASS
  1
VISUALSTYLE
  2
AcDbVisualStyle
  3
ObjectDBX Classes
 90
     4095
 91
        3
280
     0
281
     0
  0
CLASS
  1
MATERIAL
  2
AcDbMaterial
  3
ObjectDBX Classes
 90
     1153
 91
        3
280
     0
281
     0
  0
CLASS
  1
SCALE
  2
AcDbScale
  3
ObjectDBX Classes
 90
     1153
 91
        3
280
     0
281
     0
  0
CLASS
  1
TABLESTYLE
  2
AcDbTableStyle
  3
ObjectDBX Classes
 90
     4095
 91
        3
280
     0
281
     0
  0
CLASS
  1
MLEADERSTYLE
  2
AcDbMLeaderStyle
  3
ACDB_MLEADERSTYLE_CLASS
 90
     4095
 91
        3
280
     0
281
     0
  0
CLASS
  1
SUN
  2
AcDbSun
  3
SCENEOE
 90
     1153
 91
        3
280
     0
281
     0
  0
CLASS
  1
DICTIONARYVAR
  2
AcDbDictionaryVar
  3
ObjectDBX Classes
 90
        0
 91
        3
280
     0
281
     0
  0
CLASS
  1
CELLSTYLEMAP
  2
AcDbCellStyleMap
  3
ObjectDBX Classes
 90
     1152
 91
        3
280
     0
281
     0
  0
ENDSEC
  0
SECTION
  2
TABLES
  0
TABLE
  2
VPORT
  5
214F
330
0
100
AcDbSymbolTable
 70
     1
  0
VPORT
  5
216F
330
214F
100
AcDbSymbolTableRecord
100
AcDbViewportTableRecord
  2
*Active
 70
     0
 10
0.0
 20
0.0
 11
1.0
 21
1.0
 12
62.26176450784197
 22
22.3737208148347
 13
0.0
 23
0.0
 14
0.5
 24
0.5
 15
0.5
 25
0.5
 16
0.0
 26
0.0
 36
1.0
 17
0.0
 27
0.0
 37
0.0
 40
37.44896780363223
 41
0.6635294117647059
 42
50.0
 43
0.0
 44
0.0
 50
0.0
 51
0.0
 71
     0
 72
   100
 73
     1
 74
     3
 75
     0
 76
     0
 77
     0
 78
     0
281
     0
 65
     1
110
0.0
120
0.0
130
0.0
111
1.0
121
0.0
131
0.0
112
0.0
122
1.0
132
0.0
 79
     0
146
0.0
348
2175
 60
     3
 61
     5
292
     1
282
     1
141
0.0
142
0.0
 63
   250
361
21B3
  0
ENDTAB
  0
TABLE
  2
LTYPE
  5
214C
330
0
100
AcDbSymbolTable
 70
    48
  0
LTYPE
  5
215A
330
214C
100
AcDbSymbolTableRecord
100
AcDbLinetypeTableRecord
  2
ByBlock
 70
     0
  3

 72
    65
 73
     0
 40
0.0
  0
LTYPE
  5
215B
330
214C
100
AcDbSymbolTableRecord
100
AcDbLinetypeTableRecord
  2
ByLayer
 70
     0
  3

 72
    65
 73
     0
 40
0.0
  0
LTYPE
  5
215C
330
214C
100
AcDbSymbolTableRecord
100
AcDbLinetypeTableRecord
  2
Continuous
 70
     0
  3
Solid line
 72
    65
 73
     0
 40
0.0
  0
LTYPE
  5
2200
330
214C
100
AcDbSymbolTableRecord
100
AcDbLinetypeTableRecord
  2
GAS_LINE
 70
     0
  3
Gas line ----GAS----GAS----GAS----GAS----GAS----GAS--
 72
    65
 73
     3
 40
24.13
 49
12.7
 74
     0
 49
-5.08
 74
     2
 75
     0
340
21FF
 46
2.54
 50
0.0
 44
-2.54
 45
-1.27
  9
GAS
 49
-6.35
 74
     0
  0
LTYPE
  5
2201
330
214C
100
AcDbSymbolTableRecord
100
AcDbLinetypeTableRecord
  2
ACAD_ISO12W100
 70
     0
  3
ISO dash double-dot __ . . __ . . __ . . __ . . 
 72
    65
 73
     6
 40
21.0
 49
12.0
 74
     0
 49
-3.0
 74
     0
 49
0.0
 74
     0
 49
-3.0
 74
     0
 49
0.0
 74
     0
 49
-3.0
 74
     0
  0
LTYPE
  5
2202
330
214C
100
AcDbSymbolTableRecord
100
AcDbLinetypeTableRecord
  2
ACAD_ISO13W100
 70
     0
  3
ISO double-dash double-dot __ __ . . __ __ . . _
 72
    65
 73
     8
 40
36.0
 49
12.0
 74
     0
 49
-3.0
 74
     0
 49
12.0
 74
     0
 49
-3.0
 74
     0
 49
0.0
 74
     0
 49
-3.0
 74
     0
 49
0.0
 74
     0
 49
-3.0
 74
     0
  0
LTYPE
  5
2203
330
214C
100
AcDbSymbolTableRecord
100
AcDbLinetypeTableRecord
  2
ACAD_ISO10W100
 70
     0
  3
ISO dash dot __ . __ . __ . __ . __ . __ . __ . 
 72
    65
 73
     4
 40
18.0
 49
12.0
 74
     0
 49
-3.0
 74
     0
 49
0.0
 74
     0
 49
-3.0
 74
     0
  0
LTYPE
  5
2204
330
214C
100
AcDbSymbolTableRecord
100
AcDbLinetypeTableRecord
  2
ACAD_ISO11W100
 70
     0
  3
ISO double-dash dot __ __ . __ __ . __ __ . __ _
 72
    65
 73
     6
 40
33.0
 49
12.0
 74
     0
 49
-3.0
 74
     0
 49
12.0
 74
     0
 49
-3.0
 74
     0
 49
0.0
 74
     0
 49
-3.0
 74
     0
  0
LTYPE
  5
2207
330
214C
100
AcDbSymbolTableRecord
100
AcDbLinetypeTableRecord
  2
BATTING
 70
     0
  3
Batting SSSSSSSSSSSSSSSSSSSSSSSSSSSSSSSSSSSSSSSSSSSSSSS
 72
    65
 73
     4
 40
10.16254
 49
0.00254
 74
     0
 49
-2.54
 74
     2
 75
     0
340
2205
 46
2.54
 50
0.0
 44
-2.54
 45
0.0
  9
BAT
 49
-5.08
 74
     2
 75
     0
340
2206
 46
2.54
 50
180.0
 44
2.54
 45
0.0
  9
BAT
 49
-2.54
 74
     0
  0
LTYPE
  5
2208
330
214C
100
AcDbSymbolTableRecord
100
AcDbLinetypeTableRecord
  2
BORDER
 70
     0
  3
Border __ __ . __ __ . __ __ . __ __ . __ __ .
 72
    65
 73
     6
 40
44.45
 49
12.7
 74
     0
 49
-6.35
 74
     0
 49
12.7
 74
     0
 49
-6.35
 74
     0
 49
0.0
 74
     0
 49
-6.35
 74
     0
  0
LTYPE
  5
2209
330
214C
100
AcDbSymbolTableRecord
100
AcDbLinetypeTableRecord
  2
ACAD_ISO14W100
 70
     0
  3
ISO dash triple-dot __ . . . __ . . . __ . . . _
 72
    65
 73
     8
 40
24.0
 49
12.0
 74
     0
 49
-3.0
 74
     0
 49
0.0
 74
     0
 49
-3.0
 74
     0
 49
0.0
 74
     0
 49
-3.0
 74
     0
 49
0.0
 74
     0
 49
-3.0
 74
     0
  0
LTYPE
  5
220A
330
214C
100
AcDbSymbolTableRecord
100
AcDbLinetypeTableRecord
  2
ACAD_ISO15W100
 70
     0
  3
ISO double-dash triple-dot __ __ . . . __ __ . .
 72
    65
 73
    10
 40
39.0
 49
12.0
 74
     0
 49
-3.0
 74
     0
 49
12.0
 74
     0
 49
-3.0
 74
     0
 49
0.0
 74
     0
 49
-3.0
 74
     0
 49
0.0
 74
     0
 49
-3.0
 74
     0
 49
0.0
 74
     0
 49
-3.0
 74
     0
  0
LTYPE
  5
220B
330
214C
100
AcDbSymbolTableRecord
100
AcDbLinetypeTableRecord
  2
CENTER
 70
     0
  3
Center ____ _ ____ _ ____ _ ____ _ ____ _ ____
 72
    65
 73
     4
 40
50.8
 49
31.75
 74
     0
 49
-6.35
 74
     0
 49
6.35
 74
     0
 49
-6.35
 74
     0
  0
LTYPE
  5
220C
330
214C
100
AcDbSymbolTableRecord
100
AcDbLinetypeTableRecord
  2
CENTER2
 70
     0
  3
Center (.5x) ___ _ ___ _ ___ _ ___ _ ___ _ ___
 72
    65
 73
     4
 40
28.575
 49
19.05
 74
     0
 49
-3.175
 74
     0
 49
3.175
 74
     0
 49
-3.175
 74
     0
  0
LTYPE
  5
220D
330
214C
100
AcDbSymbolTableRecord
100
AcDbLinetypeTableRecord
  2
BORDER2
 70
     0
  3
Border (.5x) __.__.__.__.__.__.__.__.__.__.__.
 72
    65
 73
     6
 40
22.225
 49
6.35
 74
     0
 49
-3.175
 74
     0
 49
6.35
 74
     0
 49
-3.175
 74
     0
 49
0.0
 74
     0
 49
-3.175
 74
     0
  0
LTYPE
  5
220E
330
214C
100
AcDbSymbolTableRecord
100
AcDbLinetypeTableRecord
  2
BORDERX2
 70
     0
  3
Border (2x) ____  ____  .  ____  ____  .  ___
 72
    65
 73
     6
 40
88.89999999999999
 49
25.4
 74
     0
 49
-12.7
 74
     0
 49
25.4
 74
     0
 49
-12.7
 74
     0
 49
0.0
 74
     0
 49
-12.7
 74
     0
  0
LTYPE
  5
220F
330
214C
100
AcDbSymbolTableRecord
100
AcDbLinetypeTableRecord
  2
DASHDOT2
 70
     0
  3
Dash dot (.5x) _._._._._._._._._._._._._._._.
 72
    65
 73
     4
 40
12.7
 49
6.35
 74
     0
 49
-3.175
 74
     0
 49
0.0
 74
     0
 49
-3.175
 74
     0
  0
LTYPE
  5
2210
330
214C
100
AcDbSymbolTableRecord
100
AcDbLinetypeTableRecord
  2
DASHDOTX2
 70
     0
  3
Dash dot (2x) ____  .  ____  .  ____  .  ___
 72
    65
 73
     4
 40
50.8
 49
25.4
 74
     0
 49
-12.7
 74
     0
 49
0.0
 74
     0
 49
-12.7
 74
     0
  0
LTYPE
  5
2211
330
214C
100
AcDbSymbolTableRecord
100
AcDbLinetypeTableRecord
  2
CENTERX2
 70
     0
  3
Center (2x) ________  __  ________  __  _____
 72
    65
 73
     4
 40
101.6
 49
63.5
 74
     0
 49
-12.7
 74
     0
 49
12.7
 74
     0
 49
-12.7
 74
     0
  0
LTYPE
  5
2212
330
214C
100
AcDbSymbolTableRecord
100
AcDbLinetypeTableRecord
  2
DASHDOT
 70
     0
  3
Dash dot __ . __ . __ . __ . __ . __ . __ . __
 72
    65
 73
     4
 40
25.4
 49
12.7
 74
     0
 49
-6.35
 74
     0
 49
0.0
 74
     0
 49
-6.35
 74
     0
  0
LTYPE
  5
2213
330
214C
100
AcDbSymbolTableRecord
100
AcDbLinetypeTableRecord
  2
ACAD_ISO04W100
 70
     0
  3
ISO long-dash dot ____ . ____ . ____ . ____ . _
 72
    65
 73
     4
 40
30.0
 49
24.0
 74
     0
 49
-3.0
 74
     0
 49
0.0
 74
     0
 49
-3.0
 74
     0
  0
LTYPE
  5
2214
330
214C
100
AcDbSymbolTableRecord
100
AcDbLinetypeTableRecord
  2
ACAD_ISO05W100
 70
     0
  3
ISO long-dash double-dot ____ .. ____ .. ____ . 
 72
    65
 73
     6
 40
33.0
 49
24.0
 74
     0
 49
-3.0
 74
     0
 49
0.0
 74
     0
 49
-3.0
 74
     0
 49
0.0
 74
     0
 49
-3.0
 74
     0
  0
LTYPE
  5
2215
330
214C
100
AcDbSymbolTableRecord
100
AcDbLinetypeTableRecord
  2
ACAD_ISO02W100
 70
     0
  3
ISO dash __ __ __ __ __ __ __ __ __ __ __ __ __
 72
    65
 73
     2
 40
15.0
 49
12.0
 74
     0
 49
-3.0
 74
     0
  0
LTYPE
  5
2216
330
214C
100
AcDbSymbolTableRecord
100
AcDbLinetypeTableRecord
  2
ACAD_ISO03W100
 70
     0
  3
ISO dash space __    __    __    __    __    __
 72
    65
 73
     2
 40
30.0
 49
12.0
 74
     0
 49
-18.0
 74
     0
  0
LTYPE
  5
2217
330
214C
100
AcDbSymbolTableRecord
100
AcDbLinetypeTableRecord
  2
ACAD_ISO08W100
 70
     0
  3
ISO long-dash short-dash ____ __ ____ __ ____ _
 72
    65
 73
     4
 40
36.0
 49
24.0
 74
     0
 49
-3.0
 74
     0
 49
6.0
 74
     0
 49
-3.0
 74
     0
  0
LTYPE
  5
2218
330
214C
100
AcDbSymbolTableRecord
100
AcDbLinetypeTableRecord
  2
ACAD_ISO09W100
 70
     0
  3
ISO long-dash double-short-dash ____ __ __ ____
 72
    65
 73
     6
 40
45.0
 49
24.0
 74
     0
 49
-3.0
 74
     0
 49
6.0
 74
     0
 49
-3.0
 74
     0
 49
6.0
 74
     0
 49
-3.0
 74
     0
  0
LTYPE
  5
2219
330
214C
100
AcDbSymbolTableRecord
100
AcDbLinetypeTableRecord
  2
ACAD_ISO06W100
 70
     0
  3
ISO long-dash triple-dot ____ ... ____ ... ____
 72
    65
 73
     8
 40
36.0
 49
24.0
 74
     0
 49
-3.0
 74
     0
 49
0.0
 74
     0
 49
-3.0
 74
     0
 49
0.0
 74
     0
 49
-3.0
 74
     0
 49
0.0
 74
     0
 49
-3.0
 74
     0
  0
LTYPE
  5
221A
330
214C
100
AcDbSymbolTableRecord
100
AcDbLinetypeTableRecord
  2
ACAD_ISO07W100
 70
     0
  3
ISO dot . . . . . . . . . . . . . . . . . . . . 
 72
    65
 73
     2
 40
3.0
 49
0.0
 74
     0
 49
-3.0
 74
     0
  0
LTYPE
  5
221B
330
214C
100
AcDbSymbolTableRecord
100
AcDbLinetypeTableRecord
  2
PHANTOM
 70
     0
  3
Phantom ______  __  __  ______  __  __  ______ 
 72
    65
 73
     6
 40
63.50000000000001
 49
31.75
 74
     0
 49
-6.35
 74
     0
 49
6.35
 74
     0
 49
-6.35
 74
     0
 49
6.35
 74
     0
 49
-6.35
 74
     0
  0
LTYPE
  5
221C
330
214C
100
AcDbSymbolTableRecord
100
AcDbLinetypeTableRecord
  2
PHANTOM2
 70
     0
  3
Phantom (.5x) ___ _ _ ___ _ _ ___ _ _ ___ _ _
 72
    65
 73
     6
 40
31.75
 49
15.875
 74
     0
 49
-3.175
 74
     0
 49
3.175
 74
     0
 49
-3.175
 74
     0
 49
3.175
 74
     0
 49
-3.175
 74
     0
  0
LTYPE
  5
221D
330
214C
100
AcDbSymbolTableRecord
100
AcDbLinetypeTableRecord
  2
HIDDENX2
 70
     0
  3
Hidden (2x) ____ ____ ____ ____ ____ ____ ____ 
 72
    65
 73
     2
 40
19.05
 49
12.7
 74
     0
 49
-6.35
 74
     0
  0
LTYPE
  5
221F
330
214C
100
AcDbSymbolTableRecord
100
AcDbLinetypeTableRecord
  2
HOT_WATER_SUPPLY
 70
     0
  3
Hot water supply ---- HW ---- HW ---- HW ----
 72
    65
 73
     3
 40
22.86
 49
12.7
 74
     0
 49
-5.08
 74
     2
 75
     0
340
221E
 46
2.54
 50
0.0
 44
-2.54
 45
-1.27
  9
HW
 49
-5.08
 74
     0
  0
LTYPE
  5
2222
330
214C
100
AcDbSymbolTableRecord
100
AcDbLinetypeTableRecord
  2
ZIGZAG
 70
     0
  3
Zig zag /\/\/\/\/\/\/\/\/\/\/\/\/\/\/\/\/\/\/\/\/\/\/\/
 72
    65
 73
     4
 40
20.32254
 49
0.00254
 74
     0
 49
-5.08
 74
     2
 75
     0
340
2220
 46
5.08
 50
0.0
 44
-5.08
 45
0.0
  9
ZIG
 49
-10.16
 74
     2
 75
     0
340
2221
 46
5.08
 50
180.0
 44
5.08
 45
0.0
  9
ZIG
 49
-5.08
 74
     0
  0
LTYPE
  5
2223
330
214C
100
AcDbSymbolTableRecord
100
AcDbLinetypeTableRecord
  2
PHANTOMX2
 70
     0
  3
Phantom (2x) ____________    ____    ____   _
 72
    65
 73
     6
 40
127.0
 49
63.5
 74
     0
 49
-12.7
 74
     0
 49
12.7
 74
     0
 49
-12.7
 74
     0
 49
12.7
 74
     0
 49
-12.7
 74
     0
  0
LTYPE
  5
2225
330
214C
100
AcDbSymbolTableRecord
100
AcDbLinetypeTableRecord
  2
TRACKS
 70
     0
  3
Tracks -|-|-|-|-|-|-|-|-|-|-|-|-|-|-|-|-|-|-|-|-|-|-|-|-
 72
    65
 73
     2
 40
7.62
 49
3.81
 74
     2
 75
     0
340
2224
 46
6.35
 50
0.0
 44
0.0
 45
0.0
  9
TRACK1
 49
3.81
 74
     0
  0
LTYPE
  5
2226
330
214C
100
AcDbSymbolTableRecord
100
AcDbLinetypeTableRecord
  2
DASHEDX2
 70
     0
  3
Dashed (2x) ____  ____  ____  ____  ____  ___
 72
    65
 73
     2
 40
38.09999999999999
 49
25.4
 74
     0
 49
-12.7
 74
     0
  0
LTYPE
  5
2227
330
214C
100
AcDbSymbolTableRecord
100
AcDbLinetypeTableRecord
  2
DIVIDE
 70
     0
  3
Divide ____ . . ____ . . ____ . . ____ . . ____
 72
    65
 73
     6
 40
31.75
 49
12.7
 74
     0
 49
-6.35
 74
     0
 49
0.0
 74
     0
 49
-6.35
 74
     0
 49
0.0
 74
     0
 49
-6.35
 74
     0
  0
LTYPE
  5
2228
330
214C
100
AcDbSymbolTableRecord
100
AcDbLinetypeTableRecord
  2
DASHED
 70
     0
  3
Dashed __ __ __ __ __ __ __ __ __ __ __ __ __ _
 72
    65
 73
     2
 40
19.05
 49
12.7
 74
     0
 49
-6.35
 74
     0
  0
LTYPE
  5
2229
330
214C
100
AcDbSymbolTableRecord
100
AcDbLinetypeTableRecord
  2
DASHED2
 70
     0
  3
Dashed (.5x) _ _ _ _ _ _ _ _ _ _ _ _ _ _ _ _ _ 
 72
    65
 73
     2
 40
9.524999999999999
 49
6.35
 74
     0
 49
-3.175
 74
     0
  0
LTYPE
  5
222A
330
214C
100
AcDbSymbolTableRecord
100
AcDbLinetypeTableRecord
  2
DOT
 70
     0
  3
Dot . . . . . . . . . . . . . . . . . . . . . . . .
 72
    65
 73
     2
 40
6.35
 49
0.0
 74
     0
 49
-6.35
 74
     0
  0
LTYPE
  5
222B
330
214C
100
AcDbSymbolTableRecord
100
AcDbLinetypeTableRecord
  2
DOT2
 70
     0
  3
Dot (.5x) ........................................
 72
    65
 73
     2
 40
3.175
 49
0.0
 74
     0
 49
-3.175
 74
     0
  0
LTYPE
  5
222C
330
214C
100
AcDbSymbolTableRecord
100
AcDbLinetypeTableRecord
  2
DIVIDE2
 70
     0
  3
Divide (.5x) __..__..__..__..__..__..__..__.._
 72
    65
 73
     6
 40
15.875
 49
6.35
 74
     0
 49
-3.175
 74
     0
 49
0.0
 74
     0
 49
-3.175
 74
     0
 49
0.0
 74
     0
 49
-3.175
 74
     0
  0
LTYPE
  5
222D
330
214C
100
AcDbSymbolTableRecord
100
AcDbLinetypeTableRecord
  2
DIVIDEX2
 70
     0
  3
Divide (2x) ________  .  .  ________  .  .  _
 72
    65
 73
     6
 40
63.5
 49
25.4
 74
     0
 49
-12.7
 74
     0
 49
0.0
 74
     0
 49
-12.7
 74
     0
 49
0.0
 74
     0
 49
-12.7
 74
     0
  0
LTYPE
  5
222F
330
214C
100
AcDbSymbolTableRecord
100
AcDbLinetypeTableRecord
  2
DRAINAGE2
 70
     0
  3
Drainage reversed----<----<----<----
 72
    65
 73
     2
 40
10.16
 49
5.08
 74
     2
 75
     0
340
222E
 46
2.54
 50
0.0
 44
0.0
 45
0.0
  9
RIGHT_ARROW
 49
5.08
 74
     0
  0
LTYPE
  5
2231
330
214C
100
AcDbSymbolTableRecord
100
AcDbLinetypeTableRecord
  2
FENCELINE1
 70
     0
  3
Fenceline circle ----0-----0----0-----0----0-----0--
 72
    65
 73
     4
 40
36.83
 49
6.35
 74
     0
 49
-2.54
 74
     2
 75
     0
340
2230
 46
2.54
 50
0.0
 44
-2.54
 45
0.0
  9
CIRC1
 49
-2.54
 74
     0
 49
25.4
 74
     0
  0
LTYPE
  5
2232
330
214C
100
AcDbSymbolTableRecord
100
AcDbLinetypeTableRecord
  2
DOTX2
 70
     0
  3
Dot (2x) .  .  .  .  .  .  .  .  .  .  .  .  .  .
 72
    65
 73
     2
 40
12.7
 49
0.0
 74
     0
 49
-12.7
 74
     0
  0
LTYPE
  5
2234
330
214C
100
AcDbSymbolTableRecord
100
AcDbLinetypeTableRecord
  2
DRAINAGE
 70
     0
  3
Drainage ---->---->---->----
 72
    65
 73
     2
 40
10.16
 49
5.08
 74
     2
 75
     0
340
2233
 46
2.54
 50
180.0
 44
0.0
 45
0.0
  9
RIGHT_ARROW
 49
5.08
 74
     0
  0
LTYPE
  5
2235
330
214C
100
AcDbSymbolTableRecord
100
AcDbLinetypeTableRecord
  2
HIDDEN
 70
     0
  3
Hidden __ __ __ __ __ __ __ __ __ __ __ __ __ __
 72
    65
 73
     2
 40
9.524999999999999
 49
6.35
 74
     0
 49
-3.175
 74
     0
  0
LTYPE
  5
2236
330
214C
100
AcDbSymbolTableRecord
100
AcDbLinetypeTableRecord
  2
HIDDEN2
 70
     0
  3
Hidden (.5x) _ _ _ _ _ _ _ _ _ _ _ _ _ _ _ _ _ 
 72
    65
 73
     2
 40
4.762499999999999
 49
3.175
 74
     0
 49
-1.5875
 74
     0
  0
LTYPE
  5
2238
330
214C
100
AcDbSymbolTableRecord
100
AcDbLinetypeTableRecord
  2
FENCELINE2
 70
     0
  3
Fenceline square ----[]-----[]----[]-----[]----[]---
 72
    65
 73
     4
 40
36.83
 49
6.35
 74
     0
 49
-2.54
 74
     2
 75
     0
340
2237
 46
2.54
 50
0.0
 44
-2.54
 45
0.0
  9
BOX
 49
-2.54
 74
     0
 49
25.4
 74
     0
  0
ENDTAB
  0
TABLE
  2
LAYER
  5
214A
330
0
100
AcDbSymbolTable
 70
    12
  0
LAYER
  5
2157
330
214A
100
AcDbSymbolTableRecord
100
AcDbLayerTableRecord
  2
0
 70
     0
 62
     7
420
 16777215
  6
Continuous
370
    25
390
2156
347
218C
348
0
  0
LAYER
  5
2239
330
214A
100
AcDbSymbolTableRecord
100
AcDbLayerTableRecord
  2
CAM ... GCodeOffsetMM
 70
     1
 62
    -7
420
 16777215
  6
Continuous
370
    20
390
2156
347
218C
348
0
1001
QCAD
1000
CamLastUpdate:20170516115535033
1000
ScreenBasedLinetypes:1
  0
LAYER
  5
223A
330
214A
100
AcDbSymbolTableRecord
100
AcDbLayerTableRecord
  2
CAM ... GCodeOffsetMM ... offset
 70
     0
 62
     7
420
 16777215
  6
DASHED2
370
    20
390
2156
347
218C
348
0
1001
QCAD
1000
ScreenBasedLinetypes:1
  0
LAYER
  5
223B
330
214A
100
AcDbSymbolTableRecord
100
AcDbLayerTableRecord
  2
CAM ... GCodeMM ... rapid
 70
     0
 62
   150
420
    35071
  6
DASHDOT2
370
    20
390
2156
347
218C
348
0
1001
QCAD
1000
ScreenBasedLinetypes:1
  0
LAYER
  5
223C
330
214A
100
AcDbSymbolTableRecord
100
AcDbLayerTableRecord
  2
CAM ... GCodeMM ... source
 70
     0
 62
     7
420
 16777215
  6
Continuous
370
    20
390
2156
347
218C
348
0
1001
QCAD
1000
ScreenBasedLinetypes:1
  0
LAYER
  5
223D
330
214A
100
AcDbSymbolTableRecord
100
AcDbLayerTableRecord
  2
CAM ... GCodeOffsetMM ... source
 70
     0
 62
     7
420
 16777215
  6
Continuous
370
    20
390
2156
347
218C
348
0
1001
QCAD
1000
ScreenBasedLinetypes:1
  0
LAYER
  5
223E
330
214A
100
AcDbSymbolTableRecord
100
AcDbLayerTableRecord
  2
CAM ... GCodeOffsetMM ... rapid
 70
     0
 62
   150
420
    35071
  6
DASHDOT2
370
    20
390
2156
347
218C
348
0
1001
QCAD
1000
ScreenBasedLinetypes:1
  0
LAYER
  5
223F
330
214A
100
AcDbSymbolTableRecord
100
AcDbLayerTableRecord
  2
CAM ... GCodeOffsetMM ... normal
 70
     0
 62
     8
420
  8421504
  6
Continuous
370
    20
390
2156
347
218C
348
0
1001
QCAD
1000
ScreenBasedLinetypes:1
  0
LAYER
  5
2240
330
214A
100
AcDbSymbolTableRecord
100
AcDbLayerTableRecord
  2
CAM
 70
     4
 62
     7
420
 16777215
  6
Continuous
370
    20
390
2156
347
218C
348
0
1001
QCAD
1000
ScreenBasedLinetypes:1
  0
LAYER
  5
2241
330
214A
100
AcDbSymbolTableRecord
100
AcDbLayerTableRecord
  2
CAM ... GCodeMM
 70
     0
 62
     7
420
 16777215
  6
Continuous
370
    20
390
2156
347
218C
348
0
1001
QCAD
1000
CamLastUpdate:20170516115334541
1000
ScreenBasedLinetypes:1
  0
LAYER
  5
2242
330
214A
100
AcDbSymbolTableRecord
100
AcDbLayerTableRecord
  2
CAM ... GCodeMM ... normal
 70
     0
 62
     8
420
  8421504
  6
Continuous
370
    20
390
2156
347
218C
348
0
1001
QCAD
1000
ScreenBasedLinetypes:1
  0
LAYER
  5
2243
330
214A
100
AcDbSymbolTableRecord
100
AcDbLayerTableRecord
  2
CAM ... GCodeMM ... offset
 70
     0
 62
     7
420
 16777215
  6
DASHED2
370
    20
390
2156
347
218C
348
0
1001
QCAD
1000
ScreenBasedLinetypes:1
  0
ENDTAB
  0
TABLE
  2
STYLE
  5
214B
330
0
100
AcDbSymbolTable
 70
    13
  0
STYLE
  5
2158
330
214B
100
AcDbSymbolTableRecord
100
AcDbTextStyleTableRecord
  2
Standard
 70
     0
 40
0.0
 41
1.0
 50
0.0
 71
     0
 42
0.2
  3
txt
  4

  0
STYLE
  5
21FD
330
214B
100
AcDbSymbolTableRecord
100
AcDbTextStyleTableRecord
  2
QCADDimTextStyle
 70
     0
 40
0.0
 41
1.0
 50
0.0
 71
     0
 42
0.2
  3

  4

  0
STYLE
  5
21FF
330
214B
100
AcDbSymbolTableRecord
100
AcDbTextStyleTableRecord
  2
textstyle0
 70
     0
 40
0.0
 41
1.0
 50
0.0
 71
     0
 42
0.2
  3
STANDARD
  4

  0
STYLE
  5
2205
330
214B
100
AcDbSymbolTableRecord
100
AcDbTextStyleTableRecord
  2
textstyle1
 70
     0
 40
0.0
 41
1.0
 50
0.0
 71
     0
 42
0.2
  3
ltypeshp.shx
  4

  0
STYLE
  5
2206
330
214B
100
AcDbSymbolTableRecord
100
AcDbTextStyleTableRecord
  2
textstyle2
 70
     0
 40
0.0
 41
1.0
 50
0.0
 71
     0
 42
0.2
  3
ltypeshp.shx
  4

  0
STYLE
  5
221E
330
214B
100
AcDbSymbolTableRecord
100
AcDbTextStyleTableRecord
  2
textstyle3
 70
     0
 40
0.0
 41
1.0
 50
0.0
 71
     0
 42
0.2
  3
STANDARD
  4

  0
STYLE
  5
2220
330
214B
100
AcDbSymbolTableRecord
100
AcDbTextStyleTableRecord
  2
textstyle4
 70
     0
 40
0.0
 41
1.0
 50
0.0
 71
     0
 42
0.2
  3
ltypeshp.shx
  4

  0
STYLE
  5
2221
330
214B
100
AcDbSymbolTableRecord
100
AcDbTextStyleTableRecord
  2
textstyle5
 70
     0
 40
0.0
 41
1.0
 50
0.0
 71
     0
 42
0.2
  3
ltypeshp.shx
  4

  0
STYLE
  5
2224
330
214B
100
AcDbSymbolTableRecord
100
AcDbTextStyleTableRecord
  2
textstyle6
 70
     0
 40
0.0
 41
1.0
 50
0.0
 71
     0
 42
0.2
  3
ltypeshp.shx
  4

  0
STYLE
  5
222E
330
214B
100
AcDbSymbolTableRecord
100
AcDbTextStyleTableRecord
  2
textstyle7
 70
     0
 40
0.0
 41
1.0
 50
0.0
 71
     0
 42
0.2
  3
qcadshp.shx
  4

  0
STYLE
  5
2230
330
214B
100
AcDbSymbolTableRecord
100
AcDbTextStyleTableRecord
  2
textstyle8
 70
     0
 40
0.0
 41
1.0
 50
0.0
 71
     0
 42
0.2
  3
ltypeshp.shx
  4

  0
STYLE
  5
2233
330
214B
100
AcDbSymbolTableRecord
100
AcDbTextStyleTableRecord
  2
textstyle9
 70
     0
 40
0.0
 41
1.0
 50
0.0
 71
     0
 42
0.2
  3
qcadshp.shx
  4

  0
STYLE
  5
2237
330
214B
100
AcDbSymbolTableRecord
100
AcDbTextStyleTableRecord
  2
textstyle10
 70
     0
 40
0.0
 41
1.0
 50
0.0
 71
     0
 42
0.2
  3
ltypeshp.shx
  4

  0
ENDTAB
  0
TABLE
  2
VIEW
  5
214D
330
0
100
AcDbSymbolTable
 70
     0
  0
ENDTAB
  0
TABLE
  2
UCS
  5
214E
330
0
100
AcDbSymbolTable
 70
     0
  0
ENDTAB
  0
TABLE
  2
APPID
  5
2150
330
0
100
AcDbSymbolTable
 70
     2
  0
APPID
  5
2159
330
2150
100
AcDbSymbolTableRecord
100
AcDbRegAppTableRecord
  2
ACAD
 70
     0
  0
APPID
  5
21B4
330
2150
100
AcDbSymbolTableRecord
100
AcDbRegAppTableRecord
  2
QCAD
 70
     0
  0
ENDTAB
  0
TABLE
  2
DIMSTYLE
  5
2151
330
0
100
AcDbSymbolTable
 70
     2
100
AcDbDimStyleTable
  0
DIMSTYLE
105
216D
330
2151
100
AcDbSymbolTableRecord
100
AcDbDimStyleTableRecord
  2
Standard
 70
     0
178
     0
340
2158
  0
DIMSTYLE
105
21FE
330
2151
100
AcDbSymbolTableRecord
100
AcDbDimStyleTableRecord
  2
QCADDimStyle
 70
     0
 41
2.5
 42
0.625
 44
1.25
 73
     0
 77
     1
140
2.5
147
0.625
178
     0
340
21FD
  0
ENDTAB
  0
TABLE
  2
BLOCK_RECORD
  5
2149
330
0
100
AcDbSymbolTable
 70
     4
  0
BLOCK_RECORD
  5
2165
330
2149
100
AcDbSymbolTableRecord
100
AcDbBlockTableRecord
  2
*Model_Space
340
2168
 70
     0
280
     1
281
     0
  0
BLOCK_RECORD
  5
2161
330
2149
100
AcDbSymbolTableRecord
100
AcDbBlockTableRecord
  2
*Paper_Space
340
2164
 70
     0
280
     1
281
     0
  0
BLOCK_RECORD
  5
2244
330
2149
100
AcDbSymbolTableRecord
100
AcDbBlockTableRecord
  2
CAMTOOL$$GCodeOffsetMM$$1
340
0
 70
     0
280
     1
281
     0
1001
QCAD
1000
CamDescription:Mill (2mm)
1000
CamDiameter:2
1000
CamFeedRate:100
1000
CamPlungeRate:50
1000
CamSpindleSpeed:1000
1000
CamToolFlag:1
1000
CamToolType:1
1000
ResourceFlag:1
  0
BLOCK_RECORD
  5
2247
330
2149
100
AcDbSymbolTableRecord
100
AcDbBlockTableRecord
  2
CAMTOOLPATH$$GCodeMM$$Profile 1
340
0
102
{BLKREFS
331
1A0
102
}
 70
     0
280
     1
281
     0
1001
QCAD
1000
CamAddTool:0
1000
CamAllowanceOffset:0
1000
CamDirection:1
1000
CamEditTool:0
1000
CamFeedRate:100
1000
CamLeadInSize:3
1000
CamLeadInType:8
1000
CamLeadOutSize:3
1000
CamLeadOutType:8
1000
CamLockLeadSize:1
1000
CamLockLeadType:1
1000
CamOvercut:1
1000
CamPlungeRate:50
1000
CamProfileToolpathFlag:1
1000
CamSide:2
1000
CamTool:1
1000
CamToolpathOrder:0
1000
CamZClearance:2
1000
CamZCuttingDepth:4
1000
CamZPasses:1
1000
CamZStartDepth:0
1000
ResourceFlag:1
  0
BLOCK_RECORD
  5
224A
330
2149
100
AcDbSymbolTableRecord
100
AcDbBlockTableRecord
  2
CAMTOOL$$GCodeMM$$1
340
0
 70
     0
280
     1
281
     0
1001
QCAD
1000
CamDescription:Mill (2mm)
1000
CamDiameter:2
1000
CamFeedRate:100
1000
CamPlungeRate:50
1000
CamSpindleSpeed:1000
1000
CamToolFlag:1
1000
CamToolType:1
1000
ResourceFlag:1
  0
BLOCK_RECORD
  5
224D
330
2149
100
AcDbSymbolTableRecord
100
AcDbBlockTableRecord
  2
CAMTOOLPATH$$GCodeOffsetMM$$Profile 1
340
0
102
{BLKREFS
331
1C64
102
}
 70
     0
280
     1
281
     0
1001
QCAD
1000
CamAddTool:0
1000
CamAllowanceOffset:0
1000
CamDirection:1
1000
CamEditTool:0
1000
CamFeedRate:100
1000
CamLeadInSize:3
1000
CamLeadInType:5
1000
CamLeadOutSize:3
1000
CamLeadOutType:5
1000
CamLockLeadSize:1
1000
CamLockLeadType:1
1000
CamOvercut:1
1000
CamPlungeRate:50
1000
CamProfileToolpathFlag:1
1000
CamSide:2
1000
CamTool:1
1000
CamToolpathOrder:0
1000
CamZClearance:2
1000
CamZCuttingDepth:4
1000
CamZPasses:1
1000
CamZStartDepth:0
1000
ResourceFlag:1
  0
ENDTAB
  0
ENDSEC
  0
SECTION
  2
BLOCKS
  0
BLOCK
  5
2166
330
2165
100
AcDbEntity
  8
0
100
AcDbBlockBegin
  2
*Model_Space
 70
     0
 10
0.0
 20
0.0
 30
0.0
  3
*Model_Space
  1

  0
ENDBLK
  5
2167
330
2165
100
AcDbEntity
  8
0
100
AcDbBlockEnd
  0
BLOCK
  5
2162
330
2161
100
AcDbEntity
 67
     1
  8
0
100
AcDbBlockBegin
  2
*Paper_Space
 70
     0
 10
0.0
 20
0.0
 30
0.0
  3
*Paper_Space
  1

  0
ENDBLK
  5
2163
330
2161
100
AcDbEntity
 67
     1
  8
0
100
AcDbBlockEnd
  0
BLOCK
  5
2245
330
2244
100
AcDbEntity
  8
0
100
AcDbBlockBegin
  2
CAMTOOL$$GCodeOffsetMM$$1
 70
     0
 10
0.0
 20
0.0
 30
0.0
  3
CAMTOOL$$GCodeOffsetMM$$1
  1

  0
ENDBLK
  5
2246
330
2244
100
AcDbEntity
  8
0
100
AcDbBlockEnd
  0
BLOCK
  5
2248
330
2247
100
AcDbEntity
  8
0
100
AcDbBlockBegin
  2
CAMTOOLPATH$$GCodeMM$$Profile 1
 70
     0
 10
0.0
 20
0.0
 30
0.0
  3
CAMTOOLPATH$$GCodeMM$$Profile 1
  1

  0
LWPOLYLINE
  5
1E48
330
2247
100
AcDbEntity
  8
CAM ... GCodeMM ... source
100
AcDbPolyline
 90
       10
 70
   129
 43
0.0
 10
38.0
 20
20.20601869836812
 10
38.0
 20
15.0
 42
-0.4142135623730951
 10
37.0
 20
14.0
 10
10.0
 20
14.0
 42
-0.8001991549907429
 10
9.572122461732079
 20
15.90383671769055
 42
-0.0087749076924087
 10
16.41425360735128
 20
18.99712224953549
 42
-0.0092351152491114
 10
23.00381936844255
 20
21.69482341416608
 42
-0.0104267380269241
 10
30.10397383231365
 20
24.2805678083387
 42
-0.011109506634234
 10
36.7198374772309
 20
26.37198997933379
 42
-0.5000529069733629
 10
38.0
 20
25.41203739673623
1001
QCAD
1000
CamIgnore:1
1000
CamSourceHandle:3f8
  0
LWPOLYLINE
  5
1E49
330
2247
100
AcDbEntity
  8
CAM ... GCodeMM ... source
100
AcDbPolyline
 90
       12
 70
   129
 43
0.0
 10
66.0
 20
22.5
 10
65.99999999999999
 20
30.0
 42
0.4142135623730701
 10
65.00000000000003
 20
31.00000000000004
 42
0.02305804734072
 10
58.55128526884815
 20
30.70245226262362
 42
0.0195076189837587
 10
50.86481964627463
 20
29.68795705778216
 42
0.0149260801312497
 10
44.17855261007511
 20
28.33198237845794
 42
0.0007369930472382
 10
43.76921509449556
 20
28.23552957634034
 42
0.3475359717552967
 10
43.00000000000001
 20
27.26252478324255
 10
42.99999999999999
 20
15.0
 42
0.4142135623730951
 10
43.99999999999999
 20
14.0
 10
65.0
 20
14.0
 42
0.4142135623730951
 10
66.0
 20
15.0
1001
QCAD
1000
CamIgnore:1
1000
CamSourceHandle:372
  0
LWPOLYLINE
  5
1E4A
330
2247
100
AcDbEntity
  8
CAM ... GCodeMM ... source
100
AcDbPolyline
 90
       14
 70
   129
 43
0.0
 10
70.0
 20
22.5
 10
70.0
 20
30.0
 42
0.4142135623730924
 10
65.00000000000003
 20
35.00000000000003
 42
0.0230580473407202
 10
58.18294443932989
 20
34.68545678600915
 42
0.0195076189837586
 10
50.18715818615213
 20
33.63013601686875
 42
0.0149260801312497
 10
43.26689054492708
 20
32.22670602449105
 42
0.0134047615547119
 10
35.66242008455755
 20
30.23024068747327
 42
0.011212333627782
 10
28.8138595364553
 20
28.06680672098297
 42
0.010426738026924
 10
21.55696589503653
 20
25.42398082925251
 42
0.0092351152491115
 10
14.8306655996949
 20
22.67030193776296
 42
0.0087749076924088
 10
7.860612308660109
 20
19.5191835884531
 42
0.8001991549907407
 10
10.0
 20
10.0
 10
65.0
 20
10.0
 42
0.4142135623730951
 10
70.0
 20
15.0
1001
QCAD
1000
CamIgnore:1
1000
CamSourceHandle:142
  0
LINE
  5
1E4B
330
2247
100
AcDbEntity
  8
CAM ... GCodeMM ... rapid
100
AcDbLine
 10
0.0
 20
0.0
 30
30.0
 11
35.0
 21
19.20601869836812
 31
30.0
1001
QCAD
1000
CamClosedContour:1
1000
CamContourIndex:1
1000
CamNotOffset:1
1000
CamRapidMove:1
1000
CamTool:1
1000
CamUnknownPosition:1
1000
CamZPass:1
1000
CamZPasses:1
  0
LINE
  5
1E4C
330
2247
100
AcDbEntity
  8
CAM ... GCodeMM ... rapid
100
AcDbLine
 10
35.0
 20
19.20601869836812
 30
30.0
 11
35.0
 21
19.20601869836812
 31
2.0
1001
QCAD
1000
CamClosedContour:1
1000
CamContourIndex:1
1000
CamNotOffset:1
1000
CamRapidMove:1
1000
CamTool:1
1000
CamToolDownClearance:1
1000
CamZMove:1
1000
CamZPass:1
1000
CamZPasses:1
  0
LINE
  5
1E4D
330
2247
100
AcDbEntity
  8
CAM ... GCodeMM ... rapid
100
AcDbLine
 10
35.0
 20
19.20601869836812
 30
2.0
 11
35.0
 21
19.20601869836812
 31
2.0
1001
QCAD
1000
CamClosedContour:1
1000
CamContourIndex:1
1000
CamNotOffset:1
1000
CamRapidMove:1
1000
CamTool:1
1000
CamToolDownClearancePass:1
1000
CamZMove:1
1000
CamZPass:1
1000
CamZPasses:1
  0
LINE
  5
1E4E
330
2247
100
AcDbEntity
  8
CAM ... GCodeMM ... normal
100
AcDbLine
 10
35.0
 20
19.20601869836812
 30
2.0
 11
35.0
 21
19.20601869836812
 31
-4.0
1001
QCAD
1000
CamClosedContour:1
1000
CamContourIndex:1
1000
CamDirection:1
1000
CamFeedRate:50
1000
CamNotOffset:1
1000
CamTool:1
1000
CamToolDown:1
1000
CamZMove:1
1000
CamZPass:1
1000
CamZPasses:1
  0
LINE
  5
1E4F
330
2247
100
AcDbEntity
  8
CAM ... GCodeMM ... normal
100
AcDbLine
 10
35.0
 20
19.20601869836812
 30
-4.0
 11
35.0
 21
16.20601869836812
 31
-4.0
1001
QCAD
1000
CamClosedContour:1
1000
CamCompensationOn:1
1000
CamContourIndex:1
1000
CamDirection:1
1000
CamFeedRate:100
1000
CamLeadIn:1
1000
CamNotOffset:1
1000
CamTool:1
1000
CamZPass:1
1000
CamZPasses:1
  0
ARC
  5
1E50
330
2247
100
AcDbEntity
  8
CAM ... GCodeMM ... normal
100
AcDbCircle
 10
35.0
 20
19.20601869836812
 30
-4.0
 40
3.0
100
AcDbArc
 50
270.0
 51
0.0
1001
QCAD
1000
CamClosedContour:1
1000
CamContourIndex:1
1000
CamDirection:1
1000
CamFeedRate:100
1000
CamLeadIn:1
1000
CamNotOffset:1
1000
CamTool:1
1000
CamZPass:1
1000
CamZPasses:1
  0
LINE
  5
1E51
330
2247
100
AcDbEntity
  8
CAM ... GCodeMM ... normal
100
AcDbLine
 10
38.0
 20
19.20601869836812
 30
-4.0
 11
38.0
 21
20.20601869836812
 31
-4.0
1001
QCAD
1000
CamClosedContour:1
1000
CamContourIndex:1
1000
CamDirection:1
1000
CamFeedRate:100
1000
CamNotOffset:1
1000
CamOvercutIn:1
1000
CamTool:1
1000
CamZPass:1
1000
CamZPasses:1
  0
LINE
  5
1E52
330
2247
100
AcDbEntity
  8
CAM ... GCodeMM ... normal
100
AcDbLine
 10
38.0
 20
20.20601869836812
 30
-4.0
 11
38.0
 21
25.41203739673623
 31
-4.0
1001
QCAD
1000
CamClosedContour:1
1000
CamContourIndex:1
1000
CamDirection:1
1000
CamFeedRate:100
1000
CamFirst:1
1000
CamFirstSegment:1
1000
CamNotOffset:1
1000
CamTool:1
1000
CamZPass:1
1000
CamZPasses:1
  0
ARC
  5
1E53
330
2247
100
AcDbEntity
  8
CAM ... GCodeMM ... normal
100
AcDbCircle
 10
36.99999999999998
 20
25.41203739673624
 30
-4.0
 40
1.00000000000002
100
AcDbArc
 50
0.0
 51
106.2699048111218
1001
QCAD
1000
CamClosedContour:1
1000
CamContourIndex:1
1000
CamDirection:1
1000
CamFeedRate:100
1000
CamNotOffset:1
1000
CamTool:1
1000
CamZPass:1
1000
CamZPasses:1
  0
ARC
  5
1E54
330
2247
100
AcDbEntity
  8
CAM ... GCodeMM ... normal
100
AcDbCircle
 10
80.46989198441483
 20
-123.5337768514682
 30
-4.0
 40
156.1595536575088
100
AcDbArc
 50
106.2699048111231
 51
108.8159114413487
1001
QCAD
1000
CamClosedContour:1
1000
CamContourIndex:1
1000
CamDirection:1
1000
CamFeedRate:100
1000
CamNotOffset:1
1000
CamTool:1
1000
CamZPass:1
1000
CamZPasses:1
  0
ARC
  5
1E55
330
2247
100
AcDbEntity
  8
CAM ... GCodeMM ... normal
100
AcDbCircle
 10
88.54507911282553
 20
-147.2329078746692
 30
-4.0
 40
181.196675265507
100
AcDbArc
 50
108.8159114413505
 51
111.2054571813449
1001
QCAD
1000
CamClosedContour:1
1000
CamContourIndex:1
1000
CamDirection:1
1000
CamFeedRate:100
1000
CamNotOffset:1
1000
CamTool:1
1000
CamZPass:1
1000
CamZPasses:1
  0
ARC
  5
1E56
330
2247
100
AcDbEntity
  8
CAM ... GCodeMM ... normal
100
AcDbCircle
 10
92.73116485540243
 20
-158.0222331063398
 30
-4.0
 40
192.7696114875282
100
AcDbArc
 50
111.2054571813424
 51
113.3219295216331
1001
QCAD
1000
CamClosedContour:1
1000
CamContourIndex:1
1000
CamDirection:1
1000
CamFeedRate:100
1000
CamNotOffset:1
1000
CamTool:1
1000
CamZPass:1
1000
CamZPasses:1
  0
ARC
  5
1E57
330
2247
100
AcDbEntity
  8
CAM ... GCodeMM ... normal
100
AcDbCircle
 10
101.1151222006587
 20
-177.4690726117216
 30
-4.0
 40
213.9467290325378
100
AcDbArc
 50
113.3219295216346
 51
115.332938613029
1001
QCAD
1000
CamClosedContour:1
1000
CamContourIndex:1
1000
CamDirection:1
1000
CamFeedRate:100
1000
CamNotOffset:1
1000
CamTool:1
1000
CamZPass:1
1000
CamZPasses:1
  0
ARC
  5
1E58
330
2247
100
AcDbEntity
  8
CAM ... GCodeMM ... normal
100
AcDbCircle
 10
10.00000000000001
 20
14.99999999999996
 30
-4.0
 40
0.9999999999999616
100
AcDbArc
 50
115.3329386130277
 51
269.9999999999994
1001
QCAD
1000
CamClosedContour:1
1000
CamContourIndex:1
1000
CamDirection:1
1000
CamFeedRate:100
1000
CamNotOffset:1
1000
CamTool:1
1000
CamZPass:1
1000
CamZPasses:1
  0
LINE
  5
1E59
330
2247
100
AcDbEntity
  8
CAM ... GCodeMM ... normal
100
AcDbLine
 10
10.0
 20
14.0
 30
-4.0
 11
37.0
 21
14.0
 31
-4.0
1001
QCAD
1000
CamClosedContour:1
1000
CamContourIndex:1
1000
CamDirection:1
1000
CamFeedRate:100
1000
CamNotOffset:1
1000
CamTool:1
1000
CamZPass:1
1000
CamZPasses:1
  0
ARC
  5
1E5A
330
2247
100
AcDbEntity
  8
CAM ... GCodeMM ... normal
100
AcDbCircle
 10
37.0
 20
15.0
 30
-4.0
 40
1.0
100
AcDbArc
 50
270.0
 51
0.0
1001
QCAD
1000
CamClosedContour:1
1000
CamContourIndex:1
1000
CamDirection:1
1000
CamFeedRate:100
1000
CamNotOffset:1
1000
CamTool:1
1000
CamZPass:1
1000
CamZPasses:1
  0
LINE
  5
1E5B
330
2247
100
AcDbEntity
  8
CAM ... GCodeMM ... normal
100
AcDbLine
 10
38.0
 20
15.0
 30
-4.0
 11
38.0
 21
20.20601869836812
 31
-4.0
1001
QCAD
1000
CamClosedContour:1
1000
CamContourIndex:1
1000
CamDirection:1
1000
CamFeedRate:100
1000
CamLast:1
1000
CamLastSegment:1
1000
CamNotOffset:1
1000
CamTool:1
1000
CamZPass:1
1000
CamZPasses:1
  0
LINE
  5
1E5C
330
2247
100
AcDbEntity
  8
CAM ... GCodeMM ... normal
100
AcDbLine
 10
38.0
 20
20.20601869836812
 30
-4.0
 11
38.0
 21
21.20601869836812
 31
-4.0
1001
QCAD
1000
CamClosedContour:1
1000
CamContourIndex:1
1000
CamDirection:1
1000
CamFeedRate:100
1000
CamNotOffset:1
1000
CamOvercutOut:1
1000
CamTool:1
1000
CamZPass:1
1000
CamZPasses:1
  0
ARC
  5
1E5D
330
2247
100
AcDbEntity
  8
CAM ... GCodeMM ... normal
100
AcDbCircle
 10
35.0
 20
21.20601869836812
 30
-4.0
 40
3.0
100
AcDbArc
 50
0.0
 51
90.00000000000001
1001
QCAD
1000
CamClosedContour:1
1000
CamContourIndex:1
1000
CamDirection:1
1000
CamFeedRate:100
1000
CamLeadOut:1
1000
CamNotOffset:1
1000
CamTool:1
1000
CamZPass:1
1000
CamZPasses:1
  0
LINE
  5
1E5E
330
2247
100
AcDbEntity
  8
CAM ... GCodeMM ... normal
100
AcDbLine
 10
35.0
 20
24.20601869836812
 30
-4.0
 11
35.0
 21
21.20601869836812
 31
-4.0
1001
QCAD
1000
CamClosedContour:1
1000
CamCompensationOff:1
1000
CamContourIndex:1
1000
CamDirection:1
1000
CamFeedRate:100
1000
CamLeadOut:1
1000
CamNotOffset:1
1000
CamTool:1
1000
CamZPass:1
1000
CamZPasses:1
  0
LINE
  5
1E5F
330
2247
100
AcDbEntity
  8
CAM ... GCodeMM ... offset
100
AcDbLine
 10
35.0
 20
19.20601869836812
 30
-4.0
 11
36.0
 21
17.47396789079924
 31
-4.0
1001
QCAD
1000
CamContourIndex:1
1000
CamDirection:1
1000
CamFeedRate:100
1000
CamIgnore:1
1000
CamLeadIn:1
1000
CamOffset:1
1000
CamTool:1
1000
CamZPass:1
1000
CamZPasses:1
  0
ARC
  5
1E60
330
2247
100
AcDbEntity
  8
CAM ... GCodeMM ... offset
100
AcDbCircle
 10
35.0
 20
19.20601869836812
 30
-4.0
 40
2.0
100
AcDbArc
 50
300.0
 51
0.0
1001
QCAD
1000
CamContourIndex:1
1000
CamDirection:1
1000
CamFeedRate:100
1000
CamIgnore:1
1000
CamLeadIn:1
1000
CamOffset:1
1000
CamTool:1
1000
CamZPass:1
1000
CamZPasses:1
  0
LINE
  5
1E61
330
2247
100
AcDbEntity
  8
CAM ... GCodeMM ... offset
100
AcDbLine
 10
37.0
 20
19.20601869836812
 30
-4.0
 11
37.0
 21
20.20601869836812
 31
-4.0
1001
QCAD
1000
CamContourIndex:1
1000
CamDirection:1
1000
CamFeedRate:100
1000
CamIgnore:1
1000
CamOffset:1
1000
CamOvercutIn:1
1000
CamTool:1
1000
CamZPass:1
1000
CamZPasses:1
  0
LINE
  5
1E62
330
2247
100
AcDbEntity
  8
CAM ... GCodeMM ... offset
100
AcDbLine
 10
37.0
 20
20.20601869836812
 30
-4.0
 11
37.0
 21
25.41203739673623
 31
-4.0
1001
QCAD
1000
CamContourIndex:1
1000
CamDirection:1
1000
CamFeedRate:100
1000
CamIgnore:1
1000
CamOffset:1
1000
CamTool:1
1000
CamZPass:1
1000
CamZPasses:1
  0
ARC
  5
1E63
330
2247
100
AcDbEntity
  8
CAM ... GCodeMM ... offset
100
AcDbCircle
 10
36.99999999999999
 20
25.41203739673626
 30
-4.0
 40
0.0000000000000251
100
AcDbArc
 50
0.0
 51
0.0
1001
QCAD
1000
CamContourIndex:1
1000
CamDirection:1
1000
CamFeedRate:100
1000
CamIgnore:1
1000
CamOffset:1
1000
CamTool:1
1000
CamZPass:1
1000
CamZPasses:1
  0
ARC
  5
1E64
330
2247
100
AcDbEntity
  8
CAM ... GCodeMM ... offset
100
AcDbCircle
 10
80.469891984414
 20
-123.5337768514678
 30
-4.0
 40
155.159553657508
100
AcDbArc
 50
106.2699048111229
 51
108.8159114413485
1001
QCAD
1000
CamContourIndex:1
1000
CamDirection:1
1000
CamFeedRate:100
1000
CamIgnore:1
1000
CamOffset:1
1000
CamTool:1
1000
CamZPass:1
1000
CamZPasses:1
  0
ARC
  5
1E65
330
2247
100
AcDbEntity
  8
CAM ... GCodeMM ... offset
100
AcDbCircle
 10
88.54507911282678
 20
-147.2329078746681
 30
-4.0
 40
180.1966752655064
100
AcDbArc
 50
108.815911441351
 51
111.2054571813454
1001
QCAD
1000
CamContourIndex:1
1000
CamDirection:1
1000
CamFeedRate:100
1000
CamIgnore:1
1000
CamOffset:1
1000
CamTool:1
1000
CamZPass:1
1000
CamZPasses:1
  0
ARC
  5
1E66
330
2247
100
AcDbEntity
  8
CAM ... GCodeMM ... offset
100
AcDbCircle
 10
92.73116485540038
 20
-158.0222331063399
 30
-4.0
 40
191.7696114875275
100
AcDbArc
 50
111.2054571813418
 51
113.3219295216325
1001
QCAD
1000
CamContourIndex:1
1000
CamDirection:1
1000
CamFeedRate:100
1000
CamIgnore:1
1000
CamOffset:1
1000
CamTool:1
1000
CamZPass:1
1000
CamZPasses:1
  0
ARC
  5
1E67
330
2247
100
AcDbEntity
  8
CAM ... GCodeMM ... offset
100
AcDbCircle
 10
101.1151222006587
 20
-177.4690726117188
 30
-4.0
 40
212.9467290325353
100
AcDbArc
 50
113.3219295216349
 51
115.3329386130293
1001
QCAD
1000
CamContourIndex:1
1000
CamDirection:1
1000
CamFeedRate:100
1000
CamIgnore:1
1000
CamOffset:1
1000
CamTool:1
1000
CamZPass:1
1000
CamZPasses:1
  0
LINE
  5
1E68
330
2247
100
AcDbEntity
  8
CAM ... GCodeMM ... offset
100
AcDbLine
 10
10.00000000000003
 20
14.99999999999991
 30
-4.0
 11
10.0
 21
14.9999999999999
 31
-4.0
1001
QCAD
1000
CamContourIndex:1
1000
CamDirection:1
1000
CamFeedRate:100
1000
CamIgnore:1
1000
CamOffset:1
1000
CamTool:1
1000
CamZPass:1
1000
CamZPasses:1
  0
LINE
  5
1E69
330
2247
100
AcDbEntity
  8
CAM ... GCodeMM ... offset
100
AcDbLine
 10
10.0
 20
14.9999999999999
 30
-4.0
 11
37.0
 21
15.0
 31
-4.0
1001
QCAD
1000
CamContourIndex:1
1000
CamDirection:1
1000
CamFeedRate:100
1000
CamIgnore:1
1000
CamOffset:1
1000
CamTool:1
1000
CamZPass:1
1000
CamZPasses:1
  0
LINE
  5
1E6A
330
2247
100
AcDbEntity
  8
CAM ... GCodeMM ... offset
100
AcDbLine
 10
37.0
 20
15.0
 30
-4.0
 11
37.0
 21
15.0
 31
-4.0
1001
QCAD
1000
CamContourIndex:1
1000
CamDirection:1
1000
CamFeedRate:100
1000
CamIgnore:1
1000
CamOffset:1
1000
CamTool:1
1000
CamZPass:1
1000
CamZPasses:1
  0
LINE
  5
1E6B
330
2247
100
AcDbEntity
  8
CAM ... GCodeMM ... offset
100
AcDbLine
 10
37.0
 20
15.0
 30
-4.0
 11
37.0
 21
20.20601869836812
 31
-4.0
1001
QCAD
1000
CamContourIndex:1
1000
CamDirection:1
1000
CamFeedRate:100
1000
CamIgnore:1
1000
CamOffset:1
1000
CamTool:1
1000
CamZPass:1
1000
CamZPasses:1
  0
LINE
  5
1E6C
330
2247
100
AcDbEntity
  8
CAM ... GCodeMM ... offset
100
AcDbLine
 10
37.0
 20
20.20601869836812
 30
-4.0
 11
37.0
 21
21.20601869836812
 31
-4.0
1001
QCAD
1000
CamContourIndex:1
1000
CamDirection:1
1000
CamFeedRate:100
1000
CamIgnore:1
1000
CamOffset:1
1000
CamOvercutOut:1
1000
CamTool:1
1000
CamZPass:1
1000
CamZPasses:1
  0
ARC
  5
1E6D
330
2247
100
AcDbEntity
  8
CAM ... GCodeMM ... offset
100
AcDbCircle
 10
35.0
 20
21.20601869836812
 30
-4.0
 40
2.0
100
AcDbArc
 50
0.0
 51
59.99999999999996
1001
QCAD
1000
CamContourIndex:1
1000
CamDirection:1
1000
CamFeedRate:100
1000
CamIgnore:1
1000
CamLeadOut:1
1000
CamOffset:1
1000
CamTool:1
1000
CamZPass:1
1000
CamZPasses:1
  0
LINE
  5
1E6E
330
2247
100
AcDbEntity
  8
CAM ... GCodeMM ... offset
100
AcDbLine
 10
36.0
 20
22.93806950593699
 30
-4.0
 11
35.0
 21
21.20601869836812
 31
-4.0
1001
QCAD
1000
CamContourIndex:1
1000
CamDirection:1
1000
CamFeedRate:100
1000
CamIgnore:1
1000
CamLeadOut:1
1000
CamOffset:1
1000
CamTool:1
1000
CamZPass:1
1000
CamZPasses:1
  0
LINE
  5
1E6F
330
2247
100
AcDbEntity
  8
CAM ... GCodeMM ... normal
100
AcDbLine
 10
35.0
 20
21.20601869836812
 30
-4.0
 11
35.0
 21
21.20601869836812
 31
2.0
1001
QCAD
1000
CamContourIndex:1
1000
CamDirection:1
1000
CamFeedRate:100
1000
CamTool:1
1000
CamToolUp:1
1000
CamZMove:1
1000
CamZPass:1
1000
CamZPasses:1
  0
LINE
  5
1E70
330
2247
100
AcDbEntity
  8
CAM ... GCodeMM ... rapid
100
AcDbLine
 10
35.0
 20
21.20601869836812
 30
2.0
 11
63.0
 21
21.5
 31
2.0
1001
QCAD
1000
CamClosedContour:1
1000
CamContourIndex:2
1000
CamNotOffset:1
1000
CamRapidMove:1
1000
CamTool:1
1000
CamZPass:1
1000
CamZPasses:1
  0
LINE
  5
1E71
330
2247
100
AcDbEntity
  8
CAM ... GCodeMM ... rapid
100
AcDbLine
 10
63.0
 20
21.5
 30
2.0
 11
63.0
 21
21.5
 31
2.0
1001
QCAD
1000
CamClosedContour:1
1000
CamContourIndex:2
1000
CamNotOffset:1
1000
CamRapidMove:1
1000
CamTool:1
1000
CamToolDownClearance:1
1000
CamZMove:1
1000
CamZPass:1
1000
CamZPasses:1
  0
LINE
  5
1E72
330
2247
100
AcDbEntity
  8
CAM ... GCodeMM ... rapid
100
AcDbLine
 10
63.0
 20
21.5
 30
2.0
 11
63.0
 21
21.5
 31
2.0
1001
QCAD
1000
CamClosedContour:1
1000
CamContourIndex:2
1000
CamNotOffset:1
1000
CamRapidMove:1
1000
CamTool:1
1000
CamToolDownClearancePass:1
1000
CamZMove:1
1000
CamZPass:1
1000
CamZPasses:1
  0
LINE
  5
1E73
330
2247
100
AcDbEntity
  8
CAM ... GCodeMM ... normal
100
AcDbLine
 10
63.0
 20
21.5
 30
2.0
 11
63.0
 21
21.5
 31
-4.0
1001
QCAD
1000
CamClosedContour:1
1000
CamContourIndex:2
1000
CamDirection:1
1000
CamFeedRate:50
1000
CamNotOffset:1
1000
CamTool:1
1000
CamToolDown:1
1000
CamZMove:1
1000
CamZPass:1
1000
CamZPasses:1
  0
LINE
  5
1E74
330
2247
100
AcDbEntity
  8
CAM ... GCodeMM ... normal
100
AcDbLine
 10
63.0
 20
21.5
 30
-4.0
 11
63.0
 21
18.5
 31
-4.0
1001
QCAD
1000
CamClosedContour:1
1000
CamCompensationOn:1
1000
CamContourIndex:2
1000
CamDirection:1
1000
CamFeedRate:100
1000
CamLeadIn:1
1000
CamNotOffset:1
1000
CamTool:1
1000
CamZPass:1
1000
CamZPasses:1
  0
ARC
  5
1E75
330
2247
100
AcDbEntity
  8
CAM ... GCodeMM ... normal
100
AcDbCircle
 10
63.0
 20
21.5
 30
-4.0
 40
3.0
100
AcDbArc
 50
270.0
 51
0.0
1001
QCAD
1000
CamClosedContour:1
1000
CamContourIndex:2
1000
CamDirection:1
1000
CamFeedRate:100
1000
CamLeadIn:1
1000
CamNotOffset:1
1000
CamTool:1
1000
CamZPass:1
1000
CamZPasses:1
  0
LINE
  5
1E76
330
2247
100
AcDbEntity
  8
CAM ... GCodeMM ... normal
100
AcDbLine
 10
66.0
 20
21.5
 30
-4.0
 11
66.0
 21
22.5
 31
-4.0
1001
QCAD
1000
CamClosedContour:1
1000
CamContourIndex:2
1000
CamDirection:1
1000
CamFeedRate:100
1000
CamNotOffset:1
1000
CamOvercutIn:1
1000
CamTool:1
1000
CamZPass:1
1000
CamZPasses:1
  0
LINE
  5
1E77
330
2247
100
AcDbEntity
  8
CAM ... GCodeMM ... normal
100
AcDbLine
 10
66.0
 20
22.5
 30
-4.0
 11
65.99999999999999
 21
30.0
 31
-4.0
1001
QCAD
1000
CamClosedContour:1
1000
CamContourIndex:2
1000
CamDirection:1
1000
CamFeedRate:100
1000
CamFirst:1
1000
CamFirstSegment:1
1000
CamNotOffset:1
1000
CamTool:1
1000
CamZPass:1
1000
CamZPasses:1
  0
ARC
  5
1E78
330
2247
100
AcDbEntity
  8
CAM ... GCodeMM ... normal
100
AcDbCircle
 10
64.99999999999994
 20
30.0
 30
-4.0
 40
1.000000000000041
100
AcDbArc
 50
0.0
 51
89.99999999999511
1001
QCAD
1000
CamClosedContour:1
1000
CamContourIndex:2
1000
CamDirection:1
1000
CamFeedRate:100
1000
CamNotOffset:1
1000
CamTool:1
1000
CamZPass:1
1000
CamZPasses:1
  0
ARC
  5
1E79
330
2247
100
AcDbEntity
  8
CAM ... GCodeMM ... normal
100
AcDbCircle
 10
65.00000000000045
 20
-39.02986597588789
 30
-4.0
 40
70.02986597588793
100
AcDbArc
 50
90.00000000000034
 51
95.28357893874866
1001
QCAD
1000
CamClosedContour:1
1000
CamContourIndex:2
1000
CamDirection:1
1000
CamFeedRate:100
1000
CamNotOffset:1
1000
CamTool:1
1000
CamZPass:1
1000
CamZPasses:1
  0
ARC
  5
1E7A
330
2247
100
AcDbEntity
  8
CAM ... GCodeMM ... normal
100
AcDbCircle
 10
67.70437382279007
 20
-68.2732522797772
 30
-4.0
 40
99.39803378206696
100
AcDbArc
 50
95.28357893874863
 51
99.75382889372312
1001
QCAD
1000
CamClosedContour:1
1000
CamContourIndex:2
1000
CamDirection:1
1000
CamFeedRate:100
1000
CamNotOffset:1
1000
CamTool:1
1000
CamZPass:1
1000
CamZPasses:1
  0
ARC
  5
1E7B
330
2247
100
AcDbEntity
  8
CAM ... GCodeMM ... normal
100
AcDbCircle
 10
70.22812634381397
 20
-82.95474838334637
 30
-4.0
 40
114.2948674935135
100
AcDbArc
 50
99.75382889372243
 51
103.1743804744593
1001
QCAD
1000
CamClosedContour:1
1000
CamContourIndex:2
1000
CamDirection:1
1000
CamFeedRate:100
1000
CamNotOffset:1
1000
CamTool:1
1000
CamZPass:1
1000
CamZPasses:1
  0
ARC
  5
1E7C
330
2247
100
AcDbEntity
  8
CAM ... GCodeMM ... normal
100
AcDbCircle
 10
76.69222159300836
 20
-110.5700957577847
 30
-4.0
 40
142.6566717027234
100
AcDbArc
 50
103.1743804744681
 51
103.343286808436
1001
QCAD
1000
CamClosedContour:1
1000
CamContourIndex:2
1000
CamDirection:1
1000
CamFeedRate:100
1000
CamNotOffset:1
1000
CamTool:1
1000
CamZPass:1
1000
CamZPasses:1
  0
ARC
  5
1E7D
330
2247
100
AcDbEntity
  8
CAM ... GCodeMM ... normal
100
AcDbCircle
 10
44.0
 20
27.26252478324254
 30
-4.0
 40
0.99999999999999
100
AcDbArc
 50
103.3432868084273
 51
180.0
1001
QCAD
1000
CamClosedContour:1
1000
CamContourIndex:2
1000
CamDirection:1
1000
CamFeedRate:100
1000
CamNotOffset:1
1000
CamTool:1
1000
CamZPass:1
1000
CamZPasses:1
  0
LINE
  5
1E7E
330
2247
100
AcDbEntity
  8
CAM ... GCodeMM ... normal
100
AcDbLine
 10
43.00000000000001
 20
27.26252478324255
 30
-4.0
 11
42.99999999999999
 21
15.0
 31
-4.0
1001
QCAD
1000
CamClosedContour:1
1000
CamContourIndex:2
1000
CamDirection:1
1000
CamFeedRate:100
1000
CamNotOffset:1
1000
CamTool:1
1000
CamZPass:1
1000
CamZPasses:1
  0
ARC
  5
1E7F
330
2247
100
AcDbEntity
  8
CAM ... GCodeMM ... normal
100
AcDbCircle
 10
43.99999999999999
 20
15.0
 30
-4.0
 40
1.0
100
AcDbArc
 50
180.0
 51
270.0
1001
QCAD
1000
CamClosedContour:1
1000
CamContourIndex:2
1000
CamDirection:1
1000
CamFeedRate:100
1000
CamNotOffset:1
1000
CamTool:1
1000
CamZPass:1
1000
CamZPasses:1
  0
LINE
  5
1E80
330
2247
100
AcDbEntity
  8
CAM ... GCodeMM ... normal
100
AcDbLine
 10
43.99999999999999
 20
14.0
 30
-4.0
 11
65.0
 21
14.0
 31
-4.0
1001
QCAD
1000
CamClosedContour:1
1000
CamContourIndex:2
1000
CamDirection:1
1000
CamFeedRate:100
1000
CamNotOffset:1
1000
CamTool:1
1000
CamZPass:1
1000
CamZPasses:1
  0
ARC
  5
1E81
330
2247
100
AcDbEntity
  8
CAM ... GCodeMM ... normal
100
AcDbCircle
 10
65.0
 20
15.0
 30
-4.0
 40
1.0
100
AcDbArc
 50
270.0
 51
0.0
1001
QCAD
1000
CamClosedContour:1
1000
CamContourIndex:2
1000
CamDirection:1
1000
CamFeedRate:100
1000
CamNotOffset:1
1000
CamTool:1
1000
CamZPass:1
1000
CamZPasses:1
  0
LINE
  5
1E82
330
2247
100
AcDbEntity
  8
CAM ... GCodeMM ... normal
100
AcDbLine
 10
66.0
 20
15.0
 30
-4.0
 11
66.0
 21
22.5
 31
-4.0
1001
QCAD
1000
CamClosedContour:1
1000
CamContourIndex:2
1000
CamDirection:1
1000
CamFeedRate:100
1000
CamLast:1
1000
CamLastSegment:1
1000
CamNotOffset:1
1000
CamTool:1
1000
CamZPass:1
1000
CamZPasses:1
  0
LINE
  5
1E83
330
2247
100
AcDbEntity
  8
CAM ... GCodeMM ... normal
100
AcDbLine
 10
66.0
 20
22.5
 30
-4.0
 11
66.0
 21
23.5
 31
-4.0
1001
QCAD
1000
CamClosedContour:1
1000
CamContourIndex:2
1000
CamDirection:1
1000
CamFeedRate:100
1000
CamNotOffset:1
1000
CamOvercutOut:1
1000
CamTool:1
1000
CamZPass:1
1000
CamZPasses:1
  0
ARC
  5
1E84
330
2247
100
AcDbEntity
  8
CAM ... GCodeMM ... normal
100
AcDbCircle
 10
63.0
 20
23.5
 30
-4.0
 40
3.0
100
AcDbArc
 50
0.0
 51
90.00000000000001
1001
QCAD
1000
CamClosedContour:1
1000
CamContourIndex:2
1000
CamDirection:1
1000
CamFeedRate:100
1000
CamLeadOut:1
1000
CamNotOffset:1
1000
CamTool:1
1000
CamZPass:1
1000
CamZPasses:1
  0
LINE
  5
1E85
330
2247
100
AcDbEntity
  8
CAM ... GCodeMM ... normal
100
AcDbLine
 10
63.0
 20
26.5
 30
-4.0
 11
63.0
 21
23.5
 31
-4.0
1001
QCAD
1000
CamClosedContour:1
1000
CamCompensationOff:1
1000
CamContourIndex:2
1000
CamDirection:1
1000
CamFeedRate:100
1000
CamLeadOut:1
1000
CamNotOffset:1
1000
CamTool:1
1000
CamZPass:1
1000
CamZPasses:1
  0
LINE
  5
1E86
330
2247
100
AcDbEntity
  8
CAM ... GCodeMM ... offset
100
AcDbLine
 10
63.0
 20
21.5
 30
-4.0
 11
64.0
 21
19.76794919243112
 31
-4.0
1001
QCAD
1000
CamContourIndex:2
1000
CamDirection:1
1000
CamFeedRate:100
1000
CamIgnore:1
1000
CamLeadIn:1
1000
CamOffset:1
1000
CamTool:1
1000
CamZPass:1
1000
CamZPasses:1
  0
ARC
  5
1E87
330
2247
100
AcDbEntity
  8
CAM ... GCodeMM ... offset
100
AcDbCircle
 10
63.0
 20
21.5
 30
-4.0
 40
2.0
100
AcDbArc
 50
300.0
 51
0.0
1001
QCAD
1000
CamContourIndex:2
1000
CamDirection:1
1000
CamFeedRate:100
1000
CamIgnore:1
1000
CamLeadIn:1
1000
CamOffset:1
1000
CamTool:1
1000
CamZPass:1
1000
CamZPasses:1
  0
LINE
  5
1E88
330
2247
100
AcDbEntity
  8
CAM ... GCodeMM ... offset
100
AcDbLine
 10
65.0
 20
21.5
 30
-4.0
 11
65.0
 21
22.5
 31
-4.0
1001
QCAD
1000
CamContourIndex:2
1000
CamDirection:1
1000
CamFeedRate:100
1000
CamIgnore:1
1000
CamOffset:1
1000
CamOvercutIn:1
1000
CamTool:1
1000
CamZPass:1
1000
CamZPasses:1
  0
LINE
  5
1E89
330
2247
100
AcDbEntity
  8
CAM ... GCodeMM ... offset
100
AcDbLine
 10
65.0
 20
22.5
 30
-4.0
 11
64.99999999999999
 21
30.0
 31
-4.0
1001
QCAD
1000
CamContourIndex:2
1000
CamDirection:1
1000
CamFeedRate:100
1000
CamIgnore:1
1000
CamOffset:1
1000
CamTool:1
1000
CamZPass:1
1000
CamZPasses:1
  0
ARC
  5
1E8A
330
2247
100
AcDbEntity
  8
CAM ... GCodeMM ... offset
100
AcDbCircle
 10
64.99999999999997
 20
30.00000000000005
 30
-4.0
 40
0.0000000000000409
100
AcDbArc
 50
0.0
 51
0.0
1001
QCAD
1000
CamContourIndex:2
1000
CamDirection:1
1000
CamFeedRate:100
1000
CamIgnore:1
1000
CamOffset:1
1000
CamTool:1
1000
CamZPass:1
1000
CamZPasses:1
  0
ARC
  5
1E8B
330
2247
100
AcDbEntity
  8
CAM ... GCodeMM ... offset
100
AcDbCircle
 10
65.0000000000004
 20
-39.02986597588764
 30
-4.0
 40
69.02986597588769
100
AcDbArc
 50
90.00000000000038
 51
95.28357893874863
1001
QCAD
1000
CamContourIndex:2
1000
CamDirection:1
1000
CamFeedRate:100
1000
CamIgnore:1
1000
CamOffset:1
1000
CamTool:1
1000
CamZPass:1
1000
CamZPasses:1
  0
ARC
  5
1E8C
330
2247
100
AcDbEntity
  8
CAM ... GCodeMM ... offset
100
AcDbCircle
 10
67.70437382279009
 20
-68.27325227977707
 30
-4.0
 40
98.39803378206683
100
AcDbArc
 50
95.28357893874866
 51
99.75382889372312
1001
QCAD
1000
CamContourIndex:2
1000
CamDirection:1
1000
CamFeedRate:100
1000
CamIgnore:1
1000
CamOffset:1
1000
CamTool:1
1000
CamZPass:1
1000
CamZPasses:1
  0
ARC
  5
1E8D
330
2247
100
AcDbEntity
  8
CAM ... GCodeMM ... offset
100
AcDbCircle
 10
70.22812634381377
 20
-82.95474838334678
 30
-4.0
 40
113.2948674935139
100
AcDbArc
 50
99.75382889372229
 51
103.1743804744591
1001
QCAD
1000
CamContourIndex:2
1000
CamDirection:1
1000
CamFeedRate:100
1000
CamIgnore:1
1000
CamOffset:1
1000
CamTool:1
1000
CamZPass:1
1000
CamZPasses:1
  0
ARC
  5
1E8E
330
2247
100
AcDbEntity
  8
CAM ... GCodeMM ... offset
100
AcDbCircle
 10
76.692221593012
 20
-110.5700957577856
 30
-4.0
 40
141.6566717027251
100
AcDbArc
 50
103.1743804744695
 51
103.3432868084374
1001
QCAD
1000
CamContourIndex:2
1000
CamDirection:1
1000
CamFeedRate:100
1000
CamIgnore:1
1000
CamOffset:1
1000
CamTool:1
1000
CamZPass:1
1000
CamZPasses:1
  0
LINE
  5
1E8F
330
2247
100
AcDbEntity
  8
CAM ... GCodeMM ... offset
100
AcDbLine
 10
44.00000000000018
 20
27.26252478324257
 30
-4.0
 11
44.00000000000001
 21
27.26252478324253
 31
-4.0
1001
QCAD
1000
CamContourIndex:2
1000
CamDirection:1
1000
CamFeedRate:100
1000
CamIgnore:1
1000
CamOffset:1
1000
CamTool:1
1000
CamZPass:1
1000
CamZPasses:1
  0
LINE
  5
1E90
330
2247
100
AcDbEntity
  8
CAM ... GCodeMM ... offset
100
AcDbLine
 10
44.00000000000001
 20
27.26252478324253
 30
-4.0
 11
43.99999999999999
 21
15.0
 31
-4.0
1001
QCAD
1000
CamContourIndex:2
1000
CamDirection:1
1000
CamFeedRate:100
1000
CamIgnore:1
1000
CamOffset:1
1000
CamTool:1
1000
CamZPass:1
1000
CamZPasses:1
  0
ARC
  5
1E91
330
2247
100
AcDbEntity
  8
CAM ... GCodeMM ... offset
100
AcDbCircle
 10
43.99999999999999
 20
15.0
 30
-4.0
 40
0.0000000000000013
100
AcDbArc
 50
0.0
 51
0.0
1001
QCAD
1000
CamContourIndex:2
1000
CamDirection:1
1000
CamFeedRate:100
1000
CamIgnore:1
1000
CamOffset:1
1000
CamTool:1
1000
CamZPass:1
1000
CamZPasses:1
  0
LINE
  5
1E92
330
2247
100
AcDbEntity
  8
CAM ... GCodeMM ... offset
100
AcDbLine
 10
43.99999999999999
 20
15.0
 30
-4.0
 11
65.0
 21
15.0
 31
-4.0
1001
QCAD
1000
CamContourIndex:2
1000
CamDirection:1
1000
CamFeedRate:100
1000
CamIgnore:1
1000
CamOffset:1
1000
CamTool:1
1000
CamZPass:1
1000
CamZPasses:1
  0
LINE
  5
1E93
330
2247
100
AcDbEntity
  8
CAM ... GCodeMM ... offset
100
AcDbLine
 10
65.0
 20
15.0
 30
-4.0
 11
65.0
 21
15.0
 31
-4.0
1001
QCAD
1000
CamContourIndex:2
1000
CamDirection:1
1000
CamFeedRate:100
1000
CamIgnore:1
1000
CamOffset:1
1000
CamTool:1
1000
CamZPass:1
1000
CamZPasses:1
  0
LINE
  5
1E94
330
2247
100
AcDbEntity
  8
CAM ... GCodeMM ... offset
100
AcDbLine
 10
65.0
 20
15.0
 30
-4.0
 11
65.0
 21
22.5
 31
-4.0
1001
QCAD
1000
CamContourIndex:2
1000
CamDirection:1
1000
CamFeedRate:100
1000
CamIgnore:1
1000
CamOffset:1
1000
CamTool:1
1000
CamZPass:1
1000
CamZPasses:1
  0
LINE
  5
1E95
330
2247
100
AcDbEntity
  8
CAM ... GCodeMM ... offset
100
AcDbLine
 10
65.0
 20
22.5
 30
-4.0
 11
65.0
 21
23.5
 31
-4.0
1001
QCAD
1000
CamContourIndex:2
1000
CamDirection:1
1000
CamFeedRate:100
1000
CamIgnore:1
1000
CamOffset:1
1000
CamOvercutOut:1
1000
CamTool:1
1000
CamZPass:1
1000
CamZPasses:1
  0
ARC
  5
1E96
330
2247
100
AcDbEntity
  8
CAM ... GCodeMM ... offset
100
AcDbCircle
 10
63.0
 20
23.5
 30
-4.0
 40
2.0
100
AcDbArc
 50
0.0
 51
59.99999999999996
1001
QCAD
1000
CamContourIndex:2
1000
CamDirection:1
1000
CamFeedRate:100
1000
CamIgnore:1
1000
CamLeadOut:1
1000
CamOffset:1
1000
CamTool:1
1000
CamZPass:1
1000
CamZPasses:1
  0
LINE
  5
1E97
330
2247
100
AcDbEntity
  8
CAM ... GCodeMM ... offset
100
AcDbLine
 10
64.0
 20
25.23205080756887
 30
-4.0
 11
63.0
 21
23.5
 31
-4.0
1001
QCAD
1000
CamContourIndex:2
1000
CamDirection:1
1000
CamFeedRate:100
1000
CamIgnore:1
1000
CamLeadOut:1
1000
CamOffset:1
1000
CamTool:1
1000
CamZPass:1
1000
CamZPasses:1
  0
LINE
  5
1E98
330
2247
100
AcDbEntity
  8
CAM ... GCodeMM ... normal
100
AcDbLine
 10
63.0
 20
23.5
 30
-4.0
 11
63.0
 21
23.5
 31
2.0
1001
QCAD
1000
CamContourIndex:2
1000
CamDirection:1
1000
CamFeedRate:100
1000
CamTool:1
1000
CamToolUp:1
1000
CamZMove:1
1000
CamZPass:1
1000
CamZPasses:1
  0
LINE
  5
1E99
330
2247
100
AcDbEntity
  8
CAM ... GCodeMM ... rapid
100
AcDbLine
 10
63.0
 20
23.5
 30
2.0
 11
73.0
 21
23.5
 31
2.0
1001
QCAD
1000
CamClosedContour:1
1000
CamContourIndex:0
1000
CamNotOffset:1
1000
CamRapidMove:1
1000
CamTool:1
1000
CamZPass:1
1000
CamZPasses:1
  0
LINE
  5
1E9A
330
2247
100
AcDbEntity
  8
CAM ... GCodeMM ... rapid
100
AcDbLine
 10
73.0
 20
23.5
 30
2.0
 11
73.0
 21
23.5
 31
2.0
1001
QCAD
1000
CamClosedContour:1
1000
CamContourIndex:0
1000
CamNotOffset:1
1000
CamRapidMove:1
1000
CamTool:1
1000
CamToolDownClearance:1
1000
CamZMove:1
1000
CamZPass:1
1000
CamZPasses:1
  0
LINE
  5
1E9B
330
2247
100
AcDbEntity
  8
CAM ... GCodeMM ... rapid
100
AcDbLine
 10
73.0
 20
23.5
 30
2.0
 11
73.0
 21
23.5
 31
2.0
1001
QCAD
1000
CamClosedContour:1
1000
CamContourIndex:0
1000
CamNotOffset:1
1000
CamRapidMove:1
1000
CamTool:1
1000
CamToolDownClearancePass:1
1000
CamZMove:1
1000
CamZPass:1
1000
CamZPasses:1
  0
LINE
  5
1E9C
330
2247
100
AcDbEntity
  8
CAM ... GCodeMM ... normal
100
AcDbLine
 10
73.0
 20
23.5
 30
2.0
 11
73.0
 21
23.5
 31
-4.0
1001
QCAD
1000
CamClosedContour:1
1000
CamContourIndex:0
1000
CamDirection:1
1000
CamFeedRate:50
1000
CamNotOffset:1
1000
CamTool:1
1000
CamToolDown:1
1000
CamZMove:1
1000
CamZPass:1
1000
CamZPasses:1
  0
LINE
  5
1E9D
330
2247
100
AcDbEntity
  8
CAM ... GCodeMM ... normal
100
AcDbLine
 10
73.0
 20
23.5
 30
-4.0
 11
73.0
 21
26.5
 31
-4.0
1001
QCAD
1000
CamClosedContour:1
1000
CamCompensationOn:1
1000
CamContourIndex:0
1000
CamDirection:1
1000
CamFeedRate:100
1000
CamLeadIn:1
1000
CamNotOffset:1
1000
CamTool:1
1000
CamZPass:1
1000
CamZPasses:1
  0
ARC
  5
1E9E
330
2247
100
AcDbEntity
  8
CAM ... GCodeMM ... normal
100
AcDbCircle
 10
73.0
 20
23.5
 30
-4.0
 40
3.0
100
AcDbArc
 50
90.0
 51
180.0
1001
QCAD
1000
CamClosedContour:1
1000
CamContourIndex:0
1000
CamDirection:1
1000
CamFeedRate:100
1000
CamLeadIn:1
1000
CamNotOffset:1
1000
CamTool:1
1000
CamZPass:1
1000
CamZPasses:1
  0
LINE
  5
1E9F
330
2247
100
AcDbEntity
  8
CAM ... GCodeMM ... normal
100
AcDbLine
 10
70.0
 20
23.5
 30
-4.0
 11
70.0
 21
22.5
 31
-4.0
1001
QCAD
1000
CamClosedContour:1
1000
CamContourIndex:0
1000
CamDirection:1
1000
CamFeedRate:100
1000
CamNotOffset:1
1000
CamOvercutIn:1
1000
CamTool:1
1000
CamZPass:1
1000
CamZPasses:1
  0
LINE
  5
1EA0
330
2247
100
AcDbEntity
  8
CAM ... GCodeMM ... normal
100
AcDbLine
 10
70.0
 20
22.5
 30
-4.0
 11
70.0
 21
15.0
 31
-4.0
1001
QCAD
1000
CamClosedContour:1
1000
CamContourIndex:0
1000
CamDirection:1
1000
CamFeedRate:100
1000
CamFirst:1
1000
CamFirstSegment:1
1000
CamNotOffset:1
1000
CamTool:1
1000
CamZPass:1
1000
CamZPasses:1
  0
ARC
  5
1EA1
330
2247
100
AcDbEntity
  8
CAM ... GCodeMM ... normal
100
AcDbCircle
 10
65.0
 20
15.0
 30
-4.0
 40
5.0
100
AcDbArc
 50
270.0
 51
0.0
1001
QCAD
1000
CamClosedContour:1
1000
CamContourIndex:0
1000
CamDirection:1
1000
CamFeedRate:100
1000
CamNotOffset:1
1000
CamTool:1
1000
CamZPass:1
1000
CamZPasses:1
1000
reversed:1
  0
LINE
  5
1EA2
330
2247
100
AcDbEntity
  8
CAM ... GCodeMM ... normal
100
AcDbLine
 10
65.0
 20
10.0
 30
-4.0
 11
10.0
 21
10.0
 31
-4.0
1001
QCAD
1000
CamClosedContour:1
1000
CamContourIndex:0
1000
CamDirection:1
1000
CamFeedRate:100
1000
CamNotOffset:1
1000
CamTool:1
1000
CamZPass:1
1000
CamZPasses:1
  0
ARC
  5
1EA3
330
2247
100
AcDbEntity
  8
CAM ... GCodeMM ... normal
100
AcDbCircle
 10
9.999999999999963
 20
15.00000000000002
 30
-4.0
 40
5.000000000000016
100
AcDbArc
 50
115.3329386130289
 51
270.0000000000004
1001
QCAD
1000
CamClosedContour:1
1000
CamContourIndex:0
1000
CamDirection:1
1000
CamFeedRate:100
1000
CamNotOffset:1
1000
CamTool:1
1000
CamZPass:1
1000
CamZPasses:1
1000
reversed:1
  0
ARC
  5
1EA4
330
2247
100
AcDbEntity
  8
CAM ... GCodeMM ... normal
100
AcDbCircle
 10
101.1151222006544
 20
-177.469072611721
 30
-4.0
 40
217.9467290325356
100
AcDbArc
 50
113.3219295216337
 51
115.332938613028
1001
QCAD
1000
CamClosedContour:1
1000
CamContourIndex:0
1000
CamDirection:1
1000
CamFeedRate:100
1000
CamNotOffset:1
1000
CamTool:1
1000
CamZPass:1
1000
CamZPasses:1
1000
reversed:1
  0
ARC
  5
1EA5
330
2247
100
AcDbEntity
  8
CAM ... GCodeMM ... normal
100
AcDbCircle
 10
92.73116485540629
 20
-158.0222331063386
 30
-4.0
 40
196.7696114875286
100
AcDbArc
 50
111.2054571813436
 51
113.3219295216343
1001
QCAD
1000
CamClosedContour:1
1000
CamContourIndex:0
1000
CamDirection:1
1000
CamFeedRate:100
1000
CamNotOffset:1
1000
CamTool:1
1000
CamZPass:1
1000
CamZPasses:1
1000
reversed:1
  0
ARC
  5
1EA6
330
2247
100
AcDbEntity
  8
CAM ... GCodeMM ... normal
100
AcDbCircle
 10
88.54507911282178
 20
-147.2329078746712
 30
-4.0
 40
185.1966752655077
100
AcDbArc
 50
108.8159114413492
 51
111.2054571813435
1001
QCAD
1000
CamClosedContour:1
1000
CamContourIndex:0
1000
CamDirection:1
1000
CamFeedRate:100
1000
CamNotOffset:1
1000
CamTool:1
1000
CamZPass:1
1000
CamZPasses:1
1000
reversed:1
  0
ARC
  5
1EA7
330
2247
100
AcDbEntity
  8
CAM ... GCodeMM ... normal
100
AcDbCircle
 10
80.46989198441568
 20
-123.5337768514712
 30
-4.0
 40
160.1595536575118
100
AcDbArc
 50
106.2463415353288
 51
108.8159114413487
1001
QCAD
1000
CamClosedContour:1
1000
CamContourIndex:0
1000
CamDirection:1
1000
CamFeedRate:100
1000
CamNotOffset:1
1000
CamTool:1
1000
CamZPass:1
1000
CamZPasses:1
1000
reversed:1
  0
ARC
  5
1EA8
330
2247
100
AcDbEntity
  8
CAM ... GCodeMM ... normal
100
AcDbCircle
 10
76.6922215929853
 20
-110.5700957577808
 30
-4.0
 40
146.6566717027143
100
AcDbArc
 50
103.1743804744594
 51
106.2463415353288
1001
QCAD
1000
CamClosedContour:1
1000
CamContourIndex:0
1000
CamDirection:1
1000
CamFeedRate:100
1000
CamNotOffset:1
1000
CamTool:1
1000
CamZPass:1
1000
CamZPasses:1
1000
reversed:1
  0
ARC
  5
1EA9
330
2247
100
AcDbEntity
  8
CAM ... GCodeMM ... normal
100
AcDbCircle
 10
70.22812634381577
 20
-82.95474838334593
 30
-4.0
 40
118.2948674935134
100
AcDbArc
 50
99.75382889372334
 51
103.1743804744602
1001
QCAD
1000
CamClosedContour:1
1000
CamContourIndex:0
1000
CamDirection:1
1000
CamFeedRate:100
1000
CamNotOffset:1
1000
CamTool:1
1000
CamZPass:1
1000
CamZPasses:1
1000
reversed:1
  0
ARC
  5
1EAA
330
2247
100
AcDbEntity
  8
CAM ... GCodeMM ... normal
100
AcDbCircle
 10
67.70437382278915
 20
-68.27325227977727
 30
-4.0
 40
103.3980337820669
100
AcDbArc
 50
95.28357893874814
 51
99.7538288937226
1001
QCAD
1000
CamClosedContour:1
1000
CamContourIndex:0
1000
CamDirection:1
1000
CamFeedRate:100
1000
CamNotOffset:1
1000
CamTool:1
1000
CamZPass:1
1000
CamZPasses:1
1000
reversed:1
  0
ARC
  5
1EAB
330
2247
100
AcDbEntity
  8
CAM ... GCodeMM ... normal
100
AcDbCircle
 10
65.00000000000058
 20
-39.02986597588782
 30
-4.0
 40
74.02986597588784
100
AcDbArc
 50
90.00000000000044
 51
95.2835789387488
1001
QCAD
1000
CamClosedContour:1
1000
CamContourIndex:0
1000
CamDirection:1
1000
CamFeedRate:100
1000
CamNotOffset:1
1000
CamTool:1
1000
CamZPass:1
1000
CamZPasses:1
1000
reversed:1
  0
ARC
  5
1EAC
330
2247
100
AcDbEntity
  8
CAM ... GCodeMM ... normal
100
AcDbCircle
 10
64.99999999999997
 20
30.00000000000001
 30
-4.0
 40
5.000000000000022
100
AcDbArc
 50
0.0
 51
89.99999999999935
1001
QCAD
1000
CamClosedContour:1
1000
CamContourIndex:0
1000
CamDirection:1
1000
CamFeedRate:100
1000
CamNotOffset:1
1000
CamTool:1
1000
CamZPass:1
1000
CamZPasses:1
1000
reversed:1
  0
LINE
  5
1EAD
330
2247
100
AcDbEntity
  8
CAM ... GCodeMM ... normal
100
AcDbLine
 10
70.0
 20
30.0
 30
-4.0
 11
70.0
 21
22.5
 31
-4.0
1001
QCAD
1000
CamClosedContour:1
1000
CamContourIndex:0
1000
CamDirection:1
1000
CamFeedRate:100
1000
CamLast:1
1000
CamLastSegment:1
1000
CamNotOffset:1
1000
CamTool:1
1000
CamZPass:1
1000
CamZPasses:1
  0
LINE
  5
1EAE
330
2247
100
AcDbEntity
  8
CAM ... GCodeMM ... normal
100
AcDbLine
 10
70.0
 20
22.5
 30
-4.0
 11
70.0
 21
21.5
 31
-4.0
1001
QCAD
1000
CamClosedContour:1
1000
CamContourIndex:0
1000
CamDirection:1
1000
CamFeedRate:100
1000
CamNotOffset:1
1000
CamOvercutOut:1
1000
CamTool:1
1000
CamZPass:1
1000
CamZPasses:1
  0
ARC
  5
1EAF
330
2247
100
AcDbEntity
  8
CAM ... GCodeMM ... normal
100
AcDbCircle
 10
73.0
 20
21.5
 30
-4.0
 40
3.0
100
AcDbArc
 50
180.0
 51
270.0
1001
QCAD
1000
CamClosedContour:1
1000
CamContourIndex:0
1000
CamDirection:1
1000
CamFeedRate:100
1000
CamLeadOut:1
1000
CamNotOffset:1
1000
CamTool:1
1000
CamZPass:1
1000
CamZPasses:1
  0
LINE
  5
1EB0
330
2247
100
AcDbEntity
  8
CAM ... GCodeMM ... normal
100
AcDbLine
 10
73.0
 20
18.5
 30
-4.0
 11
73.0
 21
21.5
 31
-4.0
1001
QCAD
1000
CamClosedContour:1
1000
CamCompensationOff:1
1000
CamContourIndex:0
1000
CamDirection:1
1000
CamFeedRate:100
1000
CamLeadOut:1
1000
CamNotOffset:1
1000
CamTool:1
1000
CamZPass:1
1000
CamZPasses:1
  0
LINE
  5
1EB1
330
2247
100
AcDbEntity
  8
CAM ... GCodeMM ... offset
100
AcDbLine
 10
73.0
 20
23.5
 30
-4.0
 11
72.0
 21
25.23205080756888
 31
-4.0
1001
QCAD
1000
CamContourIndex:0
1000
CamDirection:1
1000
CamFeedRate:100
1000
CamIgnore:1
1000
CamLeadIn:1
1000
CamOffset:1
1000
CamTool:1
1000
CamZPass:1
1000
CamZPasses:1
  0
ARC
  5
1EB2
330
2247
100
AcDbEntity
  8
CAM ... GCodeMM ... offset
100
AcDbCircle
 10
73.0
 20
23.5
 30
-4.0
 40
2.0
100
AcDbArc
 50
120.0
 51
180.0
1001
QCAD
1000
CamContourIndex:0
1000
CamDirection:1
1000
CamFeedRate:100
1000
CamIgnore:1
1000
CamLeadIn:1
1000
CamOffset:1
1000
CamTool:1
1000
CamZPass:1
1000
CamZPasses:1
  0
LINE
  5
1EB3
330
2247
100
AcDbEntity
  8
CAM ... GCodeMM ... offset
100
AcDbLine
 10
71.0
 20
23.5
 30
-4.0
 11
71.0
 21
22.5
 31
-4.0
1001
QCAD
1000
CamContourIndex:0
1000
CamDirection:1
1000
CamFeedRate:100
1000
CamIgnore:1
1000
CamOffset:1
1000
CamOvercutIn:1
1000
CamTool:1
1000
CamZPass:1
1000
CamZPasses:1
  0
LINE
  5
1EB4
330
2247
100
AcDbEntity
  8
CAM ... GCodeMM ... offset
100
AcDbLine
 10
71.0
 20
22.5
 30
-4.0
 11
71.0
 21
15.0
 31
-4.0
1001
QCAD
1000
CamContourIndex:0
1000
CamDirection:1
1000
CamFeedRate:100
1000
CamIgnore:1
1000
CamOffset:1
1000
CamTool:1
1000
CamZPass:1
1000
CamZPasses:1
  0
ARC
  5
1EB5
330
2247
100
AcDbEntity
  8
CAM ... GCodeMM ... offset
100
AcDbCircle
 10
65.0
 20
15.0
 30
-4.0
 40
5.999999999999999
100
AcDbArc
 50
270.0
 51
0.0
1001
QCAD
1000
CamContourIndex:0
1000
CamDirection:1
1000
CamFeedRate:100
1000
CamIgnore:1
1000
CamOffset:1
1000
CamTool:1
1000
CamZPass:1
1000
CamZPasses:1
1000
reversed:1
  0
LINE
  5
1EB6
330
2247
100
AcDbEntity
  8
CAM ... GCodeMM ... offset
100
AcDbLine
 10
65.0
 20
9.0
 30
-4.0
 11
10.00000000000001
 21
9.0
 31
-4.0
1001
QCAD
1000
CamContourIndex:0
1000
CamDirection:1
1000
CamFeedRate:100
1000
CamIgnore:1
1000
CamOffset:1
1000
CamTool:1
1000
CamZPass:1
1000
CamZPasses:1
  0
ARC
  5
1EB7
330
2247
100
AcDbEntity
  8
CAM ... GCodeMM ... offset
100
AcDbCircle
 10
9.999999999999963
 20
15.00000000000002
 30
-4.0
 40
6.000000000000024
100
AcDbArc
 50
115.3329386130287
 51
270.0000000000004
1001
QCAD
1000
CamContourIndex:0
1000
CamDirection:1
1000
CamFeedRate:100
1000
CamIgnore:1
1000
CamOffset:1
1000
CamTool:1
1000
CamZPass:1
1000
CamZPasses:1
1000
reversed:1
  0
ARC
  5
1EB8
330
2247
100
AcDbEntity
  8
CAM ... GCodeMM ... offset
100
AcDbCircle
 10
101.1151222006537
 20
-177.4690726117207
 30
-4.0
 40
218.946729032535
100
AcDbArc
 50
113.3219295216335
 51
115.3329386130279
1001
QCAD
1000
CamContourIndex:0
1000
CamDirection:1
1000
CamFeedRate:100
1000
CamIgnore:1
1000
CamOffset:1
1000
CamTool:1
1000
CamZPass:1
1000
CamZPasses:1
1000
reversed:1
  0
ARC
  5
1EB9
330
2247
100
AcDbEntity
  8
CAM ... GCodeMM ... offset
100
AcDbCircle
 10
92.73116485540635
 20
-158.0222331063381
 30
-4.0
 40
197.7696114875282
100
AcDbArc
 50
111.2054571813436
 51
113.3219295216344
1001
QCAD
1000
CamContourIndex:0
1000
CamDirection:1
1000
CamFeedRate:100
1000
CamIgnore:1
1000
CamOffset:1
1000
CamTool:1
1000
CamZPass:1
1000
CamZPasses:1
1000
reversed:1
  0
ARC
  5
1EBA
330
2247
100
AcDbEntity
  8
CAM ... GCodeMM ... offset
100
AcDbCircle
 10
88.54507911282144
 20
-147.2329078746718
 30
-4.0
 40
186.1966752655081
100
AcDbArc
 50
108.815911441349
 51
111.2054571813433
1001
QCAD
1000
CamContourIndex:0
1000
CamDirection:1
1000
CamFeedRate:100
1000
CamIgnore:1
1000
CamOffset:1
1000
CamTool:1
1000
CamZPass:1
1000
CamZPasses:1
1000
reversed:1
  0
ARC
  5
1EBB
330
2247
100
AcDbEntity
  8
CAM ... GCodeMM ... offset
100
AcDbCircle
 10
80.46989198441648
 20
-123.5337768514706
 30
-4.0
 40
161.1595536575114
100
AcDbArc
 50
106.2463415353291
 51
108.8159114413491
1001
QCAD
1000
CamContourIndex:0
1000
CamDirection:1
1000
CamFeedRate:100
1000
CamIgnore:1
1000
CamOffset:1
1000
CamTool:1
1000
CamZPass:1
1000
CamZPasses:1
1000
reversed:1
  0
ARC
  5
1EBC
330
2247
100
AcDbEntity
  8
CAM ... GCodeMM ... offset
100
AcDbCircle
 10
76.69222159298457
 20
-110.5700957577803
 30
-4.0
 40
147.6566717027136
100
AcDbArc
 50
103.1743804744592
 51
106.2463415353286
1001
QCAD
1000
CamContourIndex:0
1000
CamDirection:1
1000
CamFeedRate:100
1000
CamIgnore:1
1000
CamOffset:1
1000
CamTool:1
1000
CamZPass:1
1000
CamZPasses:1
1000
reversed:1
  0
ARC
  5
1EBD
330
2247
100
AcDbEntity
  8
CAM ... GCodeMM ... offset
100
AcDbCircle
 10
70.22812634381518
 20
-82.95474838334573
 30
-4.0
 40
119.2948674935131
100
AcDbArc
 50
99.75382889372307
 51
103.1743804744599
1001
QCAD
1000
CamContourIndex:0
1000
CamDirection:1
1000
CamFeedRate:100
1000
CamIgnore:1
1000
CamOffset:1
1000
CamTool:1
1000
CamZPass:1
1000
CamZPasses:1
1000
reversed:1
  0
ARC
  5
1EBE
330
2247
100
AcDbEntity
  8
CAM ... GCodeMM ... offset
100
AcDbCircle
 10
67.70437382278982
 20
-68.27325227977673
 30
-4.0
 40
104.3980337820664
100
AcDbArc
 50
95.28357893874852
 51
99.75382889372302
1001
QCAD
1000
CamContourIndex:0
1000
CamDirection:1
1000
CamFeedRate:100
1000
CamIgnore:1
1000
CamOffset:1
1000
CamTool:1
1000
CamZPass:1
1000
CamZPasses:1
1000
reversed:1
  0
ARC
  5
1EBF
330
2247
100
AcDbEntity
  8
CAM ... GCodeMM ... offset
100
AcDbCircle
 10
65.00000000000048
 20
-39.02986597588794
 30
-4.0
 40
75.02986597588797
100
AcDbArc
 50
90.00000000000034
 51
95.2835789387487
1001
QCAD
1000
CamContourIndex:0
1000
CamDirection:1
1000
CamFeedRate:100
1000
CamIgnore:1
1000
CamOffset:1
1000
CamTool:1
1000
CamZPass:1
1000
CamZPasses:1
1000
reversed:1
  0
ARC
  5
1EC0
330
2247
100
AcDbEntity
  8
CAM ... GCodeMM ... offset
100
AcDbCircle
 10
64.99999999999999
 20
30.00000000000001
 30
-4.0
 40
6.000000000000022
100
AcDbArc
 50
0.0
 51
89.99999999999935
1001
QCAD
1000
CamContourIndex:0
1000
CamDirection:1
1000
CamFeedRate:100
1000
CamIgnore:1
1000
CamOffset:1
1000
CamTool:1
1000
CamZPass:1
1000
CamZPasses:1
1000
reversed:1
  0
LINE
  5
1EC1
330
2247
100
AcDbEntity
  8
CAM ... GCodeMM ... offset
100
AcDbLine
 10
71.00000000000001
 20
30.0
 30
-4.0
 11
71.0
 21
22.5
 31
-4.0
1001
QCAD
1000
CamContourIndex:0
1000
CamDirection:1
1000
CamFeedRate:100
1000
CamIgnore:1
1000
CamOffset:1
1000
CamTool:1
1000
CamZPass:1
1000
CamZPasses:1
  0
LINE
  5
1EC2
330
2247
100
AcDbEntity
  8
CAM ... GCodeMM ... offset
100
AcDbLine
 10
71.0
 20
22.5
 30
-4.0
 11
71.0
 21
21.5
 31
-4.0
1001
QCAD
1000
CamContourIndex:0
1000
CamDirection:1
1000
CamFeedRate:100
1000
CamIgnore:1
1000
CamOffset:1
1000
CamOvercutOut:1
1000
CamTool:1
1000
CamZPass:1
1000
CamZPasses:1
  0
ARC
  5
1EC3
330
2247
100
AcDbEntity
  8
CAM ... GCodeMM ... offset
100
AcDbCircle
 10
73.0
 20
21.5
 30
-4.0
 40
2.0
100
AcDbArc
 50
180.0
 51
239.9999999999999
1001
QCAD
1000
CamContourIndex:0
1000
CamDirection:1
1000
CamFeedRate:100
1000
CamIgnore:1
1000
CamLeadOut:1
1000
CamOffset:1
1000
CamTool:1
1000
CamZPass:1
1000
CamZPasses:1
  0
LINE
  5
1EC4
330
2247
100
AcDbEntity
  8
CAM ... GCodeMM ... offset
100
AcDbLine
 10
72.0
 20
19.76794919243113
 30
-4.0
 11
73.0
 21
21.5
 31
-4.0
1001
QCAD
1000
CamContourIndex:0
1000
CamDirection:1
1000
CamFeedRate:100
1000
CamIgnore:1
1000
CamLeadOut:1
1000
CamOffset:1
1000
CamTool:1
1000
CamZPass:1
1000
CamZPasses:1
  0
LINE
  5
1EC5
330
2247
100
AcDbEntity
  8
CAM ... GCodeMM ... normal
100
AcDbLine
 10
73.0
 20
21.5
 30
-4.0
 11
73.0
 21
21.5
 31
2.0
1001
QCAD
1000
CamContourIndex:0
1000
CamDirection:1
1000
CamFeedRate:100
1000
CamTool:1
1000
CamToolUp:1
1000
CamZMove:1
1000
CamZPass:1
1000
CamZPasses:1
  0
LINE
  5
1EC6
330
2247
100
AcDbEntity
  8
CAM ... GCodeMM ... rapid
100
AcDbLine
 10
73.0
 20
21.5
 30
2.0
 11
73.0
 21
21.5
 31
30.0
1001
QCAD
1000
CamRapidMove:1
1000
CamRapidMoveToSafety:1
1000
CamZMove:1
  0
ENDBLK
  5
2249
330
2247
100
AcDbEntity
  8
0
100
AcDbBlockEnd
  0
BLOCK
  5
224B
330
224A
100
AcDbEntity
  8
0
100
AcDbBlockBegin
  2
CAMTOOL$$GCodeMM$$1
 70
     0
 10
0.0
 20
0.0
 30
0.0
  3
CAMTOOL$$GCodeMM$$1
  1

  0
ENDBLK
  5
224C
330
224A
100
AcDbEntity
  8
0
100
AcDbBlockEnd
  0
BLOCK
  5
224E
330
224D
100
AcDbEntity
  8
0
100
AcDbBlockBegin
  2
CAMTOOLPATH$$GCodeOffsetMM$$Profile 1
 70
     0
 10
0.0
 20
0.0
 30
0.0
  3
CAMTOOLPATH$$GCodeOffsetMM$$Profile 1
  1

  0
LWPOLYLINE
  5
1EC7
330
224D
100
AcDbEntity
  8
CAM ... GCodeOffsetMM ... source
100
AcDbPolyline
 90
       12
 70
   129
 43
0.0
 10
66.0
 20
22.5
 10
65.99999999999999
 20
30.0
 42
0.4142135623730701
 10
65.00000000000003
 20
31.00000000000004
 42
0.02305804734072
 10
58.55128526884815
 20
30.70245226262362
 42
0.0195076189837587
 10
50.86481964627463
 20
29.68795705778216
 42
0.0149260801312497
 10
44.17855261007511
 20
28.33198237845794
 42
0.0007369930472382
 10
43.76921509449556
 20
28.23552957634034
 42
0.3475359717552967
 10
43.00000000000001
 20
27.26252478324255
 10
42.99999999999999
 20
15.0
 42
0.4142135623730951
 10
43.99999999999999
 20
14.0
 10
65.0
 20
14.0
 42
0.4142135623730951
 10
66.0
 20
15.0
1001
QCAD
1000
CamIgnore:1
1000
CamSourceHandle:372
  0
LWPOLYLINE
  5
1EC8
330
224D
100
AcDbEntity
  8
CAM ... GCodeOffsetMM ... source
100
AcDbPolyline
 90
       14
 70
   129
 43
0.0
 10
70.0
 20
22.5
 10
70.0
 20
30.0
 42
0.4142135623730924
 10
65.00000000000003
 20
35.00000000000003
 42
0.0230580473407202
 10
58.18294443932989
 20
34.68545678600915
 42
0.0195076189837586
 10
50.18715818615213
 20
33.63013601686875
 42
0.0149260801312497
 10
43.26689054492708
 20
32.22670602449105
 42
0.0134047615547119
 10
35.66242008455755
 20
30.23024068747327
 42
0.011212333627782
 10
28.8138595364553
 20
28.06680672098297
 42
0.010426738026924
 10
21.55696589503653
 20
25.42398082925251
 42
0.0092351152491115
 10
14.8306655996949
 20
22.67030193776296
 42
0.0087749076924088
 10
7.860612308660109
 20
19.5191835884531
 42
0.8001991549907407
 10
10.0
 20
10.0
 10
65.0
 20
10.0
 42
0.4142135623730951
 10
70.0
 20
15.0
1001
QCAD
1000
CamIgnore:1
1000
CamSourceHandle:142
  0
LWPOLYLINE
  5
1EC9
330
224D
100
AcDbEntity
  8
CAM ... GCodeOffsetMM ... source
100
AcDbPolyline
 90
       10
 70
   129
 43
0.0
 10
38.0
 20
20.20601869836812
 10
38.0
 20
15.0
 42
-0.4142135623730951
 10
37.0
 20
14.0
 10
10.0
 20
14.0
 42
-0.8001991549907429
 10
9.572122461732079
 20
15.90383671769055
 42
-0.0087749076924087
 10
16.41425360735128
 20
18.99712224953549
 42
-0.0092351152491114
 10
23.00381936844255
 20
21.69482341416608
 42
-0.0104267380269241
 10
30.10397383231365
 20
24.2805678083387
 42
-0.011109506634234
 10
36.7198374772309
 20
26.37198997933379
 42
-0.5000529069733629
 10
38.0
 20
25.41203739673623
1001
QCAD
1000
CamIgnore:1
1000
CamSourceHandle:3f8
  0
ARC
  5
1ECA
330
224D
100
AcDbEntity
  8
CAM ... GCodeOffsetMM ... normal
100
AcDbCircle
 10
35.0
 20
19.20601869836812
 30
-4.0
 40
3.0
100
AcDbArc
 50
270.0
 51
0.0
1001
QCAD
1000
CamClosedContour:1
1000
CamCompensationOn:1
1000
CamContourIndex:2
1000
CamDirection:1
1000
CamFeedRate:100
1000
CamIgnore:1
1000
CamLeadIn:1
1000
CamNotOffset:1
1000
CamTool:1
1000
CamUnknownPosition:1
1000
CamZPass:1
1000
CamZPasses:1
  0
LINE
  5
1ECB
330
224D
100
AcDbEntity
  8
CAM ... GCodeOffsetMM ... normal
100
AcDbLine
 10
38.0
 20
19.20601869836812
 30
-4.0
 11
38.0
 21
20.20601869836812
 31
-4.0
1001
QCAD
1000
CamClosedContour:1
1000
CamContourIndex:2
1000
CamDirection:1
1000
CamFeedRate:100
1000
CamIgnore:1
1000
CamNotOffset:1
1000
CamOvercutIn:1
1000
CamTool:1
1000
CamZPass:1
1000
CamZPasses:1
  0
LINE
  5
1ECC
330
224D
100
AcDbEntity
  8
CAM ... GCodeOffsetMM ... normal
100
AcDbLine
 10
38.0
 20
20.20601869836812
 30
-4.0
 11
38.0
 21
25.41203739673623
 31
-4.0
1001
QCAD
1000
CamClosedContour:1
1000
CamContourIndex:2
1000
CamDirection:1
1000
CamFeedRate:100
1000
CamFirst:1
1000
CamFirstSegment:1
1000
CamIgnore:1
1000
CamNotOffset:1
1000
CamTool:1
1000
CamZPass:1
1000
CamZPasses:1
  0
ARC
  5
1ECD
330
224D
100
AcDbEntity
  8
CAM ... GCodeOffsetMM ... normal
100
AcDbCircle
 10
36.99999999999998
 20
25.41203739673624
 30
-4.0
 40
1.00000000000002
100
AcDbArc
 50
0.0
 51
106.2699048111218
1001
QCAD
1000
CamClosedContour:1
1000
CamContourIndex:2
1000
CamDirection:1
1000
CamFeedRate:100
1000
CamIgnore:1
1000
CamNotOffset:1
1000
CamTool:1
1000
CamZPass:1
1000
CamZPasses:1
  0
ARC
  5
1ECE
330
224D
100
AcDbEntity
  8
CAM ... GCodeOffsetMM ... normal
100
AcDbCircle
 10
80.46989198441483
 20
-123.5337768514682
 30
-4.0
 40
156.1595536575088
100
AcDbArc
 50
106.2699048111231
 51
108.8159114413487
1001
QCAD
1000
CamClosedContour:1
1000
CamContourIndex:2
1000
CamDirection:1
1000
CamFeedRate:100
1000
CamIgnore:1
1000
CamNotOffset:1
1000
CamTool:1
1000
CamZPass:1
1000
CamZPasses:1
  0
ARC
  5
1ECF
330
224D
100
AcDbEntity
  8
CAM ... GCodeOffsetMM ... normal
100
AcDbCircle
 10
88.54507911282553
 20
-147.2329078746692
 30
-4.0
 40
181.196675265507
100
AcDbArc
 50
108.8159114413505
 51
111.2054571813449
1001
QCAD
1000
CamClosedContour:1
1000
CamContourIndex:2
1000
CamDirection:1
1000
CamFeedRate:100
1000
CamIgnore:1
1000
CamNotOffset:1
1000
CamTool:1
1000
CamZPass:1
1000
CamZPasses:1
  0
ARC
  5
1ED0
330
224D
100
AcDbEntity
  8
CAM ... GCodeOffsetMM ... normal
100
AcDbCircle
 10
92.73116485540243
 20
-158.0222331063398
 30
-4.0
 40
192.7696114875282
100
AcDbArc
 50
111.2054571813424
 51
113.3219295216331
1001
QCAD
1000
CamClosedContour:1
1000
CamContourIndex:2
1000
CamDirection:1
1000
CamFeedRate:100
1000
CamIgnore:1
1000
CamNotOffset:1
1000
CamTool:1
1000
CamZPass:1
1000
CamZPasses:1
  0
ARC
  5
1ED1
330
224D
100
AcDbEntity
  8
CAM ... GCodeOffsetMM ... normal
100
AcDbCircle
 10
101.1151222006587
 20
-177.4690726117216
 30
-4.0
 40
213.9467290325378
100
AcDbArc
 50
113.3219295216346
 51
115.332938613029
1001
QCAD
1000
CamClosedContour:1
1000
CamContourIndex:2
1000
CamDirection:1
1000
CamFeedRate:100
1000
CamIgnore:1
1000
CamNotOffset:1
1000
CamTool:1
1000
CamZPass:1
1000
CamZPasses:1
  0
ARC
  5
1ED2
330
224D
100
AcDbEntity
  8
CAM ... GCodeOffsetMM ... normal
100
AcDbCircle
 10
10.00000000000001
 20
14.99999999999996
 30
-4.0
 40
0.9999999999999616
100
AcDbArc
 50
115.3329386130277
 51
269.9999999999994
1001
QCAD
1000
CamClosedContour:1
1000
CamContourIndex:2
1000
CamDirection:1
1000
CamFeedRate:100
1000
CamIgnore:1
1000
CamNotOffset:1
1000
CamTool:1
1000
CamZPass:1
1000
CamZPasses:1
  0
LINE
  5
1ED3
330
224D
100
AcDbEntity
  8
CAM ... GCodeOffsetMM ... normal
100
AcDbLine
 10
10.0
 20
14.0
 30
-4.0
 11
37.0
 21
14.0
 31
-4.0
1001
QCAD
1000
CamClosedContour:1
1000
CamContourIndex:2
1000
CamDirection:1
1000
CamFeedRate:100
1000
CamIgnore:1
1000
CamNotOffset:1
1000
CamTool:1
1000
CamZPass:1
1000
CamZPasses:1
  0
ARC
  5
1ED4
330
224D
100
AcDbEntity
  8
CAM ... GCodeOffsetMM ... normal
100
AcDbCircle
 10
37.0
 20
15.0
 30
-4.0
 40
1.0
100
AcDbArc
 50
270.0
 51
0.0
1001
QCAD
1000
CamClosedContour:1
1000
CamContourIndex:2
1000
CamDirection:1
1000
CamFeedRate:100
1000
CamIgnore:1
1000
CamNotOffset:1
1000
CamTool:1
1000
CamZPass:1
1000
CamZPasses:1
  0
LINE
  5
1ED5
330
224D
100
AcDbEntity
  8
CAM ... GCodeOffsetMM ... normal
100
AcDbLine
 10
38.0
 20
15.0
 30
-4.0
 11
38.0
 21
20.20601869836812
 31
-4.0
1001
QCAD
1000
CamClosedContour:1
1000
CamContourIndex:2
1000
CamDirection:1
1000
CamFeedRate:100
1000
CamIgnore:1
1000
CamLast:1
1000
CamLastSegment:1
1000
CamNotOffset:1
1000
CamTool:1
1000
CamZPass:1
1000
CamZPasses:1
  0
LINE
  5
1ED6
330
224D
100
AcDbEntity
  8
CAM ... GCodeOffsetMM ... normal
100
AcDbLine
 10
38.0
 20
20.20601869836812
 30
-4.0
 11
38.0
 21
21.20601869836812
 31
-4.0
1001
QCAD
1000
CamClosedContour:1
1000
CamContourIndex:2
1000
CamDirection:1
1000
CamFeedRate:100
1000
CamIgnore:1
1000
CamNotOffset:1
1000
CamOvercutOut:1
1000
CamTool:1
1000
CamZPass:1
1000
CamZPasses:1
  0
ARC
  5
1ED7
330
224D
100
AcDbEntity
  8
CAM ... GCodeOffsetMM ... normal
100
AcDbCircle
 10
35.0
 20
21.20601869836812
 30
-4.0
 40
3.0
100
AcDbArc
 50
0.0
 51
90.00000000000001
1001
QCAD
1000
CamClosedContour:1
1000
CamCompensationOff:1
1000
CamContourIndex:2
1000
CamDirection:1
1000
CamFeedRate:100
1000
CamIgnore:1
1000
CamLeadOut:1
1000
CamNotOffset:1
1000
CamTool:1
1000
CamZPass:1
1000
CamZPasses:1
  0
LINE
  5
1ED8
330
224D
100
AcDbEntity
  8
CAM ... GCodeOffsetMM ... rapid
100
AcDbLine
 10
0.0
 20
0.0
 30
30.0
 11
35.0
 21
16.20601869836812
 31
30.0
1001
QCAD
1000
CamContourIndex:2
1000
CamOffset:1
1000
CamRapidMove:1
1000
CamTool:1
1000
CamZPass:1
1000
CamZPasses:1
  0
LINE
  5
1ED9
330
224D
100
AcDbEntity
  8
CAM ... GCodeOffsetMM ... rapid
100
AcDbLine
 10
35.0
 20
16.20601869836812
 30
30.0
 11
35.0
 21
16.20601869836812
 31
2.0
1001
QCAD
1000
CamContourIndex:2
1000
CamOffset:1
1000
CamRapidMove:1
1000
CamTool:1
1000
CamToolDownClearance:1
1000
CamZMove:1
1000
CamZPass:1
1000
CamZPasses:1
  0
LINE
  5
1EDA
330
224D
100
AcDbEntity
  8
CAM ... GCodeOffsetMM ... rapid
100
AcDbLine
 10
35.0
 20
16.20601869836812
 30
2.0
 11
35.0
 21
16.20601869836812
 31
2.0
1001
QCAD
1000
CamContourIndex:2
1000
CamOffset:1
1000
CamRapidMove:1
1000
CamTool:1
1000
CamToolDownClearancePass:1
1000
CamZMove:1
1000
CamZPass:1
1000
CamZPasses:1
  0
LINE
  5
1EDB
330
224D
100
AcDbEntity
  8
CAM ... GCodeOffsetMM ... offset
100
AcDbLine
 10
35.0
 20
16.20601869836812
 30
2.0
 11
35.0
 21
16.20601869836812
 31
-4.0
1001
QCAD
1000
CamContourIndex:2
1000
CamDirection:1
1000
CamFeedRate:50
1000
CamOffset:1
1000
CamTool:1
1000
CamToolDown:1
1000
CamZMove:1
1000
CamZPass:1
1000
CamZPasses:1
  0
ARC
  5
1EDC
330
224D
100
AcDbEntity
  8
CAM ... GCodeOffsetMM ... offset
100
AcDbCircle
 10
33.74999999999999
 20
19.20601869836813
 30
-4.0
 40
3.250000000000014
100
AcDbArc
 50
292.6198649480405
 51
0.0
1001
QCAD
1000
CamContourIndex:2
1000
CamDirection:1
1000
CamFeedRate:100
1000
CamLeadIn:1
1000
CamOffset:1
1000
CamTool:1
1000
CamZPass:1
1000
CamZPasses:1
  0
LINE
  5
1EDD
330
224D
100
AcDbEntity
  8
CAM ... GCodeOffsetMM ... offset
100
AcDbLine
 10
37.0
 20
19.20601869836812
 30
-4.0
 11
37.0
 21
20.20601869836812
 31
-4.0
1001
QCAD
1000
CamContourIndex:2
1000
CamDirection:1
1000
CamFeedRate:100
1000
CamOffset:1
1000
CamOvercutIn:1
1000
CamTool:1
1000
CamZPass:1
1000
CamZPasses:1
  0
LINE
  5
1EDE
330
224D
100
AcDbEntity
  8
CAM ... GCodeOffsetMM ... offset
100
AcDbLine
 10
37.0
 20
20.20601869836812
 30
-4.0
 11
37.0
 21
25.41203739673623
 31
-4.0
1001
QCAD
1000
CamContourIndex:2
1000
CamDirection:1
1000
CamFeedRate:100
1000
CamOffset:1
1000
CamTool:1
1000
CamZPass:1
1000
CamZPasses:1
  0
ARC
  5
1EDF
330
224D
100
AcDbEntity
  8
CAM ... GCodeOffsetMM ... offset
100
AcDbCircle
 10
36.99999999999999
 20
25.41203739673626
 30
-4.0
 40
0.0000000000000251
100
AcDbArc
 50
0.0
 51
0.0
1001
QCAD
1000
CamContourIndex:2
1000
CamDirection:1
1000
CamFeedRate:100
1000
CamOffset:1
1000
CamTool:1
1000
CamZPass:1
1000
CamZPasses:1
  0
ARC
  5
1EE0
330
224D
100
AcDbEntity
  8
CAM ... GCodeOffsetMM ... offset
100
AcDbCircle
 10
80.469891984414
 20
-123.5337768514678
 30
-4.0
 40
155.159553657508
100
AcDbArc
 50
106.2699048111229
 51
108.8159114413485
1001
QCAD
1000
CamContourIndex:2
1000
CamDirection:1
1000
CamFeedRate:100
1000
CamOffset:1
1000
CamTool:1
1000
CamZPass:1
1000
CamZPasses:1
  0
ARC
  5
1EE1
330
224D
100
AcDbEntity
  8
CAM ... GCodeOffsetMM ... offset
100
AcDbCircle
 10
88.54507911282678
 20
-147.2329078746681
 30
-4.0
 40
180.1966752655064
100
AcDbArc
 50
108.815911441351
 51
111.2054571813454
1001
QCAD
1000
CamContourIndex:2
1000
CamDirection:1
1000
CamFeedRate:100
1000
CamOffset:1
1000
CamTool:1
1000
CamZPass:1
1000
CamZPasses:1
  0
ARC
  5
1EE2
330
224D
100
AcDbEntity
  8
CAM ... GCodeOffsetMM ... offset
100
AcDbCircle
 10
92.73116485540038
 20
-158.0222331063399
 30
-4.0
 40
191.7696114875275
100
AcDbArc
 50
111.2054571813418
 51
113.3219295216325
1001
QCAD
1000
CamContourIndex:2
1000
CamDirection:1
1000
CamFeedRate:100
1000
CamOffset:1
1000
CamTool:1
1000
CamZPass:1
1000
CamZPasses:1
  0
ARC
  5
1EE3
330
224D
100
AcDbEntity
  8
CAM ... GCodeOffsetMM ... offset
100
AcDbCircle
 10
101.1151222006587
 20
-177.4690726117188
 30
-4.0
 40
212.9467290325353
100
AcDbArc
 50
113.3219295216349
 51
115.3329386130293
1001
QCAD
1000
CamContourIndex:2
1000
CamDirection:1
1000
CamFeedRate:100
1000
CamOffset:1
1000
CamTool:1
1000
CamZPass:1
1000
CamZPasses:1
  0
LINE
  5
1EE4
330
224D
100
AcDbEntity
  8
CAM ... GCodeOffsetMM ... offset
100
AcDbLine
 10
10.00000000000003
 20
14.99999999999991
 30
-4.0
 11
10.0
 21
14.9999999999999
 31
-4.0
1001
QCAD
1000
CamContourIndex:2
1000
CamDirection:1
1000
CamFeedRate:100
1000
CamOffset:1
1000
CamTool:1
1000
CamZPass:1
1000
CamZPasses:1
  0
LINE
  5
1EE5
330
224D
100
AcDbEntity
  8
CAM ... GCodeOffsetMM ... offset
100
AcDbLine
 10
10.0
 20
14.9999999999999
 30
-4.0
 11
37.0
 21
15.0
 31
-4.0
1001
QCAD
1000
CamContourIndex:2
1000
CamDirection:1
1000
CamFeedRate:100
1000
CamOffset:1
1000
CamTool:1
1000
CamZPass:1
1000
CamZPasses:1
  0
LINE
  5
1EE6
330
224D
100
AcDbEntity
  8
CAM ... GCodeOffsetMM ... offset
100
AcDbLine
 10
37.0
 20
15.0
 30
-4.0
 11
37.0
 21
15.0
 31
-4.0
1001
QCAD
1000
CamContourIndex:2
1000
CamDirection:1
1000
CamFeedRate:100
1000
CamOffset:1
1000
CamTool:1
1000
CamZPass:1
1000
CamZPasses:1
  0
LINE
  5
1EE7
330
224D
100
AcDbEntity
  8
CAM ... GCodeOffsetMM ... offset
100
AcDbLine
 10
37.0
 20
15.0
 30
-4.0
 11
37.0
 21
20.20601869836812
 31
-4.0
1001
QCAD
1000
CamContourIndex:2
1000
CamDirection:1
1000
CamFeedRate:100
1000
CamOffset:1
1000
CamTool:1
1000
CamZPass:1
1000
CamZPasses:1
  0
LINE
  5
1EE8
330
224D
100
AcDbEntity
  8
CAM ... GCodeOffsetMM ... offset
100
AcDbLine
 10
37.0
 20
20.20601869836812
 30
-4.0
 11
37.0
 21
21.20601869836812
 31
-4.0
1001
QCAD
1000
CamContourIndex:2
1000
CamDirection:1
1000
CamFeedRate:100
1000
CamOffset:1
1000
CamOvercutOut:1
1000
CamTool:1
1000
CamZPass:1
1000
CamZPasses:1
  0
ARC
  5
1EE9
330
224D
100
AcDbEntity
  8
CAM ... GCodeOffsetMM ... offset
100
AcDbCircle
 10
33.74999999999999
 20
21.20601869836812
 30
-4.0
 40
3.250000000000006
100
AcDbArc
 50
0.0
 51
67.38013505195948
1001
QCAD
1000
CamContourIndex:2
1000
CamDirection:1
1000
CamFeedRate:100
1000
CamLeadOut:1
1000
CamOffset:1
1000
CamTool:1
1000
CamZPass:1
1000
CamZPasses:1
  0
LINE
  5
1EEA
330
224D
100
AcDbEntity
  8
CAM ... GCodeOffsetMM ... normal
100
AcDbLine
 10
35.0
 20
24.20601869836812
 30
-4.0
 11
35.0
 21
24.20601869836812
 31
2.0
1001
QCAD
1000
CamContourIndex:2
1000
CamDirection:1
1000
CamFeedRate:100
1000
CamTool:1
1000
CamToolUp:1
1000
CamZMove:1
1000
CamZPass:1
1000
CamZPasses:1
  0
ARC
  5
1EEB
330
224D
100
AcDbEntity
  8
CAM ... GCodeOffsetMM ... normal
100
AcDbCircle
 10
63.0
 20
21.5
 30
-4.0
 40
3.0
100
AcDbArc
 50
270.0
 51
0.0
1001
QCAD
1000
CamClosedContour:1
1000
CamCompensationOn:1
1000
CamContourIndex:1
1000
CamDirection:1
1000
CamFeedRate:100
1000
CamIgnore:1
1000
CamLeadIn:1
1000
CamNotOffset:1
1000
CamTool:1
1000
CamZPass:1
1000
CamZPasses:1
  0
LINE
  5
1EEC
330
224D
100
AcDbEntity
  8
CAM ... GCodeOffsetMM ... normal
100
AcDbLine
 10
66.0
 20
21.5
 30
-4.0
 11
66.0
 21
22.5
 31
-4.0
1001
QCAD
1000
CamClosedContour:1
1000
CamContourIndex:1
1000
CamDirection:1
1000
CamFeedRate:100
1000
CamIgnore:1
1000
CamNotOffset:1
1000
CamOvercutIn:1
1000
CamTool:1
1000
CamZPass:1
1000
CamZPasses:1
  0
LINE
  5
1EED
330
224D
100
AcDbEntity
  8
CAM ... GCodeOffsetMM ... normal
100
AcDbLine
 10
66.0
 20
22.5
 30
-4.0
 11
65.99999999999999
 21
30.0
 31
-4.0
1001
QCAD
1000
CamClosedContour:1
1000
CamContourIndex:1
1000
CamDirection:1
1000
CamFeedRate:100
1000
CamFirst:1
1000
CamFirstSegment:1
1000
CamIgnore:1
1000
CamNotOffset:1
1000
CamTool:1
1000
CamZPass:1
1000
CamZPasses:1
  0
ARC
  5
1EEE
330
224D
100
AcDbEntity
  8
CAM ... GCodeOffsetMM ... normal
100
AcDbCircle
 10
64.99999999999994
 20
30.0
 30
-4.0
 40
1.000000000000041
100
AcDbArc
 50
0.0
 51
89.99999999999511
1001
QCAD
1000
CamClosedContour:1
1000
CamContourIndex:1
1000
CamDirection:1
1000
CamFeedRate:100
1000
CamIgnore:1
1000
CamNotOffset:1
1000
CamTool:1
1000
CamZPass:1
1000
CamZPasses:1
  0
ARC
  5
1EEF
330
224D
100
AcDbEntity
  8
CAM ... GCodeOffsetMM ... normal
100
AcDbCircle
 10
65.00000000000045
 20
-39.02986597588789
 30
-4.0
 40
70.02986597588793
100
AcDbArc
 50
90.00000000000034
 51
95.28357893874866
1001
QCAD
1000
CamClosedContour:1
1000
CamContourIndex:1
1000
CamDirection:1
1000
CamFeedRate:100
1000
CamIgnore:1
1000
CamNotOffset:1
1000
CamTool:1
1000
CamZPass:1
1000
CamZPasses:1
  0
ARC
  5
1EF0
330
224D
100
AcDbEntity
  8
CAM ... GCodeOffsetMM ... normal
100
AcDbCircle
 10
67.70437382279007
 20
-68.2732522797772
 30
-4.0
 40
99.39803378206696
100
AcDbArc
 50
95.28357893874863
 51
99.75382889372312
1001
QCAD
1000
CamClosedContour:1
1000
CamContourIndex:1
1000
CamDirection:1
1000
CamFeedRate:100
1000
CamIgnore:1
1000
CamNotOffset:1
1000
CamTool:1
1000
CamZPass:1
1000
CamZPasses:1
  0
ARC
  5
1EF1
330
224D
100
AcDbEntity
  8
CAM ... GCodeOffsetMM ... normal
100
AcDbCircle
 10
70.22812634381397
 20
-82.95474838334637
 30
-4.0
 40
114.2948674935135
100
AcDbArc
 50
99.75382889372243
 51
103.1743804744593
1001
QCAD
1000
CamClosedContour:1
1000
CamContourIndex:1
1000
CamDirection:1
1000
CamFeedRate:100
1000
CamIgnore:1
1000
CamNotOffset:1
1000
CamTool:1
1000
CamZPass:1
1000
CamZPasses:1
  0
ARC
  5
1EF2
330
224D
100
AcDbEntity
  8
CAM ... GCodeOffsetMM ... normal
100
AcDbCircle
 10
76.69222159300836
 20
-110.5700957577847
 30
-4.0
 40
142.6566717027234
100
AcDbArc
 50
103.1743804744681
 51
103.343286808436
1001
QCAD
1000
CamClosedContour:1
1000
CamContourIndex:1
1000
CamDirection:1
1000
CamFeedRate:100
1000
CamIgnore:1
1000
CamNotOffset:1
1000
CamTool:1
1000
CamZPass:1
1000
CamZPasses:1
  0
ARC
  5
1EF3
330
224D
100
AcDbEntity
  8
CAM ... GCodeOffsetMM ... normal
100
AcDbCircle
 10
44.0
 20
27.26252478324254
 30
-4.0
 40
0.99999999999999
100
AcDbArc
 50
103.3432868084273
 51
180.0
1001
QCAD
1000
CamClosedContour:1
1000
CamContourIndex:1
1000
CamDirection:1
1000
CamFeedRate:100
1000
CamIgnore:1
1000
CamNotOffset:1
1000
CamTool:1
1000
CamZPass:1
1000
CamZPasses:1
  0
LINE
  5
1EF4
330
224D
100
AcDbEntity
  8
CAM ... GCodeOffsetMM ... normal
100
AcDbLine
 10
43.00000000000001
 20
27.26252478324255
 30
-4.0
 11
42.99999999999999
 21
15.0
 31
-4.0
1001
QCAD
1000
CamClosedContour:1
1000
CamContourIndex:1
1000
CamDirection:1
1000
CamFeedRate:100
1000
CamIgnore:1
1000
CamNotOffset:1
1000
CamTool:1
1000
CamZPass:1
1000
CamZPasses:1
  0
ARC
  5
1EF5
330
224D
100
AcDbEntity
  8
CAM ... GCodeOffsetMM ... normal
100
AcDbCircle
 10
43.99999999999999
 20
15.0
 30
-4.0
 40
1.0
100
AcDbArc
 50
180.0
 51
270.0
1001
QCAD
1000
CamClosedContour:1
1000
CamContourIndex:1
1000
CamDirection:1
1000
CamFeedRate:100
1000
CamIgnore:1
1000
CamNotOffset:1
1000
CamTool:1
1000
CamZPass:1
1000
CamZPasses:1
  0
LINE
  5
1EF6
330
224D
100
AcDbEntity
  8
CAM ... GCodeOffsetMM ... normal
100
AcDbLine
 10
43.99999999999999
 20
14.0
 30
-4.0
 11
65.0
 21
14.0
 31
-4.0
1001
QCAD
1000
CamClosedContour:1
1000
CamContourIndex:1
1000
CamDirection:1
1000
CamFeedRate:100
1000
CamIgnore:1
1000
CamNotOffset:1
1000
CamTool:1
1000
CamZPass:1
1000
CamZPasses:1
  0
ARC
  5
1EF7
330
224D
100
AcDbEntity
  8
CAM ... GCodeOffsetMM ... normal
100
AcDbCircle
 10
65.0
 20
15.0
 30
-4.0
 40
1.0
100
AcDbArc
 50
270.0
 51
0.0
1001
QCAD
1000
CamClosedContour:1
1000
CamContourIndex:1
1000
CamDirection:1
1000
CamFeedRate:100
1000
CamIgnore:1
1000
CamNotOffset:1
1000
CamTool:1
1000
CamZPass:1
1000
CamZPasses:1
  0
LINE
  5
1EF8
330
224D
100
AcDbEntity
  8
CAM ... GCodeOffsetMM ... normal
100
AcDbLine
 10
66.0
 20
15.0
 30
-4.0
 11
66.0
 21
22.5
 31
-4.0
1001
QCAD
1000
CamClosedContour:1
1000
CamContourIndex:1
1000
CamDirection:1
1000
CamFeedRate:100
1000
CamIgnore:1
1000
CamLast:1
1000
CamLastSegment:1
1000
CamNotOffset:1
1000
CamTool:1
1000
CamZPass:1
1000
CamZPasses:1
  0
LINE
  5
1EF9
330
224D
100
AcDbEntity
  8
CAM ... GCodeOffsetMM ... normal
100
AcDbLine
 10
66.0
 20
22.5
 30
-4.0
 11
66.0
 21
23.5
 31
-4.0
1001
QCAD
1000
CamClosedContour:1
1000
CamContourIndex:1
1000
CamDirection:1
1000
CamFeedRate:100
1000
CamIgnore:1
1000
CamNotOffset:1
1000
CamOvercutOut:1
1000
CamTool:1
1000
CamZPass:1
1000
CamZPasses:1
  0
ARC
  5
1EFA
330
224D
100
AcDbEntity
  8
CAM ... GCodeOffsetMM ... normal
100
AcDbCircle
 10
63.0
 20
23.5
 30
-4.0
 40
3.0
100
AcDbArc
 50
0.0
 51
90.00000000000001
1001
QCAD
1000
CamClosedContour:1
1000
CamCompensationOff:1
1000
CamContourIndex:1
1000
CamDirection:1
1000
CamFeedRate:100
1000
CamIgnore:1
1000
CamLeadOut:1
1000
CamNotOffset:1
1000
CamTool:1
1000
CamZPass:1
1000
CamZPasses:1
  0
LINE
  5
1EFB
330
224D
100
AcDbEntity
  8
CAM ... GCodeOffsetMM ... rapid
100
AcDbLine
 10
35.0
 20
24.20601869836812
 30
2.0
 11
63.0
 21
18.5
 31
2.0
1001
QCAD
1000
CamContourIndex:1
1000
CamOffset:1
1000
CamRapidMove:1
1000
CamTool:1
1000
CamZPass:1
1000
CamZPasses:1
  0
LINE
  5
1EFC
330
224D
100
AcDbEntity
  8
CAM ... GCodeOffsetMM ... rapid
100
AcDbLine
 10
63.0
 20
18.5
 30
2.0
 11
63.0
 21
18.5
 31
2.0
1001
QCAD
1000
CamContourIndex:1
1000
CamOffset:1
1000
CamRapidMove:1
1000
CamTool:1
1000
CamToolDownClearance:1
1000
CamZMove:1
1000
CamZPass:1
1000
CamZPasses:1
  0
LINE
  5
1EFD
330
224D
100
AcDbEntity
  8
CAM ... GCodeOffsetMM ... rapid
100
AcDbLine
 10
63.0
 20
18.5
 30
2.0
 11
63.0
 21
18.5
 31
2.0
1001
QCAD
1000
CamContourIndex:1
1000
CamOffset:1
1000
CamRapidMove:1
1000
CamTool:1
1000
CamToolDownClearancePass:1
1000
CamZMove:1
1000
CamZPass:1
1000
CamZPasses:1
  0
LINE
  5
1EFE
330
224D
100
AcDbEntity
  8
CAM ... GCodeOffsetMM ... offset
100
AcDbLine
 10
63.0
 20
18.5
 30
2.0
 11
63.0
 21
18.5
 31
-4.0
1001
QCAD
1000
CamContourIndex:1
1000
CamDirection:1
1000
CamFeedRate:50
1000
CamOffset:1
1000
CamTool:1
1000
CamToolDown:1
1000
CamZMove:1
1000
CamZPass:1
1000
CamZPasses:1
  0
ARC
  5
1EFF
330
224D
100
AcDbEntity
  8
CAM ... GCodeOffsetMM ... offset
100
AcDbCircle
 10
61.74999999999999
 20
21.50000000000001
 30
-4.0
 40
3.250000000000017
100
AcDbArc
 50
292.6198649480405
 51
0.0
1001
QCAD
1000
CamContourIndex:1
1000
CamDirection:1
1000
CamFeedRate:100
1000
CamLeadIn:1
1000
CamOffset:1
1000
CamTool:1
1000
CamZPass:1
1000
CamZPasses:1
  0
LINE
  5
1F00
330
224D
100
AcDbEntity
  8
CAM ... GCodeOffsetMM ... offset
100
AcDbLine
 10
65.0
 20
21.5
 30
-4.0
 11
65.0
 21
22.5
 31
-4.0
1001
QCAD
1000
CamContourIndex:1
1000
CamDirection:1
1000
CamFeedRate:100
1000
CamOffset:1
1000
CamOvercutIn:1
1000
CamTool:1
1000
CamZPass:1
1000
CamZPasses:1
  0
LINE
  5
1F01
330
224D
100
AcDbEntity
  8
CAM ... GCodeOffsetMM ... offset
100
AcDbLine
 10
65.0
 20
22.5
 30
-4.0
 11
64.99999999999999
 21
30.0
 31
-4.0
1001
QCAD
1000
CamContourIndex:1
1000
CamDirection:1
1000
CamFeedRate:100
1000
CamOffset:1
1000
CamTool:1
1000
CamZPass:1
1000
CamZPasses:1
  0
ARC
  5
1F02
330
224D
100
AcDbEntity
  8
CAM ... GCodeOffsetMM ... offset
100
AcDbCircle
 10
64.99999999999997
 20
30.00000000000005
 30
-4.0
 40
0.0000000000000409
100
AcDbArc
 50
0.0
 51
0.0
1001
QCAD
1000
CamContourIndex:1
1000
CamDirection:1
1000
CamFeedRate:100
1000
CamOffset:1
1000
CamTool:1
1000
CamZPass:1
1000
CamZPasses:1
  0
ARC
  5
1F03
330
224D
100
AcDbEntity
  8
CAM ... GCodeOffsetMM ... offset
100
AcDbCircle
 10
65.0000000000004
 20
-39.02986597588764
 30
-4.0
 40
69.02986597588769
100
AcDbArc
 50
90.00000000000038
 51
95.28357893874863
1001
QCAD
1000
CamContourIndex:1
1000
CamDirection:1
1000
CamFeedRate:100
1000
CamOffset:1
1000
CamTool:1
1000
CamZPass:1
1000
CamZPasses:1
  0
ARC
  5
1F04
330
224D
100
AcDbEntity
  8
CAM ... GCodeOffsetMM ... offset
100
AcDbCircle
 10
67.70437382279009
 20
-68.27325227977707
 30
-4.0
 40
98.39803378206683
100
AcDbArc
 50
95.28357893874866
 51
99.75382889372312
1001
QCAD
1000
CamContourIndex:1
1000
CamDirection:1
1000
CamFeedRate:100
1000
CamOffset:1
1000
CamTool:1
1000
CamZPass:1
1000
CamZPasses:1
  0
ARC
  5
1F05
330
224D
100
AcDbEntity
  8
CAM ... GCodeOffsetMM ... offset
100
AcDbCircle
 10
70.22812634381377
 20
-82.95474838334678
 30
-4.0
 40
113.2948674935139
100
AcDbArc
 50
99.75382889372229
 51
103.1743804744591
1001
QCAD
1000
CamContourIndex:1
1000
CamDirection:1
1000
CamFeedRate:100
1000
CamOffset:1
1000
CamTool:1
1000
CamZPass:1
1000
CamZPasses:1
  0
ARC
  5
1F06
330
224D
100
AcDbEntity
  8
CAM ... GCodeOffsetMM ... offset
100
AcDbCircle
 10
76.692221593012
 20
-110.5700957577856
 30
-4.0
 40
141.6566717027251
100
AcDbArc
 50
103.1743804744695
 51
103.3432868084374
1001
QCAD
1000
CamContourIndex:1
1000
CamDirection:1
1000
CamFeedRate:100
1000
CamOffset:1
1000
CamTool:1
1000
CamZPass:1
1000
CamZPasses:1
  0
LINE
  5
1F07
330
224D
100
AcDbEntity
  8
CAM ... GCodeOffsetMM ... offset
100
AcDbLine
 10
44.00000000000018
 20
27.26252478324257
 30
-4.0
 11
44.00000000000001
 21
27.26252478324253
 31
-4.0
1001
QCAD
1000
CamContourIndex:1
1000
CamDirection:1
1000
CamFeedRate:100
1000
CamOffset:1
1000
CamTool:1
1000
CamZPass:1
1000
CamZPasses:1
  0
LINE
  5
1F08
330
224D
100
AcDbEntity
  8
CAM ... GCodeOffsetMM ... offset
100
AcDbLine
 10
44.00000000000001
 20
27.26252478324253
 30
-4.0
 11
43.99999999999999
 21
15.0
 31
-4.0
1001
QCAD
1000
CamContourIndex:1
1000
CamDirection:1
1000
CamFeedRate:100
1000
CamOffset:1
1000
CamTool:1
1000
CamZPass:1
1000
CamZPasses:1
  0
ARC
  5
1F09
330
224D
100
AcDbEntity
  8
CAM ... GCodeOffsetMM ... offset
100
AcDbCircle
 10
43.99999999999999
 20
15.0
 30
-4.0
 40
0.0000000000000013
100
AcDbArc
 50
0.0
 51
0.0
1001
QCAD
1000
CamContourIndex:1
1000
CamDirection:1
1000
CamFeedRate:100
1000
CamOffset:1
1000
CamTool:1
1000
CamZPass:1
1000
CamZPasses:1
  0
LINE
  5
1F0A
330
224D
100
AcDbEntity
  8
CAM ... GCodeOffsetMM ... offset
100
AcDbLine
 10
43.99999999999999
 20
15.0
 30
-4.0
 11
65.0
 21
15.0
 31
-4.0
1001
QCAD
1000
CamContourIndex:1
1000
CamDirection:1
1000
CamFeedRate:100
1000
CamOffset:1
1000
CamTool:1
1000
CamZPass:1
1000
CamZPasses:1
  0
LINE
  5
1F0B
330
224D
100
AcDbEntity
  8
CAM ... GCodeOffsetMM ... offset
100
AcDbLine
 10
65.0
 20
15.0
 30
-4.0
 11
65.0
 21
15.0
 31
-4.0
1001
QCAD
1000
CamContourIndex:1
1000
CamDirection:1
1000
CamFeedRate:100
1000
CamOffset:1
1000
CamTool:1
1000
CamZPass:1
1000
CamZPasses:1
  0
LINE
  5
1F0C
330
224D
100
AcDbEntity
  8
CAM ... GCodeOffsetMM ... offset
100
AcDbLine
 10
65.0
 20
15.0
 30
-4.0
 11
65.0
 21
22.5
 31
-4.0
1001
QCAD
1000
CamContourIndex:1
1000
CamDirection:1
1000
CamFeedRate:100
1000
CamOffset:1
1000
CamTool:1
1000
CamZPass:1
1000
CamZPasses:1
  0
LINE
  5
1F0D
330
224D
100
AcDbEntity
  8
CAM ... GCodeOffsetMM ... offset
100
AcDbLine
 10
65.0
 20
22.5
 30
-4.0
 11
65.0
 21
23.5
 31
-4.0
1001
QCAD
1000
CamContourIndex:1
1000
CamDirection:1
1000
CamFeedRate:100
1000
CamOffset:1
1000
CamOvercutOut:1
1000
CamTool:1
1000
CamZPass:1
1000
CamZPasses:1
  0
ARC
  5
1F0E
330
224D
100
AcDbEntity
  8
CAM ... GCodeOffsetMM ... offset
100
AcDbCircle
 10
61.74999999999999
 20
23.5
 30
-4.0
 40
3.250000000000006
100
AcDbArc
 50
0.0
 51
67.38013505195948
1001
QCAD
1000
CamContourIndex:1
1000
CamDirection:1
1000
CamFeedRate:100
1000
CamLeadOut:1
1000
CamOffset:1
1000
CamTool:1
1000
CamZPass:1
1000
CamZPasses:1
  0
LINE
  5
1F0F
330
224D
100
AcDbEntity
  8
CAM ... GCodeOffsetMM ... normal
100
AcDbLine
 10
63.0
 20
26.5
 30
-4.0
 11
63.0
 21
26.5
 31
2.0
1001
QCAD
1000
CamContourIndex:1
1000
CamDirection:1
1000
CamFeedRate:100
1000
CamTool:1
1000
CamToolUp:1
1000
CamZMove:1
1000
CamZPass:1
1000
CamZPasses:1
  0
ARC
  5
1F10
330
224D
100
AcDbEntity
  8
CAM ... GCodeOffsetMM ... normal
100
AcDbCircle
 10
73.0
 20
23.5
 30
-4.0
 40
3.0
100
AcDbArc
 50
90.0
 51
180.0
1001
QCAD
1000
CamClosedContour:1
1000
CamCompensationOn:1
1000
CamContourIndex:0
1000
CamDirection:1
1000
CamFeedRate:100
1000
CamIgnore:1
1000
CamLeadIn:1
1000
CamNotOffset:1
1000
CamTool:1
1000
CamZPass:1
1000
CamZPasses:1
  0
LINE
  5
1F11
330
224D
100
AcDbEntity
  8
CAM ... GCodeOffsetMM ... normal
100
AcDbLine
 10
70.0
 20
23.5
 30
-4.0
 11
70.0
 21
22.5
 31
-4.0
1001
QCAD
1000
CamClosedContour:1
1000
CamContourIndex:0
1000
CamDirection:1
1000
CamFeedRate:100
1000
CamIgnore:1
1000
CamNotOffset:1
1000
CamOvercutIn:1
1000
CamTool:1
1000
CamZPass:1
1000
CamZPasses:1
  0
LINE
  5
1F12
330
224D
100
AcDbEntity
  8
CAM ... GCodeOffsetMM ... normal
100
AcDbLine
 10
70.0
 20
22.5
 30
-4.0
 11
70.0
 21
15.0
 31
-4.0
1001
QCAD
1000
CamClosedContour:1
1000
CamContourIndex:0
1000
CamDirection:1
1000
CamFeedRate:100
1000
CamFirst:1
1000
CamFirstSegment:1
1000
CamIgnore:1
1000
CamNotOffset:1
1000
CamTool:1
1000
CamZPass:1
1000
CamZPasses:1
  0
ARC
  5
1F13
330
224D
100
AcDbEntity
  8
CAM ... GCodeOffsetMM ... normal
100
AcDbCircle
 10
65.0
 20
15.0
 30
-4.0
 40
5.0
100
AcDbArc
 50
270.0
 51
0.0
1001
QCAD
1000
CamClosedContour:1
1000
CamContourIndex:0
1000
CamDirection:1
1000
CamFeedRate:100
1000
CamIgnore:1
1000
CamNotOffset:1
1000
CamTool:1
1000
CamZPass:1
1000
CamZPasses:1
1000
reversed:1
  0
LINE
  5
1F14
330
224D
100
AcDbEntity
  8
CAM ... GCodeOffsetMM ... normal
100
AcDbLine
 10
65.0
 20
10.0
 30
-4.0
 11
10.0
 21
10.0
 31
-4.0
1001
QCAD
1000
CamClosedContour:1
1000
CamContourIndex:0
1000
CamDirection:1
1000
CamFeedRate:100
1000
CamIgnore:1
1000
CamNotOffset:1
1000
CamTool:1
1000
CamZPass:1
1000
CamZPasses:1
  0
ARC
  5
1F15
330
224D
100
AcDbEntity
  8
CAM ... GCodeOffsetMM ... normal
100
AcDbCircle
 10
9.999999999999963
 20
15.00000000000002
 30
-4.0
 40
5.000000000000016
100
AcDbArc
 50
115.3329386130289
 51
270.0000000000004
1001
QCAD
1000
CamClosedContour:1
1000
CamContourIndex:0
1000
CamDirection:1
1000
CamFeedRate:100
1000
CamIgnore:1
1000
CamNotOffset:1
1000
CamTool:1
1000
CamZPass:1
1000
CamZPasses:1
1000
reversed:1
  0
ARC
  5
1F16
330
224D
100
AcDbEntity
  8
CAM ... GCodeOffsetMM ... normal
100
AcDbCircle
 10
101.1151222006544
 20
-177.469072611721
 30
-4.0
 40
217.9467290325356
100
AcDbArc
 50
113.3219295216337
 51
115.332938613028
1001
QCAD
1000
CamClosedContour:1
1000
CamContourIndex:0
1000
CamDirection:1
1000
CamFeedRate:100
1000
CamIgnore:1
1000
CamNotOffset:1
1000
CamTool:1
1000
CamZPass:1
1000
CamZPasses:1
1000
reversed:1
  0
ARC
  5
1F17
330
224D
100
AcDbEntity
  8
CAM ... GCodeOffsetMM ... normal
100
AcDbCircle
 10
92.73116485540629
 20
-158.0222331063386
 30
-4.0
 40
196.7696114875286
100
AcDbArc
 50
111.2054571813436
 51
113.3219295216343
1001
QCAD
1000
CamClosedContour:1
1000
CamContourIndex:0
1000
CamDirection:1
1000
CamFeedRate:100
1000
CamIgnore:1
1000
CamNotOffset:1
1000
CamTool:1
1000
CamZPass:1
1000
CamZPasses:1
1000
reversed:1
  0
ARC
  5
1F18
330
224D
100
AcDbEntity
  8
CAM ... GCodeOffsetMM ... normal
100
AcDbCircle
 10
88.54507911282178
 20
-147.2329078746712
 30
-4.0
 40
185.1966752655077
100
AcDbArc
 50
108.8159114413492
 51
111.2054571813435
1001
QCAD
1000
CamClosedContour:1
1000
CamContourIndex:0
1000
CamDirection:1
1000
CamFeedRate:100
1000
CamIgnore:1
1000
CamNotOffset:1
1000
CamTool:1
1000
CamZPass:1
1000
CamZPasses:1
1000
reversed:1
  0
ARC
  5
1F19
330
224D
100
AcDbEntity
  8
CAM ... GCodeOffsetMM ... normal
100
AcDbCircle
 10
80.46989198441568
 20
-123.5337768514712
 30
-4.0
 40
160.1595536575118
100
AcDbArc
 50
106.2463415353288
 51
108.8159114413487
1001
QCAD
1000
CamClosedContour:1
1000
CamContourIndex:0
1000
CamDirection:1
1000
CamFeedRate:100
1000
CamIgnore:1
1000
CamNotOffset:1
1000
CamTool:1
1000
CamZPass:1
1000
CamZPasses:1
1000
reversed:1
  0
ARC
  5
1F1A
330
224D
100
AcDbEntity
  8
CAM ... GCodeOffsetMM ... normal
100
AcDbCircle
 10
76.6922215929853
 20
-110.5700957577808
 30
-4.0
 40
146.6566717027143
100
AcDbArc
 50
103.1743804744594
 51
106.2463415353288
1001
QCAD
1000
CamClosedContour:1
1000
CamContourIndex:0
1000
CamDirection:1
1000
CamFeedRate:100
1000
CamIgnore:1
1000
CamNotOffset:1
1000
CamTool:1
1000
CamZPass:1
1000
CamZPasses:1
1000
reversed:1
  0
ARC
  5
1F1B
330
224D
100
AcDbEntity
  8
CAM ... GCodeOffsetMM ... normal
100
AcDbCircle
 10
70.22812634381577
 20
-82.95474838334593
 30
-4.0
 40
118.2948674935134
100
AcDbArc
 50
99.75382889372334
 51
103.1743804744602
1001
QCAD
1000
CamClosedContour:1
1000
CamContourIndex:0
1000
CamDirection:1
1000
CamFeedRate:100
1000
CamIgnore:1
1000
CamNotOffset:1
1000
CamTool:1
1000
CamZPass:1
1000
CamZPasses:1
1000
reversed:1
  0
ARC
  5
1F1C
330
224D
100
AcDbEntity
  8
CAM ... GCodeOffsetMM ... normal
100
AcDbCircle
 10
67.70437382278915
 20
-68.27325227977727
 30
-4.0
 40
103.3980337820669
100
AcDbArc
 50
95.28357893874814
 51
99.7538288937226
1001
QCAD
1000
CamClosedContour:1
1000
CamContourIndex:0
1000
CamDirection:1
1000
CamFeedRate:100
1000
CamIgnore:1
1000
CamNotOffset:1
1000
CamTool:1
1000
CamZPass:1
1000
CamZPasses:1
1000
reversed:1
  0
ARC
  5
1F1D
330
224D
100
AcDbEntity
  8
CAM ... GCodeOffsetMM ... normal
100
AcDbCircle
 10
65.00000000000058
 20
-39.02986597588782
 30
-4.0
 40
74.02986597588784
100
AcDbArc
 50
90.00000000000044
 51
95.2835789387488
1001
QCAD
1000
CamClosedContour:1
1000
CamContourIndex:0
1000
CamDirection:1
1000
CamFeedRate:100
1000
CamIgnore:1
1000
CamNotOffset:1
1000
CamTool:1
1000
CamZPass:1
1000
CamZPasses:1
1000
reversed:1
  0
ARC
  5
1F1E
330
224D
100
AcDbEntity
  8
CAM ... GCodeOffsetMM ... normal
100
AcDbCircle
 10
64.99999999999997
 20
30.00000000000001
 30
-4.0
 40
5.000000000000022
100
AcDbArc
 50
0.0
 51
89.99999999999935
1001
QCAD
1000
CamClosedContour:1
1000
CamContourIndex:0
1000
CamDirection:1
1000
CamFeedRate:100
1000
CamIgnore:1
1000
CamNotOffset:1
1000
CamTool:1
1000
CamZPass:1
1000
CamZPasses:1
1000
reversed:1
  0
LINE
  5
1F1F
330
224D
100
AcDbEntity
  8
CAM ... GCodeOffsetMM ... normal
100
AcDbLine
 10
70.0
 20
30.0
 30
-4.0
 11
70.0
 21
22.5
 31
-4.0
1001
QCAD
1000
CamClosedContour:1
1000
CamContourIndex:0
1000
CamDirection:1
1000
CamFeedRate:100
1000
CamIgnore:1
1000
CamLast:1
1000
CamLastSegment:1
1000
CamNotOffset:1
1000
CamTool:1
1000
CamZPass:1
1000
CamZPasses:1
  0
LINE
  5
1F20
330
224D
100
AcDbEntity
  8
CAM ... GCodeOffsetMM ... normal
100
AcDbLine
 10
70.0
 20
22.5
 30
-4.0
 11
70.0
 21
21.5
 31
-4.0
1001
QCAD
1000
CamClosedContour:1
1000
CamContourIndex:0
1000
CamDirection:1
1000
CamFeedRate:100
1000
CamIgnore:1
1000
CamNotOffset:1
1000
CamOvercutOut:1
1000
CamTool:1
1000
CamZPass:1
1000
CamZPasses:1
  0
ARC
  5
1F21
330
224D
100
AcDbEntity
  8
CAM ... GCodeOffsetMM ... normal
100
AcDbCircle
 10
73.0
 20
21.5
 30
-4.0
 40
3.0
100
AcDbArc
 50
180.0
 51
270.0
1001
QCAD
1000
CamClosedContour:1
1000
CamCompensationOff:1
1000
CamContourIndex:0
1000
CamDirection:1
1000
CamFeedRate:100
1000
CamIgnore:1
1000
CamLeadOut:1
1000
CamNotOffset:1
1000
CamTool:1
1000
CamZPass:1
1000
CamZPasses:1
  0
LINE
  5
1F22
330
224D
100
AcDbEntity
  8
CAM ... GCodeOffsetMM ... rapid
100
AcDbLine
 10
63.0
 20
26.5
 30
2.0
 11
73.0
 21
26.5
 31
2.0
1001
QCAD
1000
CamContourIndex:0
1000
CamOffset:1
1000
CamRapidMove:1
1000
CamTool:1
1000
CamZPass:1
1000
CamZPasses:1
  0
LINE
  5
1F23
330
224D
100
AcDbEntity
  8
CAM ... GCodeOffsetMM ... rapid
100
AcDbLine
 10
73.0
 20
26.5
 30
2.0
 11
73.0
 21
26.5
 31
2.0
1001
QCAD
1000
CamContourIndex:0
1000
CamOffset:1
1000
CamRapidMove:1
1000
CamTool:1
1000
CamToolDownClearance:1
1000
CamZMove:1
1000
CamZPass:1
1000
CamZPasses:1
  0
LINE
  5
1F24
330
224D
100
AcDbEntity
  8
CAM ... GCodeOffsetMM ... rapid
100
AcDbLine
 10
73.0
 20
26.5
 30
2.0
 11
73.0
 21
26.5
 31
2.0
1001
QCAD
1000
CamContourIndex:0
1000
CamOffset:1
1000
CamRapidMove:1
1000
CamTool:1
1000
CamToolDownClearancePass:1
1000
CamZMove:1
1000
CamZPass:1
1000
CamZPasses:1
  0
LINE
  5
1F25
330
224D
100
AcDbEntity
  8
CAM ... GCodeOffsetMM ... offset
100
AcDbLine
 10
73.0
 20
26.5
 30
2.0
 11
73.0
 21
26.5
 31
-4.0
1001
QCAD
1000
CamContourIndex:0
1000
CamDirection:1
1000
CamFeedRate:50
1000
CamOffset:1
1000
CamTool:1
1000
CamToolDown:1
1000
CamZMove:1
1000
CamZPass:1
1000
CamZPasses:1
  0
ARC
  5
1F26
330
224D
100
AcDbEntity
  8
CAM ... GCodeOffsetMM ... offset
100
AcDbCircle
 10
74.25
 20
23.5
 30
-4.0
 40
3.250000000000003
100
AcDbArc
 50
112.6198649480404
 51
180.0
1001
QCAD
1000
CamContourIndex:0
1000
CamDirection:1
1000
CamFeedRate:100
1000
CamLeadIn:1
1000
CamOffset:1
1000
CamTool:1
1000
CamZPass:1
1000
CamZPasses:1
  0
LINE
  5
1F27
330
224D
100
AcDbEntity
  8
CAM ... GCodeOffsetMM ... offset
100
AcDbLine
 10
71.0
 20
23.5
 30
-4.0
 11
71.0
 21
22.5
 31
-4.0
1001
QCAD
1000
CamContourIndex:0
1000
CamDirection:1
1000
CamFeedRate:100
1000
CamOffset:1
1000
CamOvercutIn:1
1000
CamTool:1
1000
CamZPass:1
1000
CamZPasses:1
  0
LINE
  5
1F28
330
224D
100
AcDbEntity
  8
CAM ... GCodeOffsetMM ... offset
100
AcDbLine
 10
71.0
 20
22.5
 30
-4.0
 11
71.0
 21
15.0
 31
-4.0
1001
QCAD
1000
CamContourIndex:0
1000
CamDirection:1
1000
CamFeedRate:100
1000
CamOffset:1
1000
CamTool:1
1000
CamZPass:1
1000
CamZPasses:1
  0
ARC
  5
1F29
330
224D
100
AcDbEntity
  8
CAM ... GCodeOffsetMM ... offset
100
AcDbCircle
 10
65.0
 20
15.0
 30
-4.0
 40
5.999999999999999
100
AcDbArc
 50
270.0
 51
0.0
1001
QCAD
1000
CamContourIndex:0
1000
CamDirection:1
1000
CamFeedRate:100
1000
CamOffset:1
1000
CamTool:1
1000
CamZPass:1
1000
CamZPasses:1
1000
reversed:1
  0
LINE
  5
1F2A
330
224D
100
AcDbEntity
  8
CAM ... GCodeOffsetMM ... offset
100
AcDbLine
 10
65.0
 20
9.0
 30
-4.0
 11
10.00000000000001
 21
9.0
 31
-4.0
1001
QCAD
1000
CamContourIndex:0
1000
CamDirection:1
1000
CamFeedRate:100
1000
CamOffset:1
1000
CamTool:1
1000
CamZPass:1
1000
CamZPasses:1
  0
ARC
  5
1F2B
330
224D
100
AcDbEntity
  8
CAM ... GCodeOffsetMM ... offset
100
AcDbCircle
 10
9.999999999999963
 20
15.00000000000002
 30
-4.0
 40
6.000000000000024
100
AcDbArc
 50
115.3329386130287
 51
270.0000000000004
1001
QCAD
1000
CamContourIndex:0
1000
CamDirection:1
1000
CamFeedRate:100
1000
CamOffset:1
1000
CamTool:1
1000
CamZPass:1
1000
CamZPasses:1
1000
reversed:1
  0
ARC
  5
1F2C
330
224D
100
AcDbEntity
  8
CAM ... GCodeOffsetMM ... offset
100
AcDbCircle
 10
101.1151222006537
 20
-177.4690726117207
 30
-4.0
 40
218.946729032535
100
AcDbArc
 50
113.3219295216335
 51
115.3329386130279
1001
QCAD
1000
CamContourIndex:0
1000
CamDirection:1
1000
CamFeedRate:100
1000
CamOffset:1
1000
CamTool:1
1000
CamZPass:1
1000
CamZPasses:1
1000
reversed:1
  0
ARC
  5
1F2D
330
224D
100
AcDbEntity
  8
CAM ... GCodeOffsetMM ... offset
100
AcDbCircle
 10
92.73116485540635
 20
-158.0222331063381
 30
-4.0
 40
197.7696114875282
100
AcDbArc
 50
111.2054571813436
 51
113.3219295216344
1001
QCAD
1000
CamContourIndex:0
1000
CamDirection:1
1000
CamFeedRate:100
1000
CamOffset:1
1000
CamTool:1
1000
CamZPass:1
1000
CamZPasses:1
1000
reversed:1
  0
ARC
  5
1F2E
330
224D
100
AcDbEntity
  8
CAM ... GCodeOffsetMM ... offset
100
AcDbCircle
 10
88.54507911282144
 20
-147.2329078746718
 30
-4.0
 40
186.1966752655081
100
AcDbArc
 50
108.815911441349
 51
111.2054571813433
1001
QCAD
1000
CamContourIndex:0
1000
CamDirection:1
1000
CamFeedRate:100
1000
CamOffset:1
1000
CamTool:1
1000
CamZPass:1
1000
CamZPasses:1
1000
reversed:1
  0
ARC
  5
1F2F
330
224D
100
AcDbEntity
  8
CAM ... GCodeOffsetMM ... offset
100
AcDbCircle
 10
80.46989198441648
 20
-123.5337768514706
 30
-4.0
 40
161.1595536575114
100
AcDbArc
 50
106.2463415353291
 51
108.8159114413491
1001
QCAD
1000
CamContourIndex:0
1000
CamDirection:1
1000
CamFeedRate:100
1000
CamOffset:1
1000
CamTool:1
1000
CamZPass:1
1000
CamZPasses:1
1000
reversed:1
  0
ARC
  5
1F30
330
224D
100
AcDbEntity
  8
CAM ... GCodeOffsetMM ... offset
100
AcDbCircle
 10
76.69222159298457
 20
-110.5700957577803
 30
-4.0
 40
147.6566717027136
100
AcDbArc
 50
103.1743804744592
 51
106.2463415353286
1001
QCAD
1000
CamContourIndex:0
1000
CamDirection:1
1000
CamFeedRate:100
1000
CamOffset:1
1000
CamTool:1
1000
CamZPass:1
1000
CamZPasses:1
1000
reversed:1
  0
ARC
  5
1F31
330
224D
100
AcDbEntity
  8
CAM ... GCodeOffsetMM ... offset
100
AcDbCircle
 10
70.22812634381518
 20
-82.95474838334573
 30
-4.0
 40
119.2948674935131
100
AcDbArc
 50
99.75382889372307
 51
103.1743804744599
1001
QCAD
1000
CamContourIndex:0
1000
CamDirection:1
1000
CamFeedRate:100
1000
CamOffset:1
1000
CamTool:1
1000
CamZPass:1
1000
CamZPasses:1
1000
reversed:1
  0
ARC
  5
1F32
330
224D
100
AcDbEntity
  8
CAM ... GCodeOffsetMM ... offset
100
AcDbCircle
 10
67.70437382278982
 20
-68.27325227977673
 30
-4.0
 40
104.3980337820664
100
AcDbArc
 50
95.28357893874852
 51
99.75382889372302
1001
QCAD
1000
CamContourIndex:0
1000
CamDirection:1
1000
CamFeedRate:100
1000
CamOffset:1
1000
CamTool:1
1000
CamZPass:1
1000
CamZPasses:1
1000
reversed:1
  0
ARC
  5
1F33
330
224D
100
AcDbEntity
  8
CAM ... GCodeOffsetMM ... offset
100
AcDbCircle
 10
65.00000000000048
 20
-39.02986597588794
 30
-4.0
 40
75.02986597588797
100
AcDbArc
 50
90.00000000000034
 51
95.2835789387487
1001
QCAD
1000
CamContourIndex:0
1000
CamDirection:1
1000
CamFeedRate:100
1000
CamOffset:1
1000
CamTool:1
1000
CamZPass:1
1000
CamZPasses:1
1000
reversed:1
  0
ARC
  5
1F34
330
224D
100
AcDbEntity
  8
CAM ... GCodeOffsetMM ... offset
100
AcDbCircle
 10
64.99999999999999
 20
30.00000000000001
 30
-4.0
 40
6.000000000000022
100
AcDbArc
 50
0.0
 51
89.99999999999935
1001
QCAD
1000
CamContourIndex:0
1000
CamDirection:1
1000
CamFeedRate:100
1000
CamOffset:1
1000
CamTool:1
1000
CamZPass:1
1000
CamZPasses:1
1000
reversed:1
  0
LINE
  5
1F35
330
224D
100
AcDbEntity
  8
CAM ... GCodeOffsetMM ... offset
100
AcDbLine
 10
71.00000000000001
 20
30.0
 30
-4.0
 11
71.0
 21
22.5
 31
-4.0
1001
QCAD
1000
CamContourIndex:0
1000
CamDirection:1
1000
CamFeedRate:100
1000
CamOffset:1
1000
CamTool:1
1000
CamZPass:1
1000
CamZPasses:1
  0
LINE
  5
1F36
330
224D
100
AcDbEntity
  8
CAM ... GCodeOffsetMM ... offset
100
AcDbLine
 10
71.0
 20
22.5
 30
-4.0
 11
71.0
 21
21.5
 31
-4.0
1001
QCAD
1000
CamContourIndex:0
1000
CamDirection:1
1000
CamFeedRate:100
1000
CamOffset:1
1000
CamOvercutOut:1
1000
CamTool:1
1000
CamZPass:1
1000
CamZPasses:1
  0
ARC
  5
1F37
330
224D
100
AcDbEntity
  8
CAM ... GCodeOffsetMM ... offset
100
AcDbCircle
 10
74.25000000000001
 20
21.50000000000001
 30
-4.0
 40
3.250000000000014
100
AcDbArc
 50
180.0
 51
247.3801350519594
1001
QCAD
1000
CamContourIndex:0
1000
CamDirection:1
1000
CamFeedRate:100
1000
CamLeadOut:1
1000
CamOffset:1
1000
CamTool:1
1000
CamZPass:1
1000
CamZPasses:1
  0
LINE
  5
1F38
330
224D
100
AcDbEntity
  8
CAM ... GCodeOffsetMM ... normal
100
AcDbLine
 10
73.0
 20
18.5
 30
-4.0
 11
73.0
 21
18.5
 31
2.0
1001
QCAD
1000
CamContourIndex:0
1000
CamDirection:1
1000
CamFeedRate:100
1000
CamTool:1
1000
CamToolUp:1
1000
CamZMove:1
1000
CamZPass:1
1000
CamZPasses:1
  0
LINE
  5
1F39
330
224D
100
AcDbEntity
  8
CAM ... GCodeOffsetMM ... rapid
100
AcDbLine
 10
73.0
 20
18.5
 30
2.0
 11
73.0
 21
18.5
 31
30.0
1001
QCAD
1000
CamRapidMove:1
1000
CamRapidMoveToSafety:1
1000
CamZMove:1
  0
ENDBLK
  5
224F
330
224D
100
AcDbEntity
  8
0
100
AcDbBlockEnd
  0
ENDSEC
  0
SECTION
  2
ENTITIES
  0
LWPOLYLINE
  5
142
330
2165
100
AcDbEntity
  8
0
100
AcDbPolyline
 90
       14
 70
   129
 43
0.0
 10
70.0
 20
22.5
 10
70.0
 20
30.0
 42
0.4142135623730924
 10
65.00000000000003
 20
35.00000000000003
 42
0.0230580473407202
 10
58.18294443932989
 20
34.68545678600915
 42
0.0195076189837586
 10
50.18715818615213
 20
33.63013601686875
 42
0.0149260801312497
 10
43.26689054492708
 20
32.22670602449105
 42
0.0134047615547119
 10
35.66242008455755
 20
30.23024068747327
 42
0.011212333627782
 10
28.8138595364553
 20
28.06680672098297
 42
0.010426738026924
 10
21.55696589503653
 20
25.42398082925251
 42
0.0092351152491115
 10
14.8306655996949
 20
22.67030193776296
 42
0.0087749076924088
 10
7.860612308660109
 20
19.5191835884531
 42
0.8001991549907407
 10
10.0
 20
10.0
 10
65.0
 20
10.0
 42
0.4142135623730951
 10
70.0
 20
15.0
  0
LWPOLYLINE
  5
372
330
2165
100
AcDbEntity
  8
0
100
AcDbPolyline
 90
       12
 70
   129
 43
0.0
 10
66.0
 20
22.5
 10
65.99999999999999
 20
30.0
 42
0.4142135623730701
 10
65.00000000000003
 20
31.00000000000004
 42
0.02305804734072
 10
58.55128526884815
 20
30.70245226262362
 42
0.0195076189837587
 10
50.86481964627463
 20
29.68795705778216
 42
0.0149260801312497
 10
44.17855261007511
 20
28.33198237845794
 42
0.0007369930472382
 10
43.76921509449556
 20
28.23552957634034
 42
0.3475359717552967
 10
43.00000000000001
 20
27.26252478324255
 10
42.99999999999999
 20
15.0
 42
0.4142135623730951
 10
43.99999999999999
 20
14.0
 10
65.0
 20
14.0
 42
0.4142135623730951
 10
66.0
 20
15.0
  0
INSERT
  5
1A0
330
2165
100
AcDbEntity
  8
CAM ... GCodeMM
100
AcDbBlockReference
  2
CAMTOOLPATH$$GCodeMM$$Profile 1
 10
0.0
 20
0.0
 30
0.0
  0
LWPOLYLINE
  5
3F8
330
2165
100
AcDbEntity
  8
0
100
AcDbPolyline
 90
       10
 70
   129
 43
0.0
 10
38.0
 20
20.20601869836812
 10
38.0
 20
15.0
 42
-0.4142135623730951
 10
37.0
 20
14.0
 10
10.0
 20
14.0
 42
-0.8001991549907429
 10
9.572122461732079
 20
15.90383671769055
 42
-0.0087749076924087
 10
16.41425360735128
 20
18.99712224953549
 42
-0.0092351152491114
 10
23.00381936844255
 20
21.69482341416608
 42
-0.0104267380269241
 10
30.10397383231365
 20
24.2805678083387
 42
-0.011109506634234
 10
36.7198374772309
 20
26.37198997933379
 42
-0.5000529069733629
 10
38.0
 20
25.41203739673623
  0
INSERT
  5
1C64
330
2165
100
AcDbEntity
  8
CAM ... GCodeOffsetMM
100
AcDbBlockReference
  2
CAMTOOLPATH$$GCodeOffsetMM$$Profile 1
 10
0.0
 20
0.0
 30
0.0
  0
VIEWPORT
  5
2250
330
2161
100
AcDbEntity
 67
     1
  8
0
 62
   178
420
        0
100
AcDbViewport
 10
128.5
 20
97.5
 30
0.0
 40
314.226
 41
222.18
 68
     1
 69
     1
 12
128.5
 22
97.5
 13
0.0
 23
0.0
 14
10.0
 24
10.0
 15
10.0
 25
10.0
 16
0.0
 26
0.0
 36
1.0
 17
0.0
 27
0.0
 37
0.0
 42
50.0
 43
0.0
 44
0.0
 45
222.18
 50
0.0
 51
0.0
 72
   100
 90
   557152
  1

281
     0
 71
     1
 74
     0
110
0.0
120
0.0
130
0.0
111
1.0
121
0.0
131
0.0
112
0.0
122
1.0
132
0.0
 79
     0
146
0.0
170
     0
 61
     5
348
2175
292
     1
282
     1
141
0.0
142
0.0
 63
   256
361
2251
  0
ENDSEC
  0
SECTION
  2
OBJECTS
  0
DICTIONARY
  5
2153
330
0
100
AcDbDictionary
281
     1
  3
ACAD_DETAILVIEWSTYLE
350
2259
  3
ACAD_GROUP
350
2154
  3
ACAD_LAYOUT
350
2160
  3
ACAD_MATERIAL
350
2189
  3
ACAD_MLEADERSTYLE
350
21B1
  3
ACAD_MLINESTYLE
350
215D
  3
ACAD_PLOTSETTINGS
350
215F
  3
ACAD_PLOTSTYLENAME
350
2155
  3
ACAD_SCALELIST
350
218D
  3
ACAD_SECTIONVIEWSTYLE
350
225A
  3
ACAD_TABLESTYLE
350
21AF
  3
ACAD_VISUALSTYLE
350
2170
  3
AcDbVariableDictionary
350
2252
  3
ACDB_RECOMPOSE_DATA
350
2256
  3
QCAD_OBJECTS
350
21B5
  0
SUN
  5
21B3
330
216F
100
AcDbSun
 90
        1
290
     0
 63
     7
421
 16777215
 40
1.0
291
     1
 91
  2455826
 92
 54000000
292
     0
 70
     2
 71
   256
280
     1
  0
SUN
  5
2251
330
2250
100
AcDbSun
 90
        1
290
     0
 63
     7
421
 16777215
 40
1.0
291
     1
 91
  2455826
 92
 54000000
292
     0
 70
     2
 71
   256
280
     1
  0
DICTIONARY
  5
2259
102
{ACAD_REACTORS
330
2153
102
}
330
2153
100
AcDbDictionary
281
     1
  0
DICTIONARY
  5
2154
102
{ACAD_REACTORS
330
2153
102
}
330
2153
100
AcDbDictionary
281
     1
  0
DICTIONARY
  5
2160
102
{ACAD_REACTORS
330
2153
102
}
330
2153
100
AcDbDictionary
281
     1
  3
Layout1
350
2164
  3
Model
350
2168
  0
DICTIONARY
  5
2189
102
{ACAD_REACTORS
330
2153
102
}
330
2153
100
AcDbDictionary
281
     1
  3
ByBlock
350
218B
  3
ByLayer
350
218A
  3
Global
350
218C
  0
DICTIONARY
  5
21B1
102
{ACAD_REACTORS
330
2153
102
}
330
2153
100
AcDbDictionary
281
     1
  3
Standard
350
21B2
  0
DICTIONARY
  5
215D
102
{ACAD_REACTORS
330
2153
102
}
330
2153
100
AcDbDictionary
281
     1
  3
Standard
350
215E
  0
DICTIONARY
  5
215F
102
{ACAD_REACTORS
330
2153
102
}
330
2153
100
AcDbDictionary
281
     1
  0
ACDBDICTIONARYWDFLT
  5
2155
102
{ACAD_REACTORS
330
2153
102
}
330
2153
100
AcDbDictionary
281
     1
  3
Normal
350
2156
100
AcDbDictionaryWithDefault
340
2156
  0
DICTIONARY
  5
218D
102
{ACAD_REACTORS
330
2153
102
}
330
2153
100
AcDbDictionary
281
     1
  3
A0
350
218E
  3
A1
350
218F
  3
A2
350
2190
  3
A3
350
2191
  3
A4
350
2192
  3
A5
350
2193
  3
A6
350
2194
  3
A7
350
2195
  3
A8
350
2196
  3
A9
350
2197
  3
B0
350
2198
  3
B1
350
2199
  3
B2
350
219A
  3
B3
350
219B
  3
B4
350
219C
  3
B5
350
219D
  3
B6
350
219E
  3
B7
350
219F
  3
B8
350
21A0
  3
B9
350
21A1
  3
C0
350
21A2
  3
C1
350
21A3
  3
C2
350
21A4
  3
C3
350
21A5
  3
C4
350
21A6
  3
C5
350
21A7
  3
C6
350
21A8
  3
C7
350
21A9
  3
C8
350
21AA
  3
C9
350
21AB
  3
D0
350
21AC
  3
D1
350
21AD
  3
D2
350
21AE
  0
DICTIONARY
  5
225A
102
{ACAD_REACTORS
330
2153
102
}
330
2153
100
AcDbDictionary
281
     1
  0
DICTIONARY
  5
21AF
102
{ACAD_REACTORS
330
2153
102
}
330
2153
100
AcDbDictionary
281
     1
  3
Standard
350
21B0
  0
DICTIONARY
  5
2170
102
{ACAD_REACTORS
330
2153
102
}
330
2153
100
AcDbDictionary
281
     1
  3
2dWireframe
350
2175
  3
Basic
350
2178
  3
Brighten
350
217C
  3
ColorChange
350
2180
  3
Conceptual
350
217A
  3
Dim
350
217B
  3
EdgeColorOff
350
2183
  3
Facepattern
350
217F
  3
Flat
350
2171
  3
FlatWithEdges
350
2172
  3
Gouraud
350
2173
  3
GouraudWithEdges
350
2174
  3
Hidden
350
2177
  3
JitterOff
350
2181
  3
Linepattern
350
217E
  3
OverhangOff
350
2182
  3
Realistic
350
2179
  3
Shaded
350
2188
  3
Shaded with edges
350
2187
  3
Shades of Gray
350
2184
  3
Sketchy
350
2185
  3
Thicken
350
217D
  3
Wireframe
350
2176
  3
X-Ray
350
2186
  0
DICTIONARY
  5
2252
102
{ACAD_REACTORS
330
2153
102
}
330
2153
100
AcDbDictionary
281
     1
  3
CANNOSCALE
350
2253
  3
CMLEADERSTYLE
350
2258
  3
CTABLESTYLE
350
2257
  0
XRECORD
  5
2256
102
{ACAD_REACTORS
330
2153
102
}
330
2153
100
AcDbXrecord
280
     1
 90
        1
330
21B0
  0
DICTIONARY
  5
21B5
102
{ACAD_REACTORS
330
2153
102
}
330
2153
100
AcDbDictionary
281
     1
  3
Cam/GCodeMM/CamArcInterpolation
350
21B7
  3
Cam/GCodeMM/CamArcSegmentLength
350
21B8
  3
Cam/GCodeMM/CamEllipseSegments
350
21B9
  3
Cam/GCodeMM/CamHomeX
350
21BA
  3
Cam/GCodeMM/CamHomeY
350
21BB
  3
Cam/GCodeMM/CamProgramName
350
21BC
  3
Cam/GCodeMM/CamSplineTolerance
350
21BD
  3
Cam/GCodeMM/CamTolerance
350
21BE
  3
Cam/GCodeMM/CamZSafety
350
21BF
  3
Cam/GCodeOffsetMM/CamArcInterpolation
350
21C0
  3
Cam/GCodeOffsetMM/CamArcSegmentLength
350
21C1
  3
Cam/GCodeOffsetMM/CamEllipseSegments
350
21C2
  3
Cam/GCodeOffsetMM/CamHomeX
350
21C3
  3
Cam/GCodeOffsetMM/CamHomeY
350
21C4
  3
Cam/GCodeOffsetMM/CamProgramName
350
21C5
  3
Cam/GCodeOffsetMM/CamSplineTolerance
350
21C6
  3
Cam/GCodeOffsetMM/CamTolerance
350
21C7
  3
Cam/GCodeOffsetMM/CamZSafety
350
21C8
  3
CamExport/ConfigV2
350
21C9
  3
CamExport/GCodeMM/Output
350
21CA
  3
CamExport/GCodeOffsetMM/Output
350
21CB
  3
ColorSettings/BackgroundColor
350
21CC
  3
ColorSettings/ColorMode
350
21CD
  3
Grid/DisplayGrid00
350
21CE
  3
Grid/DisplayGrid01
350
21CF
  3
Grid/DisplayGrid02
350
21D0
  3
Grid/DisplayGrid03
350
21D1
  3
Grid/GridSpacingX00
350
21D2
  3
Grid/GridSpacingX01
350
21D3
  3
Grid/GridSpacingX02
350
21D4
  3
Grid/GridSpacingX03
350
21D5
  3
Grid/GridSpacingY00
350
21D6
  3
Grid/GridSpacingY01
350
21D7
  3
Grid/GridSpacingY02
350
21D8
  3
Grid/GridSpacingY03
350
21D9
  3
Grid/IsometricGrid00
350
21DA
  3
Grid/IsometricGrid01
350
21DB
  3
Grid/IsometricGrid02
350
21DC
  3
Grid/IsometricGrid03
350
21DD
  3
Grid/IsometricProjection00
350
21DE
  3
Grid/IsometricProjection01
350
21DF
  3
Grid/IsometricProjection02
350
21E0
  3
Grid/IsometricProjection03
350
21E1
  3
Grid/MetaGridSpacingX00
350
21E2
  3
Grid/MetaGridSpacingX01
350
21E3
  3
Grid/MetaGridSpacingX02
350
21E4
  3
Grid/MetaGridSpacingX03
350
21E5
  3
Grid/MetaGridSpacingY00
350
21E6
  3
Grid/MetaGridSpacingY01
350
21E7
  3
Grid/MetaGridSpacingY02
350
21E8
  3
Grid/MetaGridSpacingY03
350
21E9
  3
MultiPageSettings/Columns
350
21EA
  3
MultiPageSettings/GlueMarginsBottom
350
21EB
  3
MultiPageSettings/GlueMarginsLeft
350
21EC
  3
MultiPageSettings/GlueMarginsRight
350
21ED
  3
MultiPageSettings/GlueMarginsTop
350
21EE
  3
MultiPageSettings/PrintCropMarks
350
21EF
  3
MultiPageSettings/Rows
350
21F0
  3
PageSettings/OffsetX
350
21F1
  3
PageSettings/OffsetY
350
21F2
  3
PageSettings/PageOrientation
350
21F3
  3
PageSettings/PaperHeight
350
21F4
  3
PageSettings/PaperWidth
350
21F5
  3
PageSettings/Scale
350
21F6
  3
PageSettings/ShowPaperBorders
350
21F7
  3
QCADVersion
350
21F8
  3
UnitSettings/PaperUnit
350
21F9
  3
ViewportCenter
350
21FA
  3
ViewportHeight
350
21FB
  3
ViewportWidth
350
21FC
  0
LAYOUT
  5
2164
102
{ACAD_REACTORS
330
2160
102
}
330
2160
100
AcDbPlotSettings
  1

  2
none_device
  4
ISO_A4_(210.00_x_297.00_MM)
  6

 40
7.5
 41
20.0
 42
7.5
 43
20.0
 44
210.0
 45
297.0
 46
0.0
 47
0.0
 48
0.0
 49
0.0
140
0.0
141
0.0
142
1.0
143
1.0
 70
   688
 72
     1
 73
     1
 74
     5
  7

 75
    16
 76
     0
 77
     2
 78
   300
147
1.0
148
0.0
149
0.0
100
AcDbLayout
  1
Layout1
 70
     1
 71
     0
 10
-20.0
 20
-7.5
 11
277.0
 21
202.5
 12
0.0
 22
0.0
 32
0.0
 14
0.0
 24
0.0
 34
0.0
 15
0.0
 25
0.0
 35
0.0
146
0.0
 13
0.0
 23
0.0
 33
0.0
 16
1.0
 26
0.0
 36
0.0
 17
0.0
 27
1.0
 37
0.0
 76
     0
330
2161
331
2250
  0
LAYOUT
  5
2168
102
{ACAD_REACTORS
330
2160
102
}
330
2160
100
AcDbPlotSettings
  1

  2
none_device
  4
Letter_(8.50_x_11.00_Inches)
  6

 40
6.35
 41
6.35
 42
6.35000508
 43
6.35000508
 44
215.9
 45
279.4
 46
0.0
 47
0.0
 48
0.0
 49
0.0
140
0.0
141
0.0
142
1.0
143
1.0
 70
  1712
 72
     0
 73
     0
 74
     0
  7

 75
     0
 76
     0
 77
     2
 78
   300
147
1.0
148
0.0
149
0.0
100
AcDbLayout
  1
Model
 70
     1
 71
     0
 10
0.0
 20
0.0
 11
12.0
 21
9.0
 12
0.0
 22
0.0
 32
0.0
 14
1.000000000000000E+20
 24
1.000000000000000E+20
 34
1.000000000000000E+20
 15
-1.000000000000000E+20
 25
-1.000000000000000E+20
 35
-1.000000000000000E+20
146
0.0
 13
0.0
 23
0.0
 33
0.0
 16
1.0
 26
0.0
 36
0.0
 17
0.0
 27
1.0
 37
0.0
 76
     0
330
2165
331
216F
  0
MATERIAL
  5
218B
102
{ACAD_REACTORS
330
2189
102
}
330
2189
100
AcDbMaterial
  1
ByBlock
 72
     1
 94
      127
  0
MATERIAL
  5
218A
102
{ACAD_REACTORS
330
2189
102
}
330
2189
100
AcDbMaterial
  1
ByLayer
 72
     1
 94
      127
  0
MATERIAL
  5
218C
102
{ACAD_REACTORS
330
2189
102
}
330
2189
100
AcDbMaterial
  1
Global
 72
     1
 94
      127
  0
MLEADERSTYLE
  5
21B2
102
{ACAD_REACTORS
330
21B1
102
}
330
21B1
100
AcDbMLeaderStyle
179
     2
170
     2
171
     1
172
     0
 90
        2
 40
0.0
 41
0.0
173
     1
 91
-1056964608
340
215A
 92
       -2
290
     1
 42
0.09
291
     1
 43
0.36
  3
Standard
341
0
 44
0.18
300

342
2158
174
     1
178
     6
175
     1
176
     0
 93
-1056964608
 45
0.18
292
     0
297
     0
 46
0.18
343
0
 94
-1056964608
 47
1.0
 49
1.0
140
1.0
293
     1
141
0.0
294
     1
177
     0
142
1.0
295
     0
296
     0
143
0.125
271
     0
272
     9
273
     9
298
     0
  0
MLINESTYLE
  5
215E
102
{ACAD_REACTORS
330
215D
102
}
330
215D
100
AcDbMlineStyle
  2
Standard
 70
     0
  3

 62
   256
 51
90.0
 52
90.0
 71
     2
 49
0.5
 62
   256
  6
BYLAYER
 49
-0.5
 62
   256
  6
BYLAYER
  0
ACDBPLACEHOLDER
  5
2156
102
{ACAD_REACTORS
330
2155
102
}
330
2155
  0
SCALE
  5
218E
102
{ACAD_REACTORS
330
218D
102
}
330
218D
100
AcDbScale
 70
     0
300
1:1
140
1.0
141
1.0
290
     1
  0
SCALE
  5
218F
102
{ACAD_REACTORS
330
218D
102
}
330
218D
100
AcDbScale
 70
     0
300
1:2
140
1.0
141
2.0
290
     0
  0
SCALE
  5
2190
102
{ACAD_REACTORS
330
218D
102
}
330
218D
100
AcDbScale
 70
     0
300
1:4
140
1.0
141
4.0
290
     0
  0
SCALE
  5
2191
102
{ACAD_REACTORS
330
218D
102
}
330
218D
100
AcDbScale
 70
     0
300
1:5
140
1.0
141
5.0
290
     0
  0
SCALE
  5
2192
102
{ACAD_REACTORS
330
218D
102
}
330
218D
100
AcDbScale
 70
     0
300
1:8
140
1.0
141
8.0
290
     0
  0
SCALE
  5
2193
102
{ACAD_REACTORS
330
218D
102
}
330
218D
100
AcDbScale
 70
     0
300
1:10
140
1.0
141
10.0
290
     0
  0
SCALE
  5
2194
102
{ACAD_REACTORS
330
218D
102
}
330
218D
100
AcDbScale
 70
     0
300
1:16
140
1.0
141
16.0
290
     0
  0
SCALE
  5
2195
102
{ACAD_REACTORS
330
218D
102
}
330
218D
100
AcDbScale
 70
     0
300
1:20
140
1.0
141
20.0
290
     0
  0
SCALE
  5
2196
102
{ACAD_REACTORS
330
218D
102
}
330
218D
100
AcDbScale
 70
     0
300
1:30
140
1.0
141
30.0
290
     0
  0
SCALE
  5
2197
102
{ACAD_REACTORS
330
218D
102
}
330
218D
100
AcDbScale
 70
     0
300
1:40
140
1.0
141
40.0
290
     0
  0
SCALE
  5
2198
102
{ACAD_REACTORS
330
218D
102
}
330
218D
100
AcDbScale
 70
     0
300
1:50
140
1.0
141
50.0
290
     0
  0
SCALE
  5
2199
102
{ACAD_REACTORS
330
218D
102
}
330
218D
100
AcDbScale
 70
     0
300
1:100
140
1.0
141
100.0
290
     0
  0
SCALE
  5
219A
102
{ACAD_REACTORS
330
218D
102
}
330
218D
100
AcDbScale
 70
     0
300
2:1
140
2.0
141
1.0
290
     0
  0
SCALE
  5
219B
102
{ACAD_REACTORS
330
218D
102
}
330
218D
100
AcDbScale
 70
     0
300
4:1
140
4.0
141
1.0
290
     0
  0
SCALE
  5
219C
102
{ACAD_REACTORS
330
218D
102
}
330
218D
100
AcDbScale
 70
     0
300
8:1
140
8.0
141
1.0
290
     0
  0
SCALE
  5
219D
102
{ACAD_REACTORS
330
218D
102
}
330
218D
100
AcDbScale
 70
     0
300
10:1
140
10.0
141
1.0
290
     0
  0
SCALE
  5
219E
102
{ACAD_REACTORS
330
218D
102
}
330
218D
100
AcDbScale
 70
     0
300
100:1
140
100.0
141
1.0
290
     0
  0
SCALE
  5
219F
102
{ACAD_REACTORS
330
218D
102
}
330
218D
100
AcDbScale
 70
     0
300
1/128" = 1'-0"
140
0.0078125
141
12.0
290
     0
  0
SCALE
  5
21A0
102
{ACAD_REACTORS
330
218D
102
}
330
218D
100
AcDbScale
 70
     0
300
1/64" = 1'-0"
140
0.015625
141
12.0
290
     0
  0
SCALE
  5
21A1
102
{ACAD_REACTORS
330
218D
102
}
330
218D
100
AcDbScale
 70
     0
300
1/32" = 1'-0"
140
0.03125
141
12.0
290
     0
  0
SCALE
  5
21A2
102
{ACAD_REACTORS
330
218D
102
}
330
218D
100
AcDbScale
 70
     0
300
1/16" = 1'-0"
140
0.0625
141
12.0
290
     0
  0
SCALE
  5
21A3
102
{ACAD_REACTORS
330
218D
102
}
330
218D
100
AcDbScale
 70
     0
300
3/32" = 1'-0"
140
0.09375
141
12.0
290
     0
  0
SCALE
  5
21A4
102
{ACAD_REACTORS
330
218D
102
}
330
218D
100
AcDbScale
 70
     0
300
1/8" = 1'-0"
140
0.125
141
12.0
290
     0
  0
SCALE
  5
21A5
102
{ACAD_REACTORS
330
218D
102
}
330
218D
100
AcDbScale
 70
     0
300
3/16" = 1'-0"
140
0.1875
141
12.0
290
     0
  0
SCALE
  5
21A6
102
{ACAD_REACTORS
330
218D
102
}
330
218D
100
AcDbScale
 70
     0
300
1/4" = 1'-0"
140
0.25
141
12.0
290
     0
  0
SCALE
  5
21A7
102
{ACAD_REACTORS
330
218D
102
}
330
218D
100
AcDbScale
 70
     0
300
3/8" = 1'-0"
140
0.375
141
12.0
290
     0
  0
SCALE
  5
21A8
102
{ACAD_REACTORS
330
218D
102
}
330
218D
100
AcDbScale
 70
     0
300
1/2" = 1'-0"
140
0.5
141
12.0
290
     0
  0
SCALE
  5
21A9
102
{ACAD_REACTORS
330
218D
102
}
330
218D
100
AcDbScale
 70
     0
300
3/4" = 1'-0"
140
0.75
141
12.0
290
     0
  0
SCALE
  5
21AA
102
{ACAD_REACTORS
330
218D
102
}
330
218D
100
AcDbScale
 70
     0
300
1" = 1'-0"
140
1.0
141
12.0
290
     0
  0
SCALE
  5
21AB
102
{ACAD_REACTORS
330
218D
102
}
330
218D
100
AcDbScale
 70
     0
300
1-1/2" = 1'-0"
140
1.5
141
12.0
290
     0
  0
SCALE
  5
21AC
102
{ACAD_REACTORS
330
218D
102
}
330
218D
100
AcDbScale
 70
     0
300
3" = 1'-0"
140
3.0
141
12.0
290
     0
  0
SCALE
  5
21AD
102
{ACAD_REACTORS
330
218D
102
}
330
218D
100
AcDbScale
 70
     0
300
6" = 1'-0"
140
6.0
141
12.0
290
     0
  0
SCALE
  5
21AE
102
{ACAD_REACTORS
330
218D
102
}
330
218D
100
AcDbScale
 70
     0
300
1'-0" = 1'-0"
140
12.0
141
12.0
290
     0
  0
TABLESTYLE
  5
21B0
102
{ACAD_REACTORS
330
21AF
102
}
102
{ACAD_XDICTIONARY
360
2254
102
}
330
21AF
100
AcDbTableStyle
  3
Standard
 70
     0
 71
     0
 40
0.06
 41
0.06
280
     0
281
     0
  7
Standard
140
0.18
170
     2
 62
     0
 63
   257
283
     0
 90
        4
 91
        0
  1

274
    -2
284
     1
 64
     0
275
    -2
285
     1
 65
     0
276
    -2
286
     1
 66
     0
277
    -2
287
     1
 67
     0
278
    -2
288
     1
 68
     0
279
    -2
289
     1
 69
     0
  7
Standard
140
0.25
170
     5
 62
     0
 63
   257
283
     0
 90
        4
 91
        0
  1

274
    -2
284
     1
 64
     0
275
    -2
285
     1
 65
     0
276
    -2
286
     1
 66
     0
277
    -2
287
     1
 67
     0
278
    -2
288
     1
 68
     0
279
    -2
289
     1
 69
     0
  7
Standard
140
0.18
170
     5
 62
     0
 63
   257
283
     0
 90
        4
 91
        0
  1

274
    -2
284
     1
 64
     0
275
    -2
285
     1
 65
     0
276
    -2
286
     1
 66
     0
277
    -2
287
     1
 67
     0
278
    -2
288
     1
 68
     0
279
    -2
289
     1
 69
     0
  0
VISUALSTYLE
  5
2175
102
{ACAD_REACTORS
330
2170
102
}
330
2170
100
AcDbVisualStyle
  2
2dWireframe
 70
     4
177
     3
291
     0
 70
    58
 90
        0
176
     1
 90
        2
176
     1
 90
        0
176
     1
 90
        0
176
     1
 40
0.6
176
     1
 40
30.0
176
     1
 62
     7
420
 16777215
176
     1
 90
        1
176
     1
 90
        4
176
     1
 62
     7
176
     1
 62
   257
176
     1
 90
        1
176
     1
 90
        1
176
     1
 40
1.0
176
     1
 90
        0
176
     1
 62
   257
176
     1
 40
1.0
176
     1
 90
        1
176
     1
 90
        6
176
     1
 90
        2
176
     1
 62
     7
176
     1
 90
        5
176
     1
 90
        0
176
     1
 90
        0
176
     1
290
     0
176
     1
 90
        1
176
     1
 40
0.0
176
     1
 90
        0
176
     1
290
     1
176
     1
290
     1
176
     1
290
     0
176
     1
290
     0
176
     1
290
     0
176
     1
290
     0
176
     1
290
     0
176
     1
290
     0
176
     1
290
     0
176
     1
 90
       50
176
     1
 40
0.0
176
     1
 40
1.0
176
     1
 90
        0
176
     1
 62
   178
420
        0
176
     1
 90
       50
176
     1
 90
        3
176
     1
 62
     5
420
      255
176
     1
290
     0
176
     1
 90
       50
176
     1
 90
       50
176
     1
 90
       50
176
     1
290
     0
176
     1
 90
       50
176
     1
 62
   256
176
     0
 40
1.0
176
     0
 90
        2
176
     1
  1
strokes_ogs.tif
176
     1
290
     0
176
     1
 40
1.0
176
     1
 40
1.0
176
     1
  0
VISUALSTYLE
  5
2178
102
{ACAD_REACTORS
330
2170
102
}
330
2170
100
AcDbVisualStyle
  2
Basic
 70
     7
177
     3
291
     1
 70
    58
 90
        1
176
     1
 90
        0
176
     1
 90
        1
176
     1
 90
        0
176
     1
 40
0.6
176
     1
 40
30.0
176
     1
 62
     7
420
 16777215
176
     1
 90
        0
176
     1
 90
        4
176
     1
 62
     7
176
     1
 62
   257
176
     1
 90
        1
176
     1
 90
        1
176
     1
 40
1.0
176
     1
 90
        8
176
     1
 62
     7
176
     1
 40
1.0
176
     1
 90
        1
176
     1
 90
        6
176
     1
 90
        2
176
     1
 62
     7
176
     1
 90
        5
176
     1
 90
        0
176
     1
 90
        0
176
     1
290
     0
176
     1
 90
        1
176
     1
 40
0.0
176
     1
 90
        0
176
     1
290
     0
176
     1
290
     1
176
     1
290
     1
176
     1
290
     0
176
     1
290
     0
176
     1
290
     0
176
     1
290
     0
176
     1
290
     0
176
     1
290
     0
176
     1
 90
       50
176
     1
 40
0.0
176
     1
 40
1.0
176
     1
 90
        0
176
     1
 62
   178
420
        0
176
     1
 90
       50
176
     1
 90
        3
176
     1
 62
     5
420
      255
176
     1
290
     0
176
     1
 90
       50
176
     1
 90
       50
176
     1
 90
       50
176
     1
290
     0
176
     1
 90
       50
176
     1
 62
   256
176
     0
 40
1.0
176
     0
 90
        2
176
     1
  1
strokes_ogs.tif
176
     1
290
     0
176
     1
 40
1.0
176
     1
 40
1.0
176
     1
  0
VISUALSTYLE
  5
217C
102
{ACAD_REACTORS
330
2170
102
}
330
2170
100
AcDbVisualStyle
  2
Brighten
 70
    12
177
     3
291
     1
 70
    58
 90
        2
176
     1
 90
        2
176
     1
 90
        0
176
     1
 90
        0
176
     1
 40
0.6
176
     1
 40
30.0
176
     1
 62
     7
420
 16777215
176
     1
 90
        1
176
     1
 90
        4
176
     1
 62
     7
176
     1
 62
   257
176
     1
 90
        1
176
     1
 90
        1
176
     1
 40
1.0
176
     1
 90
        8
176
     1
 62
     7
176
     1
 40
1.0
176
     1
 90
        1
176
     1
 90
        6
176
     1
 90
        2
176
     1
 62
     7
176
     1
 90
        5
176
     1
 90
        0
176
     1
 90
        0
176
     1
290
     0
176
     1
 90
        1
176
     1
 40
50.0
176
     1
 90
        0
176
     1
290
     0
176
     1
290
     1
176
     1
290
     1
176
     1
290
     0
176
     1
290
     0
176
     1
290
     0
176
     1
290
     0
176
     1
290
     0
176
     1
290
     0
176
     1
 90
       50
176
     1
 40
0.0
176
     1
 40
1.0
176
     1
 90
        0
176
     1
 62
   178
420
        0
176
     1
 90
       50
176
     1
 90
        3
176
     1
 62
     5
420
      255
176
     1
290
     0
176
     1
 90
       50
176
     1
 90
       50
176
     1
 90
       50
176
     1
290
     0
176
     1
 90
       50
176
     1
 62
   256
176
     0
 40
1.0
176
     0
 90
        2
176
     1
  1
strokes_ogs.tif
176
     1
290
     0
176
     1
 40
1.0
176
     1
 40
1.0
176
     1
  0
VISUALSTYLE
  5
2180
102
{ACAD_REACTORS
330
2170
102
}
330
2170
100
AcDbVisualStyle
  2
ColorChange
 70
    16
177
     3
291
     1
 70
    58
 90
        2
176
     1
 90
        2
176
     1
 90
        3
176
     1
 90
        0
176
     1
 40
0.6
176
     1
 40
30.0
176
     1
 62
     8
420
  8421504
176
     1
 90
        1
176
     1
 90
        4
176
     1
 62
     7
176
     1
 62
   257
176
     1
 90
        1
176
     1
 90
        1
176
     1
 40
1.0
176
     1
 90
        8
176
     1
 62
     8
420
  8421504
176
     1
 40
1.0
176
     1
 90
        1
176
     1
 90
        6
176
     1
 90
        2
176
     1
 62
     7
176
     1
 90
        5
176
     1
 90
        0
176
     1
 90
        0
176
     1
290
     0
176
     1
 90
        1
176
     1
 40
0.0
176
     1
 90
        0
176
     1
290
     0
176
     1
290
     1
176
     1
290
     1
176
     1
290
     0
176
     1
290
     0
176
     1
290
     0
176
     1
290
     0
176
     1
290
     0
176
     1
290
     0
176
     1
 90
       50
176
     1
 40
0.0
176
     1
 40
1.0
176
     1
 90
        0
176
     1
 62
   178
420
        0
176
     1
 90
       50
176
     1
 90
        3
176
     1
 62
     5
420
      255
176
     1
290
     0
176
     1
 90
       50
176
     1
 90
       50
176
     1
 90
       50
176
     1
290
     0
176
     1
 90
       50
176
     1
 62
   256
176
     0
 40
1.0
176
     0
 90
        2
176
     1
  1
strokes_ogs.tif
176
     1
290
     0
176
     1
 40
1.0
176
     1
 40
1.0
176
     1
  0
VISUALSTYLE
  5
217A
102
{ACAD_REACTORS
330
2170
102
}
330
2170
100
AcDbVisualStyle
  2
Conceptual
 70
     9
177
     3
291
     0
 70
    58
 90
        3
176
     1
 90
        2
176
     1
 90
        0
176
     1
 90
        0
176
     1
 40
0.6
176
     1
 40
30.0
176
     1
 62
     7
420
 16777215
176
     1
 90
        2
176
     1
 90
        2
176
     1
 62
     7
176
     1
 62
   257
176
     1
 90
        1
176
     1
 90
        1
176
     1
 40
179.0
176
     1
 90
        8
176
     1
 62
     7
176
     1
 40
1.0
176
     1
 90
        1
176
     1
 90
        6
176
     1
 90
        2
176
     1
 62
     7
176
     1
 90
        3
176
     1
 90
        0
176
     1
 90
        0
176
     1
290
     0
176
     1
 90
        1
176
     1
 40
0.0
176
     1
 90
        0
176
     1
290
     0
176
     1
290
     1
176
     1
290
     1
176
     1
290
     0
176
     1
290
     0
176
     1
290
     0
176
     1
290
     0
176
     1
290
     0
176
     1
290
     0
176
     1
 90
       50
176
     1
 40
0.0
176
     1
 40
1.0
176
     1
 90
        0
176
     1
 62
   178
420
        0
176
     1
 90
       50
176
     1
 90
        3
176
     1
 62
     5
420
      255
176
     1
290
     0
176
     1
 90
       50
176
     1
 90
       50
176
     1
 90
       50
176
     1
290
     0
176
     1
 90
       50
176
     1
 62
   256
176
     0
 40
1.0
176
     0
 90
        2
176
     1
  1
strokes_ogs.tif
176
     1
290
     0
176
     1
 40
1.0
176
     1
 40
1.0
176
     1
  0
VISUALSTYLE
  5
217B
102
{ACAD_REACTORS
330
2170
102
}
330
2170
100
AcDbVisualStyle
  2
Dim
 70
    11
177
     3
291
     1
 70
    58
 90
        2
176
     1
 90
        2
176
     1
 90
        0
176
     1
 90
        0
176
     1
 40
0.6
176
     1
 40
30.0
176
     1
 62
     7
420
 16777215
176
     1
 90
        1
176
     1
 90
        4
176
     1
 62
     7
176
     1
 62
   257
176
     1
 90
        1
176
     1
 90
        1
176
     1
 40
1.0
176
     1
 90
        8
176
     1
 62
     7
176
     1
 40
1.0
176
     1
 90
        1
176
     1
 90
        6
176
     1
 90
        2
176
     1
 62
     7
176
     1
 90
        5
176
     1
 90
        0
176
     1
 90
        0
176
     1
290
     0
176
     1
 90
        1
176
     1
 40
-50.0
176
     1
 90
        0
176
     1
290
     0
176
     1
290
     1
176
     1
290
     1
176
     1
290
     0
176
     1
290
     0
176
     1
290
     0
176
     1
290
     0
176
     1
290
     0
176
     1
290
     0
176
     1
 90
       50
176
     1
 40
0.0
176
     1
 40
1.0
176
     1
 90
        0
176
     1
 62
   178
420
        0
176
     1
 90
       50
176
     1
 90
        3
176
     1
 62
     5
420
      255
176
     1
290
     0
176
     1
 90
       50
176
     1
 90
       50
176
     1
 90
       50
176
     1
290
     0
176
     1
 90
       50
176
     1
 62
   256
176
     0
 40
1.0
176
     0
 90
        2
176
     1
  1
strokes_ogs.tif
176
     1
290
     0
176
     1
 40
1.0
176
     1
 40
1.0
176
     1
  0
VISUALSTYLE
  5
2183
102
{ACAD_REACTORS
330
2170
102
}
330
2170
100
AcDbVisualStyle
  2
EdgeColorOff
 70
    22
177
     3
291
     1
 70
    58
 90
        2
176
     0
 90
        2
176
     0
 90
        0
176
     0
 90
        0
176
     0
 40
0.6
176
     0
 40
30.0
176
     0
 62
     7
420
 16777215
176
     0
 90
        1
176
     0
 90
        4
176
     0
 62
     7
176
     0
 62
   257
176
     0
 90
        1
176
     0
 90
        1
176
     0
 40
1.0
176
     0
 90
        8
176
     2
 62
     7
176
     0
 40
1.0
176
     0
 90
        1
176
     0
 90
        6
176
     0
 90
        2
176
     0
 62
     7
176
     0
 90
        5
176
     0
 90
        0
176
     0
 90
        0
176
     0
290
     0
176
     0
 90
        1
176
     0
 40
0.0
176
     0
 90
        0
176
     0
290
     0
176
     0
290
     1
176
     0
290
     1
176
     0
290
     0
176
     0
290
     0
176
     0
290
     0
176
     0
290
     0
176
     0
290
     0
176
     0
290
     0
176
     0
 90
       50
176
     0
 40
0.0
176
     0
 40
1.0
176
     0
 90
        0
176
     0
 62
   178
420
        0
176
     0
 90
       50
176
     0
 90
        3
176
     0
 62
     5
420
      255
176
     0
290
     0
176
     0
 90
       50
176
     0
 90
       50
176
     0
 90
       50
176
     0
290
     0
176
     0
 90
       50
176
     0
 62
   256
176
     0
 40
1.0
176
     0
 90
        2
176
     0
  1
strokes_ogs.tif
176
     0
290
     0
176
     0
 40
1.0
176
     0
 40
1.0
176
     0
  0
VISUALSTYLE
  5
217F
102
{ACAD_REACTORS
330
2170
102
}
330
2170
100
AcDbVisualStyle
  2
Facepattern
 70
    15
177
     3
291
     1
 70
    58
 90
        2
176
     1
 90
        2
176
     1
 90
        0
176
     1
 90
        0
176
     1
 40
0.6
176
     1
 40
30.0
176
     1
 62
     7
420
 16777215
176
     1
 90
        1
176
     1
 90
        4
176
     1
 62
     7
176
     1
 62
   257
176
     1
 90
        1
176
     1
 90
        1
176
     1
 40
1.0
176
     1
 90
        8
176
     1
 62
     7
176
     1
 40
1.0
176
     1
 90
        1
176
     1
 90
        6
176
     1
 90
        2
176
     1
 62
     7
176
     1
 90
        5
176
     1
 90
        0
176
     1
 90
        0
176
     1
290
     0
176
     1
 90
        1
176
     1
 40
0.0
176
     1
 90
        0
176
     1
290
     0
176
     1
290
     1
176
     1
290
     1
176
     1
290
     0
176
     1
290
     0
176
     1
290
     0
176
     1
290
     0
176
     1
290
     0
176
     1
290
     0
176
     1
 90
       50
176
     1
 40
0.0
176
     1
 40
1.0
176
     1
 90
        0
176
     1
 62
   178
420
        0
176
     1
 90
       50
176
     1
 90
        3
176
     1
 62
     5
420
      255
176
     1
290
     0
176
     1
 90
       50
176
     1
 90
       50
176
     1
 90
       50
176
     1
290
     0
176
     1
 90
       50
176
     1
 62
   256
176
     0
 40
1.0
176
     0
 90
        2
176
     1
  1
strokes_ogs.tif
176
     1
290
     0
176
     1
 40
1.0
176
     1
 40
1.0
176
     1
  0
VISUALSTYLE
  5
2171
102
{ACAD_REACTORS
330
2170
102
}
330
2170
100
AcDbVisualStyle
  2
Flat
 70
     0
177
     3
291
     1
 70
    58
 90
        2
176
     1
 90
        1
176
     1
 90
        1
176
     1
 90
        2
176
     1
 40
0.6
176
     1
 40
30.0
176
     1
 62
     7
420
 16777215
176
     1
 90
        0
176
     1
 90
        0
176
     1
 62
     7
176
     1
 62
   257
176
     1
 90
        1
176
     1
 90
        1
176
     1
 40
1.0
176
     1
 90
        8
176
     1
 62
     7
176
     1
 40
1.0
176
     1
 90
        1
176
     1
 90
        6
176
     1
 90
        2
176
     1
 62
     7
176
     1
 90
        5
176
     1
 90
        0
176
     1
 90
        0
176
     1
290
     0
176
     1
 90
       13
176
     1
 40
0.0
176
     1
 90
        0
176
     1
290
     0
176
     1
290
     1
176
     1
290
     1
176
     1
290
     0
176
     1
290
     0
176
     1
290
     0
176
     1
290
     0
176
     1
290
     0
176
     1
290
     0
176
     1
 90
       50
176
     1
 40
0.0
176
     1
 40
1.0
176
     1
 90
        0
176
     1
 62
   178
420
        0
176
     1
 90
       50
176
     1
 90
        3
176
     1
 62
     5
420
      255
176
     1
290
     0
176
     1
 90
       50
176
     1
 90
       50
176
     1
 90
       50
176
     1
290
     0
176
     1
 90
       50
176
     1
 62
   256
176
     0
 40
1.0
176
     0
 90
        2
176
     1
  1
strokes_ogs.tif
176
     1
290
     0
176
     1
 40
1.0
176
     1
 40
1.0
176
     1
  0
VISUALSTYLE
  5
2172
102
{ACAD_REACTORS
330
2170
102
}
330
2170
100
AcDbVisualStyle
  2
FlatWithEdges
 70
     1
177
     3
291
     1
 70
    58
 90
        2
176
     1
 90
        1
176
     1
 90
        1
176
     1
 90
        2
176
     1
 40
0.6
176
     1
 40
30.0
176
     1
 62
     7
420
 16777215
176
     1
 90
        1
176
     1
 90
        0
176
     1
 62
     7
176
     1
 62
   257
176
     1
 90
        1
176
     1
 90
        1
176
     1
 40
1.0
176
     1
 90
        0
176
     1
 62
   257
176
     1
 40
1.0
176
     1
 90
        1
176
     1
 90
        6
176
     1
 90
        2
176
     1
 62
     7
176
     1
 90
        5
176
     1
 90
        0
176
     1
 90
        0
176
     1
290
     0
176
     1
 90
       13
176
     1
 40
0.0
176
     1
 90
        0
176
     1
290
     0
176
     1
290
     1
176
     1
290
     1
176
     1
290
     0
176
     1
290
     0
176
     1
290
     0
176
     1
290
     0
176
     1
290
     0
176
     1
290
     0
176
     1
 90
       50
176
     1
 40
0.0
176
     1
 40
1.0
176
     1
 90
        0
176
     1
 62
   178
420
        0
176
     1
 90
       50
176
     1
 90
        3
176
     1
 62
     5
420
      255
176
     1
290
     0
176
     1
 90
       50
176
     1
 90
       50
176
     1
 90
       50
176
     1
290
     0
176
     1
 90
       50
176
     1
 62
   256
176
     0
 40
1.0
176
     0
 90
        2
176
     1
  1
strokes_ogs.tif
176
     1
290
     0
176
     1
 40
1.0
176
     1
 40
1.0
176
     1
  0
VISUALSTYLE
  5
2173
102
{ACAD_REACTORS
330
2170
102
}
330
2170
100
AcDbVisualStyle
  2
Gouraud
 70
     2
177
     3
291
     1
 70
    58
 90
        2
176
     1
 90
        2
176
     1
 90
        1
176
     1
 90
        2
176
     1
 40
0.6
176
     1
 40
30.0
176
     1
 62
     7
420
 16777215
176
     1
 90
        0
176
     1
 90
        0
176
     1
 62
     7
176
     1
 62
   257
176
     1
 90
        1
176
     1
 90
        1
176
     1
 40
1.0
176
     1
 90
        0
176
     1
 62
     7
176
     1
 40
1.0
176
     1
 90
        1
176
     1
 90
        6
176
     1
 90
        2
176
     1
 62
     7
176
     1
 90
        5
176
     1
 90
        0
176
     1
 90
        0
176
     1
290
     0
176
     1
 90
       13
176
     1
 40
0.0
176
     1
 90
        0
176
     1
290
     0
176
     1
290
     1
176
     1
290
     1
176
     1
290
     0
176
     1
290
     0
176
     1
290
     0
176
     1
290
     0
176
     1
290
     0
176
     1
290
     0
176
     1
 90
       50
176
     1
 40
0.0
176
     1
 40
1.0
176
     1
 90
        0
176
     1
 62
   178
420
        0
176
     1
 90
       50
176
     1
 90
        3
176
     1
 62
     5
420
      255
176
     1
290
     0
176
     1
 90
       50
176
     1
 90
       50
176
     1
 90
       50
176
     1
290
     0
176
     1
 90
       50
176
     1
 62
   256
176
     0
 40
1.0
176
     0
 90
        2
176
     1
  1
strokes_ogs.tif
176
     1
290
     0
176
     1
 40
1.0
176
     1
 40
1.0
176
     1
  0
VISUALSTYLE
  5
2174
102
{ACAD_REACTORS
330
2170
102
}
330
2170
100
AcDbVisualStyle
  2
GouraudWithEdges
 70
     3
177
     3
291
     1
 70
    58
 90
        2
176
     1
 90
        2
176
     1
 90
        1
176
     1
 90
        2
176
     1
 40
0.6
176
     1
 40
30.0
176
     1
 62
     7
420
 16777215
176
     1
 90
        1
176
     1
 90
        0
176
     1
 62
     7
176
     1
 62
   257
176
     1
 90
        1
176
     1
 90
        1
176
     1
 40
1.0
176
     1
 90
        0
176
     1
 62
   257
176
     1
 40
1.0
176
     1
 90
        1
176
     1
 90
        6
176
     1
 90
        2
176
     1
 62
     7
176
     1
 90
        5
176
     1
 90
        0
176
     1
 90
        0
176
     1
290
     0
176
     1
 90
       13
176
     1
 40
0.0
176
     1
 90
        0
176
     1
290
     0
176
     1
290
     1
176
     1
290
     1
176
     1
290
     0
176
     1
290
     0
176
     1
290
     0
176
     1
290
     0
176
     1
290
     0
176
     1
290
     0
176
     1
 90
       50
176
     1
 40
0.0
176
     1
 40
1.0
176
     1
 90
        0
176
     1
 62
   178
420
        0
176
     1
 90
       50
176
     1
 90
        3
176
     1
 62
     5
420
      255
176
     1
290
     0
176
     1
 90
       50
176
     1
 90
       50
176
     1
 90
       50
176
     1
290
     0
176
     1
 90
       50
176
     1
 62
   256
176
     0
 40
1.0
176
     0
 90
        2
176
     1
  1
strokes_ogs.tif
176
     1
290
     0
176
     1
 40
1.0
176
     1
 40
1.0
176
     1
  0
VISUALSTYLE
  5
2177
102
{ACAD_REACTORS
330
2170
102
}
330
2170
100
AcDbVisualStyle
  2
Hidden
 70
     6
177
     3
291
     0
 70
    58
 90
        1
176
     1
 90
        2
176
     1
 90
        2
176
     1
 90
        0
176
     1
 40
0.6
176
     1
 40
30.0
176
     1
 62
     7
420
 16777215
176
     1
 90
        2
176
     1
 90
        2
176
     1
 62
     7
176
     1
 62
   257
176
     1
 90
        2
176
     1
 90
        1
176
     1
 40
40.0
176
     1
 90
        0
176
     1
 62
   257
176
     1
 40
1.0
176
     1
 90
        1
176
     1
 90
        6
176
     1
 90
        2
176
     1
 62
     7
176
     1
 90
        3
176
     1
 90
        0
176
     1
 90
        0
176
     1
290
     0
176
     1
 90
        1
176
     1
 40
0.0
176
     1
 90
        0
176
     1
290
     0
176
     1
290
     1
176
     1
290
     1
176
     1
290
     0
176
     1
290
     0
176
     1
290
     0
176
     1
290
     0
176
     1
290
     0
176
     1
290
     0
176
     1
 90
       50
176
     1
 40
0.0
176
     1
 40
1.0
176
     1
 90
        0
176
     1
 62
   178
420
        0
176
     1
 90
       50
176
     1
 90
        3
176
     1
 62
     5
420
      255
176
     1
290
     0
176
     1
 90
       50
176
     1
 90
       50
176
     1
 90
       50
176
     1
290
     0
176
     1
 90
       50
176
     1
 62
   256
176
     0
 40
1.0
176
     0
 90
        2
176
     1
  1
strokes_ogs.tif
176
     1
290
     0
176
     1
 40
1.0
176
     1
 40
1.0
176
     1
  0
VISUALSTYLE
  5
2181
102
{ACAD_REACTORS
330
2170
102
}
330
2170
100
AcDbVisualStyle
  2
JitterOff
 70
    20
177
     3
291
     1
 70
    58
 90
        2
176
     0
 90
        2
176
     0
 90
        0
176
     0
 90
        0
176
     0
 40
0.6
176
     0
 40
30.0
176
     0
 62
     7
420
 16777215
176
     0
 90
        1
176
     0
 90
        4
176
     0
 62
     7
176
     0
 62
   257
176
     0
 90
        1
176
     0
 90
        1
176
     0
 40
1.0
176
     0
 90
       10
176
     2
 62
     7
176
     0
 40
1.0
176
     0
 90
        1
176
     0
 90
        6
176
     0
 90
        2
176
     0
 62
     7
176
     0
 90
        5
176
     0
 90
        0
176
     0
 90
        0
176
     0
290
     0
176
     0
 90
        1
176
     0
 40
0.0
176
     0
 90
        0
176
     0
290
     0
176
     0
290
     1
176
     0
290
     1
176
     0
290
     0
176
     0
290
     0
176
     0
290
     0
176
     0
290
     0
176
     0
290
     0
176
     0
290
     0
176
     0
 90
       50
176
     0
 40
0.0
176
     0
 40
1.0
176
     0
 90
        0
176
     0
 62
   178
420
        0
176
     0
 90
       50
176
     0
 90
        3
176
     0
 62
     5
420
      255
176
     0
290
     0
176
     0
 90
       50
176
     0
 90
       50
176
     0
 90
       50
176
     0
290
     0
176
     0
 90
       50
176
     0
 62
   256
176
     0
 40
1.0
176
     0
 90
        2
176
     0
  1
strokes_ogs.tif
176
     0
290
     0
176
     0
 40
1.0
176
     0
 40
1.0
176
     0
  0
VISUALSTYLE
  5
217E
102
{ACAD_REACTORS
330
2170
102
}
330
2170
100
AcDbVisualStyle
  2
Linepattern
 70
    14
177
     3
291
     1
 70
    58
 90
        2
176
     1
 90
        2
176
     1
 90
        0
176
     1
 90
        0
176
     1
 40
0.6
176
     1
 40
30.0
176
     1
 62
     7
420
 16777215
176
     1
 90
        1
176
     1
 90
        4
176
     1
 62
     7
176
     1
 62
   257
176
     1
 90
        7
176
     1
 90
        7
176
     1
 40
1.0
176
     1
 90
        8
176
     1
 62
     7
176
     1
 40
1.0
176
     1
 90
        1
176
     1
 90
        6
176
     1
 90
        2
176
     1
 62
     7
176
     1
 90
        5
176
     1
 90
        0
176
     1
 90
        0
176
     1
290
     0
176
     1
 90
        1
176
     1
 40
0.0
176
     1
 90
        0
176
     1
290
     0
176
     1
290
     1
176
     1
290
     1
176
     1
290
     0
176
     1
290
     0
176
     1
290
     0
176
     1
290
     0
176
     1
290
     0
176
     1
290
     0
176
     1
 90
       50
176
     1
 40
0.0
176
     1
 40
1.0
176
     1
 90
        0
176
     1
 62
   178
420
        0
176
     1
 90
       50
176
     1
 90
        3
176
     1
 62
     5
420
      255
176
     1
290
     0
176
     1
 90
       50
176
     1
 90
       50
176
     1
 90
       50
176
     1
290
     0
176
     1
 90
       50
176
     1
 62
   256
176
     0
 40
1.0
176
     0
 90
        2
176
     1
  1
strokes_ogs.tif
176
     1
290
     0
176
     1
 40
1.0
176
     1
 40
1.0
176
     1
  0
VISUALSTYLE
  5
2182
102
{ACAD_REACTORS
330
2170
102
}
330
2170
100
AcDbVisualStyle
  2
OverhangOff
 70
    21
177
     3
291
     1
 70
    58
 90
        2
176
     0
 90
        2
176
     0
 90
        0
176
     0
 90
        0
176
     0
 40
0.6
176
     0
 40
30.0
176
     0
 62
     7
420
 16777215
176
     0
 90
        1
176
     0
 90
        4
176
     0
 62
     7
176
     0
 62
   257
176
     0
 90
        1
176
     0
 90
        1
176
     0
 40
1.0
176
     0
 90
        9
176
     2
 62
     7
176
     0
 40
1.0
176
     0
 90
        1
176
     0
 90
        6
176
     0
 90
        2
176
     0
 62
     7
176
     0
 90
        5
176
     0
 90
        0
176
     0
 90
        0
176
     0
290
     0
176
     0
 90
        1
176
     0
 40
0.0
176
     0
 90
        0
176
     0
290
     0
176
     0
290
     1
176
     0
290
     1
176
     0
290
     0
176
     0
290
     0
176
     0
290
     0
176
     0
290
     0
176
     0
290
     0
176
     0
290
     0
176
     0
 90
       50
176
     0
 40
0.0
176
     0
 40
1.0
176
     0
 90
        0
176
     0
 62
   178
420
        0
176
     0
 90
       50
176
     0
 90
        3
176
     0
 62
     5
420
      255
176
     0
290
     0
176
     0
 90
       50
176
     0
 90
       50
176
     0
 90
       50
176
     0
290
     0
176
     0
 90
       50
176
     0
 62
   256
176
     0
 40
1.0
176
     0
 90
        2
176
     0
  1
strokes_ogs.tif
176
     0
290
     0
176
     0
 40
1.0
176
     0
 40
1.0
176
     0
  0
VISUALSTYLE
  5
2179
102
{ACAD_REACTORS
330
2170
102
}
330
2170
100
AcDbVisualStyle
  2
Realistic
 70
     8
177
     3
291
     0
 70
    58
 90
        2
176
     1
 90
        3
176
     1
 90
        0
176
     1
 90
        2
176
     1
 40
0.6
176
     1
 40
30.0
176
     1
 62
     7
420
 16777215
176
     1
 90
        0
176
     1
 90
        0
176
     1
 62
     7
176
     1
 62
   257
176
     1
 90
        1
176
     1
 90
        1
176
     1
 40
1.0
176
     1
 90
        8
176
     1
 62
   257
176
     1
 40
1.0
176
     1
 90
        1
176
     1
 90
        6
176
     1
 90
        2
176
     1
 62
     7
176
     1
 90
        3
176
     1
 90
        0
176
     1
 90
        0
176
     1
290
     0
176
     1
 90
       13
176
     1
 40
0.0
176
     1
 90
        0
176
     1
290
     0
176
     1
290
     1
176
     1
290
     1
176
     1
290
     0
176
     1
290
     0
176
     1
290
     0
176
     1
290
     0
176
     1
290
     0
176
     1
290
     0
176
     1
 90
       50
176
     1
 40
0.0
176
     1
 40
1.0
176
     1
 90
        0
176
     1
 62
   178
420
        0
176
     1
 90
       50
176
     1
 90
        3
176
     1
 62
     5
420
      255
176
     1
290
     0
176
     1
 90
       50
176
     1
 90
       50
176
     1
 90
       50
176
     1
290
     0
176
     1
 90
       50
176
     1
 62
   256
176
     0
 40
1.0
176
     0
 90
        2
176
     1
  1
strokes_ogs.tif
176
     1
290
     0
176
     1
 40
1.0
176
     1
 40
1.0
176
     1
  0
VISUALSTYLE
  5
2188
102
{ACAD_REACTORS
330
2170
102
}
330
2170
100
AcDbVisualStyle
  2
Shaded
 70
    27
177
     3
291
     0
 70
    58
 90
        2
176
     1
 90
        2
176
     1
 90
        1
176
     1
 90
        2
176
     1
 40
0.6
176
     1
 40
30.0
176
     1
 62
     7
420
 16777215
176
     1
 90
        0
176
     1
 90
        4
176
     1
 62
     7
176
     1
 62
   257
176
     1
 90
        1
176
     1
 90
        1
176
     1
 40
1.0
176
     1
 90
        8
176
     1
 62
   257
176
     1
 40
1.0
176
     1
 90
        1
176
     1
 90
        6
176
     1
 90
        2
176
     1
 62
     8
420
  7895160
176
     1
 90
        3
176
     1
 90
        0
176
     1
 90
        0
176
     1
290
     0
176
     1
 90
        5
176
     1
 40
0.0
176
     1
 90
        0
176
     1
290
     0
176
     1
290
     1
176
     1
290
     1
176
     1
290
     0
176
     1
290
     0
176
     1
290
     0
176
     1
290
     0
176
     1
290
     0
176
     1
290
     0
176
     1
 90
       50
176
     1
 40
0.0
176
     1
 40
1.0
176
     1
 90
        0
176
     1
 62
   178
420
        0
176
     1
 90
       50
176
     1
 90
        3
176
     1
 62
     5
420
      255
176
     1
290
     0
176
     1
 90
       50
176
     1
 90
       50
176
     1
 90
       50
176
     1
290
     0
176
     1
 90
       50
176
     1
 62
   256
176
     0
 40
1.0
176
     0
 90
        2
176
     1
  1
strokes_ogs.tif
176
     1
290
     0
176
     1
 40
1.0
176
     1
 40
1.0
176
     1
  0
VISUALSTYLE
  5
2187
102
{ACAD_REACTORS
330
2170
102
}
330
2170
100
AcDbVisualStyle
  2
Shaded with edges
 70
    26
177
     3
291
     0
 70
    58
 90
        2
176
     1
 90
        2
176
     1
 90
        1
176
     1
 90
        2
176
     1
 40
0.6
176
     1
 40
30.0
176
     1
 62
     7
420
 16777215
176
     1
 90
        1
176
     1
 90
       10
176
     1
 62
     7
176
     1
 62
   257
176
     1
 90
        2
176
     1
 90
        1
176
     1
 40
1.0
176
     1
 90
        8
176
     1
 62
   257
176
     1
 40
1.0
176
     1
 90
        1
176
     1
 90
        6
176
     1
 90
        2
176
     1
 62
     7
176
     1
 90
        3
176
     1
 90
        0
176
     1
 90
        0
176
     1
290
     0
176
     1
 90
        5
176
     1
 40
0.0
176
     1
 90
        0
176
     1
290
     0
176
     1
290
     1
176
     1
290
     1
176
     1
290
     0
176
     1
290
     0
176
     1
290
     0
176
     1
290
     0
176
     1
290
     0
176
     1
290
     0
176
     1
 90
       50
176
     1
 40
0.0
176
     1
 40
1.0
176
     1
 90
        0
176
     1
 62
   178
420
        0
176
     1
 90
       50
176
     1
 90
        3
176
     1
 62
     5
420
      255
176
     1
290
     0
176
     1
 90
       50
176
     1
 90
       50
176
     1
 90
       50
176
     1
290
     0
176
     1
 90
       50
176
     1
 62
   256
176
     0
 40
1.0
176
     0
 90
        2
176
     1
  1
strokes_ogs.tif
176
     1
290
     0
176
     1
 40
1.0
176
     1
 40
1.0
176
     1
  0
VISUALSTYLE
  5
2184
102
{ACAD_REACTORS
330
2170
102
}
330
2170
100
AcDbVisualStyle
  2
Shades of Gray
 70
    23
177
     3
291
     0
 70
    58
 90
        2
176
     1
 90
        2
176
     1
 90
        3
176
     1
 90
        0
176
     1
 40
0.6
176
     1
 40
30.0
176
     1
 62
     7
420
 16777215
176
     1
 90
        2
176
     1
 90
        2
176
     1
 62
     7
176
     1
 62
     7
176
     1
 90
        1
176
     1
 90
        1
176
     1
 40
40.0
176
     1
 90
        8
176
     1
 62
     7
176
     1
 40
1.0
176
     1
 90
        1
176
     1
 90
        6
176
     1
 90
        2
176
     1
 62
     7
176
     1
 90
        3
176
     1
 90
        0
176
     1
 90
        0
176
     1
290
     0
176
     1
 90
        1
176
     1
 40
0.0
176
     1
 90
        0
176
     1
290
     0
176
     1
290
     1
176
     1
290
     1
176
     1
290
     0
176
     1
290
     0
176
     1
290
     0
176
     1
290
     0
176
     1
290
     0
176
     1
290
     0
176
     1
 90
       50
176
     1
 40
0.0
176
     1
 40
1.0
176
     1
 90
        0
176
     1
 62
   178
420
        0
176
     1
 90
       50
176
     1
 90
        3
176
     1
 62
     5
420
      255
176
     1
290
     0
176
     1
 90
       50
176
     1
 90
       50
176
     1
 90
       50
176
     1
290
     0
176
     1
 90
       50
176
     1
 62
   256
176
     0
 40
1.0
176
     0
 90
        2
176
     1
  1
strokes_ogs.tif
176
     1
290
     0
176
     1
 40
1.0
176
     1
 40
1.0
176
     1
  0
VISUALSTYLE
  5
2185
102
{ACAD_REACTORS
330
2170
102
}
330
2170
100
AcDbVisualStyle
  2
Sketchy
 70
    24
177
     3
291
     0
 70
    58
 90
        1
176
     1
 90
        2
176
     1
 90
        2
176
     1
 90
        0
176
     1
 40
0.6
176
     1
 40
30.0
176
     1
 62
     7
420
 16777215
176
     1
 90
        2
176
     1
 90
        2
176
     1
 62
     7
176
     1
 62
     7
176
     1
 90
        1
176
     1
 90
        1
176
     1
 40
40.0
176
     1
 90
       11
176
     1
 62
     7
176
     1
 40
1.0
176
     1
 90
        1
176
     1
 90
        6
176
     1
 90
        2
176
     1
 62
     7
176
     1
 90
        6
176
     1
 90
        0
176
     1
 90
        0
176
     1
290
     0
176
     1
 90
        1
176
     1
 40
0.0
176
     1
 90
        0
176
     1
290
     0
176
     1
290
     1
176
     1
290
     1
176
     1
290
     0
176
     1
290
     0
176
     1
290
     0
176
     1
290
     0
176
     1
290
     0
176
     1
290
     0
176
     1
 90
       50
176
     1
 40
0.0
176
     1
 40
1.0
176
     1
 90
        0
176
     1
 62
   178
420
        0
176
     1
 90
       50
176
     1
 90
        3
176
     1
 62
     5
420
      255
176
     1
290
     0
176
     1
 90
       50
176
     1
 90
       50
176
     1
 90
       50
176
     1
290
     0
176
     1
 90
       50
176
     1
 62
   256
176
     0
 40
1.0
176
     0
 90
        2
176
     1
  1
strokes_ogs.tif
176
     1
290
     0
176
     1
 40
1.0
176
     1
 40
1.0
176
     1
  0
VISUALSTYLE
  5
217D
102
{ACAD_REACTORS
330
2170
102
}
330
2170
100
AcDbVisualStyle
  2
Thicken
 70
    13
177
     3
291
     1
 70
    58
 90
        2
176
     1
 90
        2
176
     1
 90
        0
176
     1
 90
        0
176
     1
 40
0.6
176
     1
 40
30.0
176
     1
 62
     7
420
 16777215
176
     1
 90
        1
176
     1
 90
        4
176
     1
 62
     7
176
     1
 62
   257
176
     1
 90
        1
176
     1
 90
        1
176
     1
 40
1.0
176
     1
 90
       12
176
     1
 62
     7
176
     1
 40
1.0
176
     1
 90
        1
176
     1
 90
        6
176
     1
 90
        2
176
     1
 62
     7
176
     1
 90
        5
176
     1
 90
        0
176
     1
 90
        0
176
     1
290
     0
176
     1
 90
        1
176
     1
 40
0.0
176
     1
 90
        0
176
     1
290
     0
176
     1
290
     1
176
     1
290
     1
176
     1
290
     0
176
     1
290
     0
176
     1
290
     0
176
     1
290
     0
176
     1
290
     0
176
     1
290
     0
176
     1
 90
       50
176
     1
 40
0.0
176
     1
 40
1.0
176
     1
 90
        0
176
     1
 62
   178
420
        0
176
     1
 90
       50
176
     1
 90
        3
176
     1
 62
     5
420
      255
176
     1
290
     0
176
     1
 90
       50
176
     1
 90
       50
176
     1
 90
       50
176
     1
290
     0
176
     1
 90
       50
176
     1
 62
   256
176
     0
 40
1.0
176
     0
 90
        2
176
     1
  1
strokes_ogs.tif
176
     1
290
     0
176
     1
 40
1.0
176
     1
 40
1.0
176
     1
  0
VISUALSTYLE
  5
2176
102
{ACAD_REACTORS
330
2170
102
}
330
2170
100
AcDbVisualStyle
  2
Wireframe
 70
     5
177
     3
291
     0
 70
    58
 90
        0
176
     1
 90
        2
176
     1
 90
        0
176
     1
 90
        0
176
     1
 40
0.6
176
     1
 40
30.0
176
     1
 62
     7
420
 16777215
176
     1
 90
        1
176
     1
 90
        4
176
     1
 62
     7
176
     1
 62
   257
176
     1
 90
        1
176
     1
 90
        1
176
     1
 40
1.0
176
     1
 90
        0
176
     1
 62
   257
176
     1
 40
1.0
176
     1
 90
        1
176
     1
 90
        6
176
     1
 90
        2
176
     1
 62
     7
176
     1
 90
        3
176
     1
 90
        0
176
     1
 90
        0
176
     1
290
     0
176
     1
 90
        1
176
     1
 40
0.0
176
     1
 90
        0
176
     1
290
     0
176
     1
290
     1
176
     1
290
     1
176
     1
290
     0
176
     1
290
     0
176
     1
290
     0
176
     1
290
     0
176
     1
290
     0
176
     1
290
     0
176
     1
 90
       50
176
     1
 40
0.0
176
     1
 40
1.0
176
     1
 90
        0
176
     1
 62
   178
420
        0
176
     1
 90
       50
176
     1
 90
        3
176
     1
 62
     5
420
      255
176
     1
290
     0
176
     1
 90
       50
176
     1
 90
       50
176
     1
 90
       50
176
     1
290
     0
176
     1
 90
       50
176
     1
 62
   256
176
     0
 40
1.0
176
     0
 90
        2
176
     1
  1
strokes_ogs.tif
176
     1
290
     0
176
     1
 40
1.0
176
     1
 40
1.0
176
     1
  0
VISUALSTYLE
  5
2186
102
{ACAD_REACTORS
330
2170
102
}
330
2170
100
AcDbVisualStyle
  2
X-Ray
 70
    25
177
     3
291
     0
 70
    58
 90
        2
176
     1
 90
        2
176
     1
 90
        1
176
     1
 90
        1
176
     1
 40
0.5
176
     1
 40
30.0
176
     1
 62
     7
420
 16777215
176
     1
 90
        1
176
     1
 90
        0
176
     1
 62
     7
176
     1
 62
   257
176
     1
 90
        1
176
     1
 90
        1
176
     1
 40
1.0
176
     1
 90
        8
176
     1
 62
     7
176
     1
 40
1.0
176
     1
 90
        1
176
     1
 90
        6
176
     1
 90
        2
176
     1
 62
     7
176
     1
 90
        3
176
     1
 90
        0
176
     1
 90
        0
176
     1
290
     0
176
     1
 90
       13
176
     1
 40
0.0
176
     1
 90
        0
176
     1
290
     0
176
     1
290
     1
176
     1
290
     1
176
     1
290
     0
176
     1
290
     0
176
     1
290
     0
176
     1
290
     0
176
     1
290
     0
176
     1
290
     0
176
     1
 90
       50
176
     1
 40
0.0
176
     1
 40
1.0
176
     1
 90
        0
176
     1
 62
   178
420
        0
176
     1
 90
       50
176
     1
 90
        3
176
     1
 62
     5
420
      255
176
     1
290
     0
176
     1
 90
       50
176
     1
 90
       50
176
     1
 90
       50
176
     1
290
     0
176
     1
 90
       50
176
     1
 62
   256
176
     0
 40
1.0
176
     0
 90
        2
176
     1
  1
strokes_ogs.tif
176
     1
290
     0
176
     1
 40
1.0
176
     1
 40
1.0
176
     1
  0
DICTIONARYVAR
  5
2253
102
{ACAD_REACTORS
330
2252
102
}
330
2252
100
DictionaryVariables
280
     0
  1
1:1
  0
DICTIONARYVAR
  5
2258
102
{ACAD_REACTORS
330
2252
102
}
330
2252
100
DictionaryVariables
280
     0
  1
Standard
  0
DICTIONARYVAR
  5
2257
102
{ACAD_REACTORS
330
2252
102
}
330
2252
100
DictionaryVariables
280
     0
  1
Standard
  0
XRECORD
  5
21B7
102
{ACAD_REACTORS
330
21B5
102
}
330
21B5
100
AcDbXrecord
280
     1
290
     0
  0
XRECORD
  5
21B8
102
{ACAD_REACTORS
330
21B5
102
}
330
21B5
100
AcDbXrecord
280
     1
1000
0.1
  0
XRECORD
  5
21B9
102
{ACAD_REACTORS
330
21B5
102
}
330
21B5
100
AcDbXrecord
280
     1
1000
64
  0
XRECORD
  5
21BA
102
{ACAD_REACTORS
330
21B5
102
}
330
21B5
100
AcDbXrecord
280
     1
1000
0
  0
XRECORD
  5
21BB
102
{ACAD_REACTORS
330
21B5
102
}
330
21B5
100
AcDbXrecord
280
     1
1000
0
  0
XRECORD
  5
21BC
102
{ACAD_REACTORS
330
21B5
102
}
330
21B5
100
AcDbXrecord
280
     1
1000
example
  0
XRECORD
  5
21BD
102
{ACAD_REACTORS
330
21B5
102
}
330
21B5
100
AcDbXrecord
280
     1
1000
0.01
  0
XRECORD
  5
21BE
102
{ACAD_REACTORS
330
21B5
102
}
330
21B5
100
AcDbXrecord
280
     1
1000
0.0005
  0
XRECORD
  5
21BF
102
{ACAD_REACTORS
330
21B5
102
}
330
21B5
100
AcDbXrecord
280
     1
1000
30
  0
XRECORD
  5
21C0
102
{ACAD_REACTORS
330
21B5
102
}
330
21B5
100
AcDbXrecord
280
     1
290
     0
  0
XRECORD
  5
21C1
102
{ACAD_REACTORS
330
21B5
102
}
330
21B5
100
AcDbXrecord
280
     1
1000
0.1
  0
XRECORD
  5
21C2
102
{ACAD_REACTORS
330
21B5
102
}
330
21B5
100
AcDbXrecord
280
     1
1000
64
  0
XRECORD
  5
21C3
102
{ACAD_REACTORS
330
21B5
102
}
330
21B5
100
AcDbXrecord
280
     1
1000
0
  0
XRECORD
  5
21C4
102
{ACAD_REACTORS
330
21B5
102
}
330
21B5
100
AcDbXrecord
280
     1
1000
0
  0
XRECORD
  5
21C5
102
{ACAD_REACTORS
330
21B5
102
}
330
21B5
100
AcDbXrecord
280
     1
1000

  0
XRECORD
  5
21C6
102
{ACAD_REACTORS
330
21B5
102
}
330
21B5
100
AcDbXrecord
280
     1
1000
0.01
  0
XRECORD
  5
21C7
102
{ACAD_REACTORS
330
21B5
102
}
330
21B5
100
AcDbXrecord
280
     1
1000
0.0005
  0
XRECORD
  5
21C8
102
{ACAD_REACTORS
330
21B5
102
}
330
21B5
100
AcDbXrecord
280
     1
1000
30
  0
XRECORD
  5
21C9
102
{ACAD_REACTORS
330
21B5
102
}
330
21B5
100
AcDbXrecord
280
     1
1000
GCodeMM
  0
XRECORD
  5
21CA
102
{ACAD_REACTORS
330
21B5
102
}
330
21B5
100
AcDbXrecord
280
     1
1000
gcode_example01_g41.nc
  0
XRECORD
  5
21CB
102
{ACAD_REACTORS
330
21B5
102
}
330
21B5
100
AcDbXrecord
280
     1
1000
gcode_example01_offset.nc
  0
XRECORD
  5
21CC
102
{ACAD_REACTORS
330
21B5
102
}
330
21B5
100
AcDbXrecord
280
     1
1000
#ffffff
  0
XRECORD
  5
21CD
102
{ACAD_REACTORS
330
21B5
102
}
330
21B5
100
AcDbXrecord
280
     1
1000
FullColor
  0
XRECORD
  5
21CE
102
{ACAD_REACTORS
330
21B5
102
}
330
21B5
100
AcDbXrecord
280
     1
290
     1
  0
XRECORD
  5
21CF
102
{ACAD_REACTORS
330
21B5
102
}
330
21B5
100
AcDbXrecord
280
     1
290
     1
  0
XRECORD
  5
21D0
102
{ACAD_REACTORS
330
21B5
102
}
330
21B5
100
AcDbXrecord
280
     1
290
     1
  0
XRECORD
  5
21D1
102
{ACAD_REACTORS
330
21B5
102
}
330
21B5
100
AcDbXrecord
280
     1
290
     1
  0
XRECORD
  5
21D2
102
{ACAD_REACTORS
330
21B5
102
}
330
21B5
100
AcDbXrecord
280
     1
1000
auto
  0
XRECORD
  5
21D3
102
{ACAD_REACTORS
330
21B5
102
}
330
21B5
100
AcDbXrecord
280
     1
1000
auto
  0
XRECORD
  5
21D4
102
{ACAD_REACTORS
330
21B5
102
}
330
21B5
100
AcDbXrecord
280
     1
1000
auto
  0
XRECORD
  5
21D5
102
{ACAD_REACTORS
330
21B5
102
}
330
21B5
100
AcDbXrecord
280
     1
1000
auto
  0
XRECORD
  5
21D6
102
{ACAD_REACTORS
330
21B5
102
}
330
21B5
100
AcDbXrecord
280
     1
1000
auto
  0
XRECORD
  5
21D7
102
{ACAD_REACTORS
330
21B5
102
}
330
21B5
100
AcDbXrecord
280
     1
1000
auto
  0
XRECORD
  5
21D8
102
{ACAD_REACTORS
330
21B5
102
}
330
21B5
100
AcDbXrecord
280
     1
1000
auto
  0
XRECORD
  5
21D9
102
{ACAD_REACTORS
330
21B5
102
}
330
21B5
100
AcDbXrecord
280
     1
1000
auto
  0
XRECORD
  5
21DA
102
{ACAD_REACTORS
330
21B5
102
}
330
21B5
100
AcDbXrecord
280
     1
290
     0
  0
XRECORD
  5
21DB
102
{ACAD_REACTORS
330
21B5
102
}
330
21B5
100
AcDbXrecord
280
     1
290
     0
  0
XRECORD
  5
21DC
102
{ACAD_REACTORS
330
21B5
102
}
330
21B5
100
AcDbXrecord
280
     1
290
     0
  0
XRECORD
  5
21DD
102
{ACAD_REACTORS
330
21B5
102
}
330
21B5
100
AcDbXrecord
280
     1
290
     0
  0
XRECORD
  5
21DE
102
{ACAD_REACTORS
330
21B5
102
}
330
21B5
100
AcDbXrecord
280
     1
 90
     4097
  0
XRECORD
  5
21DF
102
{ACAD_REACTORS
330
21B5
102
}
330
21B5
100
AcDbXrecord
280
     1
 90
     4097
  0
XRECORD
  5
21E0
102
{ACAD_REACTORS
330
21B5
102
}
330
21B5
100
AcDbXrecord
280
     1
 90
     4097
  0
XRECORD
  5
21E1
102
{ACAD_REACTORS
330
21B5
102
}
330
21B5
100
AcDbXrecord
280
     1
 90
     4097
  0
XRECORD
  5
21E2
102
{ACAD_REACTORS
330
21B5
102
}
330
21B5
100
AcDbXrecord
280
     1
1000
auto
  0
XRECORD
  5
21E3
102
{ACAD_REACTORS
330
21B5
102
}
330
21B5
100
AcDbXrecord
280
     1
1000
auto
  0
XRECORD
  5
21E4
102
{ACAD_REACTORS
330
21B5
102
}
330
21B5
100
AcDbXrecord
280
     1
1000
auto
  0
XRECORD
  5
21E5
102
{ACAD_REACTORS
330
21B5
102
}
330
21B5
100
AcDbXrecord
280
     1
1000
auto
  0
XRECORD
  5
21E6
102
{ACAD_REACTORS
330
21B5
102
}
330
21B5
100
AcDbXrecord
280
     1
1000
auto
  0
XRECORD
  5
21E7
102
{ACAD_REACTORS
330
21B5
102
}
330
21B5
100
AcDbXrecord
280
     1
1000
auto
  0
XRECORD
  5
21E8
102
{ACAD_REACTORS
330
21B5
102
}
330
21B5
100
AcDbXrecord
280
     1
1000
auto
  0
XRECORD
  5
21E9
102
{ACAD_REACTORS
330
21B5
102
}
330
21B5
100
AcDbXrecord
280
     1
1000
auto
  0
XRECORD
  5
21EA
102
{ACAD_REACTORS
330
21B5
102
}
330
21B5
100
AcDbXrecord
280
     1
 90
        1
  0
XRECORD
  5
21EB
102
{ACAD_REACTORS
330
21B5
102
}
330
21B5
100
AcDbXrecord
280
     1
 40
10.0
  0
XRECORD
  5
21EC
102
{ACAD_REACTORS
330
21B5
102
}
330
21B5
100
AcDbXrecord
280
     1
 40
10.0
  0
XRECORD
  5
21ED
102
{ACAD_REACTORS
330
21B5
102
}
330
21B5
100
AcDbXrecord
280
     1
 40
10.0
  0
XRECORD
  5
21EE
102
{ACAD_REACTORS
330
21B5
102
}
330
21B5
100
AcDbXrecord
280
     1
 40
10.0
  0
XRECORD
  5
21EF
102
{ACAD_REACTORS
330
21B5
102
}
330
21B5
100
AcDbXrecord
280
     1
290
     0
  0
XRECORD
  5
21F0
102
{ACAD_REACTORS
330
21B5
102
}
330
21B5
100
AcDbXrecord
280
     1
 90
        1
  0
XRECORD
  5
21F1
102
{ACAD_REACTORS
330
21B5
102
}
330
21B5
100
AcDbXrecord
280
     1
 40
0.0
  0
XRECORD
  5
21F2
102
{ACAD_REACTORS
330
21B5
102
}
330
21B5
100
AcDbXrecord
280
     1
 40
0.0
  0
XRECORD
  5
21F3
102
{ACAD_REACTORS
330
21B5
102
}
330
21B5
100
AcDbXrecord
280
     1
1000
Portrait
  0
XRECORD
  5
21F4
102
{ACAD_REACTORS
330
21B5
102
}
330
21B5
100
AcDbXrecord
280
     1
 40
297.0
  0
XRECORD
  5
21F5
102
{ACAD_REACTORS
330
21B5
102
}
330
21B5
100
AcDbXrecord
280
     1
 40
210.0
  0
XRECORD
  5
21F6
102
{ACAD_REACTORS
330
21B5
102
}
330
21B5
100
AcDbXrecord
280
     1
1000
1:1
  0
XRECORD
  5
21F7
102
{ACAD_REACTORS
330
21B5
102
}
330
21B5
100
AcDbXrecord
280
     1
290
     1
  0
XRECORD
  5
21F8
102
{ACAD_REACTORS
330
21B5
102
}
330
21B5
100
AcDbXrecord
280
     1
1000
3.17.0
  0
XRECORD
  5
21F9
102
{ACAD_REACTORS
330
21B5
102
}
330
21B5
100
AcDbXrecord
280
     1
 90
        4
  0
XRECORD
  5
21FA
102
{ACAD_REACTORS
330
21B5
102
}
330
21B5
100
AcDbXrecord
280
     1
  0
XRECORD
  5
21FB
102
{ACAD_REACTORS
330
21B5
102
}
330
21B5
100
AcDbXrecord
280
     1
 40
37.44896780363223
  0
XRECORD
  5
21FC
102
{ACAD_REACTORS
330
21B5
102
}
330
21B5
100
AcDbXrecord
280
     1
 40
24.84849157793951
  0
DICTIONARY
  5
2254
330
21B0
100
AcDbDictionary
280
     1
281
     1
  3
ACAD_ROUNDTRIP_2008_TABLESTYLE_CELLSTYLEMAP
360
2255
  0
CELLSTYLEMAP
  5
2255
102
{ACAD_REACTORS
330
2254
102
}
330
2254
100
AcDbCellStyleMap
 90
        3
300
CELLSTYLE
  1
TABLEFORMAT_BEGIN
 90
        5
170
     1
 91
        0
 92
    32768
 62
   257
 93
        1
300
CONTENTFORMAT
  1
CONTENTFORMAT_BEGIN
 90
        0
 91
        0
 92
        4
 93
        0
300

 40
0.0
140
1.0
 94
        5
 62
     0
340
2158
144
0.25
309
CONTENTFORMAT_END
171
     1
301
MARGIN
  1
CELLMARGIN_BEGIN
 40
0.06
 40
0.06
 40
0.06
 40
0.06
 40
0.06
 40
0.06
309
CELLMARGIN_END
 94
        6
 95
        1
302
GRIDFORMAT
  1
GRIDFORMAT_BEGIN
 90
        0
 91
        1
 62
     0
 92
       -2
340
215A
 93
        0
 40
0.045
309
GRIDFORMAT_END
 95
        2
302
GRIDFORMAT
  1
GRIDFORMAT_BEGIN
 90
        0
 91
        1
 62
     0
 92
       -2
340
215A
 93
        0
 40
0.045
309
GRIDFORMAT_END
 95
        4
302
GRIDFORMAT
  1
GRIDFORMAT_BEGIN
 90
        0
 91
        1
 62
     0
 92
       -2
340
215A
 93
        0
 40
0.045
309
GRIDFORMAT_END
 95
        8
302
GRIDFORMAT
  1
GRIDFORMAT_BEGIN
 90
        0
 91
        1
 62
     0
 92
       -2
340
215A
 93
        0
 40
0.045
309
GRIDFORMAT_END
 95
       16
302
GRIDFORMAT
  1
GRIDFORMAT_BEGIN
 90
        0
 91
        1
 62
     0
 92
       -2
340
215A
 93
        0
 40
0.045
309
GRIDFORMAT_END
 95
       32
302
GRIDFORMAT
  1
GRIDFORMAT_BEGIN
 90
        0
 91
        1
 62
     0
 92
       -2
340
215A
 93
        0
 40
0.045
309
GRIDFORMAT_END
309
TABLEFORMAT_END
  1
CELLSTYLE_BEGIN
 90
        1
 91
        1
300
_TITLE
309
CELLSTYLE_END
300
CELLSTYLE
  1
TABLEFORMAT_BEGIN
 90
        5
170
     1
 91
        0
 92
        0
 62
   257
 93
        1
300
CONTENTFORMAT
  1
CONTENTFORMAT_BEGIN
 90
        0
 91
        0
 92
        4
 93
        0
300

 40
0.0
140
1.0
 94
        5
 62
     0
340
2158
144
0.18
309
CONTENTFORMAT_END
171
     1
301
MARGIN
  1
CELLMARGIN_BEGIN
 40
0.06
 40
0.06
 40
0.06
 40
0.06
 40
0.06
 40
0.06
309
CELLMARGIN_END
 94
        6
 95
        1
302
GRIDFORMAT
  1
GRIDFORMAT_BEGIN
 90
        0
 91
        1
 62
     0
 92
       -2
340
215A
 93
        0
 40
0.045
309
GRIDFORMAT_END
 95
        2
302
GRIDFORMAT
  1
GRIDFORMAT_BEGIN
 90
        0
 91
        1
 62
     0
 92
       -2
340
215A
 93
        0
 40
0.045
309
GRIDFORMAT_END
 95
        4
302
GRIDFORMAT
  1
GRIDFORMAT_BEGIN
 90
        0
 91
        1
 62
     0
 92
       -2
340
215A
 93
        0
 40
0.045
309
GRIDFORMAT_END
 95
        8
302
GRIDFORMAT
  1
GRIDFORMAT_BEGIN
 90
        0
 91
        1
 62
     0
 92
       -2
340
215A
 93
        0
 40
0.045
309
GRIDFORMAT_END
 95
       16
302
GRIDFORMAT
  1
GRIDFORMAT_BEGIN
 90
        0
 91
        1
 62
     0
 92
       -2
340
215A
 93
        0
 40
0.045
309
GRIDFORMAT_END
 95
       32
302
GRIDFORMAT
  1
GRIDFORMAT_BEGIN
 90
        0
 91
        1
 62
     0
 92
       -2
340
215A
 93
        0
 40
0.045
309
GRIDFORMAT_END
309
TABLEFORMAT_END
  1
CELLSTYLE_BEGIN
 90
        2
 91
        1
300
_HEADER
309
CELLSTYLE_END
300
CELLSTYLE
  1
TABLEFORMAT_BEGIN
 90
        5
170
     1
 91
        0
 92
        0
 62
   257
 93
        1
300
CONTENTFORMAT
  1
CONTENTFORMAT_BEGIN
 90
        0
 91
        0
 92
        4
 93
        0
300

 40
0.0
140
1.0
 94
        2
 62
     0
340
2158
144
0.18
309
CONTENTFORMAT_END
171
     1
301
MARGIN
  1
CELLMARGIN_BEGIN
 40
0.06
 40
0.06
 40
0.06
 40
0.06
 40
0.06
 40
0.06
309
CELLMARGIN_END
 94
        6
 95
        1
302
GRIDFORMAT
  1
GRIDFORMAT_BEGIN
 90
        0
 91
        1
 62
     0
 92
       -2
340
215A
 93
        0
 40
0.045
309
GRIDFORMAT_END
 95
        2
302
GRIDFORMAT
  1
GRIDFORMAT_BEGIN
 90
        0
 91
        1
 62
     0
 92
       -2
340
215A
 93
        0
 40
0.045
309
GRIDFORMAT_END
 95
        4
302
GRIDFORMAT
  1
GRIDFORMAT_BEGIN
 90
        0
 91
        1
 62
     0
 92
       -2
340
215A
 93
        0
 40
0.045
309
GRIDFORMAT_END
 95
        8
302
GRIDFORMAT
  1
GRIDFORMAT_BEGIN
 90
        0
 91
        1
 62
     0
 92
       -2
340
215A
 93
        0
 40
0.045
309
GRIDFORMAT_END
 95
       16
302
GRIDFORMAT
  1
GRIDFORMAT_BEGIN
 90
        0
 91
        1
 62
     0
 92
       -2
340
215A
 93
        0
 40
0.045
309
GRIDFORMAT_END
 95
       32
302
GRIDFORMAT
  1
GRIDFORMAT_BEGIN
 90
        0
 91
        1
 62
     0
 92
       -2
340
215A
 93
        0
 40
0.045
309
GRIDFORMAT_END
309
TABLEFORMAT_END
  1
CELLSTYLE_BEGIN
 90
        3
 91
        2
300
_DATA
309
CELLSTYLE_END
  0
ENDSEC
  0
EOF
