  0
SECTION
  2
HEADER
  9
$ACADVER
  1
AC1027
  9
$ACADMAINTVER
 70
   105
  9
$DWGCODEPAGE
  3
ANSI_1252
  9
$REQUIREDVERSIONS
160
                 0
  9
$INSBASE
 10
0.0
 20
0.0
 30
0.0
  9
$EXTMIN
 10
1.000000000000000E+20
 20
1.000000000000000E+20
 30
1.000000000000000E+20
  9
$EXTMAX
 10
-1.000000000000000E+20
 20
-1.000000000000000E+20
 30
-1.000000000000000E+20
  9
$LIMMIN
 10
0.0
 20
0.0
  9
$LIMMAX
 10
12.0
 20
9.0
  9
$ORTHOMODE
 70
     0
  9
$REGENMODE
 70
     1
  9
$FILLMODE
 70
     1
  9
$QTEXTMODE
 70
     0
  9
$MIRRTEXT
 70
     1
  9
$LTSCALE
 40
1.0
  9
$ATTMODE
 70
     1
  9
$TEXTSIZE
 40
0.2
  9
$TRACEWID
 40
0.05
  9
$TEXTSTYLE
  7
Standard
  9
$CLAYER
  8
0
  9
$CELTYPE
  6
ByLayer
  9
$CECOLOR
 62
   178
  9
$CELTSCALE
 40
1.0
  9
$DISPSILH
 70
     0
  9
$DIMSCALE
 40
1.0
  9
$DIMASZ
 40
2.5
  9
$DIMEXO
 40
0.625
  9
$DIMDLI
 40
0.38
  9
$DIMRND
 40
0.0
  9
$DIMDLE
 40
0.0
  9
$DIMEXE
 40
1.25
  9
$DIMTP
 40
0.0
  9
$DIMTM
 40
0.0
  9
$DIMTXT
 40
2.5
  9
$DIMCEN
 40
0.09
  9
$DIMTSZ
 40
0.0
  9
$DIMTOL
 70
     0
  9
$DIMLIM
 70
     0
  9
$DIMTIH
 70
     1
  9
$DIMTOH
 70
     1
  9
$DIMSE1
 70
     0
  9
$DIMSE2
 70
     0
  9
$DIMTAD
 70
     0
  9
$DIMZIN
 70
     8
  9
$DIMBLK
  1

  9
$DIMASO
 70
     1
  9
$DIMSHO
 70
     1
  9
$DIMPOST
  1

  9
$DIMAPOST
  1

  9
$DIMALT
 70
     0
  9
$DIMALTD
 70
     2
  9
$DIMALTF
 40
25.4
  9
$DIMLFAC
 40
1.0
  9
$DIMTOFL
 70
     0
  9
$DIMTVP
 40
0.0
  9
$DIMTIX
 70
     0
  9
$DIMSOXD
 70
     0
  9
$DIMSAH
 70
     0
  9
$DIMBLK1
  1

  9
$DIMBLK2
  1

  9
$DIMSTYLE
  2
Standard
  9
$DIMCLRD
 70
   178
  9
$DIMCLRE
 70
   178
  9
$DIMCLRT
 70
   178
  9
$DIMTFAC
 40
1.0
  9
$DIMGAP
 40
0.625
  9
$DIMJUST
 70
     0
  9
$DIMSD1
 70
     0
  9
$DIMSD2
 70
     0
  9
$DIMTOLJ
 70
     1
  9
$DIMTZIN
 70
     0
  9
$DIMALTZ
 70
     0
  9
$DIMALTTZ
 70
     0
  9
$DIMUPT
 70
     0
  9
$DIMDEC
 70
     4
  9
$DIMTDEC
 70
     4
  9
$DIMALTU
 70
     2
  9
$DIMALTTD
 70
     2
  9
$DIMTXSTY
  7
Standard
  9
$DIMAUNIT
 70
     0
  9
$DIMADEC
 70
     0
  9
$DIMALTRND
 40
0.0
  9
$DIMAZIN
 70
     2
  9
$DIMDSEP
 70
    46
  9
$DIMATFIT
 70
     3
  9
$DIMFRAC
 70
     0
  9
$DIMLDRBLK
  1

  9
$DIMLUNIT
 70
     2
  9
$DIMLWD
 70
    -2
  9
$DIMLWE
 70
    -2
  9
$DIMTMOVE
 70
     0
  9
$DIMFXL
 40
1.0
  9
$DIMFXLON
 70
     0
  9
$DIMJOGANG
 40
0.7853981633974483
  9
$DIMTFILL
 70
     0
  9
$DIMTFILLCLR
 70
     0
  9
$DIMARCSYM
 70
     0
  9
$DIMLTYPE
  6

  9
$DIMLTEX1
  6

  9
$DIMLTEX2
  6

  9
$DIMTXTDIRECTION
 70
     0
  9
$LUNITS
 70
     2
  9
$LUPREC
 70
     4
  9
$SKETCHINC
 40
0.1
  9
$FILLETRAD
 40
0.5
  9
$AUNITS
 70
     0
  9
$AUPREC
 70
     0
  9
$MENU
  1
.
  9
$ELEVATION
 40
0.0
  9
$PELEVATION
 40
0.0
  9
$THICKNESS
 40
0.0
  9
$LIMCHECK
 70
     0
  9
$CHAMFERA
 40
0.0
  9
$CHAMFERB
 40
0.0
  9
$CHAMFERC
 40
0.0
  9
$CHAMFERD
 40
0.0
  9
$SKPOLY
 70
     0
  9
$TDCREATE
 40
2457890.503611632
  9
$TDUCREATE
 40
2457890.461944965
  9
$TDUPDATE
 40
2457890.503611805
  9
$TDUUPDATE
 40
2457890.461945139
  9
$TDINDWG
 40
0.0000000116
  9
$TDUSRTIMER
 40
0.0000000116
  9
$USRTIMER
 70
     1
  9
$ANGBASE
 50
0.0
  9
$ANGDIR
 70
     0
  9
$PDMODE
 70
     0
  9
$PDSIZE
 40
0.0
  9
$PLINEWID
 40
0.0
  9
$SPLFRAME
 70
     0
  9
$SPLINETYPE
 70
     6
  9
$SPLINESEGS
 70
     8
  9
$HANDSEED
  5
6BE
  9
$SURFTAB1
 70
     6
  9
$SURFTAB2
 70
     6
  9
$SURFTYPE
 70
     6
  9
$SURFU
 70
     6
  9
$SURFV
 70
     6
  9
$UCSBASE
  2

  9
$UCSNAME
  2

  9
$UCSORG
 10
0.0
 20
0.0
 30
0.0
  9
$UCSXDIR
 10
1.0
 20
0.0
 30
0.0
  9
$UCSYDIR
 10
0.0
 20
1.0
 30
0.0
  9
$UCSORTHOREF
  2

  9
$UCSORTHOVIEW
 70
     0
  9
$UCSORGTOP
 10
0.0
 20
0.0
 30
0.0
  9
$UCSORGBOTTOM
 10
0.0
 20
0.0
 30
0.0
  9
$UCSORGLEFT
 10
0.0
 20
0.0
 30
0.0
  9
$UCSORGRIGHT
 10
0.0
 20
0.0
 30
0.0
  9
$UCSORGFRONT
 10
0.0
 20
0.0
 30
0.0
  9
$UCSORGBACK
 10
0.0
 20
0.0
 30
0.0
  9
$PUCSBASE
  2

  9
$PUCSNAME
  2

  9
$PUCSORG
 10
0.0
 20
0.0
 30
0.0
  9
$PUCSXDIR
 10
1.0
 20
0.0
 30
0.0
  9
$PUCSYDIR
 10
0.0
 20
1.0
 30
0.0
  9
$PUCSORTHOREF
  2

  9
$PUCSORTHOVIEW
 70
     0
  9
$PUCSORGTOP
 10
0.0
 20
0.0
 30
0.0
  9
$PUCSORGBOTTOM
 10
0.0
 20
0.0
 30
0.0
  9
$PUCSORGLEFT
 10
0.0
 20
0.0
 30
0.0
  9
$PUCSORGRIGHT
 10
0.0
 20
0.0
 30
0.0
  9
$PUCSORGFRONT
 10
0.0
 20
0.0
 30
0.0
  9
$PUCSORGBACK
 10
0.0
 20
0.0
 30
0.0
  9
$USERI1
 70
     0
  9
$USERI2
 70
     0
  9
$USERI3
 70
     0
  9
$USERI4
 70
     0
  9
$USERI5
 70
     0
  9
$USERR1
 40
0.0
  9
$USERR2
 40
0.0
  9
$USERR3
 40
0.0
  9
$USERR4
 40
0.0
  9
$USERR5
 40
0.0
  9
$WORLDVIEW
 70
     1
  9
$SHADEDGE
 70
     3
  9
$SHADEDIF
 70
    70
  9
$TILEMODE
 70
     1
  9
$MAXACTVP
 70
    32
  9
$PINSBASE
 10
0.0
 20
0.0
 30
0.0
  9
$PLIMCHECK
 70
     0
  9
$PEXTMIN
 10
0.0
 20
0.0
 30
0.0
  9
$PEXTMAX
 10
0.0
 20
0.0
 30
0.0
  9
$PLIMMIN
 10
-20.0
 20
-7.5
  9
$PLIMMAX
 10
277.0
 20
202.5
  9
$UNITMODE
 70
     0
  9
$VISRETAIN
 70
     1
  9
$PLINEGEN
 70
     0
  9
$PSLTSCALE
 70
     1
  9
$TREEDEPTH
 70
  3020
  9
$CMLSTYLE
  2
Standard
  9
$CMLJUST
 70
     0
  9
$CMLSCALE
 40
1.0
  9
$PROXYGRAPHICS
 70
     1
  9
$MEASUREMENT
 70
     1
  9
$CELWEIGHT
370
    -1
  9
$ENDCAPS
280
     0
  9
$JOINSTYLE
280
     0
  9
$LWDISPLAY
290
     0
  9
$INSUNITS
 70
     4
  9
$HYPERLINKBASE
  1

  9
$STYLESHEET
  1

  9
$XEDIT
290
     1
  9
$CEPSNTYPE
380
     0
  9
$PSTYLEMODE
290
     1
  9
$FINGERPRINTGUID
  2
{7925FDE8-6A76-4979-BAF5-F8E041AA539F}
  9
$VERSIONGUID
  2
{FAEB1C32-E019-11D5-929B-00C0DF256EC4}
  9
$EXTNAMES
290
     1
  9
$PSVPSCALE
 40
0.0
  9
$OLESTARTUP
290
     0
  9
$SORTENTS
280
   127
  9
$INDEXCTL
280
     0
  9
$HIDETEXT
280
     1
  9
$XCLIPFRAME
280
     2
  9
$HALOGAP
280
     0
  9
$OBSCOLOR
 70
   257
  9
$OBSLTYPE
280
     0
  9
$INTERSECTIONDISPLAY
280
     0
  9
$INTERSECTIONCOLOR
 70
   257
  9
$DIMASSOC
280
     2
  9
$PROJECTNAME
  1

  9
$CAMERADISPLAY
290
     0
  9
$LENSLENGTH
 40
50.0
  9
$CAMERAHEIGHT
 40
0.0
  9
$STEPSPERSEC
 40
2.0
  9
$STEPSIZE
 40
6.0
  9
$3DDWFPREC
 40
2.0
  9
$PSOLWIDTH
 40
0.25
  9
$PSOLHEIGHT
 40
4.0
  9
$LOFTANG1
 40
1.570796326794897
  9
$LOFTANG2
 40
1.570796326794897
  9
$LOFTMAG1
 40
0.0
  9
$LOFTMAG2
 40
0.0
  9
$LOFTPARAM
 70
     7
  9
$LOFTNORMALS
280
     1
  9
$LATITUDE
 40
37.795
  9
$LONGITUDE
 40
-122.394
  9
$NORTHDIRECTION
 40
0.0
  9
$TIMEZONE
 70
 -8000
  9
$LIGHTGLYPHDISPLAY
280
     1
  9
$TILEMODELIGHTSYNCH
280
     1
  9
$CMATERIAL
347
601
  9
$SOLIDHIST
280
     0
  9
$SHOWHIST
280
     1
  9
$DWFFRAME
280
     2
  9
$DGNFRAME
280
     2
  9
$REALWORLDSCALE
290
     1
  9
$INTERFERECOLOR
 62
   256
  9
$CSHADOW
280
     0
  9
$SHADOWPLANELOCATION
 40
0.0
  0
ENDSEC
  0
SECTION
  2
CLASSES
  0
CLASS
  1
ACDBDICTIONARYWDFLT
  2
AcDbDictionaryWithDefault
  3
ObjectDBX Classes
 90
        0
 91
        3
280
     0
281
     0
  0
CLASS
  1
VISUALSTYLE
  2
AcDbVisualStyle
  3
ObjectDBX Classes
 90
     4095
 91
        3
280
     0
281
     0
  0
CLASS
  1
MATERIAL
  2
AcDbMaterial
  3
ObjectDBX Classes
 90
     1153
 91
        3
280
     0
281
     0
  0
CLASS
  1
SCALE
  2
AcDbScale
  3
ObjectDBX Classes
 90
     1153
 91
        3
280
     0
281
     0
  0
CLASS
  1
TABLESTYLE
  2
AcDbTableStyle
  3
ObjectDBX Classes
 90
     4095
 91
        3
280
     0
281
     0
  0
CLASS
  1
MLEADERSTYLE
  2
AcDbMLeaderStyle
  3
ACDB_MLEADERSTYLE_CLASS
 90
     4095
 91
        3
280
     0
281
     0
  0
CLASS
  1
SUN
  2
AcDbSun
  3
SCENEOE
 90
     1153
 91
        3
280
     0
281
     0
  0
CLASS
  1
DICTIONARYVAR
  2
AcDbDictionaryVar
  3
ObjectDBX Classes
 90
        0
 91
        3
280
     0
281
     0
  0
CLASS
  1
CELLSTYLEMAP
  2
AcDbCellStyleMap
  3
ObjectDBX Classes
 90
     1152
 91
        3
280
     0
281
     0
  0
ENDSEC
  0
SECTION
  2
TABLES
  0
TABLE
  2
VPORT
  5
5C6
330
0
100
AcDbSymbolTable
 70
     1
  0
VPORT
  5
5E6
330
5C6
100
AcDbSymbolTableRecord
100
AcDbViewportTableRecord
  2
*Active
 70
     0
 10
0.0
 20
0.0
 11
1.0
 21
1.0
 12
36.80968622100956
 22
4.522510231923601
 13
0.0
 23
0.0
 14
0.5
 24
0.5
 15
0.5
 25
0.5
 16
0.0
 26
0.0
 36
1.0
 17
0.0
 27
0.0
 37
0.0
 40
56.53908442749022
 41
1.375866851595007
 42
50.0
 43
0.0
 44
0.0
 50
0.0
 51
0.0
 71
     0
 72
   100
 73
     1
 74
     3
 75
     0
 76
     0
 77
     0
 78
     0
281
     0
 65
     1
110
0.0
120
0.0
130
0.0
111
1.0
121
0.0
131
0.0
112
0.0
122
1.0
132
0.0
 79
     0
146
0.0
348
5EC
 60
     3
 61
     5
292
     1
282
     1
141
0.0
142
0.0
 63
   250
361
62A
  0
ENDTAB
  0
TABLE
  2
LTYPE
  5
5C3
330
0
100
AcDbSymbolTable
 70
    48
  0
LTYPE
  5
5D1
330
5C3
100
AcDbSymbolTableRecord
100
AcDbLinetypeTableRecord
  2
ByBlock
 70
     0
  3

 72
    65
 73
     0
 40
0.0
  0
LTYPE
  5
5D2
330
5C3
100
AcDbSymbolTableRecord
100
AcDbLinetypeTableRecord
  2
ByLayer
 70
     0
  3

 72
    65
 73
     0
 40
0.0
  0
LTYPE
  5
5D3
330
5C3
100
AcDbSymbolTableRecord
100
AcDbLinetypeTableRecord
  2
Continuous
 70
     0
  3
Solid line
 72
    65
 73
     0
 40
0.0
  0
LTYPE
  5
66D
330
5C3
100
AcDbSymbolTableRecord
100
AcDbLinetypeTableRecord
  2
TRACKS
 70
     0
  3
Tracks -|-|-|-|-|-|-|-|-|-|-|-|-|-|-|-|-|-|-|-|-|-|-|-|-
 72
    65
 73
     2
 40
7.62
 49
3.81
 74
     2
 75
     0
340
66C
 46
6.35
 50
0.0
 44
0.0
 45
0.0
  9
TRACK1
 49
3.81
 74
     0
  0
LTYPE
  5
66E
330
5C3
100
AcDbSymbolTableRecord
100
AcDbLinetypeTableRecord
  2
PHANTOMX2
 70
     0
  3
Phantom (2x) ____________    ____    ____   _
 72
    65
 73
     6
 40
127.0
 49
63.5
 74
     0
 49
-12.7
 74
     0
 49
12.7
 74
     0
 49
-12.7
 74
     0
 49
12.7
 74
     0
 49
-12.7
 74
     0
  0
LTYPE
  5
671
330
5C3
100
AcDbSymbolTableRecord
100
AcDbLinetypeTableRecord
  2
ZIGZAG
 70
     0
  3
Zig zag /\/\/\/\/\/\/\/\/\/\/\/\/\/\/\/\/\/\/\/\/\/\/\/
 72
    65
 73
     4
 40
20.32254
 49
0.00254
 74
     0
 49
-5.08
 74
     2
 75
     0
340
66F
 46
5.08
 50
0.0
 44
-5.08
 45
0.0
  9
ZIG
 49
-10.16
 74
     2
 75
     0
340
670
 46
5.08
 50
180.0
 44
5.08
 45
0.0
  9
ZIG
 49
-5.08
 74
     0
  0
LTYPE
  5
673
330
5C3
100
AcDbSymbolTableRecord
100
AcDbLinetypeTableRecord
  2
HOT_WATER_SUPPLY
 70
     0
  3
Hot water supply ---- HW ---- HW ---- HW ----
 72
    65
 73
     3
 40
22.86
 49
12.7
 74
     0
 49
-5.08
 74
     2
 75
     0
340
672
 46
2.54
 50
0.0
 44
-2.54
 45
-1.27
  9
HW
 49
-5.08
 74
     0
  0
LTYPE
  5
674
330
5C3
100
AcDbSymbolTableRecord
100
AcDbLinetypeTableRecord
  2
HIDDENX2
 70
     0
  3
Hidden (2x) ____ ____ ____ ____ ____ ____ ____ 
 72
    65
 73
     2
 40
19.05
 49
12.7
 74
     0
 49
-6.35
 74
     0
  0
LTYPE
  5
675
330
5C3
100
AcDbSymbolTableRecord
100
AcDbLinetypeTableRecord
  2
PHANTOM2
 70
     0
  3
Phantom (.5x) ___ _ _ ___ _ _ ___ _ _ ___ _ _
 72
    65
 73
     6
 40
31.75
 49
15.875
 74
     0
 49
-3.175
 74
     0
 49
3.175
 74
     0
 49
-3.175
 74
     0
 49
3.175
 74
     0
 49
-3.175
 74
     0
  0
LTYPE
  5
676
330
5C3
100
AcDbSymbolTableRecord
100
AcDbLinetypeTableRecord
  2
PHANTOM
 70
     0
  3
Phantom ______  __  __  ______  __  __  ______ 
 72
    65
 73
     6
 40
63.50000000000001
 49
31.75
 74
     0
 49
-6.35
 74
     0
 49
6.35
 74
     0
 49
-6.35
 74
     0
 49
6.35
 74
     0
 49
-6.35
 74
     0
  0
LTYPE
  5
678
330
5C3
100
AcDbSymbolTableRecord
100
AcDbLinetypeTableRecord
  2
GAS_LINE
 70
     0
  3
Gas line ----GAS----GAS----GAS----GAS----GAS----GAS--
 72
    65
 73
     3
 40
24.13
 49
12.7
 74
     0
 49
-5.08
 74
     2
 75
     0
340
677
 46
2.54
 50
0.0
 44
-2.54
 45
-1.27
  9
GAS
 49
-6.35
 74
     0
  0
LTYPE
  5
67A
330
5C3
100
AcDbSymbolTableRecord
100
AcDbLinetypeTableRecord
  2
FENCELINE2
 70
     0
  3
Fenceline square ----[]-----[]----[]-----[]----[]---
 72
    65
 73
     4
 40
36.83
 49
6.35
 74
     0
 49
-2.54
 74
     2
 75
     0
340
679
 46
2.54
 50
0.0
 44
-2.54
 45
0.0
  9
BOX
 49
-2.54
 74
     0
 49
25.4
 74
     0
  0
LTYPE
  5
67B
330
5C3
100
AcDbSymbolTableRecord
100
AcDbLinetypeTableRecord
  2
HIDDEN2
 70
     0
  3
Hidden (.5x) _ _ _ _ _ _ _ _ _ _ _ _ _ _ _ _ _ 
 72
    65
 73
     2
 40
4.762499999999999
 49
3.175
 74
     0
 49
-1.5875
 74
     0
  0
LTYPE
  5
67C
330
5C3
100
AcDbSymbolTableRecord
100
AcDbLinetypeTableRecord
  2
HIDDEN
 70
     0
  3
Hidden __ __ __ __ __ __ __ __ __ __ __ __ __ __
 72
    65
 73
     2
 40
9.524999999999999
 49
6.35
 74
     0
 49
-3.175
 74
     0
  0
LTYPE
  5
67E
330
5C3
100
AcDbSymbolTableRecord
100
AcDbLinetypeTableRecord
  2
DRAINAGE
 70
     0
  3
Drainage ---->---->---->----
 72
    65
 73
     2
 40
10.16
 49
5.08
 74
     2
 75
     0
340
67D
 46
2.54
 50
180.0
 44
0.0
 45
0.0
  9
RIGHT_ARROW
 49
5.08
 74
     0
  0
LTYPE
  5
67F
330
5C3
100
AcDbSymbolTableRecord
100
AcDbLinetypeTableRecord
  2
DOTX2
 70
     0
  3
Dot (2x) .  .  .  .  .  .  .  .  .  .  .  .  .  .
 72
    65
 73
     2
 40
12.7
 49
0.0
 74
     0
 49
-12.7
 74
     0
  0
LTYPE
  5
681
330
5C3
100
AcDbSymbolTableRecord
100
AcDbLinetypeTableRecord
  2
FENCELINE1
 70
     0
  3
Fenceline circle ----0-----0----0-----0----0-----0--
 72
    65
 73
     4
 40
36.83
 49
6.35
 74
     0
 49
-2.54
 74
     2
 75
     0
340
680
 46
2.54
 50
0.0
 44
-2.54
 45
0.0
  9
CIRC1
 49
-2.54
 74
     0
 49
25.4
 74
     0
  0
LTYPE
  5
683
330
5C3
100
AcDbSymbolTableRecord
100
AcDbLinetypeTableRecord
  2
DRAINAGE2
 70
     0
  3
Drainage reversed----<----<----<----
 72
    65
 73
     2
 40
10.16
 49
5.08
 74
     2
 75
     0
340
682
 46
2.54
 50
0.0
 44
0.0
 45
0.0
  9
RIGHT_ARROW
 49
5.08
 74
     0
  0
LTYPE
  5
684
330
5C3
100
AcDbSymbolTableRecord
100
AcDbLinetypeTableRecord
  2
DIVIDEX2
 70
     0
  3
Divide (2x) ________  .  .  ________  .  .  _
 72
    65
 73
     6
 40
63.5
 49
25.4
 74
     0
 49
-12.7
 74
     0
 49
0.0
 74
     0
 49
-12.7
 74
     0
 49
0.0
 74
     0
 49
-12.7
 74
     0
  0
LTYPE
  5
685
330
5C3
100
AcDbSymbolTableRecord
100
AcDbLinetypeTableRecord
  2
DIVIDE2
 70
     0
  3
Divide (.5x) __..__..__..__..__..__..__..__.._
 72
    65
 73
     6
 40
15.875
 49
6.35
 74
     0
 49
-3.175
 74
     0
 49
0.0
 74
     0
 49
-3.175
 74
     0
 49
0.0
 74
     0
 49
-3.175
 74
     0
  0
LTYPE
  5
686
330
5C3
100
AcDbSymbolTableRecord
100
AcDbLinetypeTableRecord
  2
DOT2
 70
     0
  3
Dot (.5x) ........................................
 72
    65
 73
     2
 40
3.175
 49
0.0
 74
     0
 49
-3.175
 74
     0
  0
LTYPE
  5
687
330
5C3
100
AcDbSymbolTableRecord
100
AcDbLinetypeTableRecord
  2
DOT
 70
     0
  3
Dot . . . . . . . . . . . . . . . . . . . . . . . .
 72
    65
 73
     2
 40
6.35
 49
0.0
 74
     0
 49
-6.35
 74
     0
  0
LTYPE
  5
688
330
5C3
100
AcDbSymbolTableRecord
100
AcDbLinetypeTableRecord
  2
DASHED2
 70
     0
  3
Dashed (.5x) _ _ _ _ _ _ _ _ _ _ _ _ _ _ _ _ _ 
 72
    65
 73
     2
 40
9.524999999999999
 49
6.35
 74
     0
 49
-3.175
 74
     0
  0
LTYPE
  5
689
330
5C3
100
AcDbSymbolTableRecord
100
AcDbLinetypeTableRecord
  2
DASHED
 70
     0
  3
Dashed __ __ __ __ __ __ __ __ __ __ __ __ __ _
 72
    65
 73
     2
 40
19.05
 49
12.7
 74
     0
 49
-6.35
 74
     0
  0
LTYPE
  5
68A
330
5C3
100
AcDbSymbolTableRecord
100
AcDbLinetypeTableRecord
  2
DIVIDE
 70
     0
  3
Divide ____ . . ____ . . ____ . . ____ . . ____
 72
    65
 73
     6
 40
31.75
 49
12.7
 74
     0
 49
-6.35
 74
     0
 49
0.0
 74
     0
 49
-6.35
 74
     0
 49
0.0
 74
     0
 49
-6.35
 74
     0
  0
LTYPE
  5
68B
330
5C3
100
AcDbSymbolTableRecord
100
AcDbLinetypeTableRecord
  2
DASHEDX2
 70
     0
  3
Dashed (2x) ____  ____  ____  ____  ____  ___
 72
    65
 73
     2
 40
38.09999999999999
 49
25.4
 74
     0
 49
-12.7
 74
     0
  0
LTYPE
  5
68C
330
5C3
100
AcDbSymbolTableRecord
100
AcDbLinetypeTableRecord
  2
DASHDOT
 70
     0
  3
Dash dot __ . __ . __ . __ . __ . __ . __ . __
 72
    65
 73
     4
 40
25.4
 49
12.7
 74
     0
 49
-6.35
 74
     0
 49
0.0
 74
     0
 49
-6.35
 74
     0
  0
LTYPE
  5
68D
330
5C3
100
AcDbSymbolTableRecord
100
AcDbLinetypeTableRecord
  2
CENTERX2
 70
     0
  3
Center (2x) ________  __  ________  __  _____
 72
    65
 73
     4
 40
101.6
 49
63.5
 74
     0
 49
-12.7
 74
     0
 49
12.7
 74
     0
 49
-12.7
 74
     0
  0
LTYPE
  5
68E
330
5C3
100
AcDbSymbolTableRecord
100
AcDbLinetypeTableRecord
  2
DASHDOTX2
 70
     0
  3
Dash dot (2x) ____  .  ____  .  ____  .  ___
 72
    65
 73
     4
 40
50.8
 49
25.4
 74
     0
 49
-12.7
 74
     0
 49
0.0
 74
     0
 49
-12.7
 74
     0
  0
LTYPE
  5
68F
330
5C3
100
AcDbSymbolTableRecord
100
AcDbLinetypeTableRecord
  2
DASHDOT2
 70
     0
  3
Dash dot (.5x) _._._._._._._._._._._._._._._.
 72
    65
 73
     4
 40
12.7
 49
6.35
 74
     0
 49
-3.175
 74
     0
 49
0.0
 74
     0
 49
-3.175
 74
     0
  0
LTYPE
  5
690
330
5C3
100
AcDbSymbolTableRecord
100
AcDbLinetypeTableRecord
  2
BORDERX2
 70
     0
  3
Border (2x) ____  ____  .  ____  ____  .  ___
 72
    65
 73
     6
 40
88.89999999999999
 49
25.4
 74
     0
 49
-12.7
 74
     0
 49
25.4
 74
     0
 49
-12.7
 74
     0
 49
0.0
 74
     0
 49
-12.7
 74
     0
  0
LTYPE
  5
691
330
5C3
100
AcDbSymbolTableRecord
100
AcDbLinetypeTableRecord
  2
BORDER2
 70
     0
  3
Border (.5x) __.__.__.__.__.__.__.__.__.__.__.
 72
    65
 73
     6
 40
22.225
 49
6.35
 74
     0
 49
-3.175
 74
     0
 49
6.35
 74
     0
 49
-3.175
 74
     0
 49
0.0
 74
     0
 49
-3.175
 74
     0
  0
LTYPE
  5
692
330
5C3
100
AcDbSymbolTableRecord
100
AcDbLinetypeTableRecord
  2
CENTER2
 70
     0
  3
Center (.5x) ___ _ ___ _ ___ _ ___ _ ___ _ ___
 72
    65
 73
     4
 40
28.575
 49
19.05
 74
     0
 49
-3.175
 74
     0
 49
3.175
 74
     0
 49
-3.175
 74
     0
  0
LTYPE
  5
693
330
5C3
100
AcDbSymbolTableRecord
100
AcDbLinetypeTableRecord
  2
CENTER
 70
     0
  3
Center ____ _ ____ _ ____ _ ____ _ ____ _ ____
 72
    65
 73
     4
 40
50.8
 49
31.75
 74
     0
 49
-6.35
 74
     0
 49
6.35
 74
     0
 49
-6.35
 74
     0
  0
LTYPE
  5
694
330
5C3
100
AcDbSymbolTableRecord
100
AcDbLinetypeTableRecord
  2
ACAD_ISO15W100
 70
     0
  3
ISO double-dash triple-dot __ __ . . . __ __ . .
 72
    65
 73
    10
 40
39.0
 49
12.0
 74
     0
 49
-3.0
 74
     0
 49
12.0
 74
     0
 49
-3.0
 74
     0
 49
0.0
 74
     0
 49
-3.0
 74
     0
 49
0.0
 74
     0
 49
-3.0
 74
     0
 49
0.0
 74
     0
 49
-3.0
 74
     0
  0
LTYPE
  5
695
330
5C3
100
AcDbSymbolTableRecord
100
AcDbLinetypeTableRecord
  2
ACAD_ISO14W100
 70
     0
  3
ISO dash triple-dot __ . . . __ . . . __ . . . _
 72
    65
 73
     8
 40
24.0
 49
12.0
 74
     0
 49
-3.0
 74
     0
 49
0.0
 74
     0
 49
-3.0
 74
     0
 49
0.0
 74
     0
 49
-3.0
 74
     0
 49
0.0
 74
     0
 49
-3.0
 74
     0
  0
LTYPE
  5
696
330
5C3
100
AcDbSymbolTableRecord
100
AcDbLinetypeTableRecord
  2
BORDER
 70
     0
  3
Border __ __ . __ __ . __ __ . __ __ . __ __ .
 72
    65
 73
     6
 40
44.45
 49
12.7
 74
     0
 49
-6.35
 74
     0
 49
12.7
 74
     0
 49
-6.35
 74
     0
 49
0.0
 74
     0
 49
-6.35
 74
     0
  0
LTYPE
  5
699
330
5C3
100
AcDbSymbolTableRecord
100
AcDbLinetypeTableRecord
  2
BATTING
 70
     0
  3
Batting SSSSSSSSSSSSSSSSSSSSSSSSSSSSSSSSSSSSSSSSSSSSSSS
 72
    65
 73
     4
 40
10.16254
 49
0.00254
 74
     0
 49
-2.54
 74
     2
 75
     0
340
697
 46
2.54
 50
0.0
 44
-2.54
 45
0.0
  9
BAT
 49
-5.08
 74
     2
 75
     0
340
698
 46
2.54
 50
180.0
 44
2.54
 45
0.0
  9
BAT
 49
-2.54
 74
     0
  0
LTYPE
  5
69A
330
5C3
100
AcDbSymbolTableRecord
100
AcDbLinetypeTableRecord
  2
ACAD_ISO11W100
 70
     0
  3
ISO double-dash dot __ __ . __ __ . __ __ . __ _
 72
    65
 73
     6
 40
33.0
 49
12.0
 74
     0
 49
-3.0
 74
     0
 49
12.0
 74
     0
 49
-3.0
 74
     0
 49
0.0
 74
     0
 49
-3.0
 74
     0
  0
LTYPE
  5
69B
330
5C3
100
AcDbSymbolTableRecord
100
AcDbLinetypeTableRecord
  2
ACAD_ISO10W100
 70
     0
  3
ISO dash dot __ . __ . __ . __ . __ . __ . __ . 
 72
    65
 73
     4
 40
18.0
 49
12.0
 74
     0
 49
-3.0
 74
     0
 49
0.0
 74
     0
 49
-3.0
 74
     0
  0
LTYPE
  5
69C
330
5C3
100
AcDbSymbolTableRecord
100
AcDbLinetypeTableRecord
  2
ACAD_ISO13W100
 70
     0
  3
ISO double-dash double-dot __ __ . . __ __ . . _
 72
    65
 73
     8
 40
36.0
 49
12.0
 74
     0
 49
-3.0
 74
     0
 49
12.0
 74
     0
 49
-3.0
 74
     0
 49
0.0
 74
     0
 49
-3.0
 74
     0
 49
0.0
 74
     0
 49
-3.0
 74
     0
  0
LTYPE
  5
69D
330
5C3
100
AcDbSymbolTableRecord
100
AcDbLinetypeTableRecord
  2
ACAD_ISO12W100
 70
     0
  3
ISO dash double-dot __ . . __ . . __ . . __ . . 
 72
    65
 73
     6
 40
21.0
 49
12.0
 74
     0
 49
-3.0
 74
     0
 49
0.0
 74
     0
 49
-3.0
 74
     0
 49
0.0
 74
     0
 49
-3.0
 74
     0
  0
LTYPE
  5
69E
330
5C3
100
AcDbSymbolTableRecord
100
AcDbLinetypeTableRecord
  2
ACAD_ISO07W100
 70
     0
  3
ISO dot . . . . . . . . . . . . . . . . . . . . 
 72
    65
 73
     2
 40
3.0
 49
0.0
 74
     0
 49
-3.0
 74
     0
  0
LTYPE
  5
69F
330
5C3
100
AcDbSymbolTableRecord
100
AcDbLinetypeTableRecord
  2
ACAD_ISO06W100
 70
     0
  3
ISO long-dash triple-dot ____ ... ____ ... ____
 72
    65
 73
     8
 40
36.0
 49
24.0
 74
     0
 49
-3.0
 74
     0
 49
0.0
 74
     0
 49
-3.0
 74
     0
 49
0.0
 74
     0
 49
-3.0
 74
     0
 49
0.0
 74
     0
 49
-3.0
 74
     0
  0
LTYPE
  5
6A0
330
5C3
100
AcDbSymbolTableRecord
100
AcDbLinetypeTableRecord
  2
ACAD_ISO09W100
 70
     0
  3
ISO long-dash double-short-dash ____ __ __ ____
 72
    65
 73
     6
 40
45.0
 49
24.0
 74
     0
 49
-3.0
 74
     0
 49
6.0
 74
     0
 49
-3.0
 74
     0
 49
6.0
 74
     0
 49
-3.0
 74
     0
  0
LTYPE
  5
6A1
330
5C3
100
AcDbSymbolTableRecord
100
AcDbLinetypeTableRecord
  2
ACAD_ISO08W100
 70
     0
  3
ISO long-dash short-dash ____ __ ____ __ ____ _
 72
    65
 73
     4
 40
36.0
 49
24.0
 74
     0
 49
-3.0
 74
     0
 49
6.0
 74
     0
 49
-3.0
 74
     0
  0
LTYPE
  5
6A2
330
5C3
100
AcDbSymbolTableRecord
100
AcDbLinetypeTableRecord
  2
ACAD_ISO03W100
 70
     0
  3
ISO dash space __    __    __    __    __    __
 72
    65
 73
     2
 40
30.0
 49
12.0
 74
     0
 49
-18.0
 74
     0
  0
LTYPE
  5
6A3
330
5C3
100
AcDbSymbolTableRecord
100
AcDbLinetypeTableRecord
  2
ACAD_ISO02W100
 70
     0
  3
ISO dash __ __ __ __ __ __ __ __ __ __ __ __ __
 72
    65
 73
     2
 40
15.0
 49
12.0
 74
     0
 49
-3.0
 74
     0
  0
LTYPE
  5
6A4
330
5C3
100
AcDbSymbolTableRecord
100
AcDbLinetypeTableRecord
  2
ACAD_ISO05W100
 70
     0
  3
ISO long-dash double-dot ____ .. ____ .. ____ . 
 72
    65
 73
     6
 40
33.0
 49
24.0
 74
     0
 49
-3.0
 74
     0
 49
0.0
 74
     0
 49
-3.0
 74
     0
 49
0.0
 74
     0
 49
-3.0
 74
     0
  0
LTYPE
  5
6A5
330
5C3
100
AcDbSymbolTableRecord
100
AcDbLinetypeTableRecord
  2
ACAD_ISO04W100
 70
     0
  3
ISO long-dash dot ____ . ____ . ____ . ____ . _
 72
    65
 73
     4
 40
30.0
 49
24.0
 74
     0
 49
-3.0
 74
     0
 49
0.0
 74
     0
 49
-3.0
 74
     0
  0
ENDTAB
  0
TABLE
  2
LAYER
  5
5C1
330
0
100
AcDbSymbolTable
 70
     6
  0
LAYER
  5
5CE
330
5C1
100
AcDbSymbolTableRecord
100
AcDbLayerTableRecord
  2
0
 70
     0
 62
     7
420
 16777215
  6
Continuous
370
    25
390
5CD
347
603
348
0
  0
LAYER
  5
6A6
330
5C1
100
AcDbSymbolTableRecord
100
AcDbLayerTableRecord
  2
CAM ... GCodeMM ... normal
 70
     0
 62
     8
420
  8421504
  6
Continuous
370
    20
390
5CD
347
603
348
0
1001
QCAD
1000
ScreenBasedLinetypes:1
  0
LAYER
  5
6A7
330
5C1
100
AcDbSymbolTableRecord
100
AcDbLayerTableRecord
  2
CAM ... GCodeMM ... rapid
 70
     0
 62
   150
420
    35071
  6
DASHDOT2
370
    20
390
5CD
347
603
348
0
1001
QCAD
1000
ScreenBasedLinetypes:1
  0
LAYER
  5
6A8
330
5C1
100
AcDbSymbolTableRecord
100
AcDbLayerTableRecord
  2
CAM
 70
     4
 62
     7
420
 16777215
  6
Continuous
370
    20
390
5CD
347
603
348
0
1001
QCAD
1000
ScreenBasedLinetypes:1
  0
LAYER
  5
6A9
330
5C1
100
AcDbSymbolTableRecord
100
AcDbLayerTableRecord
  2
CAM ... GCodeMM
 70
     0
 62
     7
420
 16777215
  6
Continuous
370
    20
390
5CD
347
603
348
0
1001
QCAD
1000
CamLastUpdate:20170516120447634
1000
ScreenBasedLinetypes:1
  0
LAYER
  5
6AA
330
5C1
100
AcDbSymbolTableRecord
100
AcDbLayerTableRecord
  2
CAM ... GCodeMM ... source
 70
     0
 62
     7
420
 16777215
  6
Continuous
370
    20
390
5CD
347
603
348
0
1001
QCAD
1000
ScreenBasedLinetypes:1
  0
ENDTAB
  0
TABLE
  2
STYLE
  5
5C2
330
0
100
AcDbSymbolTable
 70
    15
  0
STYLE
  5
5CF
330
5C2
100
AcDbSymbolTableRecord
100
AcDbTextStyleTableRecord
  2
Standard
 70
     0
 40
0.0
 41
1.0
 50
0.0
 71
     0
 42
0.2
  3
txt
  4

  0
STYLE
  5
66A
330
5C2
100
AcDbSymbolTableRecord
100
AcDbTextStyleTableRecord
  2
QCADDimTextStyle
 70
     0
 40
0.0
 41
1.0
 50
0.0
 71
     0
 42
0.2
  3

  4

  0
STYLE
  5
66C
330
5C2
100
AcDbSymbolTableRecord
100
AcDbTextStyleTableRecord
  2
textstyle0
 70
     0
 40
0.0
 41
1.0
 50
0.0
 71
     0
 42
0.2
  3
ltypeshp.shx
  4

  0
STYLE
  5
66F
330
5C2
100
AcDbSymbolTableRecord
100
AcDbTextStyleTableRecord
  2
textstyle1
 70
     0
 40
0.0
 41
1.0
 50
0.0
 71
     0
 42
0.2
  3
ltypeshp.shx
  4

  0
STYLE
  5
670
330
5C2
100
AcDbSymbolTableRecord
100
AcDbTextStyleTableRecord
  2
textstyle2
 70
     0
 40
0.0
 41
1.0
 50
0.0
 71
     0
 42
0.2
  3
ltypeshp.shx
  4

  0
STYLE
  5
672
330
5C2
100
AcDbSymbolTableRecord
100
AcDbTextStyleTableRecord
  2
textstyle3
 70
     0
 40
0.0
 41
1.0
 50
0.0
 71
     0
 42
0.2
  3
STANDARD
  4

  0
STYLE
  5
677
330
5C2
100
AcDbSymbolTableRecord
100
AcDbTextStyleTableRecord
  2
textstyle4
 70
     0
 40
0.0
 41
1.0
 50
0.0
 71
     0
 42
0.2
  3
STANDARD
  4

  0
STYLE
  5
679
330
5C2
100
AcDbSymbolTableRecord
100
AcDbTextStyleTableRecord
  2
textstyle5
 70
     0
 40
0.0
 41
1.0
 50
0.0
 71
     0
 42
0.2
  3
ltypeshp.shx
  4

  0
STYLE
  5
67D
330
5C2
100
AcDbSymbolTableRecord
100
AcDbTextStyleTableRecord
  2
textstyle6
 70
     0
 40
0.0
 41
1.0
 50
0.0
 71
     0
 42
0.2
  3
qcadshp.shx
  4

  0
STYLE
  5
680
330
5C2
100
AcDbSymbolTableRecord
100
AcDbTextStyleTableRecord
  2
textstyle7
 70
     0
 40
0.0
 41
1.0
 50
0.0
 71
     0
 42
0.2
  3
ltypeshp.shx
  4

  0
STYLE
  5
682
330
5C2
100
AcDbSymbolTableRecord
100
AcDbTextStyleTableRecord
  2
textstyle8
 70
     0
 40
0.0
 41
1.0
 50
0.0
 71
     0
 42
0.2
  3
qcadshp.shx
  4

  0
STYLE
  5
697
330
5C2
100
AcDbSymbolTableRecord
100
AcDbTextStyleTableRecord
  2
textstyle9
 70
     0
 40
0.0
 41
1.0
 50
0.0
 71
     0
 42
0.2
  3
ltypeshp.shx
  4

  0
STYLE
  5
698
330
5C2
100
AcDbSymbolTableRecord
100
AcDbTextStyleTableRecord
  2
textstyle10
 70
     0
 40
0.0
 41
1.0
 50
0.0
 71
     0
 42
0.2
  3
ltypeshp.shx
  4

  0
STYLE
  5
6B3
330
5C2
100
AcDbSymbolTableRecord
100
AcDbTextStyleTableRecord
  2
textstyle11
 70
     0
 40
0.0
 41
1.0
 50
0.0
 71
     0
 42
0.2
  3

  4

1001
ACAD
1000
Arial
1071
        0
  0
STYLE
  5
6B4
330
5C2
100
AcDbSymbolTableRecord
100
AcDbTextStyleTableRecord
  2
textstyle12
 70
     0
 40
0.0
 41
1.0
 50
0.0
 71
     0
 42
0.2
  3

  4

1001
ACAD
1000
Arial
1071
        0
  0
ENDTAB
  0
TABLE
  2
VIEW
  5
5C4
330
0
100
AcDbSymbolTable
 70
     0
  0
ENDTAB
  0
TABLE
  2
UCS
  5
5C5
330
0
100
AcDbSymbolTable
 70
     0
  0
ENDTAB
  0
TABLE
  2
APPID
  5
5C7
330
0
100
AcDbSymbolTable
 70
     2
  0
APPID
  5
5D0
330
5C7
100
AcDbSymbolTableRecord
100
AcDbRegAppTableRecord
  2
ACAD
 70
     0
  0
APPID
  5
62B
330
5C7
100
AcDbSymbolTableRecord
100
AcDbRegAppTableRecord
  2
QCAD
 70
     0
  0
ENDTAB
  0
TABLE
  2
DIMSTYLE
  5
5C8
330
0
100
AcDbSymbolTable
 70
     2
100
AcDbDimStyleTable
  0
DIMSTYLE
105
5E4
330
5C8
100
AcDbSymbolTableRecord
100
AcDbDimStyleTableRecord
  2
Standard
 70
     0
178
     0
340
5CF
  0
DIMSTYLE
105
66B
330
5C8
100
AcDbSymbolTableRecord
100
AcDbDimStyleTableRecord
  2
QCADDimStyle
 70
     0
 41
2.5
 42
0.625
 44
1.25
 73
     0
 77
     1
140
2.5
147
0.625
178
     0
340
66A
  0
ENDTAB
  0
TABLE
  2
BLOCK_RECORD
  5
5C0
330
0
100
AcDbSymbolTable
 70
     2
  0
BLOCK_RECORD
  5
5DC
330
5C0
100
AcDbSymbolTableRecord
100
AcDbBlockTableRecord
  2
*Model_Space
340
5DF
 70
     0
280
     1
281
     0
  0
BLOCK_RECORD
  5
5D8
330
5C0
100
AcDbSymbolTableRecord
100
AcDbBlockTableRecord
  2
*Paper_Space
340
5DB
 70
     0
280
     1
281
     0
  0
BLOCK_RECORD
  5
6AB
330
5C0
100
AcDbSymbolTableRecord
100
AcDbBlockTableRecord
  2
CAMTOOLPATH$$GCodeMM$$Profile 1
340
0
102
{BLKREFS
331
164
102
}
 70
     0
280
     1
281
     0
1001
QCAD
1000
CamAddTool:0
1000
CamAllowanceOffset:0
1000
CamDirection:1
1000
CamEditTool:0
1000
CamFeedRate:200
1000
CamLeadInSize:5
1000
CamLeadInType:0
1000
CamLeadOutSize:5
1000
CamLeadOutType:0
1000
CamLockLeadSize:1
1000
CamLockLeadType:1
1000
CamOvercut:0
1000
CamPlungeRate:50
1000
CamProfileToolpathFlag:1
1000
CamSide:0
1000
CamTool:1
1000
CamToolpathOrder:0
1000
CamZClearance:2
1000
CamZCuttingDepth:-0.1
1000
CamZPasses:1
1000
CamZStartDepth:0
1000
ResourceFlag:1
  0
BLOCK_RECORD
  5
6AE
330
5C0
100
AcDbSymbolTableRecord
100
AcDbBlockTableRecord
  2
CAMTOOL$$GCodeMM$$1
340
0
 70
     0
280
     1
281
     0
1001
QCAD
1000
CamDescription:Mill (0mm)
1000
CamDiameter:0
1000
CamFeedRate:200
1000
CamPlungeRate:50
1000
CamSpindleSpeed:2000
1000
CamToolFlag:1
1000
CamToolType:1
1000
ResourceFlag:1
  0
ENDTAB
  0
ENDSEC
  0
SECTION
  2
BLOCKS
  0
BLOCK
  5
5DD
330
5DC
100
AcDbEntity
  8
0
100
AcDbBlockBegin
  2
*Model_Space
 70
     0
 10
0.0
 20
0.0
 30
0.0
  3
*Model_Space
  1

  0
ENDBLK
  5
5DE
330
5DC
100
AcDbEntity
  8
0
100
AcDbBlockEnd
  0
BLOCK
  5
5D9
330
5D8
100
AcDbEntity
 67
     1
  8
0
100
AcDbBlockBegin
  2
*Paper_Space
 70
     0
 10
0.0
 20
0.0
 30
0.0
  3
*Paper_Space
  1

  0
ENDBLK
  5
5DA
330
5D8
100
AcDbEntity
 67
     1
  8
0
100
AcDbBlockEnd
  0
BLOCK
  5
6AC
330
6AB
100
AcDbEntity
  8
0
100
AcDbBlockBegin
  2
CAMTOOLPATH$$GCodeMM$$Profile 1
 70
     0
 10
0.0
 20
0.0
 30
0.0
  3
CAMTOOLPATH$$GCodeMM$$Profile 1
  1

  0
MTEXT
  5
49B
330
6AB
100
AcDbEntity
  8
CAM ... GCodeMM ... source
100
AcDbMText
 10
0.0
 20
10.0
 30
0.0
 40
10.0
 41
0.0
 46
0.0
 71
     1
 72
     1
  1
QCAD/CAM
  7
textstyle11
 73
     1
 44
1.0
1001
QCAD
1000
CamIgnore:1
1000
CamSourceHandle:38
  0
LINE
  5
49C
330
6AB
100
AcDbEntity
  8
CAM ... GCodeMM ... rapid
100
AcDbLine
 10
0.0
 20
0.0
 30
10.0
 11
2.329467939972713
 21
1.828103683492498
 31
10.0
1001
QCAD
1000
CamClosedContour:1
1000
CamContourIndex:0
1000
CamFirst:1
1000
CamFirstSegment:1
1000
CamRapidMove:1
1000
CamTool:1
1000
CamUnknownPosition:1
1000
CamZPass:1
1000
CamZPasses:1
  0
LINE
  5
49D
330
6AB
100
AcDbEntity
  8
CAM ... GCodeMM ... rapid
100
AcDbLine
 10
2.329467939972713
 20
1.828103683492498
 30
10.0
 11
2.329467939972713
 21
1.828103683492498
 31
2.0
1001
QCAD
1000
CamClosedContour:1
1000
CamContourIndex:0
1000
CamFirst:1
1000
CamFirstSegment:1
1000
CamRapidMove:1
1000
CamTool:1
1000
CamToolDownClearance:1
1000
CamZMove:1
1000
CamZPass:1
1000
CamZPasses:1
  0
LINE
  5
49E
330
6AB
100
AcDbEntity
  8
CAM ... GCodeMM ... rapid
100
AcDbLine
 10
2.329467939972713
 20
1.828103683492498
 30
2.0
 11
2.329467939972713
 21
1.828103683492498
 31
2.0
1001
QCAD
1000
CamClosedContour:1
1000
CamContourIndex:0
1000
CamFirst:1
1000
CamFirstSegment:1
1000
CamRapidMove:1
1000
CamTool:1
1000
CamToolDownClearancePass:1
1000
CamZMove:1
1000
CamZPass:1
1000
CamZPasses:1
  0
LINE
  5
49F
330
6AB
100
AcDbEntity
  8
CAM ... GCodeMM ... normal
100
AcDbLine
 10
2.329467939972713
 20
1.828103683492498
 30
2.0
 11
2.329467939972713
 21
1.828103683492498
 31
0.1
1001
QCAD
1000
CamClosedContour:1
1000
CamContourIndex:0
1000
CamDirection:1
1000
CamFeedRate:50
1000
CamFirst:1
1000
CamFirstSegment:1
1000
CamTool:1
1000
CamToolDown:1
1000
CamZMove:1
1000
CamZPass:1
1000
CamZPasses:1
  0
ARC
  5
4A0
330
6AB
100
AcDbEntity
  8
CAM ... GCodeMM ... normal
100
AcDbCircle
 10
4.827308179093074
 20
4.138197760848903
 30
0.1
 40
3.402313992918056
100
AcDbArc
 50
222.7637797507054
 51
234.7333598250271
1001
QCAD
1000
CamClosedContour:1
1000
CamContourIndex:0
1000
CamDirection:1
1000
CamFeedRate:200
1000
CamFirst:1
1000
CamFirstSegment:1
1000
CamTool:1
1000
CamZPass:1
1000
CamZPasses:1
  0
ARC
  5
4A1
330
6AB
100
AcDbEntity
  8
CAM ... GCodeMM ... normal
100
AcDbCircle
 10
4.604666507404917
 20
3.823361122832913
 30
0.1
 40
3.016708725047778
100
AcDbArc
 50
234.7333598250271
 51
247.4479059766951
1001
QCAD
1000
CamClosedContour:1
1000
CamContourIndex:0
1000
CamDirection:1
1000
CamFeedRate:200
1000
CamFirst:1
1000
CamTool:1
1000
CamZPass:1
1000
CamZPasses:1
  0
ARC
  5
4A2
330
6AB
100
AcDbEntity
  8
CAM ... GCodeMM ... normal
100
AcDbCircle
 10
4.646668767701167
 20
3.924503349775856
 30
0.1
 40
3.126225572797207
100
AcDbArc
 50
247.4479059766952
 51
259.3721187785835
1001
QCAD
1000
CamClosedContour:1
1000
CamContourIndex:0
1000
CamDirection:1
1000
CamFeedRate:200
1000
CamFirst:1
1000
CamTool:1
1000
CamZPass:1
1000
CamZPasses:1
  0
ARC
  5
4A3
330
6AB
100
AcDbEntity
  8
CAM ... GCodeMM ... normal
100
AcDbCircle
 10
4.795361527967258
 20
4.716903311519588
 30
0.1
 40
3.932455835394076
100
AcDbArc
 50
259.3721187785835
 51
270.0
1001
QCAD
1000
CamClosedContour:1
1000
CamContourIndex:0
1000
CamDirection:1
1000
CamFeedRate:200
1000
CamFirst:1
1000
CamTool:1
1000
CamZPass:1
1000
CamZPasses:1
  0
ARC
  5
4A4
330
6AB
100
AcDbEntity
  8
CAM ... GCodeMM ... normal
100
AcDbCircle
 10
4.795361527967259
 20
4.34824951545941
 30
0.1
 40
3.563802039333899
100
AcDbArc
 50
269.9999999999999
 51
281.2537050342556
1001
QCAD
1000
CamClosedContour:1
1000
CamContourIndex:0
1000
CamDirection:1
1000
CamFeedRate:200
1000
CamTool:1
1000
CamZPass:1
1000
CamZPasses:1
  0
ARC
  5
4A5
330
6AB
100
AcDbEntity
  8
CAM ... GCodeMM ... normal
100
AcDbCircle
 10
4.849320612058428
 20
4.0770705287448
 30
0.1
 40
3.287306785140413
100
AcDbArc
 50
281.2537050342557
 51
292.9727213308287
1001
QCAD
1000
CamClosedContour:1
1000
CamContourIndex:0
1000
CamDirection:1
1000
CamFeedRate:200
1000
CamTool:1
1000
CamZPass:1
1000
CamZPasses:1
  0
ARC
  5
4A6
330
6AB
100
AcDbEntity
  8
CAM ... GCodeMM ... normal
100
AcDbCircle
 10
3.682908682975091
 20
-2.727447964471806
 30
0.1
 40
4.502488159652851
100
AcDbArc
 50
57.04257514288493
 51
66.37062226934314
1001
QCAD
1000
CamClosedContour:1
1000
CamContourIndex:0
1000
CamDirection:1
1000
CamFeedRate:200
1000
CamTool:1
1000
CamZPass:1
1000
CamZPasses:1
  0
ARC
  5
4A7
330
6AB
100
AcDbEntity
  8
CAM ... GCodeMM ... normal
100
AcDbCircle
 10
3.827485042101242
 20
-2.396987715040618
 30
0.1
 40
4.141785650551102
100
AcDbArc
 50
66.37062226934323
 51
76.09731288577954
1001
QCAD
1000
CamClosedContour:1
1000
CamContourIndex:0
1000
CamDirection:1
1000
CamFeedRate:200
1000
CamTool:1
1000
CamZPass:1
1000
CamZPasses:1
  0
LINE
  5
4A8
330
6AB
100
AcDbEntity
  8
CAM ... GCodeMM ... normal
100
AcDbLine
 10
4.822646657571624
 20
1.623465211459753
 30
0.1
 11
5.14324693042292
 21
2.585266030013642
 31
0.1
1001
QCAD
1000
CamClosedContour:1
1000
CamContourIndex:0
1000
CamDirection:1
1000
CamFeedRate:200
1000
CamTool:1
1000
CamZPass:1
1000
CamZPasses:1
  0
ARC
  5
4A9
330
6AB
100
AcDbEntity
  8
CAM ... GCodeMM ... normal
100
AcDbCircle
 10
3.525095285766334
 20
-3.198765380673716
 30
0.1
 40
6.006116391223434
100
AcDbArc
 50
63.18727408530741
 51
74.37040441021935
1001
QCAD
1000
CamClosedContour:1
1000
CamContourIndex:0
1000
CamDirection:1
1000
CamFeedRate:200
1000
CamTool:1
1000
CamZPass:1
1000
CamZPasses:1
1000
reversed:1
  0
ARC
  5
4AA
330
6AB
100
AcDbEntity
  8
CAM ... GCodeMM ... normal
100
AcDbCircle
 10
4.415254715717695
 20
-1.437521365698524
 30
0.1
 40
4.032702017348228
100
AcDbArc
 50
49.52882423693244
 51
63.1872740853074
1001
QCAD
1000
CamClosedContour:1
1000
CamContourIndex:0
1000
CamDirection:1
1000
CamFeedRate:200
1000
CamTool:1
1000
CamZPass:1
1000
CamZPasses:1
1000
reversed:1
  0
ARC
  5
4AB
330
6AB
100
AcDbEntity
  8
CAM ... GCodeMM ... normal
100
AcDbCircle
 10
4.950019693210232
 20
3.913270731398441
 30
0.1
 40
3.090266959969091
100
AcDbArc
 50
312.3735943617093
 51
327.8827531274187
1001
QCAD
1000
CamClosedContour:1
1000
CamContourIndex:0
1000
CamDirection:1
1000
CamFeedRate:200
1000
CamTool:1
1000
CamZPass:1
1000
CamZPasses:1
  0
ARC
  5
4AC
330
6AB
100
AcDbEntity
  8
CAM ... GCodeMM ... normal
100
AcDbCircle
 10
4.417809193566173
 20
4.247349034383639
 30
0.1
 40
3.718642905129985
100
AcDbArc
 50
327.8827531274186
 51
342.0136120548087
1001
QCAD
1000
CamClosedContour:1
1000
CamContourIndex:0
1000
CamDirection:1
1000
CamFeedRate:200
1000
CamTool:1
1000
CamZPass:1
1000
CamZPasses:1
  0
ARC
  5
4AD
330
6AB
100
AcDbEntity
  8
CAM ... GCodeMM ... normal
100
AcDbCircle
 10
3.654074988423615
 20
4.495300735931132
 30
0.1
 40
4.521618609871438
100
AcDbArc
 50
342.0136120548087
 51
351.958846302442
1001
QCAD
1000
CamClosedContour:1
1000
CamContourIndex:0
1000
CamDirection:1
1000
CamFeedRate:200
1000
CamTool:1
1000
CamZPass:1
1000
CamZPasses:1
  0
ARC
  5
4AE
330
6AB
100
AcDbEntity
  8
CAM ... GCodeMM ... normal
100
AcDbCircle
 10
1.288680718831339
 20
4.829467939972714
 30
0.1
 40
6.91050072728053
100
AcDbArc
 50
351.958846302442
 51
0.0
1001
QCAD
1000
CamClosedContour:1
1000
CamContourIndex:0
1000
CamDirection:1
1000
CamFeedRate:200
1000
CamTool:1
1000
CamZPass:1
1000
CamZPasses:1
  0
ARC
  5
4AF
330
6AB
100
AcDbEntity
  8
CAM ... GCodeMM ... normal
100
AcDbCircle
 10
1.970744775539168
 20
4.829467939972717
 30
0.1
 40
6.228436670572701
100
AcDbArc
 50
0.0
 51
11.00847185389003
1001
QCAD
1000
CamClosedContour:1
1000
CamContourIndex:0
1000
CamDirection:1
1000
CamFeedRate:200
1000
CamTool:1
1000
CamZPass:1
1000
CamZPasses:1
  0
ARC
  5
4B0
330
6AB
100
AcDbEntity
  8
CAM ... GCodeMM ... normal
100
AcDbCircle
 10
3.983743195463454
 20
5.221064095617149
 30
0.1
 40
4.177702609868298
100
AcDbArc
 50
11.00847185389003
 51
24.46018128225202
1001
QCAD
1000
CamClosedContour:1
1000
CamContourIndex:0
1000
CamDirection:1
1000
CamFeedRate:200
1000
CamTool:1
1000
CamZPass:1
1000
CamZPasses:1
  0
ARC
  5
4B1
330
6AB
100
AcDbEntity
  8
CAM ... GCodeMM ... normal
100
AcDbCircle
 10
4.655846526525055
 20
5.526795310122608
 30
0.1
 40
3.43932976154092
100
AcDbArc
 50
24.46018128225211
 51
40.60129464500449
1001
QCAD
1000
CamClosedContour:1
1000
CamContourIndex:0
1000
CamDirection:1
1000
CamFeedRate:200
1000
CamTool:1
1000
CamZPass:1
1000
CamZPasses:1
  0
ARC
  5
4B2
330
6AB
100
AcDbEntity
  8
CAM ... GCodeMM ... normal
100
AcDbCircle
 10
4.952289884920766
 20
5.780889617318934
 30
0.1
 40
3.048890801283995
100
AcDbArc
 50
40.60129464500447
 51
57.75211975020764
1001
QCAD
1000
CamClosedContour:1
1000
CamContourIndex:0
1000
CamDirection:1
1000
CamFeedRate:200
1000
CamTool:1
1000
CamZPass:1
1000
CamZPasses:1
  0
ARC
  5
4B3
330
6AB
100
AcDbEntity
  8
CAM ... GCodeMM ... normal
100
AcDbCircle
 10
4.889927883435589
 20
5.682043723808416
 30
0.1
 40
3.165764792801056
100
AcDbArc
 50
57.75211975020763
 51
74.30088026927083
1001
QCAD
1000
CamClosedContour:1
1000
CamContourIndex:0
1000
CamDirection:1
1000
CamFeedRate:200
1000
CamTool:1
1000
CamZPass:1
1000
CamZPasses:1
  0
ARC
  5
4B4
330
6AB
100
AcDbEntity
  8
CAM ... GCodeMM ... normal
100
AcDbCircle
 10
4.795361527967261
 20
5.345593357074137
 30
0.1
 40
3.515252481943597
100
AcDbArc
 50
74.30088026927093
 51
90.00000000000006
1001
QCAD
1000
CamClosedContour:1
1000
CamContourIndex:0
1000
CamDirection:1
1000
CamFeedRate:200
1000
CamTool:1
1000
CamZPass:1
1000
CamZPasses:1
  0
ARC
  5
4B5
330
6AB
100
AcDbEntity
  8
CAM ... GCodeMM ... normal
100
AcDbCircle
 10
4.795361527967255
 20
4.902201308151009
 30
0.1
 40
3.958644530866726
100
AcDbArc
 50
89.99999999999997
 51
100.4310667790594
1001
QCAD
1000
CamClosedContour:1
1000
CamContourIndex:0
1000
CamDirection:1
1000
CamFeedRate:200
1000
CamTool:1
1000
CamZPass:1
1000
CamZPasses:1
  0
ARC
  5
4B6
330
6AB
100
AcDbEntity
  8
CAM ... GCodeMM ... normal
100
AcDbCircle
 10
4.655050008411457
 20
5.664370889559027
 30
0.1
 40
3.183667245171377
100
AcDbArc
 50
100.4310667790595
 51
112.0665583632763
1001
QCAD
1000
CamClosedContour:1
1000
CamContourIndex:0
1000
CamDirection:1
1000
CamFeedRate:200
1000
CamTool:1
1000
CamZPass:1
1000
CamZPasses:1
  0
ARC
  5
4B7
330
6AB
100
AcDbEntity
  8
CAM ... GCodeMM ... normal
100
AcDbCircle
 10
4.615917903605336
 20
5.760903237931657
 30
0.1
 40
3.079504795560722
100
AcDbArc
 50
112.0665583632764
 51
124.4189126159427
1001
QCAD
1000
CamClosedContour:1
1000
CamContourIndex:0
1000
CamDirection:1
1000
CamFeedRate:200
1000
CamTool:1
1000
CamZPass:1
1000
CamZPasses:1
  0
ARC
  5
4B8
330
6AB
100
AcDbEntity
  8
CAM ... GCodeMM ... normal
100
AcDbCircle
 10
4.827274546053204
 20
5.45244311562416
 30
0.1
 40
3.453428955465899
100
AcDbArc
 50
124.4189126159425
 51
136.0809241866605
1001
QCAD
1000
CamClosedContour:1
1000
CamContourIndex:0
1000
CamDirection:1
1000
CamFeedRate:200
1000
CamTool:1
1000
CamZPass:1
1000
CamZPasses:1
  0
ARC
  5
4B9
330
6AB
100
AcDbEntity
  8
CAM ... GCodeMM ... normal
100
AcDbCircle
 10
4.403074909145927
 20
5.860931654868224
 30
0.1
 40
2.864524702937515
100
AcDbArc
 50
136.0809241866608
 51
151.1958077939197
1001
QCAD
1000
CamClosedContour:1
1000
CamContourIndex:0
1000
CamDirection:1
1000
CamFeedRate:200
1000
CamTool:1
1000
CamZPass:1
1000
CamZPasses:1
  0
ARC
  5
4BA
330
6AB
100
AcDbEntity
  8
CAM ... GCodeMM ... normal
100
AcDbCircle
 10
5.248173181961183
 20
5.396254422513223
 30
0.1
 40
3.828949931239031
100
AcDbArc
 50
151.1958077939197
 51
164.2596927925112
1001
QCAD
1000
CamClosedContour:1
1000
CamContourIndex:0
1000
CamDirection:1
1000
CamFeedRate:200
1000
CamTool:1
1000
CamZPass:1
1000
CamZPasses:1
  0
ARC
  5
4BB
330
6AB
100
AcDbEntity
  8
CAM ... GCodeMM ... normal
100
AcDbCircle
 10
6.160967507651497
 20
5.138986491029788
 30
0.1
 40
4.777306546433021
100
AcDbArc
 50
164.2596927925113
 51
172.9796791452688
1001
QCAD
1000
CamClosedContour:1
1000
CamContourIndex:0
1000
CamDirection:1
1000
CamFeedRate:200
1000
CamTool:1
1000
CamZPass:1
1000
CamZPasses:1
  0
ARC
  5
4BC
330
6AB
100
AcDbEntity
  8
CAM ... GCodeMM ... normal
100
AcDbCircle
 10
8.729816330468296
 20
4.822646657571606
 30
0.1
 40
7.365559850250018
100
AcDbArc
 50
172.9796791452687
 51
180.0
1001
QCAD
1000
CamClosedContour:1
1000
CamContourIndex:0
1000
CamDirection:1
1000
CamFeedRate:200
1000
CamTool:1
1000
CamZPass:1
1000
CamZPasses:1
  0
ARC
  5
4BD
330
6AB
100
AcDbEntity
  8
CAM ... GCodeMM ... normal
100
AcDbCircle
 10
8.406269771556104
 20
4.822646657571623
 30
0.1
 40
7.042013291337822
100
AcDbArc
 50
180.0
 51
187.2091861848579
1001
QCAD
1000
CamClosedContour:1
1000
CamContourIndex:0
1000
CamDirection:1
1000
CamFeedRate:200
1000
CamLast:1
1000
CamTool:1
1000
CamZPass:1
1000
CamZPasses:1
  0
ARC
  5
4BE
330
6AB
100
AcDbEntity
  8
CAM ... GCodeMM ... normal
100
AcDbCircle
 10
6.100317085792001
 20
4.530961468691298
 30
0.1
 40
4.717685853476532
100
AcDbArc
 50
187.2091861848578
 51
196.019910735652
1001
QCAD
1000
CamClosedContour:1
1000
CamContourIndex:0
1000
CamDirection:1
1000
CamFeedRate:200
1000
CamLast:1
1000
CamTool:1
1000
CamZPass:1
1000
CamZPasses:1
  0
ARC
  5
4BF
330
6AB
100
AcDbEntity
  8
CAM ... GCodeMM ... normal
100
AcDbCircle
 10
5.299740963885647
 20
4.301098848295871
 30
0.1
 40
3.884763917625595
100
AcDbArc
 50
196.0199107356521
 51
208.5945662983324
1001
QCAD
1000
CamClosedContour:1
1000
CamContourIndex:0
1000
CamDirection:1
1000
CamFeedRate:200
1000
CamLast:1
1000
CamTool:1
1000
CamZPass:1
1000
CamZPasses:1
  0
ARC
  5
4C0
330
6AB
100
AcDbEntity
  8
CAM ... GCodeMM ... normal
100
AcDbCircle
 10
4.578140247242667
 20
3.907758137601625
 30
0.1
 40
3.062921774054752
100
AcDbArc
 50
208.5945662983323
 51
222.7637797507053
1001
QCAD
1000
CamClosedContour:1
1000
CamContourIndex:0
1000
CamDirection:1
1000
CamFeedRate:200
1000
CamLast:1
1000
CamLastSegment:1
1000
CamTool:1
1000
CamZPass:1
1000
CamZPasses:1
  0
LINE
  5
4C1
330
6AB
100
AcDbEntity
  8
CAM ... GCodeMM ... normal
100
AcDbLine
 10
2.329467939972712
 20
1.828103683492498
 30
0.1
 11
2.329467939972712
 21
1.828103683492498
 31
2.0
1001
QCAD
1000
CamContourIndex:0
1000
CamDirection:1
1000
CamFeedRate:200
1000
CamTool:1
1000
CamToolUp:1
1000
CamZMove:1
1000
CamZPass:1
1000
CamZPasses:1
  0
LINE
  5
4C2
330
6AB
100
AcDbEntity
  8
CAM ... GCodeMM ... rapid
100
AcDbLine
 10
2.329467939972712
 20
1.828103683492498
 30
2.0
 11
0.5968622100954972
 21
2.148703956343793
 31
2.0
1001
QCAD
1000
CamClosedContour:1
1000
CamContourIndex:0
1000
CamFirst:1
1000
CamFirstSegment:1
1000
CamRapidMove:1
1000
CamTool:1
1000
CamZPass:1
1000
CamZPasses:1
  0
LINE
  5
4C3
330
6AB
100
AcDbEntity
  8
CAM ... GCodeMM ... rapid
100
AcDbLine
 10
0.5968622100954972
 20
2.148703956343793
 30
2.0
 11
0.5968622100954972
 21
2.148703956343793
 31
2.0
1001
QCAD
1000
CamClosedContour:1
1000
CamContourIndex:0
1000
CamFirst:1
1000
CamFirstSegment:1
1000
CamRapidMove:1
1000
CamTool:1
1000
CamToolDownClearance:1
1000
CamZMove:1
1000
CamZPass:1
1000
CamZPasses:1
  0
LINE
  5
4C4
330
6AB
100
AcDbEntity
  8
CAM ... GCodeMM ... rapid
100
AcDbLine
 10
0.5968622100954972
 20
2.148703956343793
 30
2.0
 11
0.5968622100954972
 21
2.148703956343793
 31
2.0
1001
QCAD
1000
CamClosedContour:1
1000
CamContourIndex:0
1000
CamFirst:1
1000
CamFirstSegment:1
1000
CamRapidMove:1
1000
CamTool:1
1000
CamToolDownClearancePass:1
1000
CamZMove:1
1000
CamZPass:1
1000
CamZPasses:1
  0
LINE
  5
4C5
330
6AB
100
AcDbEntity
  8
CAM ... GCodeMM ... normal
100
AcDbLine
 10
0.5968622100954972
 20
2.148703956343793
 30
2.0
 11
0.5968622100954972
 21
2.148703956343793
 31
0.1
1001
QCAD
1000
CamClosedContour:1
1000
CamContourIndex:0
1000
CamDirection:1
1000
CamFeedRate:50
1000
CamFirst:1
1000
CamFirstSegment:1
1000
CamTool:1
1000
CamToolDown:1
1000
CamZMove:1
1000
CamZPass:1
1000
CamZPasses:1
  0
ARC
  5
4C6
330
6AB
100
AcDbEntity
  8
CAM ... GCodeMM ... normal
100
AcDbCircle
 10
5.325396968570502
 20
4.526559079140128
 30
0.1
 40
5.292753153805214
100
AcDbArc
 50
192.582962494077
 51
206.6966141594303
1001
QCAD
1000
CamClosedContour:1
1000
CamContourIndex:0
1000
CamDirection:1
1000
CamFeedRate:200
1000
CamFirst:1
1000
CamFirstSegment:1
1000
CamTool:1
1000
CamZPass:1
1000
CamZPasses:1
1000
reversed:1
  0
ARC
  5
4C7
330
6AB
100
AcDbEntity
  8
CAM ... GCodeMM ... normal
100
AcDbCircle
 10
6.651869319943597
 20
4.822646657571624
 30
0.1
 40
6.651869319943597
100
AcDbArc
 50
180.0
 51
192.5829624940769
1001
QCAD
1000
CamClosedContour:1
1000
CamContourIndex:0
1000
CamDirection:1
1000
CamFeedRate:200
1000
CamFirst:1
1000
CamTool:1
1000
CamZPass:1
1000
CamZPasses:1
1000
reversed:1
  0
ARC
  5
4C8
330
6AB
100
AcDbEntity
  8
CAM ... GCodeMM ... normal
100
AcDbCircle
 10
6.636387150643323
 20
4.822646657571625
 30
0.1
 40
6.636387150643322
100
AcDbArc
 50
167.4404789303419
 51
180.0
1001
QCAD
1000
CamClosedContour:1
1000
CamContourIndex:0
1000
CamDirection:1
1000
CamFeedRate:200
1000
CamTool:1
1000
CamZPass:1
1000
CamZPasses:1
1000
reversed:1
  0
ARC
  5
4C9
330
6AB
100
AcDbEntity
  8
CAM ... GCodeMM ... normal
100
AcDbCircle
 10
5.569587369269209
 20
5.060313444308132
 30
0.1
 40
5.543433686374367
100
AcDbArc
 50
153.6930361742582
 51
167.4404789303418
1001
QCAD
1000
CamClosedContour:1
1000
CamContourIndex:0
1000
CamDirection:1
1000
CamFeedRate:200
1000
CamTool:1
1000
CamZPass:1
1000
CamZPasses:1
1000
reversed:1
  0
ARC
  5
4CA
330
6AB
100
AcDbEntity
  8
CAM ... GCodeMM ... normal
100
AcDbCircle
 10
4.709057029549854
 20
5.485744174057029
 30
0.1
 40
4.583483806749295
100
AcDbArc
 50
137.251119926697
 51
153.6930361742583
1001
QCAD
1000
CamClosedContour:1
1000
CamContourIndex:0
1000
CamDirection:1
1000
CamFeedRate:200
1000
CamTool:1
1000
CamZPass:1
1000
CamZPasses:1
1000
reversed:1
  0
ARC
  5
4CB
330
6AB
100
AcDbEntity
  8
CAM ... GCodeMM ... normal
100
AcDbCircle
 10
4.327792760941081
 20
5.838167418656654
 30
0.1
 40
4.064287710989793
100
AcDbArc
 50
119.7828380847073
 51
137.2511199266971
1001
QCAD
1000
CamClosedContour:1
1000
CamContourIndex:0
1000
CamDirection:1
1000
CamFeedRate:200
1000
CamTool:1
1000
CamZPass:1
1000
CamZPasses:1
1000
reversed:1
  0
ARC
  5
4CC
330
6AB
100
AcDbEntity
  8
CAM ... GCodeMM ... normal
100
AcDbCircle
 10
4.610165568815249
 20
5.344774071564685
 30
0.1
 40
4.632769370835876
100
AcDbArc
 50
104.3510522753155
 51
119.7828380847072
1001
QCAD
1000
CamClosedContour:1
1000
CamContourIndex:0
1000
CamDirection:1
1000
CamFeedRate:200
1000
CamTool:1
1000
CamZPass:1
1000
CamZPasses:1
1000
reversed:1
  0
ARC
  5
4CD
330
6AB
100
AcDbEntity
  8
CAM ... GCodeMM ... normal
100
AcDbCircle
 10
4.788540245566175
 20
4.647578426414632
 30
0.1
 40
5.352421573585367
100
AcDbArc
 50
90.00000000000009
 51
104.3510522753157
1001
QCAD
1000
CamClosedContour:1
1000
CamContourIndex:0
1000
CamDirection:1
1000
CamFeedRate:200
1000
CamTool:1
1000
CamZPass:1
1000
CamZPasses:1
1000
reversed:1
  0
ARC
  5
4CE
330
6AB
100
AcDbEntity
  8
CAM ... GCodeMM ... normal
100
AcDbCircle
 10
4.788540245566166
 20
4.754784610136141
 30
0.1
 40
5.24521538986386
100
AcDbArc
 50
75.22947082002234
 51
90.0
1001
QCAD
1000
CamClosedContour:1
1000
CamContourIndex:0
1000
CamDirection:1
1000
CamFeedRate:200
1000
CamTool:1
1000
CamZPass:1
1000
CamZPasses:1
1000
reversed:1
  0
ARC
  5
4CF
330
6AB
100
AcDbEntity
  8
CAM ... GCodeMM ... normal
100
AcDbCircle
 10
4.96439114506365
 20
5.421742425846801
 30
0.1
 40
4.555464516873031
100
AcDbArc
 50
59.37342614561138
 51
75.22947082002236
1001
QCAD
1000
CamClosedContour:1
1000
CamContourIndex:0
1000
CamDirection:1
1000
CamFeedRate:200
1000
CamTool:1
1000
CamZPass:1
1000
CamZPasses:1
1000
reversed:1
  0
ARC
  5
4D0
330
6AB
100
AcDbEntity
  8
CAM ... GCodeMM ... normal
100
AcDbCircle
 10
5.096653710415406
 20
5.645149660586037
 30
0.1
 40
4.295841369354828
100
AcDbArc
 50
42.62554684016285
 51
59.37342614561138
1001
QCAD
1000
CamClosedContour:1
1000
CamContourIndex:0
1000
CamDirection:1
1000
CamFeedRate:200
1000
CamTool:1
1000
CamZPass:1
1000
CamZPasses:1
1000
reversed:1
  0
ARC
  5
4D1
330
6AB
100
AcDbEntity
  8
CAM ... GCodeMM ... normal
100
AcDbCircle
 10
4.958777602977776
 20
5.518252576518439
 30
0.1
 40
4.483225175877729
100
AcDbArc
 50
26.23386538866269
 51
42.62554684016288
1001
QCAD
1000
CamClosedContour:1
1000
CamContourIndex:0
1000
CamDirection:1
1000
CamFeedRate:200
1000
CamTool:1
1000
CamZPass:1
1000
CamZPasses:1
1000
reversed:1
  0
ARC
  5
4D2
330
6AB
100
AcDbEntity
  8
CAM ... GCodeMM ... normal
100
AcDbCircle
 10
4.194757712000804
 20
5.141747097103297
 30
0.1
 40
5.33497793920644
100
AcDbArc
 50
12.31944525663647
 51
26.23386538866243
1001
QCAD
1000
CamClosedContour:1
1000
CamContourIndex:0
1000
CamDirection:1
1000
CamFeedRate:200
1000
CamTool:1
1000
CamZPass:1
1000
CamZPasses:1
1000
reversed:1
  0
ARC
  5
4D3
330
6AB
100
AcDbEntity
  8
CAM ... GCodeMM ... normal
100
AcDbCircle
 10
2.764847887245017
 20
4.829467939972718
 30
0.1
 40
6.798590039085131
100
AcDbArc
 50
0.0
 51
12.31944525663656
1001
QCAD
1000
CamClosedContour:1
1000
CamContourIndex:0
1000
CamDirection:1
1000
CamFeedRate:200
1000
CamTool:1
1000
CamZPass:1
1000
CamZPasses:1
1000
reversed:1
  0
ARC
  5
4D4
330
6AB
100
AcDbEntity
  8
CAM ... GCodeMM ... normal
100
AcDbCircle
 10
2.26554055418201
 20
4.829467939972715
 30
0.1
 40
7.297897372148138
100
AcDbArc
 50
350.4092761106097
 51
0.0
1001
QCAD
1000
CamClosedContour:1
1000
CamContourIndex:0
1000
CamDirection:1
1000
CamFeedRate:200
1000
CamTool:1
1000
CamZPass:1
1000
CamZPasses:1
1000
reversed:1
  0
ARC
  5
4D5
330
6AB
100
AcDbEntity
  8
CAM ... GCodeMM ... normal
100
AcDbCircle
 10
4.224513137173578
 20
4.498458747762164
 30
0.1
 40
5.311156154414804
100
AcDbArc
 50
339.1620323267855
 51
350.4092761106095
1001
QCAD
1000
CamClosedContour:1
1000
CamContourIndex:0
1000
CamDirection:1
1000
CamFeedRate:200
1000
CamTool:1
1000
CamZPass:1
1000
CamZPasses:1
1000
reversed:1
  0
ARC
  5
4D6
330
6AB
100
AcDbEntity
  8
CAM ... GCodeMM ... normal
100
AcDbCircle
 10
4.834661756514978
 20
4.251224721470739
 30
0.1
 40
4.652990713402564
100
AcDbArc
 50
313.8125750579516
 51
339.334628822922
1001
QCAD
1000
CamClosedContour:1
1000
CamContourIndex:0
1000
CamDirection:1
1000
CamFeedRate:200
1000
CamTool:1
1000
CamZPass:1
1000
CamZPasses:1
1000
reversed:1
  0
ARC
  5
4D7
330
6AB
100
AcDbEntity
  8
CAM ... GCodeMM ... normal
100
AcDbCircle
 10
14.16827073977254
 20
9.766334126277197
 30
0.1
 40
10.77433422696962
100
AcDbArc
 50
235.4374753511181
 51
241.3573064249106
1001
QCAD
1000
CamClosedContour:1
1000
CamContourIndex:0
1000
CamDirection:1
1000
CamFeedRate:200
1000
CamTool:1
1000
CamZPass:1
1000
CamZPasses:1
  0
ARC
  5
4D8
330
6AB
100
AcDbEntity
  8
CAM ... GCodeMM ... normal
100
AcDbCircle
 10
11.8503322102684
 20
5.522461377405656
 30
0.1
 40
5.938706559833296
100
AcDbArc
 50
241.3573064249107
 51
249.3338765690468
1001
QCAD
1000
CamClosedContour:1
1000
CamContourIndex:0
1000
CamDirection:1
1000
CamFeedRate:200
1000
CamTool:1
1000
CamZPass:1
1000
CamZPasses:1
  0
LINE
  5
4D9
330
6AB
100
AcDbEntity
  8
CAM ... GCodeMM ... normal
100
AcDbLine
 10
9.75443383356071
 20
-0.0341064120054573
 30
0.1
 11
9.3656207366985
 21
-0.9549795361527984
 31
0.1
1001
QCAD
1000
CamClosedContour:1
1000
CamContourIndex:0
1000
CamDirection:1
1000
CamFeedRate:200
1000
CamTool:1
1000
CamZPass:1
1000
CamZPasses:1
  0
ARC
  5
4DA
330
6AB
100
AcDbEntity
  8
CAM ... GCodeMM ... normal
100
AcDbCircle
 10
11.59439132559217
 20
5.223016131306844
 30
0.1
 40
6.567727826658739
100
AcDbArc
 50
240.2551187030578
 51
250.1626097954526
1001
QCAD
1000
CamClosedContour:1
1000
CamContourIndex:0
1000
CamDirection:1
1000
CamFeedRate:200
1000
CamTool:1
1000
CamZPass:1
1000
CamZPasses:1
1000
reversed:1
  0
ARC
  5
4DB
330
6AB
100
AcDbEntity
  8
CAM ... GCodeMM ... normal
100
AcDbCircle
 10
12.94019782971076
 20
7.578177513514373
 30
0.1
 40
9.28028755554391
100
AcDbArc
 50
231.9234489148105
 51
240.2551187030578
1001
QCAD
1000
CamClosedContour:1
1000
CamContourIndex:0
1000
CamDirection:1
1000
CamFeedRate:200
1000
CamTool:1
1000
CamZPass:1
1000
CamZPasses:1
1000
reversed:1
  0
ARC
  5
4DC
330
6AB
100
AcDbEntity
  8
CAM ... GCodeMM ... normal
100
AcDbCircle
 10
4.896130949660535
 20
4.429863278495874
 30
0.1
 40
4.760965815273428
100
AcDbArc
 50
284.1859381750344
 51
299.1738459238273
1001
QCAD
1000
CamClosedContour:1
1000
CamContourIndex:0
1000
CamDirection:1
1000
CamFeedRate:200
1000
CamTool:1
1000
CamZPass:1
1000
CamZPasses:1
1000
reversed:1
  0
ARC
  5
4DD
330
6AB
100
AcDbEntity
  8
CAM ... GCodeMM ... normal
100
AcDbCircle
 10
4.761255115961807
 20
4.963438005216117
 30
0.1
 40
5.31132340767178
100
AcDbArc
 50
269.9999999999999
 51
284.1859381750344
1001
QCAD
1000
CamClosedContour:1
1000
CamContourIndex:0
1000
CamDirection:1
1000
CamFeedRate:200
1000
CamTool:1
1000
CamZPass:1
1000
CamZPasses:1
1000
reversed:1
  0
ARC
  5
4DE
330
6AB
100
AcDbEntity
  8
CAM ... GCodeMM ... normal
100
AcDbCircle
 10
4.761255115961799
 20
4.75140912809488
 30
0.1
 40
5.099294530550543
100
AcDbArc
 50
255.1081039602838
 51
270.0
1001
QCAD
1000
CamClosedContour:1
1000
CamContourIndex:0
1000
CamDirection:1
1000
CamFeedRate:200
1000
CamTool:1
1000
CamZPass:1
1000
CamZPasses:1
1000
reversed:1
  0
ARC
  5
4DF
330
6AB
100
AcDbEntity
  8
CAM ... GCodeMM ... normal
100
AcDbCircle
 10
4.621832508204179
 20
4.227122030173014
 30
0.1
 40
4.556785890433845
100
AcDbArc
 50
239.3493320429473
 51
255.1081039602838
1001
QCAD
1000
CamClosedContour:1
1000
CamContourIndex:0
1000
CamDirection:1
1000
CamFeedRate:200
1000
CamTool:1
1000
CamZPass:1
1000
CamZPasses:1
1000
reversed:1
  0
ARC
  5
4E0
330
6AB
100
AcDbEntity
  8
CAM ... GCodeMM ... normal
100
AcDbCircle
 10
4.495773815484679
 20
4.014397986208837
 30
0.1
 40
4.309516173544325
100
AcDbArc
 50
222.7402225540617
 51
239.3493320429471
1001
QCAD
1000
CamClosedContour:1
1000
CamContourIndex:0
1000
CamDirection:1
1000
CamFeedRate:200
1000
CamLast:1
1000
CamTool:1
1000
CamZPass:1
1000
CamZPasses:1
1000
reversed:1
  0
ARC
  5
4E1
330
6AB
100
AcDbEntity
  8
CAM ... GCodeMM ... normal
100
AcDbCircle
 10
4.721237791341755
 20
4.222743400936022
 30
0.1
 40
4.616504473398121
100
AcDbArc
 50
206.6966141594303
 51
222.7402225540617
1001
QCAD
1000
CamClosedContour:1
1000
CamContourIndex:0
1000
CamDirection:1
1000
CamFeedRate:200
1000
CamLast:1
1000
CamLastSegment:1
1000
CamTool:1
1000
CamZPass:1
1000
CamZPasses:1
1000
reversed:1
  0
LINE
  5
4E2
330
6AB
100
AcDbEntity
  8
CAM ... GCodeMM ... normal
100
AcDbLine
 10
0.5968622100954963
 20
2.148703956343792
 30
0.1
 11
0.5968622100954963
 21
2.148703956343792
 31
2.0
1001
QCAD
1000
CamContourIndex:0
1000
CamDirection:1
1000
CamFeedRate:200
1000
CamTool:1
1000
CamToolUp:1
1000
CamZMove:1
1000
CamZPass:1
1000
CamZPasses:1
  0
LINE
  5
4E3
330
6AB
100
AcDbEntity
  8
CAM ... GCodeMM ... rapid
100
AcDbLine
 10
0.5968622100954963
 20
2.148703956343792
 30
2.0
 11
10.96152796725785
 21
4.897680763983637
 31
2.0
1001
QCAD
1000
CamClosedContour:1
1000
CamContourIndex:1
1000
CamFirst:1
1000
CamFirstSegment:1
1000
CamRapidMove:1
1000
CamTool:1
1000
CamZPass:1
1000
CamZPasses:1
  0
LINE
  5
4E4
330
6AB
100
AcDbEntity
  8
CAM ... GCodeMM ... rapid
100
AcDbLine
 10
10.96152796725785
 20
4.897680763983637
 30
2.0
 11
10.96152796725785
 21
4.897680763983637
 31
2.0
1001
QCAD
1000
CamClosedContour:1
1000
CamContourIndex:1
1000
CamFirst:1
1000
CamFirstSegment:1
1000
CamRapidMove:1
1000
CamTool:1
1000
CamToolDownClearance:1
1000
CamZMove:1
1000
CamZPass:1
1000
CamZPasses:1
  0
LINE
  5
4E5
330
6AB
100
AcDbEntity
  8
CAM ... GCodeMM ... rapid
100
AcDbLine
 10
10.96152796725785
 20
4.897680763983637
 30
2.0
 11
10.96152796725785
 21
4.897680763983637
 31
2.0
1001
QCAD
1000
CamClosedContour:1
1000
CamContourIndex:1
1000
CamFirst:1
1000
CamFirstSegment:1
1000
CamRapidMove:1
1000
CamTool:1
1000
CamToolDownClearancePass:1
1000
CamZMove:1
1000
CamZPass:1
1000
CamZPasses:1
  0
LINE
  5
4E6
330
6AB
100
AcDbEntity
  8
CAM ... GCodeMM ... normal
100
AcDbLine
 10
10.96152796725785
 20
4.897680763983637
 30
2.0
 11
10.96152796725785
 21
4.897680763983637
 31
0.1
1001
QCAD
1000
CamClosedContour:1
1000
CamContourIndex:1
1000
CamDirection:1
1000
CamFeedRate:50
1000
CamFirst:1
1000
CamFirstSegment:1
1000
CamTool:1
1000
CamToolDown:1
1000
CamZMove:1
1000
CamZPass:1
1000
CamZPasses:1
  0
ARC
  5
4E7
330
6AB
100
AcDbEntity
  8
CAM ... GCodeMM ... normal
100
AcDbCircle
 10
18.07651411714846
 20
4.897680763983636
 30
0.1
 40
7.114986149890613
100
AcDbArc
 50
167.6459434965978
 51
180.0
1001
QCAD
1000
CamClosedContour:1
1000
CamContourIndex:1
1000
CamDirection:1
1000
CamFeedRate:200
1000
CamFirst:1
1000
CamFirstSegment:1
1000
CamTool:1
1000
CamZPass:1
1000
CamZPasses:1
1000
reversed:1
  0
ARC
  5
4E8
330
6AB
100
AcDbEntity
  8
CAM ... GCodeMM ... normal
100
AcDbCircle
 10
15.96899038558108
 20
5.359278577530925
 30
0.1
 40
4.957504094208262
100
AcDbArc
 50
152.83326497231
 51
167.6459434965977
1001
QCAD
1000
CamClosedContour:1
1000
CamContourIndex:1
1000
CamDirection:1
1000
CamFeedRate:200
1000
CamFirst:1
1000
CamTool:1
1000
CamZPass:1
1000
CamZPasses:1
1000
reversed:1
  0
ARC
  5
4E9
330
6AB
100
AcDbEntity
  8
CAM ... GCodeMM ... normal
100
AcDbCircle
 10
15.42997284284822
 20
5.635900483625491
 30
0.1
 40
4.35164966424578
100
AcDbArc
 50
136.1277240258586
 51
152.8332649723098
1001
QCAD
1000
CamClosedContour:1
1000
CamContourIndex:1
1000
CamDirection:1
1000
CamFeedRate:200
1000
CamTool:1
1000
CamZPass:1
1000
CamZPasses:1
1000
reversed:1
  0
ARC
  5
4EA
330
6AB
100
AcDbEntity
  8
CAM ... GCodeMM ... normal
100
AcDbCircle
 10
15.18447997000602
 20
5.871914867168769
 30
0.1
 40
4.011106656894832
100
AcDbArc
 50
118.722195605707
 51
136.1277240258587
1001
QCAD
1000
CamClosedContour:1
1000
CamContourIndex:1
1000
CamDirection:1
1000
CamFeedRate:200
1000
CamTool:1
1000
CamZPass:1
1000
CamZPasses:1
1000
reversed:1
  0
ARC
  5
4EB
330
6AB
100
AcDbEntity
  8
CAM ... GCodeMM ... normal
100
AcDbCircle
 10
15.55304584647434
 20
5.1993341999413
 30
0.1
 40
4.778052260718863
100
AcDbArc
 50
103.9793459895957
 51
118.7221956057072
1001
QCAD
1000
CamClosedContour:1
1000
CamContourIndex:1
1000
CamDirection:1
1000
CamFeedRate:200
1000
CamTool:1
1000
CamZPass:1
1000
CamZPasses:1
1000
reversed:1
  0
ARC
  5
4EC
330
6AB
100
AcDbEntity
  8
CAM ... GCodeMM ... normal
100
AcDbCircle
 10
15.6818553888131
 20
4.681912818004252
 30
0.1
 40
5.311265899594657
100
AcDbArc
 50
90.00000000000001
 51
103.9793459895957
1001
QCAD
1000
CamClosedContour:1
1000
CamContourIndex:1
1000
CamDirection:1
1000
CamFeedRate:200
1000
CamTool:1
1000
CamZPass:1
1000
CamZPasses:1
1000
reversed:1
  0
ARC
  5
4ED
330
6AB
100
AcDbEntity
  8
CAM ... GCodeMM ... normal
100
AcDbCircle
 10
15.68185538881309
 20
5.056164286155622
 30
0.1
 40
4.937014431443284
100
AcDbArc
 50
73.15879426385762
 51
89.99999999999996
1001
QCAD
1000
CamClosedContour:1
1000
CamContourIndex:1
1000
CamDirection:1
1000
CamFeedRate:200
1000
CamTool:1
1000
CamZPass:1
1000
CamZPasses:1
1000
reversed:1
  0
ARC
  5
4EE
330
6AB
100
AcDbEntity
  8
CAM ... GCodeMM ... normal
100
AcDbCircle
 10
16.08548391891212
 20
6.389579965947036
 30
0.1
 40
3.543847763228928
100
AcDbArc
 50
53.25252904713599
 51
73.15879426385763
1001
QCAD
1000
CamClosedContour:1
1000
CamContourIndex:1
1000
CamDirection:1
1000
CamFeedRate:200
1000
CamTool:1
1000
CamZPass:1
1000
CamZPasses:1
1000
reversed:1
  0
ARC
  5
4EF
330
6AB
100
AcDbEntity
  8
CAM ... GCodeMM ... normal
100
AcDbCircle
 10
16.06268848119431
 20
6.359050361860687
 30
0.1
 40
3.581948796107518
100
AcDbArc
 50
33.56395816356644
 51
53.25252904713604
1001
QCAD
1000
CamClosedContour:1
1000
CamContourIndex:1
1000
CamDirection:1
1000
CamFeedRate:200
1000
CamTool:1
1000
CamZPass:1
1000
CamZPasses:1
1000
reversed:1
  0
ARC
  5
4F0
330
6AB
100
AcDbEntity
  8
CAM ... GCodeMM ... normal
100
AcDbCircle
 10
15.21579800376323
 20
5.79714525143816
 30
0.1
 40
4.598295603984833
100
AcDbArc
 50
16.20599868899438
 51
33.56395816356638
1001
QCAD
1000
CamClosedContour:1
1000
CamContourIndex:1
1000
CamDirection:1
1000
CamFeedRate:200
1000
CamTool:1
1000
CamZPass:1
1000
CamZPasses:1
1000
reversed:1
  0
LINE
  5
4F1
330
6AB
100
AcDbEntity
  8
CAM ... GCodeMM ... normal
100
AcDbLine
 10
19.63137789904502
 20
7.080491132332877
 30
0.1
 11
18.32851296043656
 21
6.773533424283765
 31
0.1
1001
QCAD
1000
CamClosedContour:1
1000
CamContourIndex:1
1000
CamDirection:1
1000
CamFeedRate:200
1000
CamTool:1
1000
CamZPass:1
1000
CamZPasses:1
  0
ARC
  5
4F2
330
6AB
100
AcDbEntity
  8
CAM ... GCodeMM ... normal
100
AcDbCircle
 10
14.20985811366457
 20
5.460712191875182
 30
0.1
 40
4.322825156665629
100
AcDbArc
 50
17.67968097743899
 51
32.42343255238537
1001
QCAD
1000
CamClosedContour:1
1000
CamContourIndex:1
1000
CamDirection:1
1000
CamFeedRate:200
1000
CamTool:1
1000
CamZPass:1
1000
CamZPasses:1
  0
ARC
  5
4F3
330
6AB
100
AcDbEntity
  8
CAM ... GCodeMM ... normal
100
AcDbCircle
 10
15.98197840738095
 20
6.586350833377425
 30
0.1
 40
2.223426984177986
100
AcDbArc
 50
32.42343255238544
 51
53.03571071053481
1001
QCAD
1000
CamClosedContour:1
1000
CamContourIndex:1
1000
CamDirection:1
1000
CamFeedRate:200
1000
CamTool:1
1000
CamZPass:1
1000
CamZPasses:1
  0
ARC
  5
4F4
330
6AB
100
AcDbEntity
  8
CAM ... GCodeMM ... normal
100
AcDbCircle
 10
15.96526161526901
 20
6.564138109612241
 30
0.1
 40
2.251227276183327
100
AcDbArc
 50
53.03571071053487
 51
73.34385149275188
1001
QCAD
1000
CamClosedContour:1
1000
CamContourIndex:1
1000
CamDirection:1
1000
CamFeedRate:200
1000
CamTool:1
1000
CamZPass:1
1000
CamZPasses:1
  0
ARC
  5
4F5
330
6AB
100
AcDbEntity
  8
CAM ... GCodeMM ... normal
100
AcDbCircle
 10
15.65457025920873
 20
5.525662892095693
 30
0.1
 40
3.335182946922041
100
AcDbArc
 50
73.34385149275181
 51
89.99999999999994
1001
QCAD
1000
CamClosedContour:1
1000
CamContourIndex:1
1000
CamDirection:1
1000
CamFeedRate:200
1000
CamTool:1
1000
CamZPass:1
1000
CamZPasses:1
  0
ARC
  5
4F6
330
6AB
100
AcDbEntity
  8
CAM ... GCodeMM ... normal
100
AcDbCircle
 10
15.65457025920873
 20
4.858407403745849
 30
0.1
 40
4.002438435271885
100
AcDbArc
 50
89.99999999999997
 51
105.9989558568226
1001
QCAD
1000
CamClosedContour:1
1000
CamContourIndex:1
1000
CamDirection:1
1000
CamFeedRate:200
1000
CamTool:1
1000
CamZPass:1
1000
CamZPasses:1
  0
ARC
  5
4F7
330
6AB
100
AcDbEntity
  8
CAM ... GCodeMM ... normal
100
AcDbCircle
 10
15.29523779864384
 20
6.111634812506124
 30
0.1
 40
2.698713481424788
100
AcDbArc
 50
105.9989558568226
 51
125.5137946005634
1001
QCAD
1000
CamClosedContour:1
1000
CamContourIndex:1
1000
CamDirection:1
1000
CamFeedRate:200
1000
CamTool:1
1000
CamZPass:1
1000
CamZPasses:1
  0
ARC
  5
4F8
330
6AB
100
AcDbEntity
  8
CAM ... GCodeMM ... normal
100
AcDbCircle
 10
15.40636260329918
 20
5.955922894871793
 30
0.1
 40
2.890011478024463
100
AcDbArc
 50
125.5137946005636
 51
143.7461622625552
1001
QCAD
1000
CamClosedContour:1
1000
CamContourIndex:1
1000
CamDirection:1
1000
CamFeedRate:200
1000
CamTool:1
1000
CamZPass:1
1000
CamZPasses:1
  0
ARC
  5
4F9
330
6AB
100
AcDbEntity
  8
CAM ... GCodeMM ... normal
100
AcDbCircle
 10
15.56691041262081
 20
5.83818783470259
 30
0.1
 40
3.089102270054174
100
AcDbArc
 50
143.746162262555
 51
161.3763720143943
1001
QCAD
1000
CamClosedContour:1
1000
CamContourIndex:1
1000
CamDirection:1
1000
CamFeedRate:200
1000
CamTool:1
1000
CamZPass:1
1000
CamZPasses:1
  0
ARC
  5
4FA
330
6AB
100
AcDbEntity
  8
CAM ... GCodeMM ... normal
100
AcDbCircle
 10
18.29875020229921
 20
4.914190766570988
 30
0.1
 40
5.972973612832071
100
AcDbArc
 50
161.3456737735939
 51
180.0929391380157
1001
QCAD
1000
CamClosedContour:1
1000
CamContourIndex:1
1000
CamDirection:1
1000
CamFeedRate:200
1000
CamTool:1
1000
CamZPass:1
1000
CamZPasses:1
  0
ARC
  5
4FB
330
6AB
100
AcDbEntity
  8
CAM ... GCodeMM ... normal
100
AcDbCircle
 10
19.95416146622471
 20
4.904502046384707
 30
0.1
 40
7.62837701874859
100
AcDbArc
 50
180.0
 51
189.4765501142424
1001
QCAD
1000
CamClosedContour:1
1000
CamContourIndex:1
1000
CamDirection:1
1000
CamFeedRate:200
1000
CamTool:1
1000
CamZPass:1
1000
CamZPasses:1
  0
ARC
  5
4FC
330
6AB
100
AcDbEntity
  8
CAM ... GCodeMM ... normal
100
AcDbCircle
 10
17.23751778315382
 20
4.451034724095708
 30
0.1
 40
4.874146543070681
100
AcDbArc
 50
189.4765501142426
 51
201.3396432080132
1001
QCAD
1000
CamClosedContour:1
1000
CamContourIndex:1
1000
CamDirection:1
1000
CamFeedRate:200
1000
CamTool:1
1000
CamZPass:1
1000
CamZPasses:1
  0
ARC
  5
4FD
330
6AB
100
AcDbEntity
  8
CAM ... GCodeMM ... normal
100
AcDbCircle
 10
15.65751936189766
 20
3.833759355217857
 30
0.1
 40
3.177849431066054
100
AcDbArc
 50
201.3396432080133
 51
219.1093735837959
1001
QCAD
1000
CamClosedContour:1
1000
CamContourIndex:1
1000
CamDirection:1
1000
CamFeedRate:200
1000
CamTool:1
1000
CamZPass:1
1000
CamZPasses:1
  0
ARC
  5
4FE
330
6AB
100
AcDbEntity
  8
CAM ... GCodeMM ... normal
100
AcDbCircle
 10
15.15660861395906
 20
3.426544142864888
 30
0.1
 40
2.532298653379214
100
AcDbArc
 50
219.1093735837958
 51
239.0362434679262
1001
QCAD
1000
CamClosedContour:1
1000
CamContourIndex:1
1000
CamDirection:1
1000
CamFeedRate:200
1000
CamTool:1
1000
CamZPass:1
1000
CamZPasses:1
  0
ARC
  5
4FF
330
6AB
100
AcDbEntity
  8
CAM ... GCodeMM ... normal
100
AcDbCircle
 10
15.55375046954956
 20
4.088447235515753
 30
0.1
 40
3.304203671838513
100
AcDbArc
 50
239.0362434679265
 51
254.5114985570903
1001
QCAD
1000
CamClosedContour:1
1000
CamContourIndex:1
1000
CamDirection:1
1000
CamFeedRate:200
1000
CamTool:1
1000
CamZPass:1
1000
CamZPasses:1
  0
ARC
  5
500
330
6AB
100
AcDbEntity
  8
CAM ... GCodeMM ... normal
100
AcDbCircle
 10
15.55225102319237
 20
4.083036189965863
 30
0.1
 40
3.298588713840352
100
AcDbArc
 50
254.5114985570903
 51
269.9999999999999
1001
QCAD
1000
CamClosedContour:1
1000
CamContourIndex:1
1000
CamDirection:1
1000
CamFeedRate:200
1000
CamTool:1
1000
CamZPass:1
1000
CamZPasses:1
  0
ARC
  5
501
330
6AB
100
AcDbEntity
  8
CAM ... GCodeMM ... normal
100
AcDbCircle
 10
15.55225102319236
 20
4.0383826985814
 30
0.1
 40
3.253935222455889
100
AcDbArc
 50
270.0
 51
288.8078011270346
1001
QCAD
1000
CamClosedContour:1
1000
CamContourIndex:1
1000
CamDirection:1
1000
CamFeedRate:200
1000
CamTool:1
1000
CamZPass:1
1000
CamZPasses:1
  0
ARC
  5
502
330
6AB
100
AcDbEntity
  8
CAM ... GCodeMM ... normal
100
AcDbCircle
 10
15.75381485196272
 20
3.446556988574812
 30
0.1
 40
2.628726738753556
100
AcDbArc
 50
288.8078011270346
 51
309.7556618892844
1001
QCAD
1000
CamClosedContour:1
1000
CamContourIndex:1
1000
CamDirection:1
1000
CamFeedRate:200
1000
CamTool:1
1000
CamZPass:1
1000
CamZPasses:1
  0
ARC
  5
503
330
6AB
100
AcDbEntity
  8
CAM ... GCodeMM ... normal
100
AcDbCircle
 10
15.79323709702713
 20
3.39916641738033
 30
0.1
 40
2.567082763832586
100
AcDbArc
 50
309.755661889285
 51
331.260204708312
1001
QCAD
1000
CamClosedContour:1
1000
CamContourIndex:1
1000
CamDirection:1
1000
CamFeedRate:200
1000
CamTool:1
1000
CamZPass:1
1000
CamZPasses:1
  0
ARC
  5
504
330
6AB
100
AcDbEntity
  8
CAM ... GCodeMM ... normal
100
AcDbCircle
 10
14.25717731690128
 20
4.241521780675149
 30
0.1
 40
4.318950968405007
100
AcDbArc
 50
331.260204708312
 51
347.7995312726193
1001
QCAD
1000
CamClosedContour:1
1000
CamContourIndex:1
1000
CamDirection:1
1000
CamFeedRate:200
1000
CamTool:1
1000
CamZPass:1
1000
CamZPasses:1
  0
LINE
  5
505
330
6AB
100
AcDbEntity
  8
CAM ... GCodeMM ... normal
100
AcDbLine
 10
18.47858117326057
 20
3.328785811732605
 30
0.1
 11
19.80190995907231
 21
2.994542974079126
 31
0.1
1001
QCAD
1000
CamClosedContour:1
1000
CamContourIndex:1
1000
CamDirection:1
1000
CamFeedRate:200
1000
CamTool:1
1000
CamZPass:1
1000
CamZPasses:1
  0
ARC
  5
506
330
6AB
100
AcDbEntity
  8
CAM ... GCodeMM ... normal
100
AcDbCircle
 10
14.40902424799086
 20
4.370969871049728
 30
0.1
 40
5.565767448922982
100
AcDbArc
 50
328.9438682484681
 51
345.6820686368718
1001
QCAD
1000
CamClosedContour:1
1000
CamContourIndex:1
1000
CamDirection:1
1000
CamFeedRate:200
1000
CamTool:1
1000
CamZPass:1
1000
CamZPasses:1
1000
reversed:1
  0
ARC
  5
507
330
6AB
100
AcDbEntity
  8
CAM ... GCodeMM ... normal
100
AcDbCircle
 10
16.00897762886053
 20
3.407486285039049
 30
0.1
 40
3.698108100575884
100
AcDbArc
 50
308.3721145986764
 51
328.943868248468
1001
QCAD
1000
CamClosedContour:1
1000
CamContourIndex:1
1000
CamDirection:1
1000
CamFeedRate:200
1000
CamTool:1
1000
CamZPass:1
1000
CamZPasses:1
1000
reversed:1
  0
ARC
  5
508
330
6AB
100
AcDbEntity
  8
CAM ... GCodeMM ... normal
100
AcDbCircle
 10
15.99645359620443
 20
3.423303489628644
 30
0.1
 40
3.718283217799838
100
AcDbArc
 50
287.9456334097413
 51
308.3721145986763
1001
QCAD
1000
CamClosedContour:1
1000
CamContourIndex:1
1000
CamDirection:1
1000
CamFeedRate:200
1000
CamTool:1
1000
CamZPass:1
1000
CamZPasses:1
1000
reversed:1
  0
ARC
  5
509
330
6AB
100
AcDbEntity
  8
CAM ... GCodeMM ... normal
100
AcDbCircle
 10
15.66139154160982
 20
4.457857642261381
 30
0.1
 40
4.805743044717044
100
AcDbArc
 50
270.0
 51
287.9456334097414
1001
QCAD
1000
CamClosedContour:1
1000
CamContourIndex:1
1000
CamDirection:1
1000
CamFeedRate:200
1000
CamTool:1
1000
CamZPass:1
1000
CamZPasses:1
1000
reversed:1
  0
ARC
  5
50A
330
6AB
100
AcDbEntity
  8
CAM ... GCodeMM ... normal
100
AcDbCircle
 10
15.66139154160982
 20
6.074947089753429
 30
0.1
 40
6.422832492209094
100
AcDbArc
 50
255.9462723154929
 51
269.9999999999999
1001
QCAD
1000
CamClosedContour:1
1000
CamContourIndex:1
1000
CamDirection:1
1000
CamFeedRate:200
1000
CamTool:1
1000
CamZPass:1
1000
CamZPasses:1
1000
reversed:1
  0
ARC
  5
50B
330
6AB
100
AcDbEntity
  8
CAM ... GCodeMM ... normal
100
AcDbCircle
 10
14.96187424134006
 20
3.280502330644699
 30
0.1
 40
3.542164867319519
100
AcDbArc
 50
236.9829138123233
 51
255.9462723154928
1001
QCAD
1000
CamClosedContour:1
1000
CamContourIndex:1
1000
CamDirection:1
1000
CamFeedRate:200
1000
CamTool:1
1000
CamZPass:1
1000
CamZPasses:1
1000
reversed:1
  0
ARC
  5
50C
330
6AB
100
AcDbEntity
  8
CAM ... GCodeMM ... normal
100
AcDbCircle
 10
15.0606828553167
 20
3.43255496458801
 30
0.1
 40
3.723501972416858
100
AcDbArc
 50
218.9585452185719
 51
236.9829138123233
1001
QCAD
1000
CamClosedContour:1
1000
CamContourIndex:1
1000
CamDirection:1
1000
CamFeedRate:200
1000
CamTool:1
1000
CamZPass:1
1000
CamZPasses:1
1000
reversed:1
  0
ARC
  5
50D
330
6AB
100
AcDbEntity
  8
CAM ... GCodeMM ... normal
100
AcDbCircle
 10
15.8305328375921
 20
4.055045469039676
 30
0.1
 40
4.713534003889532
100
AcDbArc
 50
202.9525249192175
 51
218.9585452185719
1001
QCAD
1000
CamClosedContour:1
1000
CamContourIndex:1
1000
CamDirection:1
1000
CamFeedRate:200
1000
CamTool:1
1000
CamZPass:1
1000
CamZPasses:1
1000
reversed:1
  0
ARC
  5
50E
330
6AB
100
AcDbEntity
  8
CAM ... GCodeMM ... normal
100
AcDbCircle
 10
17.47058232854467
 20
4.749601947448547
 30
0.1
 40
6.494592968234489
100
AcDbArc
 50
191.1556480061338
 51
202.9525249192175
1001
QCAD
1000
CamClosedContour:1
1000
CamContourIndex:1
1000
CamDirection:1
1000
CamFeedRate:200
1000
CamLast:1
1000
CamTool:1
1000
CamZPass:1
1000
CamZPasses:1
1000
reversed:1
  0
ARC
  5
50F
330
6AB
100
AcDbEntity
  8
CAM ... GCodeMM ... normal
100
AcDbCircle
 10
18.22148523045804
 20
4.897680763983621
 30
0.1
 40
7.259957263200195
100
AcDbArc
 50
180.0
 51
191.1556480061337
1001
QCAD
1000
CamClosedContour:1
1000
CamContourIndex:1
1000
CamDirection:1
1000
CamFeedRate:200
1000
CamLast:1
1000
CamLastSegment:1
1000
CamTool:1
1000
CamZPass:1
1000
CamZPasses:1
1000
reversed:1
  0
LINE
  5
510
330
6AB
100
AcDbEntity
  8
CAM ... GCodeMM ... normal
100
AcDbLine
 10
10.96152796725785
 20
4.897680763983622
 30
0.1
 11
10.96152796725785
 21
4.897680763983622
 31
2.0
1001
QCAD
1000
CamContourIndex:1
1000
CamDirection:1
1000
CamFeedRate:200
1000
CamTool:1
1000
CamToolUp:1
1000
CamZMove:1
1000
CamZPass:1
1000
CamZPasses:1
  0
LINE
  5
511
330
6AB
100
AcDbEntity
  8
CAM ... GCodeMM ... rapid
100
AcDbLine
 10
10.96152796725785
 20
4.897680763983622
 30
2.0
 11
23.21746248294679
 21
3.929058663028648
 31
2.0
1001
QCAD
1000
CamClosedContour:1
1000
CamContourIndex:2
1000
CamFirst:1
1000
CamFirstSegment:1
1000
CamRapidMove:1
1000
CamTool:1
1000
CamZPass:1
1000
CamZPasses:1
  0
LINE
  5
512
330
6AB
100
AcDbEntity
  8
CAM ... GCodeMM ... rapid
100
AcDbLine
 10
23.21746248294679
 20
3.929058663028648
 30
2.0
 11
23.21746248294679
 21
3.929058663028648
 31
2.0
1001
QCAD
1000
CamClosedContour:1
1000
CamContourIndex:2
1000
CamFirst:1
1000
CamFirstSegment:1
1000
CamRapidMove:1
1000
CamTool:1
1000
CamToolDownClearance:1
1000
CamZMove:1
1000
CamZPass:1
1000
CamZPasses:1
  0
LINE
  5
513
330
6AB
100
AcDbEntity
  8
CAM ... GCodeMM ... rapid
100
AcDbLine
 10
23.21746248294679
 20
3.929058663028648
 30
2.0
 11
23.21746248294679
 21
3.929058663028648
 31
2.0
1001
QCAD
1000
CamClosedContour:1
1000
CamContourIndex:2
1000
CamFirst:1
1000
CamFirstSegment:1
1000
CamRapidMove:1
1000
CamTool:1
1000
CamToolDownClearancePass:1
1000
CamZMove:1
1000
CamZPass:1
1000
CamZPasses:1
  0
LINE
  5
514
330
6AB
100
AcDbEntity
  8
CAM ... GCodeMM ... normal
100
AcDbLine
 10
23.21746248294679
 20
3.929058663028648
 30
2.0
 11
23.21746248294679
 21
3.929058663028648
 31
0.1
1001
QCAD
1000
CamClosedContour:1
1000
CamContourIndex:2
1000
CamDirection:1
1000
CamFeedRate:50
1000
CamFirst:1
1000
CamFirstSegment:1
1000
CamTool:1
1000
CamToolDown:1
1000
CamZMove:1
1000
CamZPass:1
1000
CamZPasses:1
  0
LINE
  5
515
330
6AB
100
AcDbEntity
  8
CAM ... GCodeMM ... normal
100
AcDbLine
 10
23.21746248294679
 20
3.929058663028648
 30
0.1
 11
26.60763983628922
 21
3.929058663028648
 31
0.1
1001
QCAD
1000
CamClosedContour:1
1000
CamContourIndex:2
1000
CamDirection:1
1000
CamFeedRate:200
1000
CamFirst:1
1000
CamFirstSegment:1
1000
CamTool:1
1000
CamZPass:1
1000
CamZPasses:1
  0
LINE
  5
516
330
6AB
100
AcDbEntity
  8
CAM ... GCodeMM ... normal
100
AcDbLine
 10
26.60763983628922
 20
3.929058663028648
 30
0.1
 11
25.56398362892224
 21
6.698499317871758
 31
0.1
1001
QCAD
1000
CamClosedContour:1
1000
CamContourIndex:2
1000
CamDirection:1
1000
CamFeedRate:200
1000
CamTool:1
1000
CamZPass:1
1000
CamZPasses:1
  0
ARC
  5
517
330
6AB
100
AcDbEntity
  8
CAM ... GCodeMM ... normal
100
AcDbCircle
 10
64.85117900512711
 20
21.5639245953548
 30
0.1
 40
42.00553045979215
100
AcDbArc
 50
198.8860873697093
 51
200.7255588655607
1001
QCAD
1000
CamClosedContour:1
1000
CamContourIndex:2
1000
CamDirection:1
1000
CamFeedRate:200
1000
CamTool:1
1000
CamZPass:1
1000
CamZPasses:1
1000
reversed:1
  0
ARC
  5
518
330
6AB
100
AcDbEntity
  8
CAM ... GCodeMM ... normal
100
AcDbCircle
 10
40.66020040254037
 20
13.28806349446976
 30
0.1
 40
16.43810347325414
100
AcDbArc
 50
195.945395900923
 51
198.8860873697091
1001
QCAD
1000
CamClosedContour:1
1000
CamContourIndex:2
1000
CamDirection:1
1000
CamFeedRate:200
1000
CamTool:1
1000
CamZPass:1
1000
CamZPasses:1
1000
reversed:1
  0
ARC
  5
519
330
6AB
100
AcDbEntity
  8
CAM ... GCodeMM ... normal
100
AcDbCircle
 10
12.35366978376475
 20
11.26820865246312
 30
0.1
 40
12.74765569843865
100
AcDbArc
 50
339.7796158971248
 51
348.7083165657097
1001
QCAD
1000
CamClosedContour:1
1000
CamContourIndex:2
1000
CamDirection:1
1000
CamFeedRate:200
1000
CamTool:1
1000
CamZPass:1
1000
CamZPasses:1
1000
reversed:1
  0
LINE
  5
51A
330
6AB
100
AcDbEntity
  8
CAM ... GCodeMM ... normal
100
AcDbLine
 10
24.31568894952251
 20
6.862210095497952
 30
0.1
 11
23.21746248294679
 21
3.929058663028648
 31
0.1
1001
QCAD
1000
CamClosedContour:1
1000
CamContourIndex:2
1000
CamDirection:1
1000
CamFeedRate:200
1000
CamLast:1
1000
CamLastSegment:1
1000
CamTool:1
1000
CamZPass:1
1000
CamZPasses:1
  0
LINE
  5
51B
330
6AB
100
AcDbEntity
  8
CAM ... GCodeMM ... normal
100
AcDbLine
 10
23.21746248294679
 20
3.929058663028648
 30
0.1
 11
23.21746248294679
 21
3.929058663028648
 31
2.0
1001
QCAD
1000
CamContourIndex:2
1000
CamDirection:1
1000
CamFeedRate:200
1000
CamTool:1
1000
CamToolUp:1
1000
CamZMove:1
1000
CamZPass:1
1000
CamZPasses:1
  0
LINE
  5
51C
330
6AB
100
AcDbEntity
  8
CAM ... GCodeMM ... rapid
100
AcDbLine
 10
23.21746248294679
 20
3.929058663028648
 30
2.0
 11
20.33206002728513
 21
-0.1773533424283773
 31
2.0
1001
QCAD
1000
CamClosedContour:1
1000
CamContourIndex:2
1000
CamFirst:1
1000
CamFirstSegment:1
1000
CamRapidMove:1
1000
CamTool:1
1000
CamZPass:1
1000
CamZPasses:1
  0
LINE
  5
51D
330
6AB
100
AcDbEntity
  8
CAM ... GCodeMM ... rapid
100
AcDbLine
 10
20.33206002728513
 20
-0.1773533424283773
 30
2.0
 11
20.33206002728513
 21
-0.1773533424283773
 31
2.0
1001
QCAD
1000
CamClosedContour:1
1000
CamContourIndex:2
1000
CamFirst:1
1000
CamFirstSegment:1
1000
CamRapidMove:1
1000
CamTool:1
1000
CamToolDownClearance:1
1000
CamZMove:1
1000
CamZPass:1
1000
CamZPasses:1
  0
LINE
  5
51E
330
6AB
100
AcDbEntity
  8
CAM ... GCodeMM ... rapid
100
AcDbLine
 10
20.33206002728513
 20
-0.1773533424283773
 30
2.0
 11
20.33206002728513
 21
-0.1773533424283773
 31
2.0
1001
QCAD
1000
CamClosedContour:1
1000
CamContourIndex:2
1000
CamFirst:1
1000
CamFirstSegment:1
1000
CamRapidMove:1
1000
CamTool:1
1000
CamToolDownClearancePass:1
1000
CamZMove:1
1000
CamZPass:1
1000
CamZPasses:1
  0
LINE
  5
51F
330
6AB
100
AcDbEntity
  8
CAM ... GCodeMM ... normal
100
AcDbLine
 10
20.33206002728513
 20
-0.1773533424283773
 30
2.0
 11
20.33206002728513
 21
-0.1773533424283773
 31
0.1
1001
QCAD
1000
CamClosedContour:1
1000
CamContourIndex:2
1000
CamDirection:1
1000
CamFeedRate:50
1000
CamFirst:1
1000
CamFirstSegment:1
1000
CamTool:1
1000
CamToolDown:1
1000
CamZMove:1
1000
CamZPass:1
1000
CamZPasses:1
  0
LINE
  5
520
330
6AB
100
AcDbEntity
  8
CAM ... GCodeMM ... normal
100
AcDbLine
 10
20.33206002728513
 20
-0.1773533424283773
 30
0.1
 11
24.17244201909959
 21
9.822646657571623
 31
0.1
1001
QCAD
1000
CamClosedContour:1
1000
CamContourIndex:2
1000
CamDirection:1
1000
CamFeedRate:200
1000
CamFirst:1
1000
CamFirstSegment:1
1000
CamTool:1
1000
CamZPass:1
1000
CamZPasses:1
  0
LINE
  5
521
330
6AB
100
AcDbEntity
  8
CAM ... GCodeMM ... normal
100
AcDbLine
 10
24.17244201909959
 20
9.822646657571623
 30
0.1
 11
25.59809004092769
 21
9.822646657571623
 31
0.1
1001
QCAD
1000
CamClosedContour:1
1000
CamContourIndex:2
1000
CamDirection:1
1000
CamFeedRate:200
1000
CamTool:1
1000
CamZPass:1
1000
CamZPasses:1
  0
LINE
  5
522
330
6AB
100
AcDbEntity
  8
CAM ... GCodeMM ... normal
100
AcDbLine
 10
25.59809004092769
 20
9.822646657571623
 30
0.1
 11
29.69085948158254
 21
-0.1773533424283773
 31
0.1
1001
QCAD
1000
CamClosedContour:1
1000
CamContourIndex:2
1000
CamDirection:1
1000
CamFeedRate:200
1000
CamTool:1
1000
CamZPass:1
1000
CamZPasses:1
  0
LINE
  5
523
330
6AB
100
AcDbEntity
  8
CAM ... GCodeMM ... normal
100
AcDbLine
 10
29.69085948158254
 20
-0.1773533424283773
 30
0.1
 11
28.18335607094134
 21
-0.1773533424283773
 31
0.1
1001
QCAD
1000
CamClosedContour:1
1000
CamContourIndex:2
1000
CamDirection:1
1000
CamFeedRate:200
1000
CamTool:1
1000
CamZPass:1
1000
CamZPasses:1
  0
LINE
  5
524
330
6AB
100
AcDbEntity
  8
CAM ... GCodeMM ... normal
100
AcDbLine
 10
28.18335607094134
 20
-0.1773533424283773
 30
0.1
 11
27.01691678035471
 21
2.851296043656206
 31
0.1
1001
QCAD
1000
CamClosedContour:1
1000
CamContourIndex:2
1000
CamDirection:1
1000
CamFeedRate:200
1000
CamTool:1
1000
CamZPass:1
1000
CamZPasses:1
  0
LINE
  5
525
330
6AB
100
AcDbEntity
  8
CAM ... GCodeMM ... normal
100
AcDbLine
 10
27.01691678035471
 20
2.851296043656206
 30
0.1
 11
22.83547066848567
 21
2.851296043656206
 31
0.1
1001
QCAD
1000
CamClosedContour:1
1000
CamContourIndex:2
1000
CamDirection:1
1000
CamFeedRate:200
1000
CamTool:1
1000
CamZPass:1
1000
CamZPasses:1
  0
LINE
  5
526
330
6AB
100
AcDbEntity
  8
CAM ... GCodeMM ... normal
100
AcDbLine
 10
22.83547066848567
 20
2.851296043656206
 30
0.1
 11
21.73724420190996
 21
-0.1773533424283773
 31
0.1
1001
QCAD
1000
CamClosedContour:1
1000
CamContourIndex:2
1000
CamDirection:1
1000
CamFeedRate:200
1000
CamTool:1
1000
CamZPass:1
1000
CamZPasses:1
  0
LINE
  5
527
330
6AB
100
AcDbEntity
  8
CAM ... GCodeMM ... normal
100
AcDbLine
 10
21.73724420190996
 20
-0.1773533424283773
 30
0.1
 11
20.33206002728513
 21
-0.1773533424283773
 31
0.1
1001
QCAD
1000
CamClosedContour:1
1000
CamContourIndex:2
1000
CamDirection:1
1000
CamFeedRate:200
1000
CamLast:1
1000
CamLastSegment:1
1000
CamTool:1
1000
CamZPass:1
1000
CamZPasses:1
  0
LINE
  5
528
330
6AB
100
AcDbEntity
  8
CAM ... GCodeMM ... normal
100
AcDbLine
 10
20.33206002728513
 20
-0.1773533424283773
 30
0.1
 11
20.33206002728513
 21
-0.1773533424283773
 31
2.0
1001
QCAD
1000
CamContourIndex:2
1000
CamDirection:1
1000
CamFeedRate:200
1000
CamTool:1
1000
CamToolUp:1
1000
CamZMove:1
1000
CamZPass:1
1000
CamZPasses:1
  0
LINE
  5
529
330
6AB
100
AcDbEntity
  8
CAM ... GCodeMM ... rapid
100
AcDbLine
 10
20.33206002728513
 20
-0.1773533424283773
 30
2.0
 11
32.06984993178718
 21
1.002728512960435
 31
2.0
1001
QCAD
1000
CamClosedContour:1
1000
CamContourIndex:4
1000
CamFirst:1
1000
CamFirstSegment:1
1000
CamRapidMove:1
1000
CamTool:1
1000
CamZPass:1
1000
CamZPasses:1
  0
LINE
  5
52A
330
6AB
100
AcDbEntity
  8
CAM ... GCodeMM ... rapid
100
AcDbLine
 10
32.06984993178718
 20
1.002728512960435
 30
2.0
 11
32.06984993178718
 21
1.002728512960435
 31
2.0
1001
QCAD
1000
CamClosedContour:1
1000
CamContourIndex:4
1000
CamFirst:1
1000
CamFirstSegment:1
1000
CamRapidMove:1
1000
CamTool:1
1000
CamToolDownClearance:1
1000
CamZMove:1
1000
CamZPass:1
1000
CamZPasses:1
  0
LINE
  5
52B
330
6AB
100
AcDbEntity
  8
CAM ... GCodeMM ... rapid
100
AcDbLine
 10
32.06984993178718
 20
1.002728512960435
 30
2.0
 11
32.06984993178718
 21
1.002728512960435
 31
2.0
1001
QCAD
1000
CamClosedContour:1
1000
CamContourIndex:4
1000
CamFirst:1
1000
CamFirstSegment:1
1000
CamRapidMove:1
1000
CamTool:1
1000
CamToolDownClearancePass:1
1000
CamZMove:1
1000
CamZPass:1
1000
CamZPasses:1
  0
LINE
  5
52C
330
6AB
100
AcDbEntity
  8
CAM ... GCodeMM ... normal
100
AcDbLine
 10
32.06984993178718
 20
1.002728512960435
 30
2.0
 11
32.06984993178718
 21
1.002728512960435
 31
0.1
1001
QCAD
1000
CamClosedContour:1
1000
CamContourIndex:4
1000
CamDirection:1
1000
CamFeedRate:50
1000
CamFirst:1
1000
CamFirstSegment:1
1000
CamTool:1
1000
CamToolDown:1
1000
CamZMove:1
1000
CamZPass:1
1000
CamZPasses:1
  0
LINE
  5
52D
330
6AB
100
AcDbEntity
  8
CAM ... GCodeMM ... normal
100
AcDbLine
 10
32.06984993178718
 20
1.002728512960435
 30
0.1
 11
34.20491132332879
 21
1.002728512960435
 31
0.1
1001
QCAD
1000
CamClosedContour:1
1000
CamContourIndex:4
1000
CamDirection:1
1000
CamFeedRate:200
1000
CamFirst:1
1000
CamFirstSegment:1
1000
CamTool:1
1000
CamZPass:1
1000
CamZPasses:1
  0
ARC
  5
52E
330
6AB
100
AcDbEntity
  8
CAM ... GCodeMM ... normal
100
AcDbCircle
 10
34.20491132332878
 20
9.316777704039303
 30
0.1
 40
8.314049191078869
100
AcDbArc
 50
270.0000000000001
 51
276.7682795053393
1001
QCAD
1000
CamClosedContour:1
1000
CamContourIndex:4
1000
CamDirection:1
1000
CamFeedRate:200
1000
CamTool:1
1000
CamZPass:1
1000
CamZPasses:1
  0
ARC
  5
52F
330
6AB
100
AcDbEntity
  8
CAM ... GCodeMM ... normal
100
AcDbCircle
 10
34.83580559383397
 20
4.000909313671661
 30
0.1
 40
2.960874028218406
100
AcDbArc
 50
276.7682795053391
 51
288.1218602479012
1001
QCAD
1000
CamClosedContour:1
1000
CamContourIndex:4
1000
CamDirection:1
1000
CamFeedRate:200
1000
CamTool:1
1000
CamZPass:1
1000
CamZPasses:1
  0
ARC
  5
530
330
6AB
100
AcDbEntity
  8
CAM ... GCodeMM ... normal
100
AcDbCircle
 10
34.88556843014167
 20
3.848856202731434
 30
0.1
 40
2.800885002269785
100
AcDbArc
 50
288.1218602479014
 51
300.0256260301564
1001
QCAD
1000
CamClosedContour:1
1000
CamContourIndex:4
1000
CamDirection:1
1000
CamFeedRate:200
1000
CamTool:1
1000
CamZPass:1
1000
CamZPasses:1
  0
ARC
  5
531
330
6AB
100
AcDbEntity
  8
CAM ... GCodeMM ... normal
100
AcDbCircle
 10
35.39956440983995
 20
2.959507895753493
 30
0.1
 40
1.773688683024757
100
AcDbArc
 50
300.0256260301562
 51
315.0000000000002
1001
QCAD
1000
CamClosedContour:1
1000
CamContourIndex:4
1000
CamDirection:1
1000
CamFeedRate:200
1000
CamTool:1
1000
CamZPass:1
1000
CamZPasses:1
  0
ARC
  5
532
330
6AB
100
AcDbEntity
  8
CAM ... GCodeMM ... normal
100
AcDbCircle
 10
34.87927071999403
 20
3.479801585599462
 30
0.1
 40
2.509495075622044
100
AcDbArc
 50
314.9999999999994
 51
329.9070722552289
1001
QCAD
1000
CamClosedContour:1
1000
CamContourIndex:4
1000
CamDirection:1
1000
CamFeedRate:200
1000
CamTool:1
1000
CamZPass:1
1000
CamZPasses:1
  0
ARC
  5
533
330
6AB
100
AcDbEntity
  8
CAM ... GCodeMM ... normal
100
AcDbCircle
 10
33.59589836799117
 20
4.223534889320789
 30
0.1
 40
3.992796737776301
100
AcDbArc
 50
329.9070722552291
 51
341.7127203849382
1001
QCAD
1000
CamClosedContour:1
1000
CamContourIndex:4
1000
CamDirection:1
1000
CamFeedRate:200
1000
CamTool:1
1000
CamZPass:1
1000
CamZPasses:1
  0
ARC
  5
534
330
6AB
100
AcDbEntity
  8
CAM ... GCodeMM ... normal
100
AcDbCircle
 10
33.10077816061889
 20
4.387158305491038
 30
0.1
 40
4.514253008299141
100
AcDbArc
 50
341.7127203849381
 51
352.2393593570895
1001
QCAD
1000
CamClosedContour:1
1000
CamContourIndex:4
1000
CamDirection:1
1000
CamFeedRate:200
1000
CamTool:1
1000
CamZPass:1
1000
CamZPasses:1
  0
ARC
  5
535
330
6AB
100
AcDbEntity
  8
CAM ... GCodeMM ... normal
100
AcDbCircle
 10
29.35473674440701
 20
4.897680763983614
 30
0.1
 40
8.294922191472935
100
AcDbArc
 50
352.2393593570897
 51
0.0
1001
QCAD
1000
CamClosedContour:1
1000
CamContourIndex:4
1000
CamDirection:1
1000
CamFeedRate:200
1000
CamTool:1
1000
CamZPass:1
1000
CamZPasses:1
  0
ARC
  5
536
330
6AB
100
AcDbEntity
  8
CAM ... GCodeMM ... normal
100
AcDbCircle
 10
30.35503716928157
 20
4.89768076398363
 30
0.1
 40
7.294621766598383
100
AcDbArc
 50
0.0
 51
12.05601005783981
1001
QCAD
1000
CamClosedContour:1
1000
CamContourIndex:4
1000
CamDirection:1
1000
CamFeedRate:200
1000
CamTool:1
1000
CamZPass:1
1000
CamZPasses:1
  0
ARC
  5
537
330
6AB
100
AcDbEntity
  8
CAM ... GCodeMM ... normal
100
AcDbCircle
 10
34.71271599356254
 20
5.828387273837121
 30
0.1
 40
2.838661786631044
100
AcDbArc
 50
12.05601005783987
 51
31.43894759928253
1001
QCAD
1000
CamClosedContour:1
1000
CamContourIndex:4
1000
CamDirection:1
1000
CamFeedRate:200
1000
CamTool:1
1000
CamZPass:1
1000
CamZPasses:1
  0
ARC
  5
538
330
6AB
100
AcDbEntity
  8
CAM ... GCodeMM ... normal
100
AcDbCircle
 10
34.30929596710549
 20
5.581762075476694
 30
0.1
 40
3.311495484893903
100
AcDbArc
 50
31.4389475992832
 51
47.95246710887383
1001
QCAD
1000
CamClosedContour:1
1000
CamContourIndex:4
1000
CamDirection:1
1000
CamFeedRate:200
1000
CamTool:1
1000
CamZPass:1
1000
CamZPasses:1
  0
ARC
  5
539
330
6AB
100
AcDbEntity
  8
CAM ... GCodeMM ... normal
100
AcDbCircle
 10
35.12312867543924
 20
6.484108311000838
 30
0.1
 40
2.096360757417789
100
AcDbArc
 50
47.9524671088736
 51
68.74949449286666
1001
QCAD
1000
CamClosedContour:1
1000
CamContourIndex:4
1000
CamDirection:1
1000
CamFeedRate:200
1000
CamTool:1
1000
CamZPass:1
1000
CamZPasses:1
  0
ARC
  5
53A
330
6AB
100
AcDbEntity
  8
CAM ... GCodeMM ... normal
100
AcDbCircle
 10
35.06884075225726
 20
6.321250621626053
 30
0.1
 40
2.267837009631254
100
AcDbArc
 50
68.96248897457788
 51
83.18423166605085
1001
QCAD
1000
CamClosedContour:1
1000
CamContourIndex:4
1000
CamDirection:1
1000
CamFeedRate:200
1000
CamTool:1
1000
CamZPass:1
1000
CamZPasses:1
  0
ARC
  5
53B
330
6AB
100
AcDbEntity
  8
CAM ... GCodeMM ... normal
100
AcDbCircle
 10
34.17080491132332
 20
-1.192315914187793
 30
0.1
 40
9.834880716370606
100
AcDbArc
 50
83.18423166605096
 51
89.99999999999996
1001
QCAD
1000
CamClosedContour:1
1000
CamContourIndex:4
1000
CamDirection:1
1000
CamFeedRate:200
1000
CamTool:1
1000
CamZPass:1
1000
CamZPasses:1
  0
LINE
  5
53C
330
6AB
100
AcDbEntity
  8
CAM ... GCodeMM ... normal
100
AcDbLine
 10
34.17080491132333
 20
8.64256480218281
 30
0.1
 11
32.06984993178718
 21
8.64256480218281
 31
0.1
1001
QCAD
1000
CamClosedContour:1
1000
CamContourIndex:4
1000
CamDirection:1
1000
CamFeedRate:200
1000
CamTool:1
1000
CamZPass:1
1000
CamZPasses:1
  0
LINE
  5
53D
330
6AB
100
AcDbEntity
  8
CAM ... GCodeMM ... normal
100
AcDbLine
 10
32.06984993178718
 20
8.64256480218281
 30
0.1
 11
32.06984993178718
 21
1.002728512960435
 31
0.1
1001
QCAD
1000
CamClosedContour:1
1000
CamContourIndex:4
1000
CamDirection:1
1000
CamFeedRate:200
1000
CamLast:1
1000
CamLastSegment:1
1000
CamTool:1
1000
CamZPass:1
1000
CamZPasses:1
  0
LINE
  5
53E
330
6AB
100
AcDbEntity
  8
CAM ... GCodeMM ... normal
100
AcDbLine
 10
32.06984993178718
 20
1.002728512960435
 30
0.1
 11
32.06984993178718
 21
1.002728512960435
 31
2.0
1001
QCAD
1000
CamContourIndex:4
1000
CamDirection:1
1000
CamFeedRate:200
1000
CamTool:1
1000
CamToolUp:1
1000
CamZMove:1
1000
CamZPass:1
1000
CamZPasses:1
  0
LINE
  5
53F
330
6AB
100
AcDbEntity
  8
CAM ... GCodeMM ... rapid
100
AcDbLine
 10
32.06984993178718
 20
1.002728512960435
 30
2.0
 11
30.74652114597545
 21
-0.1773533424283773
 31
2.0
1001
QCAD
1000
CamClosedContour:1
1000
CamContourIndex:4
1000
CamFirst:1
1000
CamFirstSegment:1
1000
CamRapidMove:1
1000
CamTool:1
1000
CamZPass:1
1000
CamZPasses:1
  0
LINE
  5
540
330
6AB
100
AcDbEntity
  8
CAM ... GCodeMM ... rapid
100
AcDbLine
 10
30.74652114597545
 20
-0.1773533424283773
 30
2.0
 11
30.74652114597545
 21
-0.1773533424283773
 31
2.0
1001
QCAD
1000
CamClosedContour:1
1000
CamContourIndex:4
1000
CamFirst:1
1000
CamFirstSegment:1
1000
CamRapidMove:1
1000
CamTool:1
1000
CamToolDownClearance:1
1000
CamZMove:1
1000
CamZPass:1
1000
CamZPasses:1
  0
LINE
  5
541
330
6AB
100
AcDbEntity
  8
CAM ... GCodeMM ... rapid
100
AcDbLine
 10
30.74652114597545
 20
-0.1773533424283773
 30
2.0
 11
30.74652114597545
 21
-0.1773533424283773
 31
2.0
1001
QCAD
1000
CamClosedContour:1
1000
CamContourIndex:4
1000
CamFirst:1
1000
CamFirstSegment:1
1000
CamRapidMove:1
1000
CamTool:1
1000
CamToolDownClearancePass:1
1000
CamZMove:1
1000
CamZPass:1
1000
CamZPasses:1
  0
LINE
  5
542
330
6AB
100
AcDbEntity
  8
CAM ... GCodeMM ... normal
100
AcDbLine
 10
30.74652114597545
 20
-0.1773533424283773
 30
2.0
 11
30.74652114597545
 21
-0.1773533424283773
 31
0.1
1001
QCAD
1000
CamClosedContour:1
1000
CamContourIndex:4
1000
CamDirection:1
1000
CamFeedRate:50
1000
CamFirst:1
1000
CamFirstSegment:1
1000
CamTool:1
1000
CamToolDown:1
1000
CamZMove:1
1000
CamZPass:1
1000
CamZPasses:1
  0
LINE
  5
543
330
6AB
100
AcDbEntity
  8
CAM ... GCodeMM ... normal
100
AcDbLine
 10
30.74652114597545
 20
-0.1773533424283773
 30
0.1
 11
30.74652114597545
 21
9.822646657571623
 31
0.1
1001
QCAD
1000
CamClosedContour:1
1000
CamContourIndex:4
1000
CamDirection:1
1000
CamFeedRate:200
1000
CamFirst:1
1000
CamFirstSegment:1
1000
CamTool:1
1000
CamZPass:1
1000
CamZPasses:1
  0
LINE
  5
544
330
6AB
100
AcDbEntity
  8
CAM ... GCodeMM ... normal
100
AcDbLine
 10
30.74652114597545
 20
9.822646657571623
 30
0.1
 11
34.1912687585266
 21
9.822646657571623
 31
0.1
1001
QCAD
1000
CamClosedContour:1
1000
CamContourIndex:4
1000
CamDirection:1
1000
CamFeedRate:200
1000
CamTool:1
1000
CamZPass:1
1000
CamZPasses:1
  0
ARC
  5
545
330
6AB
100
AcDbEntity
  8
CAM ... GCodeMM ... normal
100
AcDbCircle
 10
34.19126875852659
 20
-4.654438055920675
 30
0.1
 40
14.4770847134923
100
AcDbArc
 50
85.39990433373659
 51
89.99999999999994
1001
QCAD
1000
CamClosedContour:1
1000
CamContourIndex:4
1000
CamDirection:1
1000
CamFeedRate:200
1000
CamTool:1
1000
CamZPass:1
1000
CamZPasses:1
1000
reversed:1
  0
ARC
  5
546
330
6AB
100
AcDbEntity
  8
CAM ... GCodeMM ... normal
100
AcDbCircle
 10
35.01453583363086
 20
5.577595591803248
 30
0.1
 40
4.211984555914428
100
AcDbArc
 50
76.86597769360367
 51
85.39990433373683
1001
QCAD
1000
CamClosedContour:1
1000
CamContourIndex:4
1000
CamDirection:1
1000
CamFeedRate:200
1000
CamTool:1
1000
CamZPass:1
1000
CamZPasses:1
1000
reversed:1
  0
ARC
  5
547
330
6AB
100
AcDbEntity
  8
CAM ... GCodeMM ... normal
100
AcDbCircle
 10
35.12063540857529
 20
5.982003343143282
 30
0.1
 40
3.794063875713453
100
AcDbArc
 50
63.97040780848658
 51
77.03859814900785
1001
QCAD
1000
CamClosedContour:1
1000
CamContourIndex:4
1000
CamDirection:1
1000
CamFeedRate:200
1000
CamTool:1
1000
CamZPass:1
1000
CamZPasses:1
1000
reversed:1
  0
ARC
  5
548
330
6AB
100
AcDbEntity
  8
CAM ... GCodeMM ... normal
100
AcDbCircle
 10
35.42542985646816
 20
6.606106260257259
 30
0.1
 40
3.099510705238721
100
AcDbArc
 50
49.50490686360742
 51
63.97040780848661
1001
QCAD
1000
CamClosedContour:1
1000
CamContourIndex:4
1000
CamDirection:1
1000
CamFeedRate:200
1000
CamTool:1
1000
CamZPass:1
1000
CamZPasses:1
1000
reversed:1
  0
ARC
  5
549
330
6AB
100
AcDbEntity
  8
CAM ... GCodeMM ... normal
100
AcDbCircle
 10
34.95771630918788
 20
6.027083307871257
 30
0.1
 40
3.843614369708878
100
AcDbArc
 50
34.70704555669901
 51
49.80795396303085
1001
QCAD
1000
CamClosedContour:1
1000
CamContourIndex:4
1000
CamDirection:1
1000
CamFeedRate:200
1000
CamTool:1
1000
CamZPass:1
1000
CamZPasses:1
1000
reversed:1
  0
ARC
  5
54A
330
6AB
100
AcDbEntity
  8
CAM ... GCodeMM ... normal
100
AcDbCircle
 10
34.46923344319485
 20
5.68875285976831
 30
0.1
 40
4.437822247881418
100
AcDbArc
 50
20.65891006330788
 51
34.70704555669887
1001
QCAD
1000
CamClosedContour:1
1000
CamContourIndex:4
1000
CamDirection:1
1000
CamFeedRate:200
1000
CamTool:1
1000
CamZPass:1
1000
CamZPasses:1
1000
reversed:1
  0
ARC
  5
54B
330
6AB
100
AcDbEntity
  8
CAM ... GCodeMM ... normal
100
AcDbCircle
 10
33.40221242311088
 20
5.286433458753102
 30
0.1
 40
5.578170772558963
100
AcDbArc
 50
9.368984972324313
 51
20.65891006330722
1001
QCAD
1000
CamClosedContour:1
1000
CamContourIndex:4
1000
CamDirection:1
1000
CamFeedRate:200
1000
CamTool:1
1000
CamZPass:1
1000
CamZPasses:1
1000
reversed:1
  0
ARC
  5
54C
330
6AB
100
AcDbEntity
  8
CAM ... GCodeMM ... normal
100
AcDbCircle
 10
30.92200433828484
 20
4.877216916780332
 30
0.1
 40
8.09191107781339
100
AcDbArc
 50
0.0
 51
9.368984972324665
1001
QCAD
1000
CamClosedContour:1
1000
CamContourIndex:4
1000
CamDirection:1
1000
CamFeedRate:200
1000
CamTool:1
1000
CamZPass:1
1000
CamZPasses:1
1000
reversed:1
  0
ARC
  5
54D
330
6AB
100
AcDbEntity
  8
CAM ... GCodeMM ... normal
100
AcDbCircle
 10
30.37707119032758
 20
4.877216916780344
 30
0.1
 40
8.63684422577064
100
AcDbArc
 50
352.4941282417822
 51
0.0
1001
QCAD
1000
CamClosedContour:1
1000
CamContourIndex:4
1000
CamDirection:1
1000
CamFeedRate:200
1000
CamTool:1
1000
CamZPass:1
1000
CamZPasses:1
1000
reversed:1
  0
ARC
  5
54E
330
6AB
100
AcDbEntity
  8
CAM ... GCodeMM ... normal
100
AcDbCircle
 10
33.37651545451259
 20
4.482019868458698
 30
0.1
 40
5.611477041286344
100
AcDbArc
 50
343.1785901099591
 51
352.4941282417819
1001
QCAD
1000
CamClosedContour:1
1000
CamContourIndex:4
1000
CamDirection:1
1000
CamFeedRate:200
1000
CamTool:1
1000
CamZPass:1
1000
CamZPasses:1
1000
reversed:1
  0
ARC
  5
54F
330
6AB
100
AcDbEntity
  8
CAM ... GCodeMM ... normal
100
AcDbCircle
 10
32.70799058133101
 20
4.684132039420579
 30
0.1
 40
6.309885829685636
100
AcDbArc
 50
334.9023565978309
 51
343.178590109959
1001
QCAD
1000
CamClosedContour:1
1000
CamContourIndex:4
1000
CamDirection:1
1000
CamFeedRate:200
1000
CamTool:1
1000
CamZPass:1
1000
CamZPasses:1
1000
reversed:1
  0
ARC
  5
550
330
6AB
100
AcDbEntity
  8
CAM ... GCodeMM ... normal
100
AcDbCircle
 10
35.01708948825169
 20
3.602586883954184
 30
0.1
 40
3.76004707296883
100
AcDbArc
 50
324.1747272917517
 51
334.9023565978313
1001
QCAD
1000
CamClosedContour:1
1000
CamContourIndex:4
1000
CamDirection:1
1000
CamFeedRate:200
1000
CamTool:1
1000
CamZPass:1
1000
CamZPasses:1
1000
reversed:1
  0
ARC
  5
551
330
6AB
100
AcDbEntity
  8
CAM ... GCodeMM ... normal
100
AcDbCircle
 10
34.54367863121957
 20
3.944339100273311
 30
0.1
 40
4.343924129304259
100
AcDbArc
 50
314.8925033540605
 51
324.1747272917507
1001
QCAD
1000
CamClosedContour:1
1000
CamContourIndex:4
1000
CamDirection:1
1000
CamFeedRate:200
1000
CamTool:1
1000
CamZPass:1
1000
CamZPasses:1
1000
reversed:1
  0
ARC
  5
552
330
6AB
100
AcDbEntity
  8
CAM ... GCodeMM ... normal
100
AcDbCircle
 10
35.46795439417879
 20
3.016588616400713
 30
0.1
 40
3.034341506359185
100
AcDbArc
 50
303.7811577187313
 51
314.8925033540605
1001
QCAD
1000
CamClosedContour:1
1000
CamContourIndex:4
1000
CamDirection:1
1000
CamFeedRate:200
1000
CamTool:1
1000
CamZPass:1
1000
CamZPasses:1
1000
reversed:1
  0
ARC
  5
553
330
6AB
100
AcDbEntity
  8
CAM ... GCodeMM ... normal
100
AcDbCircle
 10
35.45013608292081
 20
3.043224236322465
 30
0.1
 40
3.066387543004962
100
AcDbArc
 50
292.7824057304817
 51
303.7811577187309
1001
QCAD
1000
CamClosedContour:1
1000
CamContourIndex:4
1000
CamDirection:1
1000
CamFeedRate:200
1000
CamTool:1
1000
CamZPass:1
1000
CamZPasses:1
1000
reversed:1
  0
ARC
  5
554
330
6AB
100
AcDbEntity
  8
CAM ... GCodeMM ... normal
100
AcDbCircle
 10
34.8952368890131
 20
4.3644127932456
 30
0.1
 40
4.499374744044827
100
AcDbArc
 50
283.7069610040795
 51
292.7824057304817
1001
QCAD
1000
CamClosedContour:1
1000
CamContourIndex:4
1000
CamDirection:1
1000
CamFeedRate:200
1000
CamTool:1
1000
CamZPass:1
1000
CamZPasses:1
1000
reversed:1
  0
ARC
  5
555
330
6AB
100
AcDbEntity
  8
CAM ... GCodeMM ... normal
100
AcDbCircle
 10
34.69012675568777
 20
5.205364339879474
 30
0.1
 40
5.364978389242005
100
AcDbArc
 50
276.059659744287
 51
283.7069610040794
1001
QCAD
1000
CamClosedContour:1
1000
CamContourIndex:4
1000
CamDirection:1
1000
CamFeedRate:200
1000
CamTool:1
1000
CamZPass:1
1000
CamZPasses:1
1000
reversed:1
  0
ARC
  5
556
330
6AB
100
AcDbEntity
  8
CAM ... GCodeMM ... normal
100
AcDbCircle
 10
34.3549795361528
 20
8.362451147898868
 30
0.1
 40
8.539804490327244
100
AcDbArc
 50
269.9999999999999
 51
276.059659744287
1001
QCAD
1000
CamClosedContour:1
1000
CamContourIndex:4
1000
CamDirection:1
1000
CamFeedRate:200
1000
CamTool:1
1000
CamZPass:1
1000
CamZPasses:1
1000
reversed:1
  0
LINE
  5
557
330
6AB
100
AcDbEntity
  8
CAM ... GCodeMM ... normal
100
AcDbLine
 10
34.3549795361528
 20
-0.1773533424283773
 30
0.1
 11
30.74652114597545
 21
-0.1773533424283773
 31
0.1
1001
QCAD
1000
CamClosedContour:1
1000
CamContourIndex:4
1000
CamDirection:1
1000
CamFeedRate:200
1000
CamLast:1
1000
CamLastSegment:1
1000
CamTool:1
1000
CamZPass:1
1000
CamZPasses:1
  0
LINE
  5
558
330
6AB
100
AcDbEntity
  8
CAM ... GCodeMM ... normal
100
AcDbLine
 10
30.74652114597545
 20
-0.1773533424283773
 30
0.1
 11
30.74652114597545
 21
-0.1773533424283773
 31
2.0
1001
QCAD
1000
CamContourIndex:4
1000
CamDirection:1
1000
CamFeedRate:200
1000
CamTool:1
1000
CamToolUp:1
1000
CamZMove:1
1000
CamZPass:1
1000
CamZPasses:1
  0
LINE
  5
559
330
6AB
100
AcDbEntity
  8
CAM ... GCodeMM ... rapid
100
AcDbLine
 10
30.74652114597545
 20
-0.1773533424283773
 30
2.0
 11
39.75552523874488
 21
-0.3478854024556637
 31
2.0
1001
QCAD
1000
CamClosedContour:1
1000
CamContourIndex:9
1000
CamFirst:1
1000
CamFirstSegment:1
1000
CamRapidMove:1
1000
CamTool:1
1000
CamZPass:1
1000
CamZPasses:1
  0
LINE
  5
55A
330
6AB
100
AcDbEntity
  8
CAM ... GCodeMM ... rapid
100
AcDbLine
 10
39.75552523874488
 20
-0.3478854024556637
 30
2.0
 11
39.75552523874488
 21
-0.3478854024556637
 31
2.0
1001
QCAD
1000
CamClosedContour:1
1000
CamContourIndex:9
1000
CamFirst:1
1000
CamFirstSegment:1
1000
CamRapidMove:1
1000
CamTool:1
1000
CamToolDownClearance:1
1000
CamZMove:1
1000
CamZPass:1
1000
CamZPasses:1
  0
LINE
  5
55B
330
6AB
100
AcDbEntity
  8
CAM ... GCodeMM ... rapid
100
AcDbLine
 10
39.75552523874488
 20
-0.3478854024556637
 30
2.0
 11
39.75552523874488
 21
-0.3478854024556637
 31
2.0
1001
QCAD
1000
CamClosedContour:1
1000
CamContourIndex:9
1000
CamFirst:1
1000
CamFirstSegment:1
1000
CamRapidMove:1
1000
CamTool:1
1000
CamToolDownClearancePass:1
1000
CamZMove:1
1000
CamZPass:1
1000
CamZPasses:1
  0
LINE
  5
55C
330
6AB
100
AcDbEntity
  8
CAM ... GCodeMM ... normal
100
AcDbLine
 10
39.75552523874488
 20
-0.3478854024556637
 30
2.0
 11
39.75552523874488
 21
-0.3478854024556637
 31
0.1
1001
QCAD
1000
CamClosedContour:1
1000
CamContourIndex:9
1000
CamDirection:1
1000
CamFeedRate:50
1000
CamFirst:1
1000
CamFirstSegment:1
1000
CamTool:1
1000
CamToolDown:1
1000
CamZMove:1
1000
CamZPass:1
1000
CamZPasses:1
  0
LINE
  5
55D
330
6AB
100
AcDbEntity
  8
CAM ... GCodeMM ... normal
100
AcDbLine
 10
39.75552523874488
 20
-0.3478854024556637
 30
0.1
 11
42.65457025920873
 21
9.993178717598907
 31
0.1
1001
QCAD
1000
CamClosedContour:1
1000
CamContourIndex:9
1000
CamDirection:1
1000
CamFeedRate:200
1000
CamFirst:1
1000
CamFirstSegment:1
1000
CamTool:1
1000
CamZPass:1
1000
CamZPasses:1
  0
LINE
  5
55E
330
6AB
100
AcDbEntity
  8
CAM ... GCodeMM ... normal
100
AcDbLine
 10
42.65457025920873
 20
9.993178717598907
 30
0.1
 11
43.6368349249659
 21
9.993178717598907
 31
0.1
1001
QCAD
1000
CamClosedContour:1
1000
CamContourIndex:9
1000
CamDirection:1
1000
CamFeedRate:200
1000
CamTool:1
1000
CamZPass:1
1000
CamZPasses:1
  0
LINE
  5
55F
330
6AB
100
AcDbEntity
  8
CAM ... GCodeMM ... normal
100
AcDbLine
 10
43.6368349249659
 20
9.993178717598907
 30
0.1
 11
40.74461118690314
 21
-0.3478854024556637
 31
0.1
1001
QCAD
1000
CamClosedContour:1
1000
CamContourIndex:9
1000
CamDirection:1
1000
CamFeedRate:200
1000
CamTool:1
1000
CamZPass:1
1000
CamZPasses:1
  0
LINE
  5
560
330
6AB
100
AcDbEntity
  8
CAM ... GCodeMM ... normal
100
AcDbLine
 10
40.74461118690314
 20
-0.3478854024556637
 30
0.1
 11
39.75552523874488
 21
-0.3478854024556637
 31
0.1
1001
QCAD
1000
CamClosedContour:1
1000
CamContourIndex:9
1000
CamDirection:1
1000
CamFeedRate:200
1000
CamLast:1
1000
CamLastSegment:1
1000
CamTool:1
1000
CamZPass:1
1000
CamZPasses:1
  0
LINE
  5
561
330
6AB
100
AcDbEntity
  8
CAM ... GCodeMM ... normal
100
AcDbLine
 10
39.75552523874488
 20
-0.3478854024556637
 30
0.1
 11
39.75552523874488
 21
-0.3478854024556637
 31
2.0
1001
QCAD
1000
CamContourIndex:9
1000
CamDirection:1
1000
CamFeedRate:200
1000
CamTool:1
1000
CamToolUp:1
1000
CamZMove:1
1000
CamZPass:1
1000
CamZPasses:1
  0
LINE
  5
562
330
6AB
100
AcDbEntity
  8
CAM ... GCodeMM ... rapid
100
AcDbLine
 10
39.75552523874488
 20
-0.3478854024556637
 30
2.0
 11
44.86098226466576
 21
2.216916780354709
 31
2.0
1001
QCAD
1000
CamClosedContour:1
1000
CamContourIndex:3
1000
CamFirst:1
1000
CamFirstSegment:1
1000
CamRapidMove:1
1000
CamTool:1
1000
CamZPass:1
1000
CamZPasses:1
  0
LINE
  5
563
330
6AB
100
AcDbEntity
  8
CAM ... GCodeMM ... rapid
100
AcDbLine
 10
44.86098226466576
 20
2.216916780354709
 30
2.0
 11
44.86098226466576
 21
2.216916780354709
 31
2.0
1001
QCAD
1000
CamClosedContour:1
1000
CamContourIndex:3
1000
CamFirst:1
1000
CamFirstSegment:1
1000
CamRapidMove:1
1000
CamTool:1
1000
CamToolDownClearance:1
1000
CamZMove:1
1000
CamZPass:1
1000
CamZPasses:1
  0
LINE
  5
564
330
6AB
100
AcDbEntity
  8
CAM ... GCodeMM ... rapid
100
AcDbLine
 10
44.86098226466576
 20
2.216916780354709
 30
2.0
 11
44.86098226466576
 21
2.216916780354709
 31
2.0
1001
QCAD
1000
CamClosedContour:1
1000
CamContourIndex:3
1000
CamFirst:1
1000
CamFirstSegment:1
1000
CamRapidMove:1
1000
CamTool:1
1000
CamToolDownClearancePass:1
1000
CamZMove:1
1000
CamZPass:1
1000
CamZPasses:1
  0
LINE
  5
565
330
6AB
100
AcDbEntity
  8
CAM ... GCodeMM ... normal
100
AcDbLine
 10
44.86098226466576
 20
2.216916780354709
 30
2.0
 11
44.86098226466576
 21
2.216916780354709
 31
0.1
1001
QCAD
1000
CamClosedContour:1
1000
CamContourIndex:3
1000
CamDirection:1
1000
CamFeedRate:50
1000
CamFirst:1
1000
CamFirstSegment:1
1000
CamTool:1
1000
CamToolDown:1
1000
CamZMove:1
1000
CamZPass:1
1000
CamZPasses:1
  0
ARC
  5
566
330
6AB
100
AcDbEntity
  8
CAM ... GCodeMM ... normal
100
AcDbCircle
 10
50.8413872398682
 20
4.749601947448618
 30
0.1
 40
6.494592968234701
100
AcDbArc
 50
191.1556480061339
 51
202.9525249192173
1001
QCAD
1000
CamClosedContour:1
1000
CamContourIndex:3
1000
CamDirection:1
1000
CamFeedRate:200
1000
CamFirst:1
1000
CamFirstSegment:1
1000
CamTool:1
1000
CamZPass:1
1000
CamZPasses:1
1000
reversed:1
  0
ARC
  5
567
330
6AB
100
AcDbEntity
  8
CAM ... GCodeMM ... normal
100
AcDbCircle
 10
51.59229014178123
 20
4.897680763983595
 30
0.1
 40
7.259957263200048
100
AcDbArc
 50
180.0
 51
191.1556480061336
1001
QCAD
1000
CamClosedContour:1
1000
CamContourIndex:3
1000
CamDirection:1
1000
CamFeedRate:200
1000
CamFirst:1
1000
CamTool:1
1000
CamZPass:1
1000
CamZPasses:1
1000
reversed:1
  0
ARC
  5
568
330
6AB
100
AcDbEntity
  8
CAM ... GCodeMM ... normal
100
AcDbCircle
 10
51.44731902847175
 20
4.897680763983614
 30
0.1
 40
7.114986149890576
100
AcDbArc
 50
167.6459434965975
 51
180.0
1001
QCAD
1000
CamClosedContour:1
1000
CamContourIndex:3
1000
CamDirection:1
1000
CamFeedRate:200
1000
CamTool:1
1000
CamZPass:1
1000
CamZPasses:1
1000
reversed:1
  0
ARC
  5
569
330
6AB
100
AcDbEntity
  8
CAM ... GCodeMM ... normal
100
AcDbCircle
 10
49.33979529690433
 20
5.359278577530941
 30
0.1
 40
4.957504094208177
100
AcDbArc
 50
152.8332649723098
 51
167.6459434965976
1001
QCAD
1000
CamClosedContour:1
1000
CamContourIndex:3
1000
CamDirection:1
1000
CamFeedRate:200
1000
CamTool:1
1000
CamZPass:1
1000
CamZPasses:1
1000
reversed:1
  0
ARC
  5
56A
330
6AB
100
AcDbEntity
  8
CAM ... GCodeMM ... normal
100
AcDbCircle
 10
48.80077775417153
 20
5.635900483625525
 30
0.1
 40
4.351649664245747
100
AcDbArc
 50
136.1277240258587
 51
152.8332649723101
1001
QCAD
1000
CamClosedContour:1
1000
CamContourIndex:3
1000
CamDirection:1
1000
CamFeedRate:200
1000
CamTool:1
1000
CamZPass:1
1000
CamZPasses:1
1000
reversed:1
  0
ARC
  5
56B
330
6AB
100
AcDbEntity
  8
CAM ... GCodeMM ... normal
100
AcDbCircle
 10
48.55528488132931
 20
5.871914867168805
 30
0.1
 40
4.011106656894781
100
AcDbArc
 50
118.7221956057068
 51
136.1277240258586
1001
QCAD
1000
CamClosedContour:1
1000
CamContourIndex:3
1000
CamDirection:1
1000
CamFeedRate:200
1000
CamTool:1
1000
CamZPass:1
1000
CamZPasses:1
1000
reversed:1
  0
ARC
  5
56C
330
6AB
100
AcDbEntity
  8
CAM ... GCodeMM ... normal
100
AcDbCircle
 10
48.92385075779767
 20
5.199334199941328
 30
0.1
 40
4.778052260718835
100
AcDbArc
 50
103.9793459895957
 51
118.7221956057073
1001
QCAD
1000
CamClosedContour:1
1000
CamContourIndex:3
1000
CamDirection:1
1000
CamFeedRate:200
1000
CamTool:1
1000
CamZPass:1
1000
CamZPasses:1
1000
reversed:1
  0
ARC
  5
56D
330
6AB
100
AcDbEntity
  8
CAM ... GCodeMM ... normal
100
AcDbCircle
 10
49.05266030013643
 20
4.681912818004285
 30
0.1
 40
5.311265899594623
100
AcDbArc
 50
90.00000000000009
 51
103.9793459895958
1001
QCAD
1000
CamClosedContour:1
1000
CamContourIndex:3
1000
CamDirection:1
1000
CamFeedRate:200
1000
CamTool:1
1000
CamZPass:1
1000
CamZPasses:1
1000
reversed:1
  0
ARC
  5
56E
330
6AB
100
AcDbEntity
  8
CAM ... GCodeMM ... normal
100
AcDbCircle
 10
49.05266030013642
 20
5.05616428615557
 30
0.1
 40
4.937014431443337
100
AcDbArc
 50
73.15879426385766
 51
90.0
1001
QCAD
1000
CamClosedContour:1
1000
CamContourIndex:3
1000
CamDirection:1
1000
CamFeedRate:200
1000
CamTool:1
1000
CamZPass:1
1000
CamZPasses:1
1000
reversed:1
  0
ARC
  5
56F
330
6AB
100
AcDbEntity
  8
CAM ... GCodeMM ... normal
100
AcDbCircle
 10
49.45628883023547
 20
6.389579965947075
 30
0.1
 40
3.543847763228887
100
AcDbArc
 50
53.25252904713592
 51
73.15879426385766
1001
QCAD
1000
CamClosedContour:1
1000
CamContourIndex:3
1000
CamDirection:1
1000
CamFeedRate:200
1000
CamTool:1
1000
CamZPass:1
1000
CamZPasses:1
1000
reversed:1
  0
ARC
  5
570
330
6AB
100
AcDbEntity
  8
CAM ... GCodeMM ... normal
100
AcDbCircle
 10
49.43349339251771
 20
6.359050361860771
 30
0.1
 40
3.581948796107411
100
AcDbArc
 50
33.56395816356626
 51
53.25252904713609
1001
QCAD
1000
CamClosedContour:1
1000
CamContourIndex:3
1000
CamDirection:1
1000
CamFeedRate:200
1000
CamTool:1
1000
CamZPass:1
1000
CamZPasses:1
1000
reversed:1
  0
ARC
  5
571
330
6AB
100
AcDbEntity
  8
CAM ... GCodeMM ... normal
100
AcDbCircle
 10
48.58660291508642
 20
5.797145251438098
 30
0.1
 40
4.59829560398498
100
AcDbArc
 50
16.20599868899463
 51
33.56395816356638
1001
QCAD
1000
CamClosedContour:1
1000
CamContourIndex:3
1000
CamDirection:1
1000
CamFeedRate:200
1000
CamTool:1
1000
CamZPass:1
1000
CamZPasses:1
1000
reversed:1
  0
LINE
  5
572
330
6AB
100
AcDbEntity
  8
CAM ... GCodeMM ... normal
100
AcDbLine
 10
53.00218281036835
 20
7.080491132332877
 30
0.1
 11
51.6993178717599
 21
6.773533424283765
 31
0.1
1001
QCAD
1000
CamClosedContour:1
1000
CamContourIndex:3
1000
CamDirection:1
1000
CamFeedRate:200
1000
CamTool:1
1000
CamZPass:1
1000
CamZPasses:1
  0
ARC
  5
573
330
6AB
100
AcDbEntity
  8
CAM ... GCodeMM ... normal
100
AcDbCircle
 10
47.58066302498782
 20
5.460712191875134
 30
0.1
 40
4.322825156665717
100
AcDbArc
 50
17.67968097743927
 51
32.42343255238529
1001
QCAD
1000
CamClosedContour:1
1000
CamContourIndex:3
1000
CamDirection:1
1000
CamFeedRate:200
1000
CamTool:1
1000
CamZPass:1
1000
CamZPasses:1
  0
ARC
  5
574
330
6AB
100
AcDbEntity
  8
CAM ... GCodeMM ... normal
100
AcDbCircle
 10
49.35278331870423
 20
6.586350833377398
 30
0.1
 40
2.223426984178037
100
AcDbArc
 50
32.42343255238526
 51
53.03571071053413
1001
QCAD
1000
CamClosedContour:1
1000
CamContourIndex:3
1000
CamDirection:1
1000
CamFeedRate:200
1000
CamTool:1
1000
CamZPass:1
1000
CamZPasses:1
  0
ARC
  5
575
330
6AB
100
AcDbEntity
  8
CAM ... GCodeMM ... normal
100
AcDbCircle
 10
49.33606652659233
 20
6.564138109612209
 30
0.1
 40
2.251227276183362
100
AcDbArc
 50
53.03571071053508
 51
73.34385149275187
1001
QCAD
1000
CamClosedContour:1
1000
CamContourIndex:3
1000
CamDirection:1
1000
CamFeedRate:200
1000
CamTool:1
1000
CamZPass:1
1000
CamZPasses:1
  0
ARC
  5
576
330
6AB
100
AcDbEntity
  8
CAM ... GCodeMM ... normal
100
AcDbCircle
 10
49.02537517053206
 20
5.525662892095696
 30
0.1
 40
3.335182946922041
100
AcDbArc
 50
73.34385149275174
 51
89.99999999999987
1001
QCAD
1000
CamClosedContour:1
1000
CamContourIndex:3
1000
CamDirection:1
1000
CamFeedRate:200
1000
CamTool:1
1000
CamZPass:1
1000
CamZPasses:1
  0
ARC
  5
577
330
6AB
100
AcDbEntity
  8
CAM ... GCodeMM ... normal
100
AcDbCircle
 10
49.02537517053206
 20
4.858407403745842
 30
0.1
 40
4.002438435271892
100
AcDbArc
 50
89.9999999999999
 51
105.9989558568226
1001
QCAD
1000
CamClosedContour:1
1000
CamContourIndex:3
1000
CamDirection:1
1000
CamFeedRate:200
1000
CamTool:1
1000
CamZPass:1
1000
CamZPasses:1
  0
ARC
  5
578
330
6AB
100
AcDbEntity
  8
CAM ... GCodeMM ... normal
100
AcDbCircle
 10
48.66604270996714
 20
6.111634812506217
 30
0.1
 40
2.69871348142469
100
AcDbArc
 50
105.9989558568227
 51
125.5137946005641
1001
QCAD
1000
CamClosedContour:1
1000
CamContourIndex:3
1000
CamDirection:1
1000
CamFeedRate:200
1000
CamTool:1
1000
CamZPass:1
1000
CamZPasses:1
  0
ARC
  5
579
330
6AB
100
AcDbEntity
  8
CAM ... GCodeMM ... normal
100
AcDbCircle
 10
48.77716751462251
 20
5.955922894871783
 30
0.1
 40
2.890011478024467
100
AcDbArc
 50
125.5137946005633
 51
143.746162262555
1001
QCAD
1000
CamClosedContour:1
1000
CamContourIndex:3
1000
CamDirection:1
1000
CamFeedRate:200
1000
CamTool:1
1000
CamZPass:1
1000
CamZPasses:1
  0
ARC
  5
57A
330
6AB
100
AcDbEntity
  8
CAM ... GCodeMM ... normal
100
AcDbCircle
 10
48.93771532394409
 20
5.838187834702621
 30
0.1
 40
3.089102270054113
100
AcDbArc
 50
143.7461622625549
 51
161.3763720143946
1001
QCAD
1000
CamClosedContour:1
1000
CamContourIndex:3
1000
CamDirection:1
1000
CamFeedRate:200
1000
CamTool:1
1000
CamZPass:1
1000
CamZPasses:1
  0
ARC
  5
57B
330
6AB
100
AcDbEntity
  8
CAM ... GCodeMM ... normal
100
AcDbCircle
 10
51.66955511362249
 20
4.914190766571004
 30
0.1
 40
5.972973612832011
100
AcDbArc
 50
161.3456737735939
 51
180.0929391380235
1001
QCAD
1000
CamClosedContour:1
1000
CamContourIndex:3
1000
CamDirection:1
1000
CamFeedRate:200
1000
CamTool:1
1000
CamZPass:1
1000
CamZPasses:1
  0
ARC
  5
57C
330
6AB
100
AcDbEntity
  8
CAM ... GCodeMM ... normal
100
AcDbCircle
 10
53.32496637754805
 20
4.904502046384712
 30
0.1
 40
7.628377018748592
100
AcDbArc
 50
180.0
 51
189.4765501142425
1001
QCAD
1000
CamClosedContour:1
1000
CamContourIndex:3
1000
CamDirection:1
1000
CamFeedRate:200
1000
CamTool:1
1000
CamZPass:1
1000
CamZPasses:1
  0
ARC
  5
57D
330
6AB
100
AcDbEntity
  8
CAM ... GCodeMM ... normal
100
AcDbCircle
 10
50.60832269447693
 20
4.451034724095658
 30
0.1
 40
4.874146543070446
100
AcDbArc
 50
189.4765501142426
 51
201.3396432080137
1001
QCAD
1000
CamClosedContour:1
1000
CamContourIndex:3
1000
CamDirection:1
1000
CamFeedRate:200
1000
CamTool:1
1000
CamZPass:1
1000
CamZPasses:1
  0
ARC
  5
57E
330
6AB
100
AcDbEntity
  8
CAM ... GCodeMM ... normal
100
AcDbCircle
 10
49.02832427322102
 20
3.833759355217843
 30
0.1
 40
3.177849431066061
100
AcDbArc
 50
201.339643208013
 51
219.1093735837954
1001
QCAD
1000
CamClosedContour:1
1000
CamContourIndex:3
1000
CamDirection:1
1000
CamFeedRate:200
1000
CamTool:1
1000
CamZPass:1
1000
CamZPasses:1
  0
ARC
  5
57F
330
6AB
100
AcDbEntity
  8
CAM ... GCodeMM ... normal
100
AcDbCircle
 10
48.52741352528237
 20
3.426544142864866
 30
0.1
 40
2.532298653379188
100
AcDbArc
 50
219.1093735837958
 51
239.0362434679263
1001
QCAD
1000
CamClosedContour:1
1000
CamContourIndex:3
1000
CamDirection:1
1000
CamFeedRate:200
1000
CamTool:1
1000
CamZPass:1
1000
CamZPasses:1
  0
ARC
  5
580
330
6AB
100
AcDbEntity
  8
CAM ... GCodeMM ... normal
100
AcDbCircle
 10
48.92455538087292
 20
4.088447235515829
 30
0.1
 40
3.304203671838594
100
AcDbArc
 50
239.0362434679267
 51
254.5114985570904
1001
QCAD
1000
CamClosedContour:1
1000
CamContourIndex:3
1000
CamDirection:1
1000
CamFeedRate:200
1000
CamTool:1
1000
CamZPass:1
1000
CamZPasses:1
  0
ARC
  5
581
330
6AB
100
AcDbEntity
  8
CAM ... GCodeMM ... normal
100
AcDbCircle
 10
48.9230559345157
 20
4.08303618996584
 30
0.1
 40
3.29858871384033
100
AcDbArc
 50
254.5114985570903
 51
269.9999999999999
1001
QCAD
1000
CamClosedContour:1
1000
CamContourIndex:3
1000
CamDirection:1
1000
CamFeedRate:200
1000
CamTool:1
1000
CamZPass:1
1000
CamZPasses:1
  0
ARC
  5
582
330
6AB
100
AcDbEntity
  8
CAM ... GCodeMM ... normal
100
AcDbCircle
 10
48.92305593451569
 20
4.038382698581411
 30
0.1
 40
3.2539352224559
100
AcDbArc
 50
270.0
 51
288.8078011270346
1001
QCAD
1000
CamClosedContour:1
1000
CamContourIndex:3
1000
CamDirection:1
1000
CamFeedRate:200
1000
CamTool:1
1000
CamZPass:1
1000
CamZPasses:1
  0
ARC
  5
583
330
6AB
100
AcDbEntity
  8
CAM ... GCodeMM ... normal
100
AcDbCircle
 10
49.12461976328608
 20
3.446556988574749
 30
0.1
 40
2.628726738753492
100
AcDbArc
 50
288.8078011270347
 51
309.7556618892849
1001
QCAD
1000
CamClosedContour:1
1000
CamContourIndex:3
1000
CamDirection:1
1000
CamFeedRate:200
1000
CamTool:1
1000
CamZPass:1
1000
CamZPasses:1
  0
ARC
  5
584
330
6AB
100
AcDbEntity
  8
CAM ... GCodeMM ... normal
100
AcDbCircle
 10
49.16404200835056
 20
3.399166417380265
 30
0.1
 40
2.567082763832469
100
AcDbArc
 50
309.7556618892842
 51
331.260204708312
1001
QCAD
1000
CamClosedContour:1
1000
CamContourIndex:3
1000
CamDirection:1
1000
CamFeedRate:200
1000
CamTool:1
1000
CamZPass:1
1000
CamZPasses:1
  0
ARC
  5
585
330
6AB
100
AcDbEntity
  8
CAM ... GCodeMM ... normal
100
AcDbCircle
 10
47.62798222822459
 20
4.241521780675149
 30
0.1
 40
4.318950968405034
100
AcDbArc
 50
331.260204708312
 51
347.7995312726193
1001
QCAD
1000
CamClosedContour:1
1000
CamContourIndex:3
1000
CamDirection:1
1000
CamFeedRate:200
1000
CamTool:1
1000
CamZPass:1
1000
CamZPasses:1
  0
LINE
  5
586
330
6AB
100
AcDbEntity
  8
CAM ... GCodeMM ... normal
100
AcDbLine
 10
51.84938608458391
 20
3.328785811732605
 30
0.1
 11
53.17271487039564
 21
2.994542974079126
 31
0.1
1001
QCAD
1000
CamClosedContour:1
1000
CamContourIndex:3
1000
CamDirection:1
1000
CamFeedRate:200
1000
CamTool:1
1000
CamZPass:1
1000
CamZPasses:1
  0
ARC
  5
587
330
6AB
100
AcDbEntity
  8
CAM ... GCodeMM ... normal
100
AcDbCircle
 10
47.77982915931428
 20
4.370969871049708
 30
0.1
 40
5.565767448922888
100
AcDbArc
 50
328.9438682484679
 51
345.6820686368717
1001
QCAD
1000
CamClosedContour:1
1000
CamContourIndex:3
1000
CamDirection:1
1000
CamFeedRate:200
1000
CamTool:1
1000
CamZPass:1
1000
CamZPasses:1
1000
reversed:1
  0
ARC
  5
588
330
6AB
100
AcDbEntity
  8
CAM ... GCodeMM ... normal
100
AcDbCircle
 10
49.37978254018383
 20
3.407486285039089
 30
0.1
 40
3.698108100575933
100
AcDbArc
 50
308.3721145986765
 51
328.943868248468
1001
QCAD
1000
CamClosedContour:1
1000
CamContourIndex:3
1000
CamDirection:1
1000
CamFeedRate:200
1000
CamTool:1
1000
CamZPass:1
1000
CamZPasses:1
1000
reversed:1
  0
ARC
  5
589
330
6AB
100
AcDbEntity
  8
CAM ... GCodeMM ... normal
100
AcDbCircle
 10
49.36725850752781
 20
3.423303489628514
 30
0.1
 40
3.718283217799702
100
AcDbArc
 50
287.9456334097413
 51
308.3721145986768
1001
QCAD
1000
CamClosedContour:1
1000
CamContourIndex:3
1000
CamDirection:1
1000
CamFeedRate:200
1000
CamTool:1
1000
CamZPass:1
1000
CamZPasses:1
1000
reversed:1
  0
ARC
  5
58A
330
6AB
100
AcDbEntity
  8
CAM ... GCodeMM ... normal
100
AcDbCircle
 10
49.03219645293315
 20
4.457857642261397
 30
0.1
 40
4.805743044717062
100
AcDbArc
 50
270.0000000000001
 51
287.9456334097415
1001
QCAD
1000
CamClosedContour:1
1000
CamContourIndex:3
1000
CamDirection:1
1000
CamFeedRate:200
1000
CamTool:1
1000
CamZPass:1
1000
CamZPasses:1
1000
reversed:1
  0
ARC
  5
58B
330
6AB
100
AcDbEntity
  8
CAM ... GCodeMM ... normal
100
AcDbCircle
 10
49.03219645293315
 20
6.074947089753504
 30
0.1
 40
6.422832492209166
100
AcDbArc
 50
255.946272315493
 51
270.0000000000001
1001
QCAD
1000
CamClosedContour:1
1000
CamContourIndex:3
1000
CamDirection:1
1000
CamFeedRate:200
1000
CamTool:1
1000
CamZPass:1
1000
CamZPasses:1
1000
reversed:1
  0
ARC
  5
58C
330
6AB
100
AcDbEntity
  8
CAM ... GCodeMM ... normal
100
AcDbCircle
 10
48.33267915266337
 20
3.280502330644667
 30
0.1
 40
3.542164867319485
100
AcDbArc
 50
236.9829138123233
 51
255.9462723154929
1001
QCAD
1000
CamClosedContour:1
1000
CamContourIndex:3
1000
CamDirection:1
1000
CamFeedRate:200
1000
CamTool:1
1000
CamZPass:1
1000
CamZPasses:1
1000
reversed:1
  0
ARC
  5
58D
330
6AB
100
AcDbEntity
  8
CAM ... GCodeMM ... normal
100
AcDbCircle
 10
48.43148776664002
 20
3.432554964588009
 30
0.1
 40
3.723501972416849
100
AcDbArc
 50
218.958545218572
 51
236.9829138123235
1001
QCAD
1000
CamClosedContour:1
1000
CamContourIndex:3
1000
CamDirection:1
1000
CamFeedRate:200
1000
CamLast:1
1000
CamTool:1
1000
CamZPass:1
1000
CamZPasses:1
1000
reversed:1
  0
ARC
  5
58E
330
6AB
100
AcDbEntity
  8
CAM ... GCodeMM ... normal
100
AcDbCircle
 10
49.20133774891545
 20
4.055045469039655
 30
0.1
 40
4.713534003889547
100
AcDbArc
 50
202.9525249192171
 51
218.9585452185716
1001
QCAD
1000
CamClosedContour:1
1000
CamContourIndex:3
1000
CamDirection:1
1000
CamFeedRate:200
1000
CamLast:1
1000
CamLastSegment:1
1000
CamTool:1
1000
CamZPass:1
1000
CamZPasses:1
1000
reversed:1
  0
LINE
  5
58F
330
6AB
100
AcDbEntity
  8
CAM ... GCodeMM ... normal
100
AcDbLine
 10
44.86098226466576
 20
2.216916780354708
 30
0.1
 11
44.86098226466576
 21
2.216916780354708
 31
2.0
1001
QCAD
1000
CamContourIndex:3
1000
CamDirection:1
1000
CamFeedRate:200
1000
CamTool:1
1000
CamToolUp:1
1000
CamZMove:1
1000
CamZPass:1
1000
CamZPasses:1
  0
LINE
  5
590
330
6AB
100
AcDbEntity
  8
CAM ... GCodeMM ... rapid
100
AcDbLine
 10
44.86098226466576
 20
2.216916780354708
 30
2.0
 11
56.58826739427013
 21
3.929058663028648
 31
2.0
1001
QCAD
1000
CamClosedContour:1
1000
CamContourIndex:5
1000
CamFirst:1
1000
CamFirstSegment:1
1000
CamRapidMove:1
1000
CamTool:1
1000
CamZPass:1
1000
CamZPasses:1
  0
LINE
  5
591
330
6AB
100
AcDbEntity
  8
CAM ... GCodeMM ... rapid
100
AcDbLine
 10
56.58826739427013
 20
3.929058663028648
 30
2.0
 11
56.58826739427013
 21
3.929058663028648
 31
2.0
1001
QCAD
1000
CamClosedContour:1
1000
CamContourIndex:5
1000
CamFirst:1
1000
CamFirstSegment:1
1000
CamRapidMove:1
1000
CamTool:1
1000
CamToolDownClearance:1
1000
CamZMove:1
1000
CamZPass:1
1000
CamZPasses:1
  0
LINE
  5
592
330
6AB
100
AcDbEntity
  8
CAM ... GCodeMM ... rapid
100
AcDbLine
 10
56.58826739427013
 20
3.929058663028648
 30
2.0
 11
56.58826739427013
 21
3.929058663028648
 31
2.0
1001
QCAD
1000
CamClosedContour:1
1000
CamContourIndex:5
1000
CamFirst:1
1000
CamFirstSegment:1
1000
CamRapidMove:1
1000
CamTool:1
1000
CamToolDownClearancePass:1
1000
CamZMove:1
1000
CamZPass:1
1000
CamZPasses:1
  0
LINE
  5
593
330
6AB
100
AcDbEntity
  8
CAM ... GCodeMM ... normal
100
AcDbLine
 10
56.58826739427013
 20
3.929058663028648
 30
2.0
 11
56.58826739427013
 21
3.929058663028648
 31
0.1
1001
QCAD
1000
CamClosedContour:1
1000
CamContourIndex:5
1000
CamDirection:1
1000
CamFeedRate:50
1000
CamFirst:1
1000
CamFirstSegment:1
1000
CamTool:1
1000
CamToolDown:1
1000
CamZMove:1
1000
CamZPass:1
1000
CamZPasses:1
  0
LINE
  5
594
330
6AB
100
AcDbEntity
  8
CAM ... GCodeMM ... normal
100
AcDbLine
 10
56.58826739427013
 20
3.929058663028648
 30
0.1
 11
59.97844474761255
 21
3.929058663028648
 31
0.1
1001
QCAD
1000
CamClosedContour:1
1000
CamContourIndex:5
1000
CamDirection:1
1000
CamFeedRate:200
1000
CamFirst:1
1000
CamFirstSegment:1
1000
CamTool:1
1000
CamZPass:1
1000
CamZPasses:1
  0
LINE
  5
595
330
6AB
100
AcDbEntity
  8
CAM ... GCodeMM ... normal
100
AcDbLine
 10
59.97844474761255
 20
3.929058663028648
 30
0.1
 11
58.93478854024557
 21
6.698499317871758
 31
0.1
1001
QCAD
1000
CamClosedContour:1
1000
CamContourIndex:5
1000
CamDirection:1
1000
CamFeedRate:200
1000
CamTool:1
1000
CamZPass:1
1000
CamZPasses:1
  0
ARC
  5
596
330
6AB
100
AcDbEntity
  8
CAM ... GCodeMM ... normal
100
AcDbCircle
 10
98.22198391645796
 20
21.56392459535739
 30
0.1
 40
42.00553045980009
100
AcDbArc
 50
198.8860873697093
 51
200.7255588655604
1001
QCAD
1000
CamClosedContour:1
1000
CamContourIndex:5
1000
CamDirection:1
1000
CamFeedRate:200
1000
CamTool:1
1000
CamZPass:1
1000
CamZPasses:1
1000
reversed:1
  0
ARC
  5
597
330
6AB
100
AcDbEntity
  8
CAM ... GCodeMM ... normal
100
AcDbCircle
 10
74.03100531386471
 20
13.28806349446996
 30
0.1
 40
16.43810347325516
100
AcDbArc
 50
195.9453959009227
 51
198.8860873697085
1001
QCAD
1000
CamClosedContour:1
1000
CamContourIndex:5
1000
CamDirection:1
1000
CamFeedRate:200
1000
CamTool:1
1000
CamZPass:1
1000
CamZPasses:1
1000
reversed:1
  0
ARC
  5
598
330
6AB
100
AcDbEntity
  8
CAM ... GCodeMM ... normal
100
AcDbCircle
 10
45.72447469508918
 20
11.26820865246281
 30
0.1
 40
12.74765569843751
100
AcDbArc
 50
339.7796158971244
 51
348.70831656571
1001
QCAD
1000
CamClosedContour:1
1000
CamContourIndex:5
1000
CamDirection:1
1000
CamFeedRate:200
1000
CamTool:1
1000
CamZPass:1
1000
CamZPasses:1
1000
reversed:1
  0
LINE
  5
599
330
6AB
100
AcDbEntity
  8
CAM ... GCodeMM ... normal
100
AcDbLine
 10
57.68649386084584
 20
6.862210095497952
 30
0.1
 11
56.58826739427013
 21
3.929058663028648
 31
0.1
1001
QCAD
1000
CamClosedContour:1
1000
CamContourIndex:5
1000
CamDirection:1
1000
CamFeedRate:200
1000
CamLast:1
1000
CamLastSegment:1
1000
CamTool:1
1000
CamZPass:1
1000
CamZPasses:1
  0
LINE
  5
59A
330
6AB
100
AcDbEntity
  8
CAM ... GCodeMM ... normal
100
AcDbLine
 10
56.58826739427013
 20
3.929058663028648
 30
0.1
 11
56.58826739427013
 21
3.929058663028648
 31
2.0
1001
QCAD
1000
CamContourIndex:5
1000
CamDirection:1
1000
CamFeedRate:200
1000
CamTool:1
1000
CamToolUp:1
1000
CamZMove:1
1000
CamZPass:1
1000
CamZPasses:1
  0
LINE
  5
59B
330
6AB
100
AcDbEntity
  8
CAM ... GCodeMM ... rapid
100
AcDbLine
 10
56.58826739427013
 20
3.929058663028648
 30
2.0
 11
53.70286493860846
 21
-0.1773533424283773
 31
2.0
1001
QCAD
1000
CamClosedContour:1
1000
CamContourIndex:5
1000
CamFirst:1
1000
CamFirstSegment:1
1000
CamRapidMove:1
1000
CamTool:1
1000
CamZPass:1
1000
CamZPasses:1
  0
LINE
  5
59C
330
6AB
100
AcDbEntity
  8
CAM ... GCodeMM ... rapid
100
AcDbLine
 10
53.70286493860846
 20
-0.1773533424283773
 30
2.0
 11
53.70286493860846
 21
-0.1773533424283773
 31
2.0
1001
QCAD
1000
CamClosedContour:1
1000
CamContourIndex:5
1000
CamFirst:1
1000
CamFirstSegment:1
1000
CamRapidMove:1
1000
CamTool:1
1000
CamToolDownClearance:1
1000
CamZMove:1
1000
CamZPass:1
1000
CamZPasses:1
  0
LINE
  5
59D
330
6AB
100
AcDbEntity
  8
CAM ... GCodeMM ... rapid
100
AcDbLine
 10
53.70286493860846
 20
-0.1773533424283773
 30
2.0
 11
53.70286493860846
 21
-0.1773533424283773
 31
2.0
1001
QCAD
1000
CamClosedContour:1
1000
CamContourIndex:5
1000
CamFirst:1
1000
CamFirstSegment:1
1000
CamRapidMove:1
1000
CamTool:1
1000
CamToolDownClearancePass:1
1000
CamZMove:1
1000
CamZPass:1
1000
CamZPasses:1
  0
LINE
  5
59E
330
6AB
100
AcDbEntity
  8
CAM ... GCodeMM ... normal
100
AcDbLine
 10
53.70286493860846
 20
-0.1773533424283773
 30
2.0
 11
53.70286493860846
 21
-0.1773533424283773
 31
0.1
1001
QCAD
1000
CamClosedContour:1
1000
CamContourIndex:5
1000
CamDirection:1
1000
CamFeedRate:50
1000
CamFirst:1
1000
CamFirstSegment:1
1000
CamTool:1
1000
CamToolDown:1
1000
CamZMove:1
1000
CamZPass:1
1000
CamZPasses:1
  0
LINE
  5
59F
330
6AB
100
AcDbEntity
  8
CAM ... GCodeMM ... normal
100
AcDbLine
 10
53.70286493860846
 20
-0.1773533424283773
 30
0.1
 11
57.54324693042292
 21
9.822646657571623
 31
0.1
1001
QCAD
1000
CamClosedContour:1
1000
CamContourIndex:5
1000
CamDirection:1
1000
CamFeedRate:200
1000
CamFirst:1
1000
CamFirstSegment:1
1000
CamTool:1
1000
CamZPass:1
1000
CamZPasses:1
  0
LINE
  5
5A0
330
6AB
100
AcDbEntity
  8
CAM ... GCodeMM ... normal
100
AcDbLine
 10
57.54324693042292
 20
9.822646657571623
 30
0.1
 11
58.96889495225103
 21
9.822646657571623
 31
0.1
1001
QCAD
1000
CamClosedContour:1
1000
CamContourIndex:5
1000
CamDirection:1
1000
CamFeedRate:200
1000
CamTool:1
1000
CamZPass:1
1000
CamZPasses:1
  0
LINE
  5
5A1
330
6AB
100
AcDbEntity
  8
CAM ... GCodeMM ... normal
100
AcDbLine
 10
58.96889495225103
 20
9.822646657571623
 30
0.1
 11
63.06166439290588
 21
-0.1773533424283773
 31
0.1
1001
QCAD
1000
CamClosedContour:1
1000
CamContourIndex:5
1000
CamDirection:1
1000
CamFeedRate:200
1000
CamTool:1
1000
CamZPass:1
1000
CamZPasses:1
  0
LINE
  5
5A2
330
6AB
100
AcDbEntity
  8
CAM ... GCodeMM ... normal
100
AcDbLine
 10
63.06166439290588
 20
-0.1773533424283773
 30
0.1
 11
61.55416098226467
 21
-0.1773533424283773
 31
0.1
1001
QCAD
1000
CamClosedContour:1
1000
CamContourIndex:5
1000
CamDirection:1
1000
CamFeedRate:200
1000
CamTool:1
1000
CamZPass:1
1000
CamZPasses:1
  0
LINE
  5
5A3
330
6AB
100
AcDbEntity
  8
CAM ... GCodeMM ... normal
100
AcDbLine
 10
61.55416098226467
 20
-0.1773533424283773
 30
0.1
 11
60.38772169167804
 21
2.851296043656206
 31
0.1
1001
QCAD
1000
CamClosedContour:1
1000
CamContourIndex:5
1000
CamDirection:1
1000
CamFeedRate:200
1000
CamTool:1
1000
CamZPass:1
1000
CamZPasses:1
  0
LINE
  5
5A4
330
6AB
100
AcDbEntity
  8
CAM ... GCodeMM ... normal
100
AcDbLine
 10
60.38772169167804
 20
2.851296043656206
 30
0.1
 11
56.206275579809
 21
2.851296043656206
 31
0.1
1001
QCAD
1000
CamClosedContour:1
1000
CamContourIndex:5
1000
CamDirection:1
1000
CamFeedRate:200
1000
CamTool:1
1000
CamZPass:1
1000
CamZPasses:1
  0
LINE
  5
5A5
330
6AB
100
AcDbEntity
  8
CAM ... GCodeMM ... normal
100
AcDbLine
 10
56.206275579809
 20
2.851296043656206
 30
0.1
 11
55.10804911323329
 21
-0.1773533424283773
 31
0.1
1001
QCAD
1000
CamClosedContour:1
1000
CamContourIndex:5
1000
CamDirection:1
1000
CamFeedRate:200
1000
CamTool:1
1000
CamZPass:1
1000
CamZPasses:1
  0
LINE
  5
5A6
330
6AB
100
AcDbEntity
  8
CAM ... GCodeMM ... normal
100
AcDbLine
 10
55.10804911323329
 20
-0.1773533424283773
 30
0.1
 11
53.70286493860846
 21
-0.1773533424283773
 31
0.1
1001
QCAD
1000
CamClosedContour:1
1000
CamContourIndex:5
1000
CamDirection:1
1000
CamFeedRate:200
1000
CamLast:1
1000
CamLastSegment:1
1000
CamTool:1
1000
CamZPass:1
1000
CamZPasses:1
  0
LINE
  5
5A7
330
6AB
100
AcDbEntity
  8
CAM ... GCodeMM ... normal
100
AcDbLine
 10
53.70286493860846
 20
-0.1773533424283773
 30
0.1
 11
53.70286493860846
 21
-0.1773533424283773
 31
2.0
1001
QCAD
1000
CamContourIndex:5
1000
CamDirection:1
1000
CamFeedRate:200
1000
CamTool:1
1000
CamToolUp:1
1000
CamZMove:1
1000
CamZPass:1
1000
CamZPasses:1
  0
LINE
  5
5A8
330
6AB
100
AcDbEntity
  8
CAM ... GCodeMM ... rapid
100
AcDbLine
 10
53.70286493860846
 20
-0.1773533424283773
 30
2.0
 11
64.07639836289222
 21
-0.1773533424283773
 31
2.0
1001
QCAD
1000
CamClosedContour:1
1000
CamContourIndex:6
1000
CamFirst:1
1000
CamFirstSegment:1
1000
CamRapidMove:1
1000
CamTool:1
1000
CamZPass:1
1000
CamZPasses:1
  0
LINE
  5
5A9
330
6AB
100
AcDbEntity
  8
CAM ... GCodeMM ... rapid
100
AcDbLine
 10
64.07639836289222
 20
-0.1773533424283773
 30
2.0
 11
64.07639836289222
 21
-0.1773533424283773
 31
2.0
1001
QCAD
1000
CamClosedContour:1
1000
CamContourIndex:6
1000
CamFirst:1
1000
CamFirstSegment:1
1000
CamRapidMove:1
1000
CamTool:1
1000
CamToolDownClearance:1
1000
CamZMove:1
1000
CamZPass:1
1000
CamZPasses:1
  0
LINE
  5
5AA
330
6AB
100
AcDbEntity
  8
CAM ... GCodeMM ... rapid
100
AcDbLine
 10
64.07639836289222
 20
-0.1773533424283773
 30
2.0
 11
64.07639836289222
 21
-0.1773533424283773
 31
2.0
1001
QCAD
1000
CamClosedContour:1
1000
CamContourIndex:6
1000
CamFirst:1
1000
CamFirstSegment:1
1000
CamRapidMove:1
1000
CamTool:1
1000
CamToolDownClearancePass:1
1000
CamZMove:1
1000
CamZPass:1
1000
CamZPasses:1
  0
LINE
  5
5AB
330
6AB
100
AcDbEntity
  8
CAM ... GCodeMM ... normal
100
AcDbLine
 10
64.07639836289222
 20
-0.1773533424283773
 30
2.0
 11
64.07639836289222
 21
-0.1773533424283773
 31
0.1
1001
QCAD
1000
CamClosedContour:1
1000
CamContourIndex:6
1000
CamDirection:1
1000
CamFeedRate:50
1000
CamFirst:1
1000
CamFirstSegment:1
1000
CamTool:1
1000
CamToolDown:1
1000
CamZMove:1
1000
CamZPass:1
1000
CamZPasses:1
  0
LINE
  5
5AC
330
6AB
100
AcDbEntity
  8
CAM ... GCodeMM ... normal
100
AcDbLine
 10
64.07639836289222
 20
-0.1773533424283773
 30
0.1
 11
64.07639836289222
 21
9.822646657571623
 31
0.1
1001
QCAD
1000
CamClosedContour:1
1000
CamContourIndex:6
1000
CamDirection:1
1000
CamFeedRate:200
1000
CamFirst:1
1000
CamFirstSegment:1
1000
CamTool:1
1000
CamZPass:1
1000
CamZPasses:1
  0
LINE
  5
5AD
330
6AB
100
AcDbEntity
  8
CAM ... GCodeMM ... normal
100
AcDbLine
 10
64.07639836289222
 20
9.822646657571623
 30
0.1
 11
66.06821282401091
 21
9.822646657571623
 31
0.1
1001
QCAD
1000
CamClosedContour:1
1000
CamContourIndex:6
1000
CamDirection:1
1000
CamFeedRate:200
1000
CamTool:1
1000
CamZPass:1
1000
CamZPasses:1
  0
LINE
  5
5AE
330
6AB
100
AcDbEntity
  8
CAM ... GCodeMM ... normal
100
AcDbLine
 10
66.06821282401091
 20
9.822646657571623
 30
0.1
 11
68.43519781718963
 21
2.742155525238744
 31
0.1
1001
QCAD
1000
CamClosedContour:1
1000
CamContourIndex:6
1000
CamDirection:1
1000
CamFeedRate:200
1000
CamTool:1
1000
CamZPass:1
1000
CamZPasses:1
  0
ARC
  5
5AF
330
6AB
100
AcDbEntity
  8
CAM ... GCodeMM ... normal
100
AcDbCircle
 10
-61.055032464935
 20
-40.12357587850093
 30
0.1
 40
136.4008455519804
100
AcDbArc
 50
17.8786965958414
 51
18.31632419011397
1001
QCAD
1000
CamClosedContour:1
1000
CamContourIndex:6
1000
CamDirection:1
1000
CamFeedRate:200
1000
CamTool:1
1000
CamZPass:1
1000
CamZPasses:1
1000
reversed:1
  0
ARC
  5
5B0
330
6AB
100
AcDbEntity
  8
CAM ... GCodeMM ... normal
100
AcDbCircle
 10
37.22076268338026
 20
-8.421706475819239
 30
0.1
 40
33.13836235668676
100
AcDbArc
 50
16.99082329198698
 51
17.87869659584266
1001
QCAD
1000
CamClosedContour:1
1000
CamContourIndex:6
1000
CamDirection:1
1000
CamFeedRate:200
1000
CamTool:1
1000
CamZPass:1
1000
CamZPasses:1
1000
reversed:1
  0
ARC
  5
5B1
330
6AB
100
AcDbEntity
  8
CAM ... GCodeMM ... normal
100
AcDbCircle
 10
99.93667806572165
 20
-8.433059780940976
 30
0.1
 40
32.50355292347177
100
AcDbArc
 50
161.6382258237715
 51
162.6459753637378
1001
QCAD
1000
CamClosedContour:1
1000
CamContourIndex:6
1000
CamDirection:1
1000
CamFeedRate:200
1000
CamTool:1
1000
CamZPass:1
1000
CamZPasses:1
1000
reversed:1
  0
ARC
  5
5B2
330
6AB
100
AcDbEntity
  8
CAM ... GCodeMM ... normal
100
AcDbCircle
 10
186.9300959822339
 20
-37.30747083407973
 30
0.1
 40
124.1637207962319
100
AcDbArc
 50
161.1226215190379
 51
161.6382258237728
1001
QCAD
1000
CamClosedContour:1
1000
CamContourIndex:6
1000
CamDirection:1
1000
CamFeedRate:200
1000
CamTool:1
1000
CamZPass:1
1000
CamZPasses:1
1000
reversed:1
  0
LINE
  5
5B3
330
6AB
100
AcDbEntity
  8
CAM ... GCodeMM ... normal
100
AcDbLine
 10
69.44474761255117
 20
2.864938608458389
 30
0.1
 11
71.83901773533425
 21
9.822646657571623
 31
0.1
1001
QCAD
1000
CamClosedContour:1
1000
CamContourIndex:6
1000
CamDirection:1
1000
CamFeedRate:200
1000
CamTool:1
1000
CamZPass:1
1000
CamZPasses:1
  0
LINE
  5
5B4
330
6AB
100
AcDbEntity
  8
CAM ... GCodeMM ... normal
100
AcDbLine
 10
71.83901773533425
 20
9.822646657571623
 30
0.1
 11
73.61937244201911
 21
9.822646657571623
 31
0.1
1001
QCAD
1000
CamClosedContour:1
1000
CamContourIndex:6
1000
CamDirection:1
1000
CamFeedRate:200
1000
CamTool:1
1000
CamZPass:1
1000
CamZPasses:1
  0
LINE
  5
5B5
330
6AB
100
AcDbEntity
  8
CAM ... GCodeMM ... normal
100
AcDbLine
 10
73.61937244201911
 20
9.822646657571623
 30
0.1
 11
73.61937244201911
 21
-0.1773533424283773
 31
0.1
1001
QCAD
1000
CamClosedContour:1
1000
CamContourIndex:6
1000
CamDirection:1
1000
CamFeedRate:200
1000
CamTool:1
1000
CamZPass:1
1000
CamZPasses:1
  0
LINE
  5
5B6
330
6AB
100
AcDbEntity
  8
CAM ... GCodeMM ... normal
100
AcDbLine
 10
73.61937244201911
 20
-0.1773533424283773
 30
0.1
 11
72.34379263301501
 21
-0.1773533424283773
 31
0.1
1001
QCAD
1000
CamClosedContour:1
1000
CamContourIndex:6
1000
CamDirection:1
1000
CamFeedRate:200
1000
CamTool:1
1000
CamZPass:1
1000
CamZPasses:1
  0
LINE
  5
5B7
330
6AB
100
AcDbEntity
  8
CAM ... GCodeMM ... normal
100
AcDbLine
 10
72.34379263301501
 20
-0.1773533424283773
 30
0.1
 11
72.34379263301501
 21
8.192360163710775
 31
0.1
1001
QCAD
1000
CamClosedContour:1
1000
CamContourIndex:6
1000
CamDirection:1
1000
CamFeedRate:200
1000
CamTool:1
1000
CamZPass:1
1000
CamZPasses:1
  0
LINE
  5
5B8
330
6AB
100
AcDbEntity
  8
CAM ... GCodeMM ... normal
100
AcDbLine
 10
72.34379263301501
 20
8.192360163710775
 30
0.1
 11
69.43792633015008
 21
-0.1773533424283773
 31
0.1
1001
QCAD
1000
CamClosedContour:1
1000
CamContourIndex:6
1000
CamDirection:1
1000
CamFeedRate:200
1000
CamTool:1
1000
CamZPass:1
1000
CamZPasses:1
  0
LINE
  5
5B9
330
6AB
100
AcDbEntity
  8
CAM ... GCodeMM ... normal
100
AcDbLine
 10
69.43792633015008
 20
-0.1773533424283773
 30
0.1
 11
68.24420190995909
 21
-0.1773533424283773
 31
0.1
1001
QCAD
1000
CamClosedContour:1
1000
CamContourIndex:6
1000
CamDirection:1
1000
CamFeedRate:200
1000
CamTool:1
1000
CamZPass:1
1000
CamZPasses:1
  0
LINE
  5
5BA
330
6AB
100
AcDbEntity
  8
CAM ... GCodeMM ... normal
100
AcDbLine
 10
68.24420190995909
 20
-0.1773533424283773
 30
0.1
 11
65.35197817189632
 21
8.335607094133696
 31
0.1
1001
QCAD
1000
CamClosedContour:1
1000
CamContourIndex:6
1000
CamDirection:1
1000
CamFeedRate:200
1000
CamTool:1
1000
CamZPass:1
1000
CamZPasses:1
  0
LINE
  5
5BB
330
6AB
100
AcDbEntity
  8
CAM ... GCodeMM ... normal
100
AcDbLine
 10
65.35197817189632
 20
8.335607094133696
 30
0.1
 11
65.35197817189632
 21
-0.1773533424283773
 31
0.1
1001
QCAD
1000
CamClosedContour:1
1000
CamContourIndex:6
1000
CamDirection:1
1000
CamFeedRate:200
1000
CamTool:1
1000
CamZPass:1
1000
CamZPasses:1
  0
LINE
  5
5BC
330
6AB
100
AcDbEntity
  8
CAM ... GCodeMM ... normal
100
AcDbLine
 10
65.35197817189632
 20
-0.1773533424283773
 30
0.1
 11
64.07639836289222
 21
-0.1773533424283773
 31
0.1
1001
QCAD
1000
CamClosedContour:1
1000
CamContourIndex:6
1000
CamDirection:1
1000
CamFeedRate:200
1000
CamLast:1
1000
CamLastSegment:1
1000
CamTool:1
1000
CamZPass:1
1000
CamZPasses:1
  0
LINE
  5
5BD
330
6AB
100
AcDbEntity
  8
CAM ... GCodeMM ... normal
100
AcDbLine
 10
64.07639836289222
 20
-0.1773533424283773
 30
0.1
 11
64.07639836289222
 21
-0.1773533424283773
 31
2.0
1001
QCAD
1000
CamContourIndex:6
1000
CamDirection:1
1000
CamFeedRate:200
1000
CamTool:1
1000
CamToolUp:1
1000
CamZMove:1
1000
CamZPass:1
1000
CamZPasses:1
  0
LINE
  5
5BE
330
6AB
100
AcDbEntity
  8
CAM ... GCodeMM ... rapid
100
AcDbLine
 10
64.07639836289222
 20
-0.1773533424283773
 30
2.0
 11
64.07639836289222
 21
-0.1773533424283773
 31
10.0
1001
QCAD
1000
CamRapidMove:1
1000
CamRapidMoveToSafety:1
1000
CamZMove:1
  0
ENDBLK
  5
6AD
330
6AB
100
AcDbEntity
  8
0
100
AcDbBlockEnd
  0
BLOCK
  5
6AF
330
6AE
100
AcDbEntity
  8
0
100
AcDbBlockBegin
  2
CAMTOOL$$GCodeMM$$1
 70
     0
 10
0.0
 20
0.0
 30
0.0
  3
CAMTOOL$$GCodeMM$$1
  1

  0
ENDBLK
  5
6B0
330
6AE
100
AcDbEntity
  8
0
100
AcDbBlockEnd
  0
ENDSEC
  0
SECTION
  2
ENTITIES
  0
MTEXT
  5
38
330
5DC
100
AcDbEntity
  8
0
100
AcDbMText
 10
0.0
 20
10.0
 30
0.0
 40
10.0
 41
0.0
 46
0.0
 71
     1
 72
     1
  1
QCAD/CAM
  7
textstyle12
 73
     1
 44
1.0
  0
INSERT
  5
164
330
5DC
100
AcDbEntity
  8
CAM ... GCodeMM
100
AcDbBlockReference
  2
CAMTOOLPATH$$GCodeMM$$Profile 1
 10
0.0
 20
0.0
 30
0.0
  0
VIEWPORT
  5
6B1
330
5D8
100
AcDbEntity
 67
     1
  8
0
 62
   178
420
        0
100
AcDbViewport
 10
128.5
 20
97.5
 30
0.0
 40
314.226
 41
222.18
 68
     1
 69
     1
 12
128.5
 22
97.5
 13
0.0
 23
0.0
 14
10.0
 24
10.0
 15
10.0
 25
10.0
 16
0.0
 26
0.0
 36
1.0
 17
0.0
 27
0.0
 37
0.0
 42
50.0
 43
0.0
 44
0.0
 45
222.18
 50
0.0
 51
0.0
 72
   100
 90
   557152
  1

281
     0
 71
     1
 74
     0
110
0.0
120
0.0
130
0.0
111
1.0
121
0.0
131
0.0
112
0.0
122
1.0
132
0.0
 79
     0
146
0.0
170
     0
 61
     5
348
5EC
292
     1
282
     1
141
0.0
142
0.0
 63
   256
361
6B2
  0
ENDSEC
  0
SECTION
  2
OBJECTS
  0
DICTIONARY
  5
5CA
330
0
100
AcDbDictionary
281
     1
  3
ACAD_DETAILVIEWSTYLE
350
6BC
  3
ACAD_GROUP
350
5CB
  3
ACAD_LAYOUT
350
5D7
  3
ACAD_MATERIAL
350
600
  3
ACAD_MLEADERSTYLE
350
628
  3
ACAD_MLINESTYLE
350
5D4
  3
ACAD_PLOTSETTINGS
350
5D6
  3
ACAD_PLOTSTYLENAME
350
5CC
  3
ACAD_SCALELIST
350
604
  3
ACAD_SECTIONVIEWSTYLE
350
6BD
  3
ACAD_TABLESTYLE
350
626
  3
ACAD_VISUALSTYLE
350
5E7
  3
AcDbVariableDictionary
350
6B5
  3
ACDB_RECOMPOSE_DATA
350
6B9
  3
QCAD_OBJECTS
350
62C
  0
SUN
  5
62A
330
5E6
100
AcDbSun
 90
        1
290
     0
 63
     7
421
 16777215
 40
1.0
291
     1
 91
  2455826
 92
 54000000
292
     0
 70
     2
 71
   256
280
     1
  0
SUN
  5
6B2
330
6B1
100
AcDbSun
 90
        1
290
     0
 63
     7
421
 16777215
 40
1.0
291
     1
 91
  2455826
 92
 54000000
292
     0
 70
     2
 71
   256
280
     1
  0
DICTIONARY
  5
6BC
102
{ACAD_REACTORS
330
5CA
102
}
330
5CA
100
AcDbDictionary
281
     1
  0
DICTIONARY
  5
5CB
102
{ACAD_REACTORS
330
5CA
102
}
330
5CA
100
AcDbDictionary
281
     1
  0
DICTIONARY
  5
5D7
102
{ACAD_REACTORS
330
5CA
102
}
330
5CA
100
AcDbDictionary
281
     1
  3
Layout1
350
5DB
  3
Model
350
5DF
  0
DICTIONARY
  5
600
102
{ACAD_REACTORS
330
5CA
102
}
330
5CA
100
AcDbDictionary
281
     1
  3
ByBlock
350
602
  3
ByLayer
350
601
  3
Global
350
603
  0
DICTIONARY
  5
628
102
{ACAD_REACTORS
330
5CA
102
}
330
5CA
100
AcDbDictionary
281
     1
  3
Standard
350
629
  0
DICTIONARY
  5
5D4
102
{ACAD_REACTORS
330
5CA
102
}
330
5CA
100
AcDbDictionary
281
     1
  3
Standard
350
5D5
  0
DICTIONARY
  5
5D6
102
{ACAD_REACTORS
330
5CA
102
}
330
5CA
100
AcDbDictionary
281
     1
  0
ACDBDICTIONARYWDFLT
  5
5CC
102
{ACAD_REACTORS
330
5CA
102
}
330
5CA
100
AcDbDictionary
281
     1
  3
Normal
350
5CD
100
AcDbDictionaryWithDefault
340
5CD
  0
DICTIONARY
  5
604
102
{ACAD_REACTORS
330
5CA
102
}
330
5CA
100
AcDbDictionary
281
     1
  3
A0
350
605
  3
A1
350
606
  3
A2
350
607
  3
A3
350
608
  3
A4
350
609
  3
A5
350
60A
  3
A6
350
60B
  3
A7
350
60C
  3
A8
350
60D
  3
A9
350
60E
  3
B0
350
60F
  3
B1
350
610
  3
B2
350
611
  3
B3
350
612
  3
B4
350
613
  3
B5
350
614
  3
B6
350
615
  3
B7
350
616
  3
B8
350
617
  3
B9
350
618
  3
C0
350
619
  3
C1
350
61A
  3
C2
350
61B
  3
C3
350
61C
  3
C4
350
61D
  3
C5
350
61E
  3
C6
350
61F
  3
C7
350
620
  3
C8
350
621
  3
C9
350
622
  3
D0
350
623
  3
D1
350
624
  3
D2
350
625
  0
DICTIONARY
  5
6BD
102
{ACAD_REACTORS
330
5CA
102
}
330
5CA
100
AcDbDictionary
281
     1
  0
DICTIONARY
  5
626
102
{ACAD_REACTORS
330
5CA
102
}
330
5CA
100
AcDbDictionary
281
     1
  3
Standard
350
627
  0
DICTIONARY
  5
5E7
102
{ACAD_REACTORS
330
5CA
102
}
330
5CA
100
AcDbDictionary
281
     1
  3
2dWireframe
350
5EC
  3
Basic
350
5EF
  3
Brighten
350
5F3
  3
ColorChange
350
5F7
  3
Conceptual
350
5F1
  3
Dim
350
5F2
  3
EdgeColorOff
350
5FA
  3
Facepattern
350
5F6
  3
Flat
350
5E8
  3
FlatWithEdges
350
5E9
  3
Gouraud
350
5EA
  3
GouraudWithEdges
350
5EB
  3
Hidden
350
5EE
  3
JitterOff
350
5F8
  3
Linepattern
350
5F5
  3
OverhangOff
350
5F9
  3
Realistic
350
5F0
  3
Shaded
350
5FF
  3
Shaded with edges
350
5FE
  3
Shades of Gray
350
5FB
  3
Sketchy
350
5FC
  3
Thicken
350
5F4
  3
Wireframe
350
5ED
  3
X-Ray
350
5FD
  0
DICTIONARY
  5
6B5
102
{ACAD_REACTORS
330
5CA
102
}
330
5CA
100
AcDbDictionary
281
     1
  3
CANNOSCALE
350
6B6
  3
CMLEADERSTYLE
350
6BB
  3
CTABLESTYLE
350
6BA
  0
XRECORD
  5
6B9
102
{ACAD_REACTORS
330
5CA
102
}
330
5CA
100
AcDbXrecord
280
     1
 90
        1
330
627
  0
DICTIONARY
  5
62C
102
{ACAD_REACTORS
330
5CA
102
}
330
5CA
100
AcDbDictionary
281
     1
  3
Cam/GCodeMM/CamArcInterpolation
350
62E
  3
Cam/GCodeMM/CamArcSegmentLength
350
62F
  3
Cam/GCodeMM/CamEllipseSegments
350
630
  3
Cam/GCodeMM/CamHomeX
350
631
  3
Cam/GCodeMM/CamHomeY
350
632
  3
Cam/GCodeMM/CamProgramName
350
633
  3
Cam/GCodeMM/CamSplineTolerance
350
634
  3
Cam/GCodeMM/CamTolerance
350
635
  3
Cam/GCodeMM/CamZSafety
350
636
  3
CamExport/ConfigV2
350
637
  3
CamExport/GCodeMM/Output
350
638
  3
ColorSettings/BackgroundColor
350
639
  3
ColorSettings/ColorMode
350
63A
  3
Grid/DisplayGrid00
350
63B
  3
Grid/DisplayGrid01
350
63C
  3
Grid/DisplayGrid02
350
63D
  3
Grid/DisplayGrid03
350
63E
  3
Grid/GridSpacingX00
350
63F
  3
Grid/GridSpacingX01
350
640
  3
Grid/GridSpacingX02
350
641
  3
Grid/GridSpacingX03
350
642
  3
Grid/GridSpacingY00
350
643
  3
Grid/GridSpacingY01
350
644
  3
Grid/GridSpacingY02
350
645
  3
Grid/GridSpacingY03
350
646
  3
Grid/IsometricGrid00
350
647
  3
Grid/IsometricGrid01
350
648
  3
Grid/IsometricGrid02
350
649
  3
Grid/IsometricGrid03
350
64A
  3
Grid/IsometricProjection00
350
64B
  3
Grid/IsometricProjection01
350
64C
  3
Grid/IsometricProjection02
350
64D
  3
Grid/IsometricProjection03
350
64E
  3
Grid/MetaGridSpacingX00
350
64F
  3
Grid/MetaGridSpacingX01
350
650
  3
Grid/MetaGridSpacingX02
350
651
  3
Grid/MetaGridSpacingX03
350
652
  3
Grid/MetaGridSpacingY00
350
653
  3
Grid/MetaGridSpacingY01
350
654
  3
Grid/MetaGridSpacingY02
350
655
  3
Grid/MetaGridSpacingY03
350
656
  3
MultiPageSettings/Columns
350
657
  3
MultiPageSettings/GlueMarginsBottom
350
658
  3
MultiPageSettings/GlueMarginsLeft
350
659
  3
MultiPageSettings/GlueMarginsRight
350
65A
  3
MultiPageSettings/GlueMarginsTop
350
65B
  3
MultiPageSettings/PrintCropMarks
350
65C
  3
MultiPageSettings/Rows
350
65D
  3
PageSettings/OffsetX
350
65E
  3
PageSettings/OffsetY
350
65F
  3
PageSettings/PageOrientation
350
660
  3
PageSettings/PaperHeight
350
661
  3
PageSettings/PaperWidth
350
662
  3
PageSettings/Scale
350
663
  3
PageSettings/ShowPaperBorders
350
664
  3
QCADVersion
350
665
  3
UnitSettings/PaperUnit
350
666
  3
ViewportCenter
350
667
  3
ViewportHeight
350
668
  3
ViewportWidth
350
669
  0
LAYOUT
  5
5DB
102
{ACAD_REACTORS
330
5D7
102
}
330
5D7
100
AcDbPlotSettings
  1

  2
none_device
  4
ISO_A4_(210.00_x_297.00_MM)
  6

 40
7.5
 41
20.0
 42
7.5
 43
20.0
 44
210.0
 45
297.0
 46
0.0
 47
0.0
 48
0.0
 49
0.0
140
0.0
141
0.0
142
1.0
143
1.0
 70
   688
 72
     1
 73
     1
 74
     5
  7

 75
    16
 76
     0
 77
     2
 78
   300
147
1.0
148
0.0
149
0.0
100
AcDbLayout
  1
Layout1
 70
     1
 71
     0
 10
-20.0
 20
-7.5
 11
277.0
 21
202.5
 12
0.0
 22
0.0
 32
0.0
 14
0.0
 24
0.0
 34
0.0
 15
0.0
 25
0.0
 35
0.0
146
0.0
 13
0.0
 23
0.0
 33
0.0
 16
1.0
 26
0.0
 36
0.0
 17
0.0
 27
1.0
 37
0.0
 76
     0
330
5D8
331
6B1
  0
LAYOUT
  5
5DF
102
{ACAD_REACTORS
330
5D7
102
}
330
5D7
100
AcDbPlotSettings
  1

  2
none_device
  4
Letter_(8.50_x_11.00_Inches)
  6

 40
6.35
 41
6.35
 42
6.35000508
 43
6.35000508
 44
215.9
 45
279.4
 46
0.0
 47
0.0
 48
0.0
 49
0.0
140
0.0
141
0.0
142
1.0
143
1.0
 70
  1712
 72
     0
 73
     0
 74
     0
  7

 75
     0
 76
     0
 77
     2
 78
   300
147
1.0
148
0.0
149
0.0
100
AcDbLayout
  1
Model
 70
     1
 71
     0
 10
0.0
 20
0.0
 11
12.0
 21
9.0
 12
0.0
 22
0.0
 32
0.0
 14
1.000000000000000E+20
 24
1.000000000000000E+20
 34
1.000000000000000E+20
 15
-1.000000000000000E+20
 25
-1.000000000000000E+20
 35
-1.000000000000000E+20
146
0.0
 13
0.0
 23
0.0
 33
0.0
 16
1.0
 26
0.0
 36
0.0
 17
0.0
 27
1.0
 37
0.0
 76
     0
330
5DC
331
5E6
  0
MATERIAL
  5
602
102
{ACAD_REACTORS
330
600
102
}
330
600
100
AcDbMaterial
  1
ByBlock
 72
     1
 94
      127
  0
MATERIAL
  5
601
102
{ACAD_REACTORS
330
600
102
}
330
600
100
AcDbMaterial
  1
ByLayer
 72
     1
 94
      127
  0
MATERIAL
  5
603
102
{ACAD_REACTORS
330
600
102
}
330
600
100
AcDbMaterial
  1
Global
 72
     1
 94
      127
  0
MLEADERSTYLE
  5
629
102
{ACAD_REACTORS
330
628
102
}
330
628
100
AcDbMLeaderStyle
179
     2
170
     2
171
     1
172
     0
 90
        2
 40
0.0
 41
0.0
173
     1
 91
-1056964608
340
5D1
 92
       -2
290
     1
 42
0.09
291
     1
 43
0.36
  3
Standard
341
0
 44
0.18
300

342
5CF
174
     1
178
     6
175
     1
176
     0
 93
-1056964608
 45
0.18
292
     0
297
     0
 46
0.18
343
0
 94
-1056964608
 47
1.0
 49
1.0
140
1.0
293
     1
141
0.0
294
     1
177
     0
142
1.0
295
     0
296
     0
143
0.125
271
     0
272
     9
273
     9
298
     0
  0
MLINESTYLE
  5
5D5
102
{ACAD_REACTORS
330
5D4
102
}
330
5D4
100
AcDbMlineStyle
  2
Standard
 70
     0
  3

 62
   256
 51
90.0
 52
90.0
 71
     2
 49
0.5
 62
   256
  6
BYLAYER
 49
-0.5
 62
   256
  6
BYLAYER
  0
ACDBPLACEHOLDER
  5
5CD
102
{ACAD_REACTORS
330
5CC
102
}
330
5CC
  0
SCALE
  5
605
102
{ACAD_REACTORS
330
604
102
}
330
604
100
AcDbScale
 70
     0
300
1:1
140
1.0
141
1.0
290
     1
  0
SCALE
  5
606
102
{ACAD_REACTORS
330
604
102
}
330
604
100
AcDbScale
 70
     0
300
1:2
140
1.0
141
2.0
290
     0
  0
SCALE
  5
607
102
{ACAD_REACTORS
330
604
102
}
330
604
100
AcDbScale
 70
     0
300
1:4
140
1.0
141
4.0
290
     0
  0
SCALE
  5
608
102
{ACAD_REACTORS
330
604
102
}
330
604
100
AcDbScale
 70
     0
300
1:5
140
1.0
141
5.0
290
     0
  0
SCALE
  5
609
102
{ACAD_REACTORS
330
604
102
}
330
604
100
AcDbScale
 70
     0
300
1:8
140
1.0
141
8.0
290
     0
  0
SCALE
  5
60A
102
{ACAD_REACTORS
330
604
102
}
330
604
100
AcDbScale
 70
     0
300
1:10
140
1.0
141
10.0
290
     0
  0
SCALE
  5
60B
102
{ACAD_REACTORS
330
604
102
}
330
604
100
AcDbScale
 70
     0
300
1:16
140
1.0
141
16.0
290
     0
  0
SCALE
  5
60C
102
{ACAD_REACTORS
330
604
102
}
330
604
100
AcDbScale
 70
     0
300
1:20
140
1.0
141
20.0
290
     0
  0
SCALE
  5
60D
102
{ACAD_REACTORS
330
604
102
}
330
604
100
AcDbScale
 70
     0
300
1:30
140
1.0
141
30.0
290
     0
  0
SCALE
  5
60E
102
{ACAD_REACTORS
330
604
102
}
330
604
100
AcDbScale
 70
     0
300
1:40
140
1.0
141
40.0
290
     0
  0
SCALE
  5
60F
102
{ACAD_REACTORS
330
604
102
}
330
604
100
AcDbScale
 70
     0
300
1:50
140
1.0
141
50.0
290
     0
  0
SCALE
  5
610
102
{ACAD_REACTORS
330
604
102
}
330
604
100
AcDbScale
 70
     0
300
1:100
140
1.0
141
100.0
290
     0
  0
SCALE
  5
611
102
{ACAD_REACTORS
330
604
102
}
330
604
100
AcDbScale
 70
     0
300
2:1
140
2.0
141
1.0
290
     0
  0
SCALE
  5
612
102
{ACAD_REACTORS
330
604
102
}
330
604
100
AcDbScale
 70
     0
300
4:1
140
4.0
141
1.0
290
     0
  0
SCALE
  5
613
102
{ACAD_REACTORS
330
604
102
}
330
604
100
AcDbScale
 70
     0
300
8:1
140
8.0
141
1.0
290
     0
  0
SCALE
  5
614
102
{ACAD_REACTORS
330
604
102
}
330
604
100
AcDbScale
 70
     0
300
10:1
140
10.0
141
1.0
290
     0
  0
SCALE
  5
615
102
{ACAD_REACTORS
330
604
102
}
330
604
100
AcDbScale
 70
     0
300
100:1
140
100.0
141
1.0
290
     0
  0
SCALE
  5
616
102
{ACAD_REACTORS
330
604
102
}
330
604
100
AcDbScale
 70
     0
300
1/128" = 1'-0"
140
0.0078125
141
12.0
290
     0
  0
SCALE
  5
617
102
{ACAD_REACTORS
330
604
102
}
330
604
100
AcDbScale
 70
     0
300
1/64" = 1'-0"
140
0.015625
141
12.0
290
     0
  0
SCALE
  5
618
102
{ACAD_REACTORS
330
604
102
}
330
604
100
AcDbScale
 70
     0
300
1/32" = 1'-0"
140
0.03125
141
12.0
290
     0
  0
SCALE
  5
619
102
{ACAD_REACTORS
330
604
102
}
330
604
100
AcDbScale
 70
     0
300
1/16" = 1'-0"
140
0.0625
141
12.0
290
     0
  0
SCALE
  5
61A
102
{ACAD_REACTORS
330
604
102
}
330
604
100
AcDbScale
 70
     0
300
3/32" = 1'-0"
140
0.09375
141
12.0
290
     0
  0
SCALE
  5
61B
102
{ACAD_REACTORS
330
604
102
}
330
604
100
AcDbScale
 70
     0
300
1/8" = 1'-0"
140
0.125
141
12.0
290
     0
  0
SCALE
  5
61C
102
{ACAD_REACTORS
330
604
102
}
330
604
100
AcDbScale
 70
     0
300
3/16" = 1'-0"
140
0.1875
141
12.0
290
     0
  0
SCALE
  5
61D
102
{ACAD_REACTORS
330
604
102
}
330
604
100
AcDbScale
 70
     0
300
1/4" = 1'-0"
140
0.25
141
12.0
290
     0
  0
SCALE
  5
61E
102
{ACAD_REACTORS
330
604
102
}
330
604
100
AcDbScale
 70
     0
300
3/8" = 1'-0"
140
0.375
141
12.0
290
     0
  0
SCALE
  5
61F
102
{ACAD_REACTORS
330
604
102
}
330
604
100
AcDbScale
 70
     0
300
1/2" = 1'-0"
140
0.5
141
12.0
290
     0
  0
SCALE
  5
620
102
{ACAD_REACTORS
330
604
102
}
330
604
100
AcDbScale
 70
     0
300
3/4" = 1'-0"
140
0.75
141
12.0
290
     0
  0
SCALE
  5
621
102
{ACAD_REACTORS
330
604
102
}
330
604
100
AcDbScale
 70
     0
300
1" = 1'-0"
140
1.0
141
12.0
290
     0
  0
SCALE
  5
622
102
{ACAD_REACTORS
330
604
102
}
330
604
100
AcDbScale
 70
     0
300
1-1/2" = 1'-0"
140
1.5
141
12.0
290
     0
  0
SCALE
  5
623
102
{ACAD_REACTORS
330
604
102
}
330
604
100
AcDbScale
 70
     0
300
3" = 1'-0"
140
3.0
141
12.0
290
     0
  0
SCALE
  5
624
102
{ACAD_REACTORS
330
604
102
}
330
604
100
AcDbScale
 70
     0
300
6" = 1'-0"
140
6.0
141
12.0
290
     0
  0
SCALE
  5
625
102
{ACAD_REACTORS
330
604
102
}
330
604
100
AcDbScale
 70
     0
300
1'-0" = 1'-0"
140
12.0
141
12.0
290
     0
  0
TABLESTYLE
  5
627
102
{ACAD_REACTORS
330
626
102
}
102
{ACAD_XDICTIONARY
360
6B7
102
}
330
626
100
AcDbTableStyle
  3
Standard
 70
     0
 71
     0
 40
0.06
 41
0.06
280
     0
281
     0
  7
Standard
140
0.18
170
     2
 62
     0
 63
   257
283
     0
 90
        4
 91
        0
  1

274
    -2
284
     1
 64
     0
275
    -2
285
     1
 65
     0
276
    -2
286
     1
 66
     0
277
    -2
287
     1
 67
     0
278
    -2
288
     1
 68
     0
279
    -2
289
     1
 69
     0
  7
Standard
140
0.25
170
     5
 62
     0
 63
   257
283
     0
 90
        4
 91
        0
  1

274
    -2
284
     1
 64
     0
275
    -2
285
     1
 65
     0
276
    -2
286
     1
 66
     0
277
    -2
287
     1
 67
     0
278
    -2
288
     1
 68
     0
279
    -2
289
     1
 69
     0
  7
Standard
140
0.18
170
     5
 62
     0
 63
   257
283
     0
 90
        4
 91
        0
  1

274
    -2
284
     1
 64
     0
275
    -2
285
     1
 65
     0
276
    -2
286
     1
 66
     0
277
    -2
287
     1
 67
     0
278
    -2
288
     1
 68
     0
279
    -2
289
     1
 69
     0
  0
VISUALSTYLE
  5
5EC
102
{ACAD_REACTORS
330
5E7
102
}
330
5E7
100
AcDbVisualStyle
  2
2dWireframe
 70
     4
177
     3
291
     0
 70
    58
 90
        0
176
     1
 90
        2
176
     1
 90
        0
176
     1
 90
        0
176
     1
 40
0.6
176
     1
 40
30.0
176
     1
 62
     7
420
 16777215
176
     1
 90
        1
176
     1
 90
        4
176
     1
 62
     7
176
     1
 62
   257
176
     1
 90
        1
176
     1
 90
        1
176
     1
 40
1.0
176
     1
 90
        0
176
     1
 62
   257
176
     1
 40
1.0
176
     1
 90
        1
176
     1
 90
        6
176
     1
 90
        2
176
     1
 62
     7
176
     1
 90
        5
176
     1
 90
        0
176
     1
 90
        0
176
     1
290
     0
176
     1
 90
        1
176
     1
 40
0.0
176
     1
 90
        0
176
     1
290
     1
176
     1
290
     1
176
     1
290
     0
176
     1
290
     0
176
     1
290
     0
176
     1
290
     0
176
     1
290
     0
176
     1
290
     0
176
     1
290
     0
176
     1
 90
       50
176
     1
 40
0.0
176
     1
 40
1.0
176
     1
 90
        0
176
     1
 62
   178
420
        0
176
     1
 90
       50
176
     1
 90
        3
176
     1
 62
     5
420
      255
176
     1
290
     0
176
     1
 90
       50
176
     1
 90
       50
176
     1
 90
       50
176
     1
290
     0
176
     1
 90
       50
176
     1
 62
   256
176
     0
 40
1.0
176
     0
 90
        2
176
     1
  1
strokes_ogs.tif
176
     1
290
     0
176
     1
 40
1.0
176
     1
 40
1.0
176
     1
  0
VISUALSTYLE
  5
5EF
102
{ACAD_REACTORS
330
5E7
102
}
330
5E7
100
AcDbVisualStyle
  2
Basic
 70
     7
177
     3
291
     1
 70
    58
 90
        1
176
     1
 90
        0
176
     1
 90
        1
176
     1
 90
        0
176
     1
 40
0.6
176
     1
 40
30.0
176
     1
 62
     7
420
 16777215
176
     1
 90
        0
176
     1
 90
        4
176
     1
 62
     7
176
     1
 62
   257
176
     1
 90
        1
176
     1
 90
        1
176
     1
 40
1.0
176
     1
 90
        8
176
     1
 62
     7
176
     1
 40
1.0
176
     1
 90
        1
176
     1
 90
        6
176
     1
 90
        2
176
     1
 62
     7
176
     1
 90
        5
176
     1
 90
        0
176
     1
 90
        0
176
     1
290
     0
176
     1
 90
        1
176
     1
 40
0.0
176
     1
 90
        0
176
     1
290
     0
176
     1
290
     1
176
     1
290
     1
176
     1
290
     0
176
     1
290
     0
176
     1
290
     0
176
     1
290
     0
176
     1
290
     0
176
     1
290
     0
176
     1
 90
       50
176
     1
 40
0.0
176
     1
 40
1.0
176
     1
 90
        0
176
     1
 62
   178
420
        0
176
     1
 90
       50
176
     1
 90
        3
176
     1
 62
     5
420
      255
176
     1
290
     0
176
     1
 90
       50
176
     1
 90
       50
176
     1
 90
       50
176
     1
290
     0
176
     1
 90
       50
176
     1
 62
   256
176
     0
 40
1.0
176
     0
 90
        2
176
     1
  1
strokes_ogs.tif
176
     1
290
     0
176
     1
 40
1.0
176
     1
 40
1.0
176
     1
  0
VISUALSTYLE
  5
5F3
102
{ACAD_REACTORS
330
5E7
102
}
330
5E7
100
AcDbVisualStyle
  2
Brighten
 70
    12
177
     3
291
     1
 70
    58
 90
        2
176
     1
 90
        2
176
     1
 90
        0
176
     1
 90
        0
176
     1
 40
0.6
176
     1
 40
30.0
176
     1
 62
     7
420
 16777215
176
     1
 90
        1
176
     1
 90
        4
176
     1
 62
     7
176
     1
 62
   257
176
     1
 90
        1
176
     1
 90
        1
176
     1
 40
1.0
176
     1
 90
        8
176
     1
 62
     7
176
     1
 40
1.0
176
     1
 90
        1
176
     1
 90
        6
176
     1
 90
        2
176
     1
 62
     7
176
     1
 90
        5
176
     1
 90
        0
176
     1
 90
        0
176
     1
290
     0
176
     1
 90
        1
176
     1
 40
50.0
176
     1
 90
        0
176
     1
290
     0
176
     1
290
     1
176
     1
290
     1
176
     1
290
     0
176
     1
290
     0
176
     1
290
     0
176
     1
290
     0
176
     1
290
     0
176
     1
290
     0
176
     1
 90
       50
176
     1
 40
0.0
176
     1
 40
1.0
176
     1
 90
        0
176
     1
 62
   178
420
        0
176
     1
 90
       50
176
     1
 90
        3
176
     1
 62
     5
420
      255
176
     1
290
     0
176
     1
 90
       50
176
     1
 90
       50
176
     1
 90
       50
176
     1
290
     0
176
     1
 90
       50
176
     1
 62
   256
176
     0
 40
1.0
176
     0
 90
        2
176
     1
  1
strokes_ogs.tif
176
     1
290
     0
176
     1
 40
1.0
176
     1
 40
1.0
176
     1
  0
VISUALSTYLE
  5
5F7
102
{ACAD_REACTORS
330
5E7
102
}
330
5E7
100
AcDbVisualStyle
  2
ColorChange
 70
    16
177
     3
291
     1
 70
    58
 90
        2
176
     1
 90
        2
176
     1
 90
        3
176
     1
 90
        0
176
     1
 40
0.6
176
     1
 40
30.0
176
     1
 62
     8
420
  8421504
176
     1
 90
        1
176
     1
 90
        4
176
     1
 62
     7
176
     1
 62
   257
176
     1
 90
        1
176
     1
 90
        1
176
     1
 40
1.0
176
     1
 90
        8
176
     1
 62
     8
420
  8421504
176
     1
 40
1.0
176
     1
 90
        1
176
     1
 90
        6
176
     1
 90
        2
176
     1
 62
     7
176
     1
 90
        5
176
     1
 90
        0
176
     1
 90
        0
176
     1
290
     0
176
     1
 90
        1
176
     1
 40
0.0
176
     1
 90
        0
176
     1
290
     0
176
     1
290
     1
176
     1
290
     1
176
     1
290
     0
176
     1
290
     0
176
     1
290
     0
176
     1
290
     0
176
     1
290
     0
176
     1
290
     0
176
     1
 90
       50
176
     1
 40
0.0
176
     1
 40
1.0
176
     1
 90
        0
176
     1
 62
   178
420
        0
176
     1
 90
       50
176
     1
 90
        3
176
     1
 62
     5
420
      255
176
     1
290
     0
176
     1
 90
       50
176
     1
 90
       50
176
     1
 90
       50
176
     1
290
     0
176
     1
 90
       50
176
     1
 62
   256
176
     0
 40
1.0
176
     0
 90
        2
176
     1
  1
strokes_ogs.tif
176
     1
290
     0
176
     1
 40
1.0
176
     1
 40
1.0
176
     1
  0
VISUALSTYLE
  5
5F1
102
{ACAD_REACTORS
330
5E7
102
}
330
5E7
100
AcDbVisualStyle
  2
Conceptual
 70
     9
177
     3
291
     0
 70
    58
 90
        3
176
     1
 90
        2
176
     1
 90
        0
176
     1
 90
        0
176
     1
 40
0.6
176
     1
 40
30.0
176
     1
 62
     7
420
 16777215
176
     1
 90
        2
176
     1
 90
        2
176
     1
 62
     7
176
     1
 62
   257
176
     1
 90
        1
176
     1
 90
        1
176
     1
 40
179.0
176
     1
 90
        8
176
     1
 62
     7
176
     1
 40
1.0
176
     1
 90
        1
176
     1
 90
        6
176
     1
 90
        2
176
     1
 62
     7
176
     1
 90
        3
176
     1
 90
        0
176
     1
 90
        0
176
     1
290
     0
176
     1
 90
        1
176
     1
 40
0.0
176
     1
 90
        0
176
     1
290
     0
176
     1
290
     1
176
     1
290
     1
176
     1
290
     0
176
     1
290
     0
176
     1
290
     0
176
     1
290
     0
176
     1
290
     0
176
     1
290
     0
176
     1
 90
       50
176
     1
 40
0.0
176
     1
 40
1.0
176
     1
 90
        0
176
     1
 62
   178
420
        0
176
     1
 90
       50
176
     1
 90
        3
176
     1
 62
     5
420
      255
176
     1
290
     0
176
     1
 90
       50
176
     1
 90
       50
176
     1
 90
       50
176
     1
290
     0
176
     1
 90
       50
176
     1
 62
   256
176
     0
 40
1.0
176
     0
 90
        2
176
     1
  1
strokes_ogs.tif
176
     1
290
     0
176
     1
 40
1.0
176
     1
 40
1.0
176
     1
  0
VISUALSTYLE
  5
5F2
102
{ACAD_REACTORS
330
5E7
102
}
330
5E7
100
AcDbVisualStyle
  2
Dim
 70
    11
177
     3
291
     1
 70
    58
 90
        2
176
     1
 90
        2
176
     1
 90
        0
176
     1
 90
        0
176
     1
 40
0.6
176
     1
 40
30.0
176
     1
 62
     7
420
 16777215
176
     1
 90
        1
176
     1
 90
        4
176
     1
 62
     7
176
     1
 62
   257
176
     1
 90
        1
176
     1
 90
        1
176
     1
 40
1.0
176
     1
 90
        8
176
     1
 62
     7
176
     1
 40
1.0
176
     1
 90
        1
176
     1
 90
        6
176
     1
 90
        2
176
     1
 62
     7
176
     1
 90
        5
176
     1
 90
        0
176
     1
 90
        0
176
     1
290
     0
176
     1
 90
        1
176
     1
 40
-50.0
176
     1
 90
        0
176
     1
290
     0
176
     1
290
     1
176
     1
290
     1
176
     1
290
     0
176
     1
290
     0
176
     1
290
     0
176
     1
290
     0
176
     1
290
     0
176
     1
290
     0
176
     1
 90
       50
176
     1
 40
0.0
176
     1
 40
1.0
176
     1
 90
        0
176
     1
 62
   178
420
        0
176
     1
 90
       50
176
     1
 90
        3
176
     1
 62
     5
420
      255
176
     1
290
     0
176
     1
 90
       50
176
     1
 90
       50
176
     1
 90
       50
176
     1
290
     0
176
     1
 90
       50
176
     1
 62
   256
176
     0
 40
1.0
176
     0
 90
        2
176
     1
  1
strokes_ogs.tif
176
     1
290
     0
176
     1
 40
1.0
176
     1
 40
1.0
176
     1
  0
VISUALSTYLE
  5
5FA
102
{ACAD_REACTORS
330
5E7
102
}
330
5E7
100
AcDbVisualStyle
  2
EdgeColorOff
 70
    22
177
     3
291
     1
 70
    58
 90
        2
176
     0
 90
        2
176
     0
 90
        0
176
     0
 90
        0
176
     0
 40
0.6
176
     0
 40
30.0
176
     0
 62
     7
420
 16777215
176
     0
 90
        1
176
     0
 90
        4
176
     0
 62
     7
176
     0
 62
   257
176
     0
 90
        1
176
     0
 90
        1
176
     0
 40
1.0
176
     0
 90
        8
176
     2
 62
     7
176
     0
 40
1.0
176
     0
 90
        1
176
     0
 90
        6
176
     0
 90
        2
176
     0
 62
     7
176
     0
 90
        5
176
     0
 90
        0
176
     0
 90
        0
176
     0
290
     0
176
     0
 90
        1
176
     0
 40
0.0
176
     0
 90
        0
176
     0
290
     0
176
     0
290
     1
176
     0
290
     1
176
     0
290
     0
176
     0
290
     0
176
     0
290
     0
176
     0
290
     0
176
     0
290
     0
176
     0
290
     0
176
     0
 90
       50
176
     0
 40
0.0
176
     0
 40
1.0
176
     0
 90
        0
176
     0
 62
   178
420
        0
176
     0
 90
       50
176
     0
 90
        3
176
     0
 62
     5
420
      255
176
     0
290
     0
176
     0
 90
       50
176
     0
 90
       50
176
     0
 90
       50
176
     0
290
     0
176
     0
 90
       50
176
     0
 62
   256
176
     0
 40
1.0
176
     0
 90
        2
176
     0
  1
strokes_ogs.tif
176
     0
290
     0
176
     0
 40
1.0
176
     0
 40
1.0
176
     0
  0
VISUALSTYLE
  5
5F6
102
{ACAD_REACTORS
330
5E7
102
}
330
5E7
100
AcDbVisualStyle
  2
Facepattern
 70
    15
177
     3
291
     1
 70
    58
 90
        2
176
     1
 90
        2
176
     1
 90
        0
176
     1
 90
        0
176
     1
 40
0.6
176
     1
 40
30.0
176
     1
 62
     7
420
 16777215
176
     1
 90
        1
176
     1
 90
        4
176
     1
 62
     7
176
     1
 62
   257
176
     1
 90
        1
176
     1
 90
        1
176
     1
 40
1.0
176
     1
 90
        8
176
     1
 62
     7
176
     1
 40
1.0
176
     1
 90
        1
176
     1
 90
        6
176
     1
 90
        2
176
     1
 62
     7
176
     1
 90
        5
176
     1
 90
        0
176
     1
 90
        0
176
     1
290
     0
176
     1
 90
        1
176
     1
 40
0.0
176
     1
 90
        0
176
     1
290
     0
176
     1
290
     1
176
     1
290
     1
176
     1
290
     0
176
     1
290
     0
176
     1
290
     0
176
     1
290
     0
176
     1
290
     0
176
     1
290
     0
176
     1
 90
       50
176
     1
 40
0.0
176
     1
 40
1.0
176
     1
 90
        0
176
     1
 62
   178
420
        0
176
     1
 90
       50
176
     1
 90
        3
176
     1
 62
     5
420
      255
176
     1
290
     0
176
     1
 90
       50
176
     1
 90
       50
176
     1
 90
       50
176
     1
290
     0
176
     1
 90
       50
176
     1
 62
   256
176
     0
 40
1.0
176
     0
 90
        2
176
     1
  1
strokes_ogs.tif
176
     1
290
     0
176
     1
 40
1.0
176
     1
 40
1.0
176
     1
  0
VISUALSTYLE
  5
5E8
102
{ACAD_REACTORS
330
5E7
102
}
330
5E7
100
AcDbVisualStyle
  2
Flat
 70
     0
177
     3
291
     1
 70
    58
 90
        2
176
     1
 90
        1
176
     1
 90
        1
176
     1
 90
        2
176
     1
 40
0.6
176
     1
 40
30.0
176
     1
 62
     7
420
 16777215
176
     1
 90
        0
176
     1
 90
        0
176
     1
 62
     7
176
     1
 62
   257
176
     1
 90
        1
176
     1
 90
        1
176
     1
 40
1.0
176
     1
 90
        8
176
     1
 62
     7
176
     1
 40
1.0
176
     1
 90
        1
176
     1
 90
        6
176
     1
 90
        2
176
     1
 62
     7
176
     1
 90
        5
176
     1
 90
        0
176
     1
 90
        0
176
     1
290
     0
176
     1
 90
       13
176
     1
 40
0.0
176
     1
 90
        0
176
     1
290
     0
176
     1
290
     1
176
     1
290
     1
176
     1
290
     0
176
     1
290
     0
176
     1
290
     0
176
     1
290
     0
176
     1
290
     0
176
     1
290
     0
176
     1
 90
       50
176
     1
 40
0.0
176
     1
 40
1.0
176
     1
 90
        0
176
     1
 62
   178
420
        0
176
     1
 90
       50
176
     1
 90
        3
176
     1
 62
     5
420
      255
176
     1
290
     0
176
     1
 90
       50
176
     1
 90
       50
176
     1
 90
       50
176
     1
290
     0
176
     1
 90
       50
176
     1
 62
   256
176
     0
 40
1.0
176
     0
 90
        2
176
     1
  1
strokes_ogs.tif
176
     1
290
     0
176
     1
 40
1.0
176
     1
 40
1.0
176
     1
  0
VISUALSTYLE
  5
5E9
102
{ACAD_REACTORS
330
5E7
102
}
330
5E7
100
AcDbVisualStyle
  2
FlatWithEdges
 70
     1
177
     3
291
     1
 70
    58
 90
        2
176
     1
 90
        1
176
     1
 90
        1
176
     1
 90
        2
176
     1
 40
0.6
176
     1
 40
30.0
176
     1
 62
     7
420
 16777215
176
     1
 90
        1
176
     1
 90
        0
176
     1
 62
     7
176
     1
 62
   257
176
     1
 90
        1
176
     1
 90
        1
176
     1
 40
1.0
176
     1
 90
        0
176
     1
 62
   257
176
     1
 40
1.0
176
     1
 90
        1
176
     1
 90
        6
176
     1
 90
        2
176
     1
 62
     7
176
     1
 90
        5
176
     1
 90
        0
176
     1
 90
        0
176
     1
290
     0
176
     1
 90
       13
176
     1
 40
0.0
176
     1
 90
        0
176
     1
290
     0
176
     1
290
     1
176
     1
290
     1
176
     1
290
     0
176
     1
290
     0
176
     1
290
     0
176
     1
290
     0
176
     1
290
     0
176
     1
290
     0
176
     1
 90
       50
176
     1
 40
0.0
176
     1
 40
1.0
176
     1
 90
        0
176
     1
 62
   178
420
        0
176
     1
 90
       50
176
     1
 90
        3
176
     1
 62
     5
420
      255
176
     1
290
     0
176
     1
 90
       50
176
     1
 90
       50
176
     1
 90
       50
176
     1
290
     0
176
     1
 90
       50
176
     1
 62
   256
176
     0
 40
1.0
176
     0
 90
        2
176
     1
  1
strokes_ogs.tif
176
     1
290
     0
176
     1
 40
1.0
176
     1
 40
1.0
176
     1
  0
VISUALSTYLE
  5
5EA
102
{ACAD_REACTORS
330
5E7
102
}
330
5E7
100
AcDbVisualStyle
  2
Gouraud
 70
     2
177
     3
291
     1
 70
    58
 90
        2
176
     1
 90
        2
176
     1
 90
        1
176
     1
 90
        2
176
     1
 40
0.6
176
     1
 40
30.0
176
     1
 62
     7
420
 16777215
176
     1
 90
        0
176
     1
 90
        0
176
     1
 62
     7
176
     1
 62
   257
176
     1
 90
        1
176
     1
 90
        1
176
     1
 40
1.0
176
     1
 90
        0
176
     1
 62
     7
176
     1
 40
1.0
176
     1
 90
        1
176
     1
 90
        6
176
     1
 90
        2
176
     1
 62
     7
176
     1
 90
        5
176
     1
 90
        0
176
     1
 90
        0
176
     1
290
     0
176
     1
 90
       13
176
     1
 40
0.0
176
     1
 90
        0
176
     1
290
     0
176
     1
290
     1
176
     1
290
     1
176
     1
290
     0
176
     1
290
     0
176
     1
290
     0
176
     1
290
     0
176
     1
290
     0
176
     1
290
     0
176
     1
 90
       50
176
     1
 40
0.0
176
     1
 40
1.0
176
     1
 90
        0
176
     1
 62
   178
420
        0
176
     1
 90
       50
176
     1
 90
        3
176
     1
 62
     5
420
      255
176
     1
290
     0
176
     1
 90
       50
176
     1
 90
       50
176
     1
 90
       50
176
     1
290
     0
176
     1
 90
       50
176
     1
 62
   256
176
     0
 40
1.0
176
     0
 90
        2
176
     1
  1
strokes_ogs.tif
176
     1
290
     0
176
     1
 40
1.0
176
     1
 40
1.0
176
     1
  0
VISUALSTYLE
  5
5EB
102
{ACAD_REACTORS
330
5E7
102
}
330
5E7
100
AcDbVisualStyle
  2
GouraudWithEdges
 70
     3
177
     3
291
     1
 70
    58
 90
        2
176
     1
 90
        2
176
     1
 90
        1
176
     1
 90
        2
176
     1
 40
0.6
176
     1
 40
30.0
176
     1
 62
     7
420
 16777215
176
     1
 90
        1
176
     1
 90
        0
176
     1
 62
     7
176
     1
 62
   257
176
     1
 90
        1
176
     1
 90
        1
176
     1
 40
1.0
176
     1
 90
        0
176
     1
 62
   257
176
     1
 40
1.0
176
     1
 90
        1
176
     1
 90
        6
176
     1
 90
        2
176
     1
 62
     7
176
     1
 90
        5
176
     1
 90
        0
176
     1
 90
        0
176
     1
290
     0
176
     1
 90
       13
176
     1
 40
0.0
176
     1
 90
        0
176
     1
290
     0
176
     1
290
     1
176
     1
290
     1
176
     1
290
     0
176
     1
290
     0
176
     1
290
     0
176
     1
290
     0
176
     1
290
     0
176
     1
290
     0
176
     1
 90
       50
176
     1
 40
0.0
176
     1
 40
1.0
176
     1
 90
        0
176
     1
 62
   178
420
        0
176
     1
 90
       50
176
     1
 90
        3
176
     1
 62
     5
420
      255
176
     1
290
     0
176
     1
 90
       50
176
     1
 90
       50
176
     1
 90
       50
176
     1
290
     0
176
     1
 90
       50
176
     1
 62
   256
176
     0
 40
1.0
176
     0
 90
        2
176
     1
  1
strokes_ogs.tif
176
     1
290
     0
176
     1
 40
1.0
176
     1
 40
1.0
176
     1
  0
VISUALSTYLE
  5
5EE
102
{ACAD_REACTORS
330
5E7
102
}
330
5E7
100
AcDbVisualStyle
  2
Hidden
 70
     6
177
     3
291
     0
 70
    58
 90
        1
176
     1
 90
        2
176
     1
 90
        2
176
     1
 90
        0
176
     1
 40
0.6
176
     1
 40
30.0
176
     1
 62
     7
420
 16777215
176
     1
 90
        2
176
     1
 90
        2
176
     1
 62
     7
176
     1
 62
   257
176
     1
 90
        2
176
     1
 90
        1
176
     1
 40
40.0
176
     1
 90
        0
176
     1
 62
   257
176
     1
 40
1.0
176
     1
 90
        1
176
     1
 90
        6
176
     1
 90
        2
176
     1
 62
     7
176
     1
 90
        3
176
     1
 90
        0
176
     1
 90
        0
176
     1
290
     0
176
     1
 90
        1
176
     1
 40
0.0
176
     1
 90
        0
176
     1
290
     0
176
     1
290
     1
176
     1
290
     1
176
     1
290
     0
176
     1
290
     0
176
     1
290
     0
176
     1
290
     0
176
     1
290
     0
176
     1
290
     0
176
     1
 90
       50
176
     1
 40
0.0
176
     1
 40
1.0
176
     1
 90
        0
176
     1
 62
   178
420
        0
176
     1
 90
       50
176
     1
 90
        3
176
     1
 62
     5
420
      255
176
     1
290
     0
176
     1
 90
       50
176
     1
 90
       50
176
     1
 90
       50
176
     1
290
     0
176
     1
 90
       50
176
     1
 62
   256
176
     0
 40
1.0
176
     0
 90
        2
176
     1
  1
strokes_ogs.tif
176
     1
290
     0
176
     1
 40
1.0
176
     1
 40
1.0
176
     1
  0
VISUALSTYLE
  5
5F8
102
{ACAD_REACTORS
330
5E7
102
}
330
5E7
100
AcDbVisualStyle
  2
JitterOff
 70
    20
177
     3
291
     1
 70
    58
 90
        2
176
     0
 90
        2
176
     0
 90
        0
176
     0
 90
        0
176
     0
 40
0.6
176
     0
 40
30.0
176
     0
 62
     7
420
 16777215
176
     0
 90
        1
176
     0
 90
        4
176
     0
 62
     7
176
     0
 62
   257
176
     0
 90
        1
176
     0
 90
        1
176
     0
 40
1.0
176
     0
 90
       10
176
     2
 62
     7
176
     0
 40
1.0
176
     0
 90
        1
176
     0
 90
        6
176
     0
 90
        2
176
     0
 62
     7
176
     0
 90
        5
176
     0
 90
        0
176
     0
 90
        0
176
     0
290
     0
176
     0
 90
        1
176
     0
 40
0.0
176
     0
 90
        0
176
     0
290
     0
176
     0
290
     1
176
     0
290
     1
176
     0
290
     0
176
     0
290
     0
176
     0
290
     0
176
     0
290
     0
176
     0
290
     0
176
     0
290
     0
176
     0
 90
       50
176
     0
 40
0.0
176
     0
 40
1.0
176
     0
 90
        0
176
     0
 62
   178
420
        0
176
     0
 90
       50
176
     0
 90
        3
176
     0
 62
     5
420
      255
176
     0
290
     0
176
     0
 90
       50
176
     0
 90
       50
176
     0
 90
       50
176
     0
290
     0
176
     0
 90
       50
176
     0
 62
   256
176
     0
 40
1.0
176
     0
 90
        2
176
     0
  1
strokes_ogs.tif
176
     0
290
     0
176
     0
 40
1.0
176
     0
 40
1.0
176
     0
  0
VISUALSTYLE
  5
5F5
102
{ACAD_REACTORS
330
5E7
102
}
330
5E7
100
AcDbVisualStyle
  2
Linepattern
 70
    14
177
     3
291
     1
 70
    58
 90
        2
176
     1
 90
        2
176
     1
 90
        0
176
     1
 90
        0
176
     1
 40
0.6
176
     1
 40
30.0
176
     1
 62
     7
420
 16777215
176
     1
 90
        1
176
     1
 90
        4
176
     1
 62
     7
176
     1
 62
   257
176
     1
 90
        7
176
     1
 90
        7
176
     1
 40
1.0
176
     1
 90
        8
176
     1
 62
     7
176
     1
 40
1.0
176
     1
 90
        1
176
     1
 90
        6
176
     1
 90
        2
176
     1
 62
     7
176
     1
 90
        5
176
     1
 90
        0
176
     1
 90
        0
176
     1
290
     0
176
     1
 90
        1
176
     1
 40
0.0
176
     1
 90
        0
176
     1
290
     0
176
     1
290
     1
176
     1
290
     1
176
     1
290
     0
176
     1
290
     0
176
     1
290
     0
176
     1
290
     0
176
     1
290
     0
176
     1
290
     0
176
     1
 90
       50
176
     1
 40
0.0
176
     1
 40
1.0
176
     1
 90
        0
176
     1
 62
   178
420
        0
176
     1
 90
       50
176
     1
 90
        3
176
     1
 62
     5
420
      255
176
     1
290
     0
176
     1
 90
       50
176
     1
 90
       50
176
     1
 90
       50
176
     1
290
     0
176
     1
 90
       50
176
     1
 62
   256
176
     0
 40
1.0
176
     0
 90
        2
176
     1
  1
strokes_ogs.tif
176
     1
290
     0
176
     1
 40
1.0
176
     1
 40
1.0
176
     1
  0
VISUALSTYLE
  5
5F9
102
{ACAD_REACTORS
330
5E7
102
}
330
5E7
100
AcDbVisualStyle
  2
OverhangOff
 70
    21
177
     3
291
     1
 70
    58
 90
        2
176
     0
 90
        2
176
     0
 90
        0
176
     0
 90
        0
176
     0
 40
0.6
176
     0
 40
30.0
176
     0
 62
     7
420
 16777215
176
     0
 90
        1
176
     0
 90
        4
176
     0
 62
     7
176
     0
 62
   257
176
     0
 90
        1
176
     0
 90
        1
176
     0
 40
1.0
176
     0
 90
        9
176
     2
 62
     7
176
     0
 40
1.0
176
     0
 90
        1
176
     0
 90
        6
176
     0
 90
        2
176
     0
 62
     7
176
     0
 90
        5
176
     0
 90
        0
176
     0
 90
        0
176
     0
290
     0
176
     0
 90
        1
176
     0
 40
0.0
176
     0
 90
        0
176
     0
290
     0
176
     0
290
     1
176
     0
290
     1
176
     0
290
     0
176
     0
290
     0
176
     0
290
     0
176
     0
290
     0
176
     0
290
     0
176
     0
290
     0
176
     0
 90
       50
176
     0
 40
0.0
176
     0
 40
1.0
176
     0
 90
        0
176
     0
 62
   178
420
        0
176
     0
 90
       50
176
     0
 90
        3
176
     0
 62
     5
420
      255
176
     0
290
     0
176
     0
 90
       50
176
     0
 90
       50
176
     0
 90
       50
176
     0
290
     0
176
     0
 90
       50
176
     0
 62
   256
176
     0
 40
1.0
176
     0
 90
        2
176
     0
  1
strokes_ogs.tif
176
     0
290
     0
176
     0
 40
1.0
176
     0
 40
1.0
176
     0
  0
VISUALSTYLE
  5
5F0
102
{ACAD_REACTORS
330
5E7
102
}
330
5E7
100
AcDbVisualStyle
  2
Realistic
 70
     8
177
     3
291
     0
 70
    58
 90
        2
176
     1
 90
        3
176
     1
 90
        0
176
     1
 90
        2
176
     1
 40
0.6
176
     1
 40
30.0
176
     1
 62
     7
420
 16777215
176
     1
 90
        0
176
     1
 90
        0
176
     1
 62
     7
176
     1
 62
   257
176
     1
 90
        1
176
     1
 90
        1
176
     1
 40
1.0
176
     1
 90
        8
176
     1
 62
   257
176
     1
 40
1.0
176
     1
 90
        1
176
     1
 90
        6
176
     1
 90
        2
176
     1
 62
     7
176
     1
 90
        3
176
     1
 90
        0
176
     1
 90
        0
176
     1
290
     0
176
     1
 90
       13
176
     1
 40
0.0
176
     1
 90
        0
176
     1
290
     0
176
     1
290
     1
176
     1
290
     1
176
     1
290
     0
176
     1
290
     0
176
     1
290
     0
176
     1
290
     0
176
     1
290
     0
176
     1
290
     0
176
     1
 90
       50
176
     1
 40
0.0
176
     1
 40
1.0
176
     1
 90
        0
176
     1
 62
   178
420
        0
176
     1
 90
       50
176
     1
 90
        3
176
     1
 62
     5
420
      255
176
     1
290
     0
176
     1
 90
       50
176
     1
 90
       50
176
     1
 90
       50
176
     1
290
     0
176
     1
 90
       50
176
     1
 62
   256
176
     0
 40
1.0
176
     0
 90
        2
176
     1
  1
strokes_ogs.tif
176
     1
290
     0
176
     1
 40
1.0
176
     1
 40
1.0
176
     1
  0
VISUALSTYLE
  5
5FF
102
{ACAD_REACTORS
330
5E7
102
}
330
5E7
100
AcDbVisualStyle
  2
Shaded
 70
    27
177
     3
291
     0
 70
    58
 90
        2
176
     1
 90
        2
176
     1
 90
        1
176
     1
 90
        2
176
     1
 40
0.6
176
     1
 40
30.0
176
     1
 62
     7
420
 16777215
176
     1
 90
        0
176
     1
 90
        4
176
     1
 62
     7
176
     1
 62
   257
176
     1
 90
        1
176
     1
 90
        1
176
     1
 40
1.0
176
     1
 90
        8
176
     1
 62
   257
176
     1
 40
1.0
176
     1
 90
        1
176
     1
 90
        6
176
     1
 90
        2
176
     1
 62
     8
420
  7895160
176
     1
 90
        3
176
     1
 90
        0
176
     1
 90
        0
176
     1
290
     0
176
     1
 90
        5
176
     1
 40
0.0
176
     1
 90
        0
176
     1
290
     0
176
     1
290
     1
176
     1
290
     1
176
     1
290
     0
176
     1
290
     0
176
     1
290
     0
176
     1
290
     0
176
     1
290
     0
176
     1
290
     0
176
     1
 90
       50
176
     1
 40
0.0
176
     1
 40
1.0
176
     1
 90
        0
176
     1
 62
   178
420
        0
176
     1
 90
       50
176
     1
 90
        3
176
     1
 62
     5
420
      255
176
     1
290
     0
176
     1
 90
       50
176
     1
 90
       50
176
     1
 90
       50
176
     1
290
     0
176
     1
 90
       50
176
     1
 62
   256
176
     0
 40
1.0
176
     0
 90
        2
176
     1
  1
strokes_ogs.tif
176
     1
290
     0
176
     1
 40
1.0
176
     1
 40
1.0
176
     1
  0
VISUALSTYLE
  5
5FE
102
{ACAD_REACTORS
330
5E7
102
}
330
5E7
100
AcDbVisualStyle
  2
Shaded with edges
 70
    26
177
     3
291
     0
 70
    58
 90
        2
176
     1
 90
        2
176
     1
 90
        1
176
     1
 90
        2
176
     1
 40
0.6
176
     1
 40
30.0
176
     1
 62
     7
420
 16777215
176
     1
 90
        1
176
     1
 90
       10
176
     1
 62
     7
176
     1
 62
   257
176
     1
 90
        2
176
     1
 90
        1
176
     1
 40
1.0
176
     1
 90
        8
176
     1
 62
   257
176
     1
 40
1.0
176
     1
 90
        1
176
     1
 90
        6
176
     1
 90
        2
176
     1
 62
     7
176
     1
 90
        3
176
     1
 90
        0
176
     1
 90
        0
176
     1
290
     0
176
     1
 90
        5
176
     1
 40
0.0
176
     1
 90
        0
176
     1
290
     0
176
     1
290
     1
176
     1
290
     1
176
     1
290
     0
176
     1
290
     0
176
     1
290
     0
176
     1
290
     0
176
     1
290
     0
176
     1
290
     0
176
     1
 90
       50
176
     1
 40
0.0
176
     1
 40
1.0
176
     1
 90
        0
176
     1
 62
   178
420
        0
176
     1
 90
       50
176
     1
 90
        3
176
     1
 62
     5
420
      255
176
     1
290
     0
176
     1
 90
       50
176
     1
 90
       50
176
     1
 90
       50
176
     1
290
     0
176
     1
 90
       50
176
     1
 62
   256
176
     0
 40
1.0
176
     0
 90
        2
176
     1
  1
strokes_ogs.tif
176
     1
290
     0
176
     1
 40
1.0
176
     1
 40
1.0
176
     1
  0
VISUALSTYLE
  5
5FB
102
{ACAD_REACTORS
330
5E7
102
}
330
5E7
100
AcDbVisualStyle
  2
Shades of Gray
 70
    23
177
     3
291
     0
 70
    58
 90
        2
176
     1
 90
        2
176
     1
 90
        3
176
     1
 90
        0
176
     1
 40
0.6
176
     1
 40
30.0
176
     1
 62
     7
420
 16777215
176
     1
 90
        2
176
     1
 90
        2
176
     1
 62
     7
176
     1
 62
     7
176
     1
 90
        1
176
     1
 90
        1
176
     1
 40
40.0
176
     1
 90
        8
176
     1
 62
     7
176
     1
 40
1.0
176
     1
 90
        1
176
     1
 90
        6
176
     1
 90
        2
176
     1
 62
     7
176
     1
 90
        3
176
     1
 90
        0
176
     1
 90
        0
176
     1
290
     0
176
     1
 90
        1
176
     1
 40
0.0
176
     1
 90
        0
176
     1
290
     0
176
     1
290
     1
176
     1
290
     1
176
     1
290
     0
176
     1
290
     0
176
     1
290
     0
176
     1
290
     0
176
     1
290
     0
176
     1
290
     0
176
     1
 90
       50
176
     1
 40
0.0
176
     1
 40
1.0
176
     1
 90
        0
176
     1
 62
   178
420
        0
176
     1
 90
       50
176
     1
 90
        3
176
     1
 62
     5
420
      255
176
     1
290
     0
176
     1
 90
       50
176
     1
 90
       50
176
     1
 90
       50
176
     1
290
     0
176
     1
 90
       50
176
     1
 62
   256
176
     0
 40
1.0
176
     0
 90
        2
176
     1
  1
strokes_ogs.tif
176
     1
290
     0
176
     1
 40
1.0
176
     1
 40
1.0
176
     1
  0
VISUALSTYLE
  5
5FC
102
{ACAD_REACTORS
330
5E7
102
}
330
5E7
100
AcDbVisualStyle
  2
Sketchy
 70
    24
177
     3
291
     0
 70
    58
 90
        1
176
     1
 90
        2
176
     1
 90
        2
176
     1
 90
        0
176
     1
 40
0.6
176
     1
 40
30.0
176
     1
 62
     7
420
 16777215
176
     1
 90
        2
176
     1
 90
        2
176
     1
 62
     7
176
     1
 62
     7
176
     1
 90
        1
176
     1
 90
        1
176
     1
 40
40.0
176
     1
 90
       11
176
     1
 62
     7
176
     1
 40
1.0
176
     1
 90
        1
176
     1
 90
        6
176
     1
 90
        2
176
     1
 62
     7
176
     1
 90
        6
176
     1
 90
        0
176
     1
 90
        0
176
     1
290
     0
176
     1
 90
        1
176
     1
 40
0.0
176
     1
 90
        0
176
     1
290
     0
176
     1
290
     1
176
     1
290
     1
176
     1
290
     0
176
     1
290
     0
176
     1
290
     0
176
     1
290
     0
176
     1
290
     0
176
     1
290
     0
176
     1
 90
       50
176
     1
 40
0.0
176
     1
 40
1.0
176
     1
 90
        0
176
     1
 62
   178
420
        0
176
     1
 90
       50
176
     1
 90
        3
176
     1
 62
     5
420
      255
176
     1
290
     0
176
     1
 90
       50
176
     1
 90
       50
176
     1
 90
       50
176
     1
290
     0
176
     1
 90
       50
176
     1
 62
   256
176
     0
 40
1.0
176
     0
 90
        2
176
     1
  1
strokes_ogs.tif
176
     1
290
     0
176
     1
 40
1.0
176
     1
 40
1.0
176
     1
  0
VISUALSTYLE
  5
5F4
102
{ACAD_REACTORS
330
5E7
102
}
330
5E7
100
AcDbVisualStyle
  2
Thicken
 70
    13
177
     3
291
     1
 70
    58
 90
        2
176
     1
 90
        2
176
     1
 90
        0
176
     1
 90
        0
176
     1
 40
0.6
176
     1
 40
30.0
176
     1
 62
     7
420
 16777215
176
     1
 90
        1
176
     1
 90
        4
176
     1
 62
     7
176
     1
 62
   257
176
     1
 90
        1
176
     1
 90
        1
176
     1
 40
1.0
176
     1
 90
       12
176
     1
 62
     7
176
     1
 40
1.0
176
     1
 90
        1
176
     1
 90
        6
176
     1
 90
        2
176
     1
 62
     7
176
     1
 90
        5
176
     1
 90
        0
176
     1
 90
        0
176
     1
290
     0
176
     1
 90
        1
176
     1
 40
0.0
176
     1
 90
        0
176
     1
290
     0
176
     1
290
     1
176
     1
290
     1
176
     1
290
     0
176
     1
290
     0
176
     1
290
     0
176
     1
290
     0
176
     1
290
     0
176
     1
290
     0
176
     1
 90
       50
176
     1
 40
0.0
176
     1
 40
1.0
176
     1
 90
        0
176
     1
 62
   178
420
        0
176
     1
 90
       50
176
     1
 90
        3
176
     1
 62
     5
420
      255
176
     1
290
     0
176
     1
 90
       50
176
     1
 90
       50
176
     1
 90
       50
176
     1
290
     0
176
     1
 90
       50
176
     1
 62
   256
176
     0
 40
1.0
176
     0
 90
        2
176
     1
  1
strokes_ogs.tif
176
     1
290
     0
176
     1
 40
1.0
176
     1
 40
1.0
176
     1
  0
VISUALSTYLE
  5
5ED
102
{ACAD_REACTORS
330
5E7
102
}
330
5E7
100
AcDbVisualStyle
  2
Wireframe
 70
     5
177
     3
291
     0
 70
    58
 90
        0
176
     1
 90
        2
176
     1
 90
        0
176
     1
 90
        0
176
     1
 40
0.6
176
     1
 40
30.0
176
     1
 62
     7
420
 16777215
176
     1
 90
        1
176
     1
 90
        4
176
     1
 62
     7
176
     1
 62
   257
176
     1
 90
        1
176
     1
 90
        1
176
     1
 40
1.0
176
     1
 90
        0
176
     1
 62
   257
176
     1
 40
1.0
176
     1
 90
        1
176
     1
 90
        6
176
     1
 90
        2
176
     1
 62
     7
176
     1
 90
        3
176
     1
 90
        0
176
     1
 90
        0
176
     1
290
     0
176
     1
 90
        1
176
     1
 40
0.0
176
     1
 90
        0
176
     1
290
     0
176
     1
290
     1
176
     1
290
     1
176
     1
290
     0
176
     1
290
     0
176
     1
290
     0
176
     1
290
     0
176
     1
290
     0
176
     1
290
     0
176
     1
 90
       50
176
     1
 40
0.0
176
     1
 40
1.0
176
     1
 90
        0
176
     1
 62
   178
420
        0
176
     1
 90
       50
176
     1
 90
        3
176
     1
 62
     5
420
      255
176
     1
290
     0
176
     1
 90
       50
176
     1
 90
       50
176
     1
 90
       50
176
     1
290
     0
176
     1
 90
       50
176
     1
 62
   256
176
     0
 40
1.0
176
     0
 90
        2
176
     1
  1
strokes_ogs.tif
176
     1
290
     0
176
     1
 40
1.0
176
     1
 40
1.0
176
     1
  0
VISUALSTYLE
  5
5FD
102
{ACAD_REACTORS
330
5E7
102
}
330
5E7
100
AcDbVisualStyle
  2
X-Ray
 70
    25
177
     3
291
     0
 70
    58
 90
        2
176
     1
 90
        2
176
     1
 90
        1
176
     1
 90
        1
176
     1
 40
0.5
176
     1
 40
30.0
176
     1
 62
     7
420
 16777215
176
     1
 90
        1
176
     1
 90
        0
176
     1
 62
     7
176
     1
 62
   257
176
     1
 90
        1
176
     1
 90
        1
176
     1
 40
1.0
176
     1
 90
        8
176
     1
 62
     7
176
     1
 40
1.0
176
     1
 90
        1
176
     1
 90
        6
176
     1
 90
        2
176
     1
 62
     7
176
     1
 90
        3
176
     1
 90
        0
176
     1
 90
        0
176
     1
290
     0
176
     1
 90
       13
176
     1
 40
0.0
176
     1
 90
        0
176
     1
290
     0
176
     1
290
     1
176
     1
290
     1
176
     1
290
     0
176
     1
290
     0
176
     1
290
     0
176
     1
290
     0
176
     1
290
     0
176
     1
290
     0
176
     1
 90
       50
176
     1
 40
0.0
176
     1
 40
1.0
176
     1
 90
        0
176
     1
 62
   178
420
        0
176
     1
 90
       50
176
     1
 90
        3
176
     1
 62
     5
420
      255
176
     1
290
     0
176
     1
 90
       50
176
     1
 90
       50
176
     1
 90
       50
176
     1
290
     0
176
     1
 90
       50
176
     1
 62
   256
176
     0
 40
1.0
176
     0
 90
        2
176
     1
  1
strokes_ogs.tif
176
     1
290
     0
176
     1
 40
1.0
176
     1
 40
1.0
176
     1
  0
DICTIONARYVAR
  5
6B6
102
{ACAD_REACTORS
330
6B5
102
}
330
6B5
100
DictionaryVariables
280
     0
  1
1:1
  0
DICTIONARYVAR
  5
6BB
102
{ACAD_REACTORS
330
6B5
102
}
330
6B5
100
DictionaryVariables
280
     0
  1
Standard
  0
DICTIONARYVAR
  5
6BA
102
{ACAD_REACTORS
330
6B5
102
}
330
6B5
100
DictionaryVariables
280
     0
  1
Standard
  0
XRECORD
  5
62E
102
{ACAD_REACTORS
330
62C
102
}
330
62C
100
AcDbXrecord
280
     1
290
     0
  0
XRECORD
  5
62F
102
{ACAD_REACTORS
330
62C
102
}
330
62C
100
AcDbXrecord
280
     1
1000
0.1
  0
XRECORD
  5
630
102
{ACAD_REACTORS
330
62C
102
}
330
62C
100
AcDbXrecord
280
     1
1000
64
  0
XRECORD
  5
631
102
{ACAD_REACTORS
330
62C
102
}
330
62C
100
AcDbXrecord
280
     1
1000
0
  0
XRECORD
  5
632
102
{ACAD_REACTORS
330
62C
102
}
330
62C
100
AcDbXrecord
280
     1
1000
0
  0
XRECORD
  5
633
102
{ACAD_REACTORS
330
62C
102
}
330
62C
100
AcDbXrecord
280
     1
1000

  0
XRECORD
  5
634
102
{ACAD_REACTORS
330
62C
102
}
330
62C
100
AcDbXrecord
280
     1
1000
0.01
  0
XRECORD
  5
635
102
{ACAD_REACTORS
330
62C
102
}
330
62C
100
AcDbXrecord
280
     1
1000
0.0005
  0
XRECORD
  5
636
102
{ACAD_REACTORS
330
62C
102
}
330
62C
100
AcDbXrecord
280
     1
1000
10
  0
XRECORD
  5
637
102
{ACAD_REACTORS
330
62C
102
}
330
62C
100
AcDbXrecord
280
     1
1000
GCodeMM
  0
XRECORD
  5
638
102
{ACAD_REACTORS
330
62C
102
}
330
62C
100
AcDbXrecord
280
     1
1000
text_engraving.nc
  0
XRECORD
  5
639
102
{ACAD_REACTORS
330
62C
102
}
330
62C
100
AcDbXrecord
280
     1
1000
#ffffff
  0
XRECORD
  5
63A
102
{ACAD_REACTORS
330
62C
102
}
330
62C
100
AcDbXrecord
280
     1
1000
FullColor
  0
XRECORD
  5
63B
102
{ACAD_REACTORS
330
62C
102
}
330
62C
100
AcDbXrecord
280
     1
290
     1
  0
XRECORD
  5
63C
102
{ACAD_REACTORS
330
62C
102
}
330
62C
100
AcDbXrecord
280
     1
290
     1
  0
XRECORD
  5
63D
102
{ACAD_REACTORS
330
62C
102
}
330
62C
100
AcDbXrecord
280
     1
290
     1
  0
XRECORD
  5
63E
102
{ACAD_REACTORS
330
62C
102
}
330
62C
100
AcDbXrecord
280
     1
290
     1
  0
XRECORD
  5
63F
102
{ACAD_REACTORS
330
62C
102
}
330
62C
100
AcDbXrecord
280
     1
1000
auto
  0
XRECORD
  5
640
102
{ACAD_REACTORS
330
62C
102
}
330
62C
100
AcDbXrecord
280
     1
1000
auto
  0
XRECORD
  5
641
102
{ACAD_REACTORS
330
62C
102
}
330
62C
100
AcDbXrecord
280
     1
1000
auto
  0
XRECORD
  5
642
102
{ACAD_REACTORS
330
62C
102
}
330
62C
100
AcDbXrecord
280
     1
1000
auto
  0
XRECORD
  5
643
102
{ACAD_REACTORS
330
62C
102
}
330
62C
100
AcDbXrecord
280
     1
1000
auto
  0
XRECORD
  5
644
102
{ACAD_REACTORS
330
62C
102
}
330
62C
100
AcDbXrecord
280
     1
1000
auto
  0
XRECORD
  5
645
102
{ACAD_REACTORS
330
62C
102
}
330
62C
100
AcDbXrecord
280
     1
1000
auto
  0
XRECORD
  5
646
102
{ACAD_REACTORS
330
62C
102
}
330
62C
100
AcDbXrecord
280
     1
1000
auto
  0
XRECORD
  5
647
102
{ACAD_REACTORS
330
62C
102
}
330
62C
100
AcDbXrecord
280
     1
290
     0
  0
XRECORD
  5
648
102
{ACAD_REACTORS
330
62C
102
}
330
62C
100
AcDbXrecord
280
     1
290
     0
  0
XRECORD
  5
649
102
{ACAD_REACTORS
330
62C
102
}
330
62C
100
AcDbXrecord
280
     1
290
     0
  0
XRECORD
  5
64A
102
{ACAD_REACTORS
330
62C
102
}
330
62C
100
AcDbXrecord
280
     1
290
     0
  0
XRECORD
  5
64B
102
{ACAD_REACTORS
330
62C
102
}
330
62C
100
AcDbXrecord
280
     1
 90
     4097
  0
XRECORD
  5
64C
102
{ACAD_REACTORS
330
62C
102
}
330
62C
100
AcDbXrecord
280
     1
 90
     4097
  0
XRECORD
  5
64D
102
{ACAD_REACTORS
330
62C
102
}
330
62C
100
AcDbXrecord
280
     1
 90
     4097
  0
XRECORD
  5
64E
102
{ACAD_REACTORS
330
62C
102
}
330
62C
100
AcDbXrecord
280
     1
 90
     4097
  0
XRECORD
  5
64F
102
{ACAD_REACTORS
330
62C
102
}
330
62C
100
AcDbXrecord
280
     1
1000
auto
  0
XRECORD
  5
650
102
{ACAD_REACTORS
330
62C
102
}
330
62C
100
AcDbXrecord
280
     1
1000
auto
  0
XRECORD
  5
651
102
{ACAD_REACTORS
330
62C
102
}
330
62C
100
AcDbXrecord
280
     1
1000
auto
  0
XRECORD
  5
652
102
{ACAD_REACTORS
330
62C
102
}
330
62C
100
AcDbXrecord
280
     1
1000
auto
  0
XRECORD
  5
653
102
{ACAD_REACTORS
330
62C
102
}
330
62C
100
AcDbXrecord
280
     1
1000
auto
  0
XRECORD
  5
654
102
{ACAD_REACTORS
330
62C
102
}
330
62C
100
AcDbXrecord
280
     1
1000
auto
  0
XRECORD
  5
655
102
{ACAD_REACTORS
330
62C
102
}
330
62C
100
AcDbXrecord
280
     1
1000
auto
  0
XRECORD
  5
656
102
{ACAD_REACTORS
330
62C
102
}
330
62C
100
AcDbXrecord
280
     1
1000
auto
  0
XRECORD
  5
657
102
{ACAD_REACTORS
330
62C
102
}
330
62C
100
AcDbXrecord
280
     1
 90
        1
  0
XRECORD
  5
658
102
{ACAD_REACTORS
330
62C
102
}
330
62C
100
AcDbXrecord
280
     1
 40
10.0
  0
XRECORD
  5
659
102
{ACAD_REACTORS
330
62C
102
}
330
62C
100
AcDbXrecord
280
     1
 40
10.0
  0
XRECORD
  5
65A
102
{ACAD_REACTORS
330
62C
102
}
330
62C
100
AcDbXrecord
280
     1
 40
10.0
  0
XRECORD
  5
65B
102
{ACAD_REACTORS
330
62C
102
}
330
62C
100
AcDbXrecord
280
     1
 40
10.0
  0
XRECORD
  5
65C
102
{ACAD_REACTORS
330
62C
102
}
330
62C
100
AcDbXrecord
280
     1
290
     0
  0
XRECORD
  5
65D
102
{ACAD_REACTORS
330
62C
102
}
330
62C
100
AcDbXrecord
280
     1
 90
        1
  0
XRECORD
  5
65E
102
{ACAD_REACTORS
330
62C
102
}
330
62C
100
AcDbXrecord
280
     1
 40
0.0
  0
XRECORD
  5
65F
102
{ACAD_REACTORS
330
62C
102
}
330
62C
100
AcDbXrecord
280
     1
 40
0.0
  0
XRECORD
  5
660
102
{ACAD_REACTORS
330
62C
102
}
330
62C
100
AcDbXrecord
280
     1
1000
Portrait
  0
XRECORD
  5
661
102
{ACAD_REACTORS
330
62C
102
}
330
62C
100
AcDbXrecord
280
     1
 40
297.0
  0
XRECORD
  5
662
102
{ACAD_REACTORS
330
62C
102
}
330
62C
100
AcDbXrecord
280
     1
 40
210.0
  0
XRECORD
  5
663
102
{ACAD_REACTORS
330
62C
102
}
330
62C
100
AcDbXrecord
280
     1
1000
1:1
  0
XRECORD
  5
664
102
{ACAD_REACTORS
330
62C
102
}
330
62C
100
AcDbXrecord
280
     1
290
     1
  0
XRECORD
  5
665
102
{ACAD_REACTORS
330
62C
102
}
330
62C
100
AcDbXrecord
280
     1
1000
3.17.0
  0
XRECORD
  5
666
102
{ACAD_REACTORS
330
62C
102
}
330
62C
100
AcDbXrecord
280
     1
 90
        4
  0
XRECORD
  5
667
102
{ACAD_REACTORS
330
62C
102
}
330
62C
100
AcDbXrecord
280
     1
  0
XRECORD
  5
668
102
{ACAD_REACTORS
330
62C
102
}
330
62C
100
AcDbXrecord
280
     1
 40
56.53908442749022
  0
XRECORD
  5
669
102
{ACAD_REACTORS
330
62C
102
}
330
62C
100
AcDbXrecord
280
     1
 40
77.79025208331527
  0
DICTIONARY
  5
6B7
330
627
100
AcDbDictionary
280
     1
281
     1
  3
ACAD_ROUNDTRIP_2008_TABLESTYLE_CELLSTYLEMAP
360
6B8
  0
CELLSTYLEMAP
  5
6B8
102
{ACAD_REACTORS
330
6B7
102
}
330
6B7
100
AcDbCellStyleMap
 90
        3
300
CELLSTYLE
  1
TABLEFORMAT_BEGIN
 90
        5
170
     1
 91
        0
 92
    32768
 62
   257
 93
        1
300
CONTENTFORMAT
  1
CONTENTFORMAT_BEGIN
 90
        0
 91
        0
 92
        4
 93
        0
300

 40
0.0
140
1.0
 94
        5
 62
     0
340
5CF
144
0.25
309
CONTENTFORMAT_END
171
     1
301
MARGIN
  1
CELLMARGIN_BEGIN
 40
0.06
 40
0.06
 40
0.06
 40
0.06
 40
0.06
 40
0.06
309
CELLMARGIN_END
 94
        6
 95
        1
302
GRIDFORMAT
  1
GRIDFORMAT_BEGIN
 90
        0
 91
        1
 62
     0
 92
       -2
340
5D1
 93
        0
 40
0.045
309
GRIDFORMAT_END
 95
        2
302
GRIDFORMAT
  1
GRIDFORMAT_BEGIN
 90
        0
 91
        1
 62
     0
 92
       -2
340
5D1
 93
        0
 40
0.045
309
GRIDFORMAT_END
 95
        4
302
GRIDFORMAT
  1
GRIDFORMAT_BEGIN
 90
        0
 91
        1
 62
     0
 92
       -2
340
5D1
 93
        0
 40
0.045
309
GRIDFORMAT_END
 95
        8
302
GRIDFORMAT
  1
GRIDFORMAT_BEGIN
 90
        0
 91
        1
 62
     0
 92
       -2
340
5D1
 93
        0
 40
0.045
309
GRIDFORMAT_END
 95
       16
302
GRIDFORMAT
  1
GRIDFORMAT_BEGIN
 90
        0
 91
        1
 62
     0
 92
       -2
340
5D1
 93
        0
 40
0.045
309
GRIDFORMAT_END
 95
       32
302
GRIDFORMAT
  1
GRIDFORMAT_BEGIN
 90
        0
 91
        1
 62
     0
 92
       -2
340
5D1
 93
        0
 40
0.045
309
GRIDFORMAT_END
309
TABLEFORMAT_END
  1
CELLSTYLE_BEGIN
 90
        1
 91
        1
300
_TITLE
309
CELLSTYLE_END
300
CELLSTYLE
  1
TABLEFORMAT_BEGIN
 90
        5
170
     1
 91
        0
 92
        0
 62
   257
 93
        1
300
CONTENTFORMAT
  1
CONTENTFORMAT_BEGIN
 90
        0
 91
        0
 92
        4
 93
        0
300

 40
0.0
140
1.0
 94
        5
 62
     0
340
5CF
144
0.18
309
CONTENTFORMAT_END
171
     1
301
MARGIN
  1
CELLMARGIN_BEGIN
 40
0.06
 40
0.06
 40
0.06
 40
0.06
 40
0.06
 40
0.06
309
CELLMARGIN_END
 94
        6
 95
        1
302
GRIDFORMAT
  1
GRIDFORMAT_BEGIN
 90
        0
 91
        1
 62
     0
 92
       -2
340
5D1
 93
        0
 40
0.045
309
GRIDFORMAT_END
 95
        2
302
GRIDFORMAT
  1
GRIDFORMAT_BEGIN
 90
        0
 91
        1
 62
     0
 92
       -2
340
5D1
 93
        0
 40
0.045
309
GRIDFORMAT_END
 95
        4
302
GRIDFORMAT
  1
GRIDFORMAT_BEGIN
 90
        0
 91
        1
 62
     0
 92
       -2
340
5D1
 93
        0
 40
0.045
309
GRIDFORMAT_END
 95
        8
302
GRIDFORMAT
  1
GRIDFORMAT_BEGIN
 90
        0
 91
        1
 62
     0
 92
       -2
340
5D1
 93
        0
 40
0.045
309
GRIDFORMAT_END
 95
       16
302
GRIDFORMAT
  1
GRIDFORMAT_BEGIN
 90
        0
 91
        1
 62
     0
 92
       -2
340
5D1
 93
        0
 40
0.045
309
GRIDFORMAT_END
 95
       32
302
GRIDFORMAT
  1
GRIDFORMAT_BEGIN
 90
        0
 91
        1
 62
     0
 92
       -2
340
5D1
 93
        0
 40
0.045
309
GRIDFORMAT_END
309
TABLEFORMAT_END
  1
CELLSTYLE_BEGIN
 90
        2
 91
        1
300
_HEADER
309
CELLSTYLE_END
300
CELLSTYLE
  1
TABLEFORMAT_BEGIN
 90
        5
170
     1
 91
        0
 92
        0
 62
   257
 93
        1
300
CONTENTFORMAT
  1
CONTENTFORMAT_BEGIN
 90
        0
 91
        0
 92
        4
 93
        0
300

 40
0.0
140
1.0
 94
        2
 62
     0
340
5CF
144
0.18
309
CONTENTFORMAT_END
171
     1
301
MARGIN
  1
CELLMARGIN_BEGIN
 40
0.06
 40
0.06
 40
0.06
 40
0.06
 40
0.06
 40
0.06
309
CELLMARGIN_END
 94
        6
 95
        1
302
GRIDFORMAT
  1
GRIDFORMAT_BEGIN
 90
        0
 91
        1
 62
     0
 92
       -2
340
5D1
 93
        0
 40
0.045
309
GRIDFORMAT_END
 95
        2
302
GRIDFORMAT
  1
GRIDFORMAT_BEGIN
 90
        0
 91
        1
 62
     0
 92
       -2
340
5D1
 93
        0
 40
0.045
309
GRIDFORMAT_END
 95
        4
302
GRIDFORMAT
  1
GRIDFORMAT_BEGIN
 90
        0
 91
        1
 62
     0
 92
       -2
340
5D1
 93
        0
 40
0.045
309
GRIDFORMAT_END
 95
        8
302
GRIDFORMAT
  1
GRIDFORMAT_BEGIN
 90
        0
 91
        1
 62
     0
 92
       -2
340
5D1
 93
        0
 40
0.045
309
GRIDFORMAT_END
 95
       16
302
GRIDFORMAT
  1
GRIDFORMAT_BEGIN
 90
        0
 91
        1
 62
     0
 92
       -2
340
5D1
 93
        0
 40
0.045
309
GRIDFORMAT_END
 95
       32
302
GRIDFORMAT
  1
GRIDFORMAT_BEGIN
 90
        0
 91
        1
 62
     0
 92
       -2
340
5D1
 93
        0
 40
0.045
309
GRIDFORMAT_END
309
TABLEFORMAT_END
  1
CELLSTYLE_BEGIN
 90
        3
 91
        2
300
_DATA
309
CELLSTYLE_END
  0
ENDSEC
  0
EOF
